  0
SECTION
  2
HEADER
  9
$ACADVER
  1
AC1009
  9
$EXTMIN
 10
0.0
 20
0.0
 30
0.0
  9
$EXTMAX
 10
1000.0
 20
1000.0
 30
0.0
  9
$FILLMODE
 70
 0
  9
$SPLFRAME
 70
 1
  0
ENDSEC
  0
SECTION
  2
TABLES
  0
TABLE
  2
LAYER
 70
1
  0
LAYER
  2
0
 70
     0
 62
     7
  6
CONTINUOUS
  0
ENDTAB
  0
ENDSEC
  0
SECTION
  2
ENTITIES
  0
POLYLINE
  8
0
 62
     0
 66
     1
 10
0
 20
0
 30
0.0
 70
     1
 40
0
 41
0
  0
VERTEX
  8
0
 10
0
 20
0.541342
 30
0.0
 40
0
 41
0
  0
VERTEX
  8
0
 10
0
 20
-5.42535e-05
 30
0.0
 40
0
 41
0
  0
VERTEX
  8
0
 10
0.182997
 20
-5.42535e-05
 30
0.0
 40
0
 41
0
  0
VERTEX
  8
0
 10
0.182997
 20
0.135091
 30
0.0
 40
0
 41
0
  0
VERTEX
  8
0
 10
0.0815972
 20
0.135091
 30
0.0
 40
0
 41
0
  0
VERTEX
  8
0
 10
0.0815972
 20
0.23649
 30
0.0
 40
0
 41
0
  0
VERTEX
  8
0
 10
0.182997
 20
0.23649
 30
0.0
 40
0
 41
0
  0
VERTEX
  8
0
 10
0.182997
 20
0.304525
 30
0.0
 40
0
 41
0
  0
VERTEX
  8
0
 10
0.0815972
 20
0.304525
 30
0.0
 40
0
 41
0
  0
VERTEX
  8
0
 10
0.0815972
 20
0.405925
 30
0.0
 40
0
 41
0
  0
VERTEX
  8
0
 10
0.182997
 20
0.405925
 30
0.0
 40
0
 41
0
  0
VERTEX
  8
0
 10
0.182997
 20
0.541342
 30
0.0
 40
0
 41
0
  0
VERTEX
  8
0
 10
0
 20
0.541342
 30
0.0
 40
0
 41
0
  0
SEQEND
 8
0
  0
POLYLINE
  8
0
 62
     0
 66
     1
 10
0
 20
0
 30
0.0
 70
     1
 40
0
 41
0
  0
VERTEX
  8
0
 10
0.182997
 20
0.541342
 30
0.0
 40
0
 41
0
  0
VERTEX
  8
0
 10
0.182997
 20
0.405925
 30
0.0
 40
0
 41
0
  0
VERTEX
  8
0
 10
0.223633
 20
0.405925
 30
0.0
 40
0
 41
0
  0
VERTEX
  8
0
 10
0.229872
 20
0.405599
 30
0.0
 40
0
 41
0
  0
VERTEX
  8
0
 10
0.235786
 20
0.404893
 30
0.0
 40
0
 41
0
  0
VERTEX
  8
0
 10
0.241319
 20
0.403483
 30
0.0
 40
0
 41
0
  0
VERTEX
  8
0
 10
0.246853
 20
0.401747
 30
0.0
 40
0
 41
0
  0
VERTEX
  8
0
 10
0.252442
 20
0.399685
 30
0.0
 40
0
 41
0
  0
VERTEX
  8
0
 10
0.25765
 20
0.396918
 30
0.0
 40
0
 41
0
  0
VERTEX
  8
0
 10
0.262153
 20
0.394043
 30
0.0
 40
0
 41
0
  0
VERTEX
  8
0
 10
0.266656
 20
0.390571
 30
0.0
 40
0
 41
0
  0
VERTEX
  8
0
 10
0.270508
 20
0.387099
 30
0.0
 40
0
 41
0
  0
VERTEX
  8
0
 10
0.273981
 20
0.383356
 30
0.0
 40
0
 41
0
  0
VERTEX
  8
0
 10
0.277072
 20
0.378851
 30
0.0
 40
0
 41
0
  0
VERTEX
  8
0
 10
0.279839
 20
0.374349
 30
0.0
 40
0
 41
0
  0
VERTEX
  8
0
 10
0.281956
 20
0.369737
 30
0.0
 40
0
 41
0
  0
VERTEX
  8
0
 10
0.283311
 20
0.364963
 30
0.0
 40
0
 41
0
  0
VERTEX
  8
0
 10
0.284397
 20
0.360081
 30
0.0
 40
0
 41
0
  0
VERTEX
  8
0
 10
0.284722
 20
0.354872
 30
0.0
 40
0
 41
0
  0
VERTEX
  8
0
 10
0.284397
 20
0.349664
 30
0.0
 40
0
 41
0
  0
VERTEX
  8
0
 10
0.283311
 20
0.344456
 30
0.0
 40
0
 41
0
  0
VERTEX
  8
0
 10
0.281956
 20
0.339953
 30
0.0
 40
0
 41
0
  0
VERTEX
  8
0
 10
0.279839
 20
0.335015
 30
0.0
 40
0
 41
0
  0
VERTEX
  8
0
 10
0.277072
 20
0.330946
 30
0.0
 40
0
 41
0
  0
VERTEX
  8
0
 10
0.273981
 20
0.326768
 30
0.0
 40
0
 41
0
  0
VERTEX
  8
0
 10
0.270508
 20
0.322862
 30
0.0
 40
0
 41
0
  0
VERTEX
  8
0
 10
0.266656
 20
0.319119
 30
0.0
 40
0
 41
0
  0
VERTEX
  8
0
 10
0.262153
 20
0.315918
 30
0.0
 40
0
 41
0
  0
VERTEX
  8
0
 10
0.25765
 20
0.313206
 30
0.0
 40
0
 41
0
  0
VERTEX
  8
0
 10
0.252442
 20
0.310439
 30
0.0
 40
0
 41
0
  0
VERTEX
  8
0
 10
0.246853
 20
0.308376
 30
0.0
 40
0
 41
0
  0
VERTEX
  8
0
 10
0.241319
 20
0.30664
 30
0.0
 40
0
 41
0
  0
VERTEX
  8
0
 10
0.235786
 20
0.305501
 30
0.0
 40
0
 41
0
  0
VERTEX
  8
0
 10
0.229872
 20
0.304904
 30
0.0
 40
0
 41
0
  0
VERTEX
  8
0
 10
0.223633
 20
0.304525
 30
0.0
 40
0
 41
0
  0
VERTEX
  8
0
 10
0.182997
 20
0.304525
 30
0.0
 40
0
 41
0
  0
VERTEX
  8
0
 10
0.182997
 20
0.23649
 30
0.0
 40
0
 41
0
  0
VERTEX
  8
0
 10
0.223633
 20
0.23649
 30
0.0
 40
0
 41
0
  0
VERTEX
  8
0
 10
0.229872
 20
0.23649
 30
0.0
 40
0
 41
0
  0
VERTEX
  8
0
 10
0.235786
 20
0.23546
 30
0.0
 40
0
 41
0
  0
VERTEX
  8
0
 10
0.241319
 20
0.234321
 30
0.0
 40
0
 41
0
  0
VERTEX
  8
0
 10
0.246853
 20
0.232314
 30
0.0
 40
0
 41
0
  0
VERTEX
  8
0
 10
0.252442
 20
0.230251
 30
0.0
 40
0
 41
0
  0
VERTEX
  8
0
 10
0.25765
 20
0.22781
 30
0.0
 40
0
 41
0
  0
VERTEX
  8
0
 10
0.262153
 20
0.224664
 30
0.0
 40
0
 41
0
  0
VERTEX
  8
0
 10
0.266656
 20
0.221571
 30
0.0
 40
0
 41
0
  0
VERTEX
  8
0
 10
0.270508
 20
0.218099
 30
0.0
 40
0
 41
0
  0
VERTEX
  8
0
 10
0.273981
 20
0.214247
 30
0.0
 40
0
 41
0
  0
VERTEX
  8
0
 10
0.277072
 20
0.210015
 30
0.0
 40
0
 41
0
  0
VERTEX
  8
0
 10
0.279839
 20
0.205567
 30
0.0
 40
0
 41
0
  0
VERTEX
  8
0
 10
0.281956
 20
0.201064
 30
0.0
 40
0
 41
0
  0
VERTEX
  8
0
 10
0.283311
 20
0.196126
 30
0.0
 40
0
 41
0
  0
VERTEX
  8
0
 10
0.284397
 20
0.191351
 30
0.0
 40
0
 41
0
  0
VERTEX
  8
0
 10
0.284722
 20
0.186469
 30
0.0
 40
0
 41
0
  0
VERTEX
  8
0
 10
0.284397
 20
0.181261
 30
0.0
 40
0
 41
0
  0
VERTEX
  8
0
 10
0.283311
 20
0.176053
 30
0.0
 40
0
 41
0
  0
VERTEX
  8
0
 10
0.281956
 20
0.171224
 30
0.0
 40
0
 41
0
  0
VERTEX
  8
0
 10
0.279839
 20
0.166342
 30
0.0
 40
0
 41
0
  0
VERTEX
  8
0
 10
0.277072
 20
0.161837
 30
0.0
 40
0
 41
0
  0
VERTEX
  8
0
 10
0.273981
 20
0.157661
 30
0.0
 40
0
 41
0
  0
VERTEX
  8
0
 10
0.270508
 20
0.153863
 30
0.0
 40
0
 41
0
  0
VERTEX
  8
0
 10
0.266656
 20
0.150011
 30
0.0
 40
0
 41
0
  0
VERTEX
  8
0
 10
0.262153
 20
0.146918
 30
0.0
 40
0
 41
0
  0
VERTEX
  8
0
 10
0.25765
 20
0.144043
 30
0.0
 40
0
 41
0
  0
VERTEX
  8
0
 10
0.252442
 20
0.141331
 30
0.0
 40
0
 41
0
  0
VERTEX
  8
0
 10
0.246853
 20
0.139268
 30
0.0
 40
0
 41
0
  0
VERTEX
  8
0
 10
0.241319
 20
0.137533
 30
0.0
 40
0
 41
0
  0
VERTEX
  8
0
 10
0.235786
 20
0.136122
 30
0.0
 40
0
 41
0
  0
VERTEX
  8
0
 10
0.229872
 20
0.135091
 30
0.0
 40
0
 41
0
  0
VERTEX
  8
0
 10
0.223633
 20
0.135091
 30
0.0
 40
0
 41
0
  0
VERTEX
  8
0
 10
0.182997
 20
0.135091
 30
0.0
 40
0
 41
0
  0
VERTEX
  8
0
 10
0.182997
 20
-5.42535e-05
 30
0.0
 40
0
 41
0
  0
VERTEX
  8
0
 10
0.244086
 20
-5.42535e-05
 30
0.0
 40
0
 41
0
  0
VERTEX
  8
0
 10
0.276367
 20
0.0024414
 30
0.0
 40
0
 41
0
  0
VERTEX
  8
0
 10
0.306261
 20
0.00976563
 30
0.0
 40
0
 41
0
  0
VERTEX
  8
0
 10
0.333658
 20
0.0222439
 30
0.0
 40
0
 41
0
  0
VERTEX
  8
0
 10
0.358344
 20
0.0398762
 30
0.0
 40
0
 41
0
  0
VERTEX
  8
0
 10
0.379503
 20
0.0607096
 30
0.0
 40
0
 41
0
  0
VERTEX
  8
0
 10
0.394422
 20
0.0837131
 30
0.0
 40
0
 41
0
  0
VERTEX
  8
0
 10
0.403103
 20
0.108344
 30
0.0
 40
0
 41
0
  0
VERTEX
  8
0
 10
0.40625
 20
0.135091
 30
0.0
 40
0
 41
0
  0
VERTEX
  8
0
 10
0.405925
 20
0.146539
 30
0.0
 40
0
 41
0
  0
VERTEX
  8
0
 10
0.404514
 20
0.157932
 30
0.0
 40
0
 41
0
  0
VERTEX
  8
0
 10
0.402072
 20
0.169108
 30
0.0
 40
0
 41
0
  0
VERTEX
  8
0
 10
0.3986
 20
0.179904
 30
0.0
 40
0
 41
0
  0
VERTEX
  8
0
 10
0.394422
 20
0.190321
 30
0.0
 40
0
 41
0
  0
VERTEX
  8
0
 10
0.389594
 20
0.200358
 30
0.0
 40
0
 41
0
  0
VERTEX
  8
0
 10
0.383681
 20
0.210015
 30
0.0
 40
0
 41
0
  0
VERTEX
  8
0
 10
0.376736
 20
0.219129
 30
0.0
 40
0
 41
0
  0
VERTEX
  8
0
 10
0.369467
 20
0.22781
 30
0.0
 40
0
 41
0
  0
VERTEX
  8
0
 10
0.360786
 20
0.235786
 30
0.0
 40
0
 41
0
  0
VERTEX
  8
0
 10
0.3514
 20
0.243435
 30
0.0
 40
0
 41
0
  0
VERTEX
  8
0
 10
0.341308
 20
0.250379
 30
0.0
 40
0
 41
0
  0
VERTEX
  8
0
 10
0.330567
 20
0.256619
 30
0.0
 40
0
 41
0
  0
VERTEX
  8
0
 10
0.319119
 20
0.261828
 30
0.0
 40
0
 41
0
  0
VERTEX
  8
0
 10
0.306967
 20
0.26671
 30
0.0
 40
0
 41
0
  0
VERTEX
  8
0
 10
0.294108
 20
0.270508
 30
0.0
 40
0
 41
0
  0
VERTEX
  8
0
 10
0.306586
 20
0.273981
 30
0.0
 40
0
 41
0
  0
VERTEX
  8
0
 10
0.318414
 20
0.278483
 30
0.0
 40
0
 41
0
  0
VERTEX
  8
0
 10
0.329156
 20
0.283692
 30
0.0
 40
0
 41
0
  0
VERTEX
  8
0
 10
0.339572
 20
0.289606
 30
0.0
 40
0
 41
0
  0
VERTEX
  8
0
 10
0.348958
 20
0.296224
 30
0.0
 40
0
 41
0
  0
VERTEX
  8
0
 10
0.357964
 20
0.303494
 30
0.0
 40
0
 41
0
  0
VERTEX
  8
0
 10
0.366644
 20
0.311469
 30
0.0
 40
0
 41
0
  0
VERTEX
  8
0
 10
0.374675
 20
0.32015
 30
0.0
 40
0
 41
0
  0
VERTEX
  8
0
 10
0.388564
 20
0.338217
 30
0.0
 40
0
 41
0
  0
VERTEX
  8
0
 10
0.398275
 20
0.357314
 30
0.0
 40
0
 41
0
  0
VERTEX
  8
0
 10
0.404189
 20
0.377821
 30
0.0
 40
0
 41
0
  0
VERTEX
  8
0
 10
0.40625
 20
0.398981
 30
0.0
 40
0
 41
0
  0
VERTEX
  8
0
 10
0.40625
 20
0.405925
 30
0.0
 40
0
 41
0
  0
VERTEX
  8
0
 10
0.403103
 20
0.432237
 30
0.0
 40
0
 41
0
  0
VERTEX
  8
0
 10
0.394422
 20
0.457303
 30
0.0
 40
0
 41
0
  0
VERTEX
  8
0
 10
0.379503
 20
0.479872
 30
0.0
 40
0
 41
0
  0
VERTEX
  8
0
 10
0.358344
 20
0.501085
 30
0.0
 40
0
 41
0
  0
VERTEX
  8
0
 10
0.333008
 20
0.518772
 30
0.0
 40
0
 41
0
  0
VERTEX
  8
0
 10
0.305556
 20
0.531196
 30
0.0
 40
0
 41
0
  0
VERTEX
  8
0
 10
0.276042
 20
0.5389
 30
0.0
 40
0
 41
0
  0
VERTEX
  8
0
 10
0.244086
 20
0.541342
 30
0.0
 40
0
 41
0
  0
VERTEX
  8
0
 10
0.182997
 20
0.541342
 30
0.0
 40
0
 41
0
  0
SEQEND
 8
0
  0
POLYLINE
  8
0
 62
     0
 66
     1
 10
0
 20
0
 30
0.0
 70
     1
 40
0
 41
0
  0
VERTEX
  8
0
 10
0.487847
 20
0.541342
 30
0.0
 40
0
 41
0
  0
VERTEX
  8
0
 10
0.487847
 20
0.135091
 30
0.0
 40
0
 41
0
  0
VERTEX
  8
0
 10
0.488553
 20
0.121202
 30
0.0
 40
0
 41
0
  0
VERTEX
  8
0
 10
0.490994
 20
0.107585
 30
0.0
 40
0
 41
0
  0
VERTEX
  8
0
 10
0.494467
 20
0.0951606
 30
0.0
 40
0
 41
0
  0
VERTEX
  8
0
 10
0.5
 20
0.0830078
 30
0.0
 40
0
 41
0
  0
VERTEX
  8
0
 10
0.506619
 20
0.0711262
 30
0.0
 40
0
 41
0
  0
VERTEX
  8
0
 10
0.514919
 20
0.0601128
 30
0.0
 40
0
 41
0
  0
VERTEX
  8
0
 10
0.524631
 20
0.0493164
 30
0.0
 40
0
 41
0
  0
VERTEX
  8
0
 10
0.535753
 20
0.0392794
 30
0.0
 40
0
 41
0
  0
VERTEX
  8
0
 10
0.560439
 20
0.0219183
 30
0.0
 40
0
 41
0
  0
VERTEX
  8
0
 10
0.587836
 20
0.00976563
 30
0.0
 40
0
 41
0
  0
VERTEX
  8
0
 10
0.618056
 20
0.0024414
 30
0.0
 40
0
 41
0
  0
VERTEX
  8
0
 10
0.650717
 20
-5.42535e-05
 30
0.0
 40
0
 41
0
  0
VERTEX
  8
0
 10
0.812825
 20
-5.42535e-05
 30
0.0
 40
0
 41
0
  0
VERTEX
  8
0
 10
0.812825
 20
0.135091
 30
0.0
 40
0
 41
0
  0
VERTEX
  8
0
 10
0.650717
 20
0.135091
 30
0.0
 40
0
 41
0
  0
VERTEX
  8
0
 10
0.642361
 20
0.135362
 30
0.0
 40
0
 41
0
  0
VERTEX
  8
0
 10
0.634006
 20
0.136122
 30
0.0
 40
0
 41
0
  0
VERTEX
  8
0
 10
0.626411
 20
0.137858
 30
0.0
 40
0
 41
0
  0
VERTEX
  8
0
 10
0.618381
 20
0.1403
 30
0.0
 40
0
 41
0
  0
VERTEX
  8
0
 10
0.611436
 20
0.143067
 30
0.0
 40
0
 41
0
  0
VERTEX
  8
0
 10
0.604872
 20
0.146539
 30
0.0
 40
0
 41
0
  0
VERTEX
  8
0
 10
0.598633
 20
0.15039
 30
0.0
 40
0
 41
0
  0
VERTEX
  8
0
 10
0.592719
 20
0.15446
 30
0.0
 40
0
 41
0
  0
VERTEX
  8
0
 10
0.587511
 20
0.159397
 30
0.0
 40
0
 41
0
  0
VERTEX
  8
0
 10
0.583008
 20
0.164606
 30
0.0
 40
0
 41
0
  0
VERTEX
  8
0
 10
0.578831
 20
0.169814
 30
0.0
 40
0
 41
0
  0
VERTEX
  8
0
 10
0.575358
 20
0.175726
 30
0.0
 40
0
 41
0
  0
VERTEX
  8
0
 10
0.572917
 20
0.182238
 30
0.0
 40
0
 41
0
  0
VERTEX
  8
0
 10
0.570856
 20
0.188911
 30
0.0
 40
0
 41
0
  0
VERTEX
  8
0
 10
0.569769
 20
0.195529
 30
0.0
 40
0
 41
0
  0
VERTEX
  8
0
 10
0.569444
 20
0.2028
 30
0.0
 40
0
 41
0
  0
VERTEX
  8
0
 10
0.569444
 20
0.23649
 30
0.0
 40
0
 41
0
  0
VERTEX
  8
0
 10
0.731933
 20
0.23649
 30
0.0
 40
0
 41
0
  0
VERTEX
  8
0
 10
0.731933
 20
0.304525
 30
0.0
 40
0
 41
0
  0
VERTEX
  8
0
 10
0.569444
 20
0.304525
 30
0.0
 40
0
 41
0
  0
VERTEX
  8
0
 10
0.569444
 20
0.405925
 30
0.0
 40
0
 41
0
  0
VERTEX
  8
0
 10
0.812825
 20
0.405925
 30
0.0
 40
0
 41
0
  0
VERTEX
  8
0
 10
0.812825
 20
0.541342
 30
0.0
 40
0
 41
0
  0
VERTEX
  8
0
 10
0.487847
 20
0.541342
 30
0.0
 40
0
 41
0
  0
SEQEND
 8
0
  0
POLYLINE
  8
0
 62
     0
 66
     1
 10
0
 20
0
 30
0.0
 70
     1
 40
0
 41
0
  0
VERTEX
  8
0
 10
0.894097
 20
0.541342
 30
0.0
 40
0
 41
0
  0
VERTEX
  8
0
 10
0.894097
 20
0.135091
 30
0.0
 40
0
 41
0
  0
VERTEX
  8
0
 10
0.894803
 20
0.121202
 30
0.0
 40
0
 41
0
  0
VERTEX
  8
0
 10
0.897244
 20
0.107585
 30
0.0
 40
0
 41
0
  0
VERTEX
  8
0
 10
0.901042
 20
0.0951606
 30
0.0
 40
0
 41
0
  0
VERTEX
  8
0
 10
0.90625
 20
0.0830078
 30
0.0
 40
0
 41
0
  0
VERTEX
  8
0
 10
0.913194
 20
0.0711262
 30
0.0
 40
0
 41
0
  0
VERTEX
  8
0
 10
0.921169
 20
0.0601128
 30
0.0
 40
0
 41
0
  0
VERTEX
  8
0
 10
0.930881
 20
0.0493164
 30
0.0
 40
0
 41
0
  0
VERTEX
  8
0
 10
0.942003
 20
0.0392794
 30
0.0
 40
0
 41
0
  0
VERTEX
  8
0
 10
0.967014
 20
0.0219183
 30
0.0
 40
0
 41
0
  0
VERTEX
  8
0
 10
0.994467
 20
0.00976563
 30
0.0
 40
0
 41
0
  0
VERTEX
  8
0
 10
1.02431
 20
0.0024414
 30
0.0
 40
0
 41
0
  0
VERTEX
  8
0
 10
1.05697
 20
-5.42535e-05
 30
0.0
 40
0
 41
0
  0
VERTEX
  8
0
 10
1.21946
 20
-5.42535e-05
 30
0.0
 40
0
 41
0
  0
VERTEX
  8
0
 10
1.21946
 20
0.135091
 30
0.0
 40
0
 41
0
  0
VERTEX
  8
0
 10
1.05697
 20
0.135091
 30
0.0
 40
0
 41
0
  0
VERTEX
  8
0
 10
1.04861
 20
0.135362
 30
0.0
 40
0
 41
0
  0
VERTEX
  8
0
 10
1.04026
 20
0.136122
 30
0.0
 40
0
 41
0
  0
VERTEX
  8
0
 10
1.03266
 20
0.137858
 30
0.0
 40
0
 41
0
  0
VERTEX
  8
0
 10
1.02463
 20
0.1403
 30
0.0
 40
0
 41
0
  0
VERTEX
  8
0
 10
1.01769
 20
0.143067
 30
0.0
 40
0
 41
0
  0
VERTEX
  8
0
 10
1.01112
 20
0.146539
 30
0.0
 40
0
 41
0
  0
VERTEX
  8
0
 10
1.00488
 20
0.15039
 30
0.0
 40
0
 41
0
  0
VERTEX
  8
0
 10
0.999295
 20
0.15446
 30
0.0
 40
0
 41
0
  0
VERTEX
  8
0
 10
0.994086
 20
0.159397
 30
0.0
 40
0
 41
0
  0
VERTEX
  8
0
 10
0.989258
 20
0.164606
 30
0.0
 40
0
 41
0
  0
VERTEX
  8
0
 10
0.985406
 20
0.169814
 30
0.0
 40
0
 41
0
  0
VERTEX
  8
0
 10
0.981933
 20
0.175726
 30
0.0
 40
0
 41
0
  0
VERTEX
  8
0
 10
0.979167
 20
0.182238
 30
0.0
 40
0
 41
0
  0
VERTEX
  8
0
 10
0.977431
 20
0.188911
 30
0.0
 40
0
 41
0
  0
VERTEX
  8
0
 10
0.976019
 20
0.195529
 30
0.0
 40
0
 41
0
  0
VERTEX
  8
0
 10
0.975694
 20
0.2028
 30
0.0
 40
0
 41
0
  0
VERTEX
  8
0
 10
0.975694
 20
0.23649
 30
0.0
 40
0
 41
0
  0
VERTEX
  8
0
 10
1.13818
 20
0.23649
 30
0.0
 40
0
 41
0
  0
VERTEX
  8
0
 10
1.13818
 20
0.304525
 30
0.0
 40
0
 41
0
  0
VERTEX
  8
0
 10
0.975694
 20
0.304525
 30
0.0
 40
0
 41
0
  0
VERTEX
  8
0
 10
0.975694
 20
0.405925
 30
0.0
 40
0
 41
0
  0
VERTEX
  8
0
 10
1.21946
 20
0.405925
 30
0.0
 40
0
 41
0
  0
VERTEX
  8
0
 10
1.21946
 20
0.541342
 30
0.0
 40
0
 41
0
  0
VERTEX
  8
0
 10
0.894097
 20
0.541342
 30
0.0
 40
0
 41
0
  0
SEQEND
 8
0
  0
POLYLINE
  8
0
 62
     0
 66
     1
 10
0
 20
0
 30
0.0
 70
     1
 40
0
 41
0
  0
VERTEX
  8
0
 10
1.30035
 20
0.541342
 30
0.0
 40
0
 41
0
  0
VERTEX
  8
0
 10
1.30035
 20
-5.42535e-05
 30
0.0
 40
0
 41
0
  0
VERTEX
  8
0
 10
1.38194
 20
-5.42535e-05
 30
0.0
 40
0
 41
0
  0
VERTEX
  8
0
 10
1.38194
 20
0.23649
 30
0.0
 40
0
 41
0
  0
VERTEX
  8
0
 10
1.45107
 20
0.23649
 30
0.0
 40
0
 41
0
  0
VERTEX
  8
0
 10
1.45107
 20
0.304525
 30
0.0
 40
0
 41
0
  0
VERTEX
  8
0
 10
1.38194
 20
0.304525
 30
0.0
 40
0
 41
0
  0
VERTEX
  8
0
 10
1.38194
 20
0.405925
 30
0.0
 40
0
 41
0
  0
VERTEX
  8
0
 10
1.45107
 20
0.405925
 30
0.0
 40
0
 41
0
  0
VERTEX
  8
0
 10
1.45107
 20
0.541342
 30
0.0
 40
0
 41
0
  0
VERTEX
  8
0
 10
1.30035
 20
0.541342
 30
0.0
 40
0
 41
0
  0
SEQEND
 8
0
  0
POLYLINE
  8
0
 62
     0
 66
     1
 10
0
 20
0
 30
0.0
 70
     1
 40
0
 41
0
  0
VERTEX
  8
0
 10
1.45107
 20
0.541342
 30
0.0
 40
0
 41
0
  0
VERTEX
  8
0
 10
1.45107
 20
0.405925
 30
0.0
 40
0
 41
0
  0
VERTEX
  8
0
 10
1.52399
 20
0.405925
 30
0.0
 40
0
 41
0
  0
VERTEX
  8
0
 10
1.53022
 20
0.405599
 30
0.0
 40
0
 41
0
  0
VERTEX
  8
0
 10
1.53614
 20
0.404893
 30
0.0
 40
0
 41
0
  0
VERTEX
  8
0
 10
1.54199
 20
0.403483
 30
0.0
 40
0
 41
0
  0
VERTEX
  8
0
 10
1.54758
 20
0.401747
 30
0.0
 40
0
 41
0
  0
VERTEX
  8
0
 10
1.55279
 20
0.399685
 30
0.0
 40
0
 41
0
  0
VERTEX
  8
0
 10
1.558
 20
0.396918
 30
0.0
 40
0
 41
0
  0
VERTEX
  8
0
 10
1.56282
 20
0.394043
 30
0.0
 40
0
 41
0
  0
VERTEX
  8
0
 10
1.567
 20
0.390571
 30
0.0
 40
0
 41
0
  0
VERTEX
  8
0
 10
1.57118
 20
0.387099
 30
0.0
 40
0
 41
0
  0
VERTEX
  8
0
 10
1.57465
 20
0.383356
 30
0.0
 40
0
 41
0
  0
VERTEX
  8
0
 10
1.57781
 20
0.378851
 30
0.0
 40
0
 41
0
  0
VERTEX
  8
0
 10
1.58018
 20
0.374349
 30
0.0
 40
0
 41
0
  0
VERTEX
  8
0
 10
1.58231
 20
0.369737
 30
0.0
 40
0
 41
0
  0
VERTEX
  8
0
 10
1.58404
 20
0.364963
 30
0.0
 40
0
 41
0
  0
VERTEX
  8
0
 10
1.58507
 20
0.360081
 30
0.0
 40
0
 41
0
  0
VERTEX
  8
0
 10
1.58539
 20
0.354872
 30
0.0
 40
0
 41
0
  0
VERTEX
  8
0
 10
1.58507
 20
0.349664
 30
0.0
 40
0
 41
0
  0
VERTEX
  8
0
 10
1.58404
 20
0.344456
 30
0.0
 40
0
 41
0
  0
VERTEX
  8
0
 10
1.58231
 20
0.339953
 30
0.0
 40
0
 41
0
  0
VERTEX
  8
0
 10
1.58018
 20
0.335015
 30
0.0
 40
0
 41
0
  0
VERTEX
  8
0
 10
1.57781
 20
0.330946
 30
0.0
 40
0
 41
0
  0
VERTEX
  8
0
 10
1.57465
 20
0.326768
 30
0.0
 40
0
 41
0
  0
VERTEX
  8
0
 10
1.57118
 20
0.322862
 30
0.0
 40
0
 41
0
  0
VERTEX
  8
0
 10
1.567
 20
0.319119
 30
0.0
 40
0
 41
0
  0
VERTEX
  8
0
 10
1.56282
 20
0.315918
 30
0.0
 40
0
 41
0
  0
VERTEX
  8
0
 10
1.558
 20
0.313206
 30
0.0
 40
0
 41
0
  0
VERTEX
  8
0
 10
1.55279
 20
0.310439
 30
0.0
 40
0
 41
0
  0
VERTEX
  8
0
 10
1.54758
 20
0.308376
 30
0.0
 40
0
 41
0
  0
VERTEX
  8
0
 10
1.54199
 20
0.30664
 30
0.0
 40
0
 41
0
  0
VERTEX
  8
0
 10
1.53614
 20
0.305501
 30
0.0
 40
0
 41
0
  0
VERTEX
  8
0
 10
1.53022
 20
0.304904
 30
0.0
 40
0
 41
0
  0
VERTEX
  8
0
 10
1.52399
 20
0.304525
 30
0.0
 40
0
 41
0
  0
VERTEX
  8
0
 10
1.45107
 20
0.304525
 30
0.0
 40
0
 41
0
  0
VERTEX
  8
0
 10
1.45107
 20
0.23649
 30
0.0
 40
0
 41
0
  0
VERTEX
  8
0
 10
1.54443
 20
0.23649
 30
0.0
 40
0
 41
0
  0
VERTEX
  8
0
 10
1.56076
 20
0.237196
 30
0.0
 40
0
 41
0
  0
VERTEX
  8
0
 10
1.57671
 20
0.239258
 30
0.0
 40
0
 41
0
  0
VERTEX
  8
0
 10
1.59201
 20
0.242404
 30
0.0
 40
0
 41
0
  0
VERTEX
  8
0
 10
1.60622
 20
0.246907
 30
0.0
 40
0
 41
0
  0
VERTEX
  8
0
 10
1.6205
 20
0.252442
 30
0.0
 40
0
 41
0
  0
VERTEX
  8
0
 10
1.63368
 20
0.259386
 30
0.0
 40
0
 41
0
  0
VERTEX
  8
0
 10
1.64654
 20
0.267307
 30
0.0
 40
0
 41
0
  0
VERTEX
  8
0
 10
1.65869
 20
0.276747
 30
0.0
 40
0
 41
0
  0
VERTEX
  8
0
 10
1.67985
 20
0.297581
 30
0.0
 40
0
 41
0
  0
VERTEX
  8
0
 10
1.69476
 20
0.320529
 30
0.0
 40
0
 41
0
  0
VERTEX
  8
0
 10
1.70383
 20
0.345161
 30
0.0
 40
0
 41
0
  0
VERTEX
  8
0
 10
1.70692
 20
0.371907
 30
0.0
 40
0
 41
0
  0
VERTEX
  8
0
 10
1.70692
 20
0.405925
 30
0.0
 40
0
 41
0
  0
VERTEX
  8
0
 10
1.70383
 20
0.432237
 30
0.0
 40
0
 41
0
  0
VERTEX
  8
0
 10
1.69476
 20
0.457303
 30
0.0
 40
0
 41
0
  0
VERTEX
  8
0
 10
1.67985
 20
0.479872
 30
0.0
 40
0
 41
0
  0
VERTEX
  8
0
 10
1.65869
 20
0.501085
 30
0.0
 40
0
 41
0
  0
VERTEX
  8
0
 10
1.63368
 20
0.518772
 30
0.0
 40
0
 41
0
  0
VERTEX
  8
0
 10
1.6059
 20
0.531196
 30
0.0
 40
0
 41
0
  0
VERTEX
  8
0
 10
1.57639
 20
0.5389
 30
0.0
 40
0
 41
0
  0
VERTEX
  8
0
 10
1.54443
 20
0.541342
 30
0.0
 40
0
 41
0
  0
VERTEX
  8
0
 10
1.45107
 20
0.541342
 30
0.0
 40
0
 41
0
  0
SEQEND
 8
0
  0
ENDSEC
  0
EOF
