  0
SECTION
  2
HEADER
  9
$ACADVER
  1
AC1009
  9
$FILLMODE
 70
1
  9
$EXTMIN
 10
-0.2032
 20
-0.4733
 30
0.0000
  9
$EXTMAX
 10
12.9982
 20
19.5682
 30
0.0000
  0
ENDSEC
  0
SECTION
  2
TABLES
  0
TABLE
  2
LTYPE
 70
1
  0
LTYPE
  2
CONTINUOUS
 70
64
  3
Solid line
 72
65
 73
0
 40
0
  0
ENDTAB
  0
TABLE
  2
LAYER
 70
255
  0
LAYER
  2
1
 70
64
 62
22
  6
CONTINUOUS
  0
LAYER
  2
16
 70
64
 62
175
  6
CONTINUOUS
  0
LAYER
  2
17
 70
64
 62
82
  6
CONTINUOUS
  0
LAYER
  2
18
 70
64
 62
82
  6
CONTINUOUS
  0
LAYER
  2
20
 70
64
 62
7
  6
CONTINUOUS
  0
LAYER
  2
21
 70
64
 62
253
  6
CONTINUOUS
  0
LAYER
  2
44
 70
64
 62
253
  6
CONTINUOUS
  0
ENDTAB
  0
ENDSEC
  0
SECTION
  2
BLOCKS
  0
BLOCK
  8
0
  2
RECT
 70
64
 10
0.0000
 20
0.0000
 30
0.0000
  3
RECT
  0
SOLID
  8
0
 10
-0.5000
 20
-0.5000
 30
0.0000
 11
0.5000
 21
-0.5000
 31
0.0000
 12
-0.5000
 22
0.5000
 32
0.0000
 13
0.5000
 23
0.5000
 33
0.0000
  0
ENDBLK
  8
0
  0
BLOCK
  8
0
  2
PIE
 70
64
 10
0.0000
 20
0.0000
 30
0.0000
  3
PIE
  0
POLYLINE
  8
0
 66
1
 10
0.0000
 20
0.0000
 30
0.0000
 40
0.5000
 41
0.5000
 70
0
  0
VERTEX
  8
0
 10
0.0000
 20
-0.2500
 30
0.0000
 42
1.0000
  0
VERTEX
  8
0
 10
0.0000
 20
0.2500
 30
0.0000
 42
1.0000
  0
VERTEX
  8
0
 10
0.0000
 20
-0.2500
 30
0.0000
  0
SEQEND
  8
0
  0
ENDBLK
  8
0
  0
BLOCK
  8
0
  2
OCTAGONP
 70
64
 10
0.0000
 20
0.0000
 30
0.0000
  3
OCTAGONP
  0
POLYLINE
  8
0
 66
1
 10
0.0000
 20
0.0000
 30
0.0000
 40
0.5000
 41
0.5000
 70
0
  0
VERTEX
  8
0
 10
-0.2500
 20
-0.1036
 30
0.0000
  0
VERTEX
  8
0
 10
-0.2500
 20
0.1036
 30
0.0000
  0
VERTEX
  8
0
 10
-0.1036
 20
0.2500
 30
0.0000
  0
VERTEX
  8
0
 10
0.1036
 20
0.2500
 30
0.0000
  0
VERTEX
  8
0
 10
0.2500
 20
0.1036
 30
0.0000
  0
VERTEX
  8
0
 10
0.2500
 20
-0.1036
 30
0.0000
  0
VERTEX
  8
0
 10
0.1036
 20
-0.2500
 30
0.0000
  0
VERTEX
  8
0
 10
-0.1036
 20
-0.2500
 30
0.0000
  0
VERTEX
  8
0
 10
-0.2500
 20
-0.1036
 30
0.0000
  0
VERTEX
  8
0
 10
-0.2500
 20
0.1036
 30
0.0000
  0
SEQEND
  8
0
  0
ENDBLK
  8
0
  0
BLOCK
  8
0
  2
SQUAREP
 70
64
 10
0.0000
 20
0.0000
 30
0.0000
  3
SQUAREP
  0
SOLID
  8
0
 10
-0.5000
 20
-0.5000
 30
0.0000
 11
0.5000
 21
-0.5000
 31
0.0000
 12
-0.5000
 22
0.5000
 32
0.0000
 13
0.5000
 23
0.5000
 33
0.0000
  0
ENDBLK
  8
0
  0
BLOCK
  8
0
  2
ROUNDP
 70
64
 10
0.0000
 20
0.0000
 30
0.0000
  3
ROUNDP
  0
POLYLINE
  8
0
 66
1
 10
0.0000
 20
0.0000
 30
0.0000
 40
0.5000
 41
0.5000
 70
0
  0
VERTEX
  8
0
 10
0.0000
 20
-0.2500
 30
0.0000
 42
1.0000
  0
VERTEX
  8
0
 10
0.0000
 20
0.2500
 30
0.0000
 42
1.0000
  0
VERTEX
  8
0
 10
0.0000
 20
-0.2500
 30
0.0000
  0
SEQEND
  8
0
  0
ENDBLK
  8
0
  0
BLOCK
  8
0
  2
ANNULUSP
 70
64
 10
0.0000
 20
0.0000
 30
0.0000
  3
ANNULUSP
  0
POLYLINE
  8
0
 66
1
 10
0.0000
 20
0.0000
 30
0.0000
 40
0.5000
 41
0.5000
 70
0
  0
VERTEX
  8
0
 10
0.0000
 20
-0.2500
 30
0.0000
 42
1.0000
  0
VERTEX
  8
0
 10
0.0000
 20
0.2500
 30
0.0000
 42
1.0000
  0
VERTEX
  8
0
 10
0.0000
 20
-0.2500
 30
0.0000
  0
SEQEND
  8
0
  0
ENDBLK
  8
0
  0
BLOCK
  8
0
  2
THERMALP
 70
64
 10
0.0000
 20
0.0000
 30
0.0000
  3
THERMALP
  0
POLYLINE
  8
0
 66
1
 10
0.0000
 20
0.0000
 30
0.0000
 40
0.1000
 41
0.1000
 70
0
  0
VERTEX
  8
0
 10
-0.2379
 20
0.4500
 30
0.0000
  0
VERTEX
  8
0
 10
0.2379
 20
0.4500
 30
0.0000
  0
SEQEND
  8
0
  0
POLYLINE
  8
0
 66
1
 10
0.0000
 20
0.0000
 30
0.0000
 40
0.0500
 41
0.0500
 70
0
  0
VERTEX
  8
0
 10
0.2379
 20
0.4250
 30
0.0000
 42
1.0000
  0
VERTEX
  8
0
 10
0.2379
 20
0.4750
 30
0.0000
  0
SEQEND
  8
0
  0
POLYLINE
  8
0
 66
1
 10
0.0000
 20
0.0000
 30
0.0000
 40
0.0500
 41
0.0500
 70
0
  0
VERTEX
  8
0
 10
-0.2379
 20
0.4750
 30
0.0000
 42
1.0000
  0
VERTEX
  8
0
 10
-0.2379
 20
0.4250
 30
0.0000
  0
SEQEND
  8
0
  0
POLYLINE
  8
0
 66
1
 10
0.0000
 20
0.0000
 30
0.0000
 40
0.1000
 41
0.1000
 70
0
  0
VERTEX
  8
0
 10
0.4500
 20
0.2379
 30
0.0000
  0
VERTEX
  8
0
 10
0.4500
 20
-0.2379
 30
0.0000
  0
SEQEND
  8
0
  0
POLYLINE
  8
0
 66
1
 10
0.0000
 20
0.0000
 30
0.0000
 40
0.0500
 41
0.0500
 70
0
  0
VERTEX
  8
0
 10
0.4250
 20
-0.2379
 30
0.0000
 42
1.0000
  0
VERTEX
  8
0
 10
0.4750
 20
-0.2379
 30
0.0000
  0
SEQEND
  8
0
  0
POLYLINE
  8
0
 66
1
 10
0.0000
 20
0.0000
 30
0.0000
 40
0.0500
 41
0.0500
 70
0
  0
VERTEX
  8
0
 10
0.4750
 20
0.2379
 30
0.0000
 42
1.0000
  0
VERTEX
  8
0
 10
0.4250
 20
0.2379
 30
0.0000
  0
SEQEND
  8
0
  0
POLYLINE
  8
0
 66
1
 10
0.0000
 20
0.0000
 30
0.0000
 40
0.1000
 41
0.1000
 70
0
  0
VERTEX
  8
0
 10
0.2379
 20
-0.4500
 30
0.0000
  0
VERTEX
  8
0
 10
-0.2379
 20
-0.4500
 30
0.0000
  0
SEQEND
  8
0
  0
POLYLINE
  8
0
 66
1
 10
0.0000
 20
0.0000
 30
0.0000
 40
0.0500
 41
0.0500
 70
0
  0
VERTEX
  8
0
 10
-0.2379
 20
-0.4250
 30
0.0000
 42
1.0000
  0
VERTEX
  8
0
 10
-0.2379
 20
-0.4750
 30
0.0000
  0
SEQEND
  8
0
  0
POLYLINE
  8
0
 66
1
 10
0.0000
 20
0.0000
 30
0.0000
 40
0.0500
 41
0.0500
 70
0
  0
VERTEX
  8
0
 10
0.2379
 20
-0.4750
 30
0.0000
 42
1.0000
  0
VERTEX
  8
0
 10
0.2379
 20
-0.4250
 30
0.0000
  0
SEQEND
  8
0
  0
POLYLINE
  8
0
 66
1
 10
0.0000
 20
0.0000
 30
0.0000
 40
0.1000
 41
0.1000
 70
0
  0
VERTEX
  8
0
 10
-0.4500
 20
-0.2379
 30
0.0000
  0
VERTEX
  8
0
 10
-0.4500
 20
0.2379
 30
0.0000
  0
SEQEND
  8
0
  0
POLYLINE
  8
0
 66
1
 10
0.0000
 20
0.0000
 30
0.0000
 40
0.0500
 41
0.0500
 70
0
  0
VERTEX
  8
0
 10
-0.4250
 20
0.2379
 30
0.0000
 42
1.0000
  0
VERTEX
  8
0
 10
-0.4750
 20
0.2379
 30
0.0000
  0
SEQEND
  8
0
  0
POLYLINE
  8
0
 66
1
 10
0.0000
 20
0.0000
 30
0.0000
 40
0.0500
 41
0.0500
 70
0
  0
VERTEX
  8
0
 10
-0.4750
 20
-0.2379
 30
0.0000
 42
1.0000
  0
VERTEX
  8
0
 10
-0.4250
 20
-0.2379
 30
0.0000
  0
SEQEND
  8
0
  0
ENDBLK
  8
0
  0
BLOCK
  8
0
  2
OCTAGONV
 70
64
 10
0.0000
 20
0.0000
 30
0.0000
  3
OCTAGONV
  0
POLYLINE
  8
0
 66
1
 10
0.0000
 20
0.0000
 30
0.0000
 40
0.5000
 41
0.5000
 70
0
  0
VERTEX
  8
0
 10
-0.2500
 20
-0.1036
 30
0.0000
  0
VERTEX
  8
0
 10
-0.2500
 20
0.1036
 30
0.0000
  0
VERTEX
  8
0
 10
-0.1036
 20
0.2500
 30
0.0000
  0
VERTEX
  8
0
 10
0.1036
 20
0.2500
 30
0.0000
  0
VERTEX
  8
0
 10
0.2500
 20
0.1036
 30
0.0000
  0
VERTEX
  8
0
 10
0.2500
 20
-0.1036
 30
0.0000
  0
VERTEX
  8
0
 10
0.1036
 20
-0.2500
 30
0.0000
  0
VERTEX
  8
0
 10
-0.1036
 20
-0.2500
 30
0.0000
  0
VERTEX
  8
0
 10
-0.2500
 20
-0.1036
 30
0.0000
  0
VERTEX
  8
0
 10
-0.2500
 20
0.1036
 30
0.0000
  0
SEQEND
  8
0
  0
ENDBLK
  8
0
  0
BLOCK
  8
0
  2
SQUAREV
 70
64
 10
0.0000
 20
0.0000
 30
0.0000
  3
SQUAREV
  0
SOLID
  8
0
 10
-0.5000
 20
-0.5000
 30
0.0000
 11
0.5000
 21
-0.5000
 31
0.0000
 12
-0.5000
 22
0.5000
 32
0.0000
 13
0.5000
 23
0.5000
 33
0.0000
  0
ENDBLK
  8
0
  0
BLOCK
  8
0
  2
ROUNDV
 70
64
 10
0.0000
 20
0.0000
 30
0.0000
  3
ROUNDV
  0
POLYLINE
  8
0
 66
1
 10
0.0000
 20
0.0000
 30
0.0000
 40
0.5000
 41
0.5000
 70
0
  0
VERTEX
  8
0
 10
0.0000
 20
-0.2500
 30
0.0000
 42
1.0000
  0
VERTEX
  8
0
 10
0.0000
 20
0.2500
 30
0.0000
 42
1.0000
  0
VERTEX
  8
0
 10
0.0000
 20
-0.2500
 30
0.0000
  0
SEQEND
  8
0
  0
ENDBLK
  8
0
  0
BLOCK
  8
0
  2
ANNULUSV
 70
64
 10
0.0000
 20
0.0000
 30
0.0000
  3
ANNULUSV
  0
POLYLINE
  8
0
 66
1
 10
0.0000
 20
0.0000
 30
0.0000
 40
0.5000
 41
0.5000
 70
0
  0
VERTEX
  8
0
 10
0.0000
 20
-0.2500
 30
0.0000
 42
1.0000
  0
VERTEX
  8
0
 10
0.0000
 20
0.2500
 30
0.0000
 42
1.0000
  0
VERTEX
  8
0
 10
0.0000
 20
-0.2500
 30
0.0000
  0
SEQEND
  8
0
  0
ENDBLK
  8
0
  0
BLOCK
  8
0
  2
THERMALV
 70
64
 10
0.0000
 20
0.0000
 30
0.0000
  3
THERMALV
  0
POLYLINE
  8
0
 66
1
 10
0.0000
 20
0.0000
 30
0.0000
 40
0.1000
 41
0.1000
 70
0
  0
VERTEX
  8
0
 10
-0.2379
 20
0.4500
 30
0.0000
  0
VERTEX
  8
0
 10
0.2379
 20
0.4500
 30
0.0000
  0
SEQEND
  8
0
  0
POLYLINE
  8
0
 66
1
 10
0.0000
 20
0.0000
 30
0.0000
 40
0.0500
 41
0.0500
 70
0
  0
VERTEX
  8
0
 10
0.2379
 20
0.4250
 30
0.0000
 42
1.0000
  0
VERTEX
  8
0
 10
0.2379
 20
0.4750
 30
0.0000
  0
SEQEND
  8
0
  0
POLYLINE
  8
0
 66
1
 10
0.0000
 20
0.0000
 30
0.0000
 40
0.0500
 41
0.0500
 70
0
  0
VERTEX
  8
0
 10
-0.2379
 20
0.4750
 30
0.0000
 42
1.0000
  0
VERTEX
  8
0
 10
-0.2379
 20
0.4250
 30
0.0000
  0
SEQEND
  8
0
  0
POLYLINE
  8
0
 66
1
 10
0.0000
 20
0.0000
 30
0.0000
 40
0.1000
 41
0.1000
 70
0
  0
VERTEX
  8
0
 10
0.4500
 20
0.2379
 30
0.0000
  0
VERTEX
  8
0
 10
0.4500
 20
-0.2379
 30
0.0000
  0
SEQEND
  8
0
  0
POLYLINE
  8
0
 66
1
 10
0.0000
 20
0.0000
 30
0.0000
 40
0.0500
 41
0.0500
 70
0
  0
VERTEX
  8
0
 10
0.4250
 20
-0.2379
 30
0.0000
 42
1.0000
  0
VERTEX
  8
0
 10
0.4750
 20
-0.2379
 30
0.0000
  0
SEQEND
  8
0
  0
POLYLINE
  8
0
 66
1
 10
0.0000
 20
0.0000
 30
0.0000
 40
0.0500
 41
0.0500
 70
0
  0
VERTEX
  8
0
 10
0.4750
 20
0.2379
 30
0.0000
 42
1.0000
  0
VERTEX
  8
0
 10
0.4250
 20
0.2379
 30
0.0000
  0
SEQEND
  8
0
  0
POLYLINE
  8
0
 66
1
 10
0.0000
 20
0.0000
 30
0.0000
 40
0.1000
 41
0.1000
 70
0
  0
VERTEX
  8
0
 10
0.2379
 20
-0.4500
 30
0.0000
  0
VERTEX
  8
0
 10
-0.2379
 20
-0.4500
 30
0.0000
  0
SEQEND
  8
0
  0
POLYLINE
  8
0
 66
1
 10
0.0000
 20
0.0000
 30
0.0000
 40
0.0500
 41
0.0500
 70
0
  0
VERTEX
  8
0
 10
-0.2379
 20
-0.4250
 30
0.0000
 42
1.0000
  0
VERTEX
  8
0
 10
-0.2379
 20
-0.4750
 30
0.0000
  0
SEQEND
  8
0
  0
POLYLINE
  8
0
 66
1
 10
0.0000
 20
0.0000
 30
0.0000
 40
0.0500
 41
0.0500
 70
0
  0
VERTEX
  8
0
 10
0.2379
 20
-0.4750
 30
0.0000
 42
1.0000
  0
VERTEX
  8
0
 10
0.2379
 20
-0.4250
 30
0.0000
  0
SEQEND
  8
0
  0
POLYLINE
  8
0
 66
1
 10
0.0000
 20
0.0000
 30
0.0000
 40
0.1000
 41
0.1000
 70
0
  0
VERTEX
  8
0
 10
-0.4500
 20
-0.2379
 30
0.0000
  0
VERTEX
  8
0
 10
-0.4500
 20
0.2379
 30
0.0000
  0
SEQEND
  8
0
  0
POLYLINE
  8
0
 66
1
 10
0.0000
 20
0.0000
 30
0.0000
 40
0.0500
 41
0.0500
 70
0
  0
VERTEX
  8
0
 10
-0.4250
 20
0.2379
 30
0.0000
 42
1.0000
  0
VERTEX
  8
0
 10
-0.4750
 20
0.2379
 30
0.0000
  0
SEQEND
  8
0
  0
POLYLINE
  8
0
 66
1
 10
0.0000
 20
0.0000
 30
0.0000
 40
0.0500
 41
0.0500
 70
0
  0
VERTEX
  8
0
 10
-0.4750
 20
-0.2379
 30
0.0000
 42
1.0000
  0
VERTEX
  8
0
 10
-0.4250
 20
-0.2379
 30
0.0000
  0
SEQEND
  8
0
  0
ENDBLK
  8
0
  0
ENDSEC
  0
SECTION
  2
ENTITIES
  0
LINE
  8
20
 10
0.0000
 20
0.0000
 30
0.0000
 11
12.7350
 21
0.0000
 31
0.0000
  0
LINE
  8
20
 10
12.7350
 20
0.0000
 30
0.0000
 11
12.7350
 21
19.3500
 31
0.0000
  0
LINE
  8
20
 10
12.7350
 20
19.3500
 30
0.0000
 11
0.0000
 21
19.3500
 31
0.0000
  0
LINE
  8
20
 10
0.0000
 20
19.3500
 30
0.0000
 11
0.0000
 21
0.0000
 31
0.0000
  0
POLYLINE
  8
21
 66
1
 10
0.0000
 20
0.0000
 30
0.0000
 40
0.1270
 41
0.1270
 70
0
  0
VERTEX
  8
21
 10
2.7500
 20
15.1250
 30
0.0000
  0
VERTEX
  8
21
 10
9.8500
 20
15.1250
 30
0.0000
  0
SEQEND
  8
0
  0
POLYLINE
  8
21
 66
1
 10
0.0000
 20
0.0000
 30
0.0000
 40
0.0635
 41
0.0635
 70
0
  0
VERTEX
  8
21
 10
9.8500
 20
15.0932
 30
0.0000
 42
1.0000
  0
VERTEX
  8
21
 10
9.8500
 20
15.1568
 30
0.0000
  0
SEQEND
  8
0
  0
POLYLINE
  8
21
 66
1
 10
0.0000
 20
0.0000
 30
0.0000
 40
0.0635
 41
0.0635
 70
0
  0
VERTEX
  8
21
 10
2.7500
 20
15.1568
 30
0.0000
 42
1.0000
  0
VERTEX
  8
21
 10
2.7500
 20
15.0932
 30
0.0000
  0
SEQEND
  8
0
  0
POLYLINE
  8
21
 66
1
 10
0.0000
 20
0.0000
 30
0.0000
 40
0.1270
 41
0.1270
 70
0
  0
VERTEX
  8
21
 10
9.8500
 20
15.1250
 30
0.0000
  0
VERTEX
  8
21
 10
9.8500
 20
17.4750
 30
0.0000
  0
SEQEND
  8
0
  0
POLYLINE
  8
21
 66
1
 10
0.0000
 20
0.0000
 30
0.0000
 40
0.0635
 41
0.0635
 70
0
  0
VERTEX
  8
21
 10
9.8818
 20
17.4750
 30
0.0000
 42
1.0000
  0
VERTEX
  8
21
 10
9.8182
 20
17.4750
 30
0.0000
  0
SEQEND
  8
0
  0
POLYLINE
  8
21
 66
1
 10
0.0000
 20
0.0000
 30
0.0000
 40
0.0635
 41
0.0635
 70
0
  0
VERTEX
  8
21
 10
9.8182
 20
15.1250
 30
0.0000
 42
1.0000
  0
VERTEX
  8
21
 10
9.8818
 20
15.1250
 30
0.0000
  0
SEQEND
  8
0
  0
POLYLINE
  8
21
 66
1
 10
0.0000
 20
0.0000
 30
0.0000
 40
0.1270
 41
0.1270
 70
0
  0
VERTEX
  8
21
 10
9.8500
 20
17.4750
 30
0.0000
  0
VERTEX
  8
21
 10
2.7500
 20
17.4750
 30
0.0000
  0
SEQEND
  8
0
  0
POLYLINE
  8
21
 66
1
 10
0.0000
 20
0.0000
 30
0.0000
 40
0.0635
 41
0.0635
 70
0
  0
VERTEX
  8
21
 10
2.7500
 20
17.5068
 30
0.0000
 42
1.0000
  0
VERTEX
  8
21
 10
2.7500
 20
17.4433
 30
0.0000
  0
SEQEND
  8
0
  0
POLYLINE
  8
21
 66
1
 10
0.0000
 20
0.0000
 30
0.0000
 40
0.0635
 41
0.0635
 70
0
  0
VERTEX
  8
21
 10
9.8500
 20
17.4433
 30
0.0000
 42
1.0000
  0
VERTEX
  8
21
 10
9.8500
 20
17.5068
 30
0.0000
  0
SEQEND
  8
0
  0
POLYLINE
  8
21
 66
1
 10
0.0000
 20
0.0000
 30
0.0000
 40
0.1270
 41
0.1270
 70
0
  0
VERTEX
  8
21
 10
2.7500
 20
17.4750
 30
0.0000
  0
VERTEX
  8
21
 10
2.7500
 20
15.1250
 30
0.0000
  0
SEQEND
  8
0
  0
POLYLINE
  8
21
 66
1
 10
0.0000
 20
0.0000
 30
0.0000
 40
0.0635
 41
0.0635
 70
0
  0
VERTEX
  8
21
 10
2.7182
 20
15.1250
 30
0.0000
 42
1.0000
  0
VERTEX
  8
21
 10
2.7818
 20
15.1250
 30
0.0000
  0
SEQEND
  8
0
  0
POLYLINE
  8
21
 66
1
 10
0.0000
 20
0.0000
 30
0.0000
 40
0.0635
 41
0.0635
 70
0
  0
VERTEX
  8
21
 10
2.7818
 20
17.4750
 30
0.0000
 42
1.0000
  0
VERTEX
  8
21
 10
2.7182
 20
17.4750
 30
0.0000
  0
SEQEND
  8
0
  0
POLYLINE
  8
21
 66
1
 10
0.0000
 20
0.0000
 30
0.0000
 40
0.1270
 41
0.1270
 70
0
  0
VERTEX
  8
21
 10
7.2000
 20
17.4000
 30
0.0000
  0
VERTEX
  8
21
 10
7.2000
 20
15.2000
 30
0.0000
  0
SEQEND
  8
0
  0
POLYLINE
  8
21
 66
1
 10
0.0000
 20
0.0000
 30
0.0000
 40
0.0635
 41
0.0635
 70
0
  0
VERTEX
  8
21
 10
7.1683
 20
15.2000
 30
0.0000
 42
1.0000
  0
VERTEX
  8
21
 10
7.2317
 20
15.2000
 30
0.0000
  0
SEQEND
  8
0
  0
POLYLINE
  8
21
 66
1
 10
0.0000
 20
0.0000
 30
0.0000
 40
0.0635
 41
0.0635
 70
0
  0
VERTEX
  8
21
 10
7.2317
 20
17.4000
 30
0.0000
 42
1.0000
  0
VERTEX
  8
21
 10
7.1683
 20
17.4000
 30
0.0000
  0
SEQEND
  8
0
  0
INSERT
  8
1
  2
RECT
 10
3.3500
 20
16.8500
 30
0.0000
 41
3.0000
 42
0.6000
 43
1.0000
 50
180.0000
  0
INSERT
  8
1
  2
RECT
 10
3.3500
 20
15.7500
 30
0.0000
 41
3.0000
 42
0.6000
 43
1.0000
 50
180.0000
  0
INSERT
  8
1
  2
RECT
 10
9.2500
 20
15.7500
 30
0.0000
 41
3.0000
 42
0.6000
 43
1.0000
 50
180.0000
  0
INSERT
  8
1
  2
RECT
 10
9.2500
 20
16.8500
 30
0.0000
 41
3.0000
 42
0.6000
 43
1.0000
 50
180.0000
  0
POLYLINE
  8
21
 66
1
 10
0.0000
 20
0.0000
 30
0.0000
 40
0.1270
 41
0.1270
 70
0
  0
VERTEX
  8
21
 10
8.7500
 20
6.4200
 30
0.0000
  0
VERTEX
  8
21
 10
3.7500
 20
6.4200
 30
0.0000
  0
SEQEND
  8
0
  0
POLYLINE
  8
21
 66
1
 10
0.0000
 20
0.0000
 30
0.0000
 40
0.0635
 41
0.0635
 70
0
  0
VERTEX
  8
21
 10
3.7500
 20
6.4517
 30
0.0000
 42
1.0000
  0
VERTEX
  8
21
 10
3.7500
 20
6.3883
 30
0.0000
  0
SEQEND
  8
0
  0
POLYLINE
  8
21
 66
1
 10
0.0000
 20
0.0000
 30
0.0000
 40
0.0635
 41
0.0635
 70
0
  0
VERTEX
  8
21
 10
8.7500
 20
6.3883
 30
0.0000
 42
1.0000
  0
VERTEX
  8
21
 10
8.7500
 20
6.4517
 30
0.0000
  0
SEQEND
  8
0
  0
POLYLINE
  8
21
 66
1
 10
0.0000
 20
0.0000
 30
0.0000
 40
0.1270
 41
0.1270
 70
0
  0
VERTEX
  8
21
 10
3.7500
 20
6.4200
 30
0.0000
  0
VERTEX
  8
21
 10
3.7500
 20
1.4200
 30
0.0000
  0
SEQEND
  8
0
  0
POLYLINE
  8
21
 66
1
 10
0.0000
 20
0.0000
 30
0.0000
 40
0.0635
 41
0.0635
 70
0
  0
VERTEX
  8
21
 10
3.7182
 20
1.4200
 30
0.0000
 42
1.0000
  0
VERTEX
  8
21
 10
3.7818
 20
1.4200
 30
0.0000
  0
SEQEND
  8
0
  0
POLYLINE
  8
21
 66
1
 10
0.0000
 20
0.0000
 30
0.0000
 40
0.0635
 41
0.0635
 70
0
  0
VERTEX
  8
21
 10
3.7818
 20
6.4200
 30
0.0000
 42
1.0000
  0
VERTEX
  8
21
 10
3.7182
 20
6.4200
 30
0.0000
  0
SEQEND
  8
0
  0
POLYLINE
  8
21
 66
1
 10
0.0000
 20
0.0000
 30
0.0000
 40
0.1270
 41
0.1270
 70
0
  0
VERTEX
  8
21
 10
3.7500
 20
1.4200
 30
0.0000
  0
VERTEX
  8
21
 10
8.7500
 20
1.4200
 30
0.0000
  0
SEQEND
  8
0
  0
POLYLINE
  8
21
 66
1
 10
0.0000
 20
0.0000
 30
0.0000
 40
0.0635
 41
0.0635
 70
0
  0
VERTEX
  8
21
 10
8.7500
 20
1.3883
 30
0.0000
 42
1.0000
  0
VERTEX
  8
21
 10
8.7500
 20
1.4518
 30
0.0000
  0
SEQEND
  8
0
  0
POLYLINE
  8
21
 66
1
 10
0.0000
 20
0.0000
 30
0.0000
 40
0.0635
 41
0.0635
 70
0
  0
VERTEX
  8
21
 10
3.7500
 20
1.4518
 30
0.0000
 42
1.0000
  0
VERTEX
  8
21
 10
3.7500
 20
1.3883
 30
0.0000
  0
SEQEND
  8
0
  0
POLYLINE
  8
21
 66
1
 10
0.0000
 20
0.0000
 30
0.0000
 40
0.1270
 41
0.1270
 70
0
  0
VERTEX
  8
21
 10
8.7500
 20
1.4200
 30
0.0000
  0
VERTEX
  8
21
 10
8.7500
 20
6.4200
 30
0.0000
  0
SEQEND
  8
0
  0
POLYLINE
  8
21
 66
1
 10
0.0000
 20
0.0000
 30
0.0000
 40
0.0635
 41
0.0635
 70
0
  0
VERTEX
  8
21
 10
8.7818
 20
6.4200
 30
0.0000
 42
1.0000
  0
VERTEX
  8
21
 10
8.7182
 20
6.4200
 30
0.0000
  0
SEQEND
  8
0
  0
POLYLINE
  8
21
 66
1
 10
0.0000
 20
0.0000
 30
0.0000
 40
0.0635
 41
0.0635
 70
0
  0
VERTEX
  8
21
 10
8.7182
 20
1.4200
 30
0.0000
 42
1.0000
  0
VERTEX
  8
21
 10
8.7818
 20
1.4200
 30
0.0000
  0
SEQEND
  8
0
  0
INSERT
  8
1
  2
RECT
 10
8.9500
 20
5.7200
 30
0.0000
 41
1.4000
 42
3.0000
 43
1.0000
 50
270.0000
  0
INSERT
  8
1
  2
RECT
 10
3.5500
 20
5.7200
 30
0.0000
 41
1.4000
 42
3.0000
 43
1.0000
 50
270.0000
  0
INSERT
  8
1
  2
RECT
 10
8.9500
 20
3.9200
 30
0.0000
 41
1.0000
 42
3.0000
 43
1.0000
 50
270.0000
  0
INSERT
  8
1
  2
RECT
 10
3.5500
 20
3.9200
 30
0.0000
 41
1.0000
 42
3.0000
 43
1.0000
 50
270.0000
  0
INSERT
  8
1
  2
RECT
 10
8.9500
 20
2.1200
 30
0.0000
 41
1.4000
 42
3.0000
 43
1.0000
 50
270.0000
  0
INSERT
  8
1
  2
RECT
 10
3.5500
 20
2.1200
 30
0.0000
 41
1.4000
 42
3.0000
 43
1.0000
 50
270.0000
  0
INSERT
  8
1
  2
RECT
 10
9.9100
 20
13.3500
 30
0.0000
 41
1.3000
 42
1.6000
 43
1.0000
 50
180.0000
  0
INSERT
  8
1
  2
RECT
 10
8.0100
 20
13.3500
 30
0.0000
 41
1.3000
 42
1.6000
 43
1.0000
 50
180.0000
  0
INSERT
  8
1
  2
RECT
 10
5.2500
 20
13.4000
 30
0.0000
 41
1.3000
 42
1.6000
 43
1.0000
 50
180.0000
  0
INSERT
  8
1
  2
RECT
 10
3.3500
 20
13.4000
 30
0.0000
 41
1.3000
 42
1.6000
 43
1.0000
 50
180.0000
  0
INSERT
  8
17
  2
ROUNDP
 10
1.7550
 20
10.9700
 30
0.0000
 41
1.3208
 42
1.3208
 43
1.0000
 50
0.0000
  0
INSERT
  8
17
  2
ROUNDP
 10
1.7550
 20
10.9700
 30
0.0000
 41
1.3208
 42
1.3208
 43
1.0000
 50
0.0000
  0
CIRCLE
  8
44
 10
1.7550
 20
10.9700
 30
0.0000
 40
0.4064
  0
INSERT
  8
17
  2
ROUNDP
 10
3.0250
 20
8.4300
 30
0.0000
 41
1.3208
 42
1.3208
 43
1.0000
 50
0.0000
  0
INSERT
  8
17
  2
ROUNDP
 10
3.0250
 20
8.4300
 30
0.0000
 41
1.3208
 42
1.3208
 43
1.0000
 50
0.0000
  0
CIRCLE
  8
44
 10
3.0250
 20
8.4300
 30
0.0000
 40
0.4064
  0
INSERT
  8
17
  2
ROUNDP
 10
4.2950
 20
10.9700
 30
0.0000
 41
1.3208
 42
1.3208
 43
1.0000
 50
0.0000
  0
INSERT
  8
17
  2
ROUNDP
 10
4.2950
 20
10.9700
 30
0.0000
 41
1.3208
 42
1.3208
 43
1.0000
 50
0.0000
  0
CIRCLE
  8
44
 10
4.2950
 20
10.9700
 30
0.0000
 40
0.4064
  0
INSERT
  8
17
  2
ROUNDP
 10
5.5650
 20
8.4300
 30
0.0000
 41
1.3208
 42
1.3208
 43
1.0000
 50
0.0000
  0
INSERT
  8
17
  2
ROUNDP
 10
5.5650
 20
8.4300
 30
0.0000
 41
1.3208
 42
1.3208
 43
1.0000
 50
0.0000
  0
CIRCLE
  8
44
 10
5.5650
 20
8.4300
 30
0.0000
 40
0.4064
  0
INSERT
  8
17
  2
ROUNDP
 10
6.8350
 20
10.9700
 30
0.0000
 41
1.3208
 42
1.3208
 43
1.0000
 50
0.0000
  0
INSERT
  8
17
  2
ROUNDP
 10
6.8350
 20
10.9700
 30
0.0000
 41
1.3208
 42
1.3208
 43
1.0000
 50
0.0000
  0
CIRCLE
  8
44
 10
6.8350
 20
10.9700
 30
0.0000
 40
0.4064
  0
INSERT
  8
17
  2
ROUNDP
 10
8.1050
 20
8.4300
 30
0.0000
 41
1.3208
 42
1.3208
 43
1.0000
 50
0.0000
  0
INSERT
  8
17
  2
ROUNDP
 10
8.1050
 20
8.4300
 30
0.0000
 41
1.3208
 42
1.3208
 43
1.0000
 50
0.0000
  0
CIRCLE
  8
44
 10
8.1050
 20
8.4300
 30
0.0000
 40
0.4064
  0
INSERT
  8
17
  2
ROUNDP
 10
9.3750
 20
10.9700
 30
0.0000
 41
1.3208
 42
1.3208
 43
1.0000
 50
0.0000
  0
INSERT
  8
17
  2
ROUNDP
 10
9.3750
 20
10.9700
 30
0.0000
 41
1.3208
 42
1.3208
 43
1.0000
 50
0.0000
  0
CIRCLE
  8
44
 10
9.3750
 20
10.9700
 30
0.0000
 40
0.4064
  0
INSERT
  8
17
  2
ROUNDP
 10
10.6450
 20
8.4300
 30
0.0000
 41
1.3208
 42
1.3208
 43
1.0000
 50
0.0000
  0
INSERT
  8
17
  2
ROUNDP
 10
10.6450
 20
8.4300
 30
0.0000
 41
1.3208
 42
1.3208
 43
1.0000
 50
0.0000
  0
CIRCLE
  8
44
 10
10.6450
 20
8.4300
 30
0.0000
 40
0.4064
  0
POLYLINE
  8
1
 66
1
 10
0.0000
 20
0.0000
 30
0.0000
 40
0.3048
 41
0.3048
 70
0
  0
VERTEX
  8
1
 10
2.0000
 20
11.2150
 30
0.0000
  0
VERTEX
  8
1
 10
1.7550
 20
10.9700
 30
0.0000
  0
SEQEND
  8
0
  0
POLYLINE
  8
1
 66
1
 10
0.0000
 20
0.0000
 30
0.0000
 40
0.1524
 41
0.1524
 70
0
  0
VERTEX
  8
1
 10
1.7011
 20
11.0239
 30
0.0000
 42
1.0000
  0
VERTEX
  8
1
 10
1.8089
 20
10.9161
 30
0.0000
  0
SEQEND
  8
0
  0
POLYLINE
  8
1
 66
1
 10
0.0000
 20
0.0000
 30
0.0000
 40
0.1524
 41
0.1524
 70
0
  0
VERTEX
  8
1
 10
2.0539
 20
11.1611
 30
0.0000
 42
1.0000
  0
VERTEX
  8
1
 10
1.9461
 20
11.2689
 30
0.0000
  0
SEQEND
  8
0
  0
POLYLINE
  8
1
 66
1
 10
0.0000
 20
0.0000
 30
0.0000
 40
0.3048
 41
0.3048
 70
0
  0
VERTEX
  8
1
 10
2.0000
 20
11.2150
 30
0.0000
  0
VERTEX
  8
1
 10
2.0000
 20
14.8000
 30
0.0000
  0
SEQEND
  8
0
  0
POLYLINE
  8
1
 66
1
 10
0.0000
 20
0.0000
 30
0.0000
 40
0.1524
 41
0.1524
 70
0
  0
VERTEX
  8
1
 10
2.0762
 20
14.8000
 30
0.0000
 42
1.0000
  0
VERTEX
  8
1
 10
1.9238
 20
14.8000
 30
0.0000
  0
SEQEND
  8
0
  0
POLYLINE
  8
1
 66
1
 10
0.0000
 20
0.0000
 30
0.0000
 40
0.1524
 41
0.1524
 70
0
  0
VERTEX
  8
1
 10
1.9238
 20
11.2150
 30
0.0000
 42
1.0000
  0
VERTEX
  8
1
 10
2.0762
 20
11.2150
 30
0.0000
  0
SEQEND
  8
0
  0
POLYLINE
  8
1
 66
1
 10
0.0000
 20
0.0000
 30
0.0000
 40
0.3048
 41
0.3048
 70
0
  0
VERTEX
  8
1
 10
2.0000
 20
14.8000
 30
0.0000
  0
VERTEX
  8
1
 10
2.6500
 20
15.4500
 30
0.0000
  0
SEQEND
  8
0
  0
POLYLINE
  8
1
 66
1
 10
0.0000
 20
0.0000
 30
0.0000
 40
0.1524
 41
0.1524
 70
0
  0
VERTEX
  8
1
 10
2.7039
 20
15.3961
 30
0.0000
 42
1.0000
  0
VERTEX
  8
1
 10
2.5961
 20
15.5039
 30
0.0000
  0
SEQEND
  8
0
  0
POLYLINE
  8
1
 66
1
 10
0.0000
 20
0.0000
 30
0.0000
 40
0.1524
 41
0.1524
 70
0
  0
VERTEX
  8
1
 10
1.9461
 20
14.8539
 30
0.0000
 42
1.0000
  0
VERTEX
  8
1
 10
2.0539
 20
14.7461
 30
0.0000
  0
SEQEND
  8
0
  0
POLYLINE
  8
1
 66
1
 10
0.0000
 20
0.0000
 30
0.0000
 40
0.3048
 41
0.3048
 70
0
  0
VERTEX
  8
1
 10
3.3500
 20
15.7500
 30
0.0000
  0
VERTEX
  8
1
 10
2.6500
 20
15.4500
 30
0.0000
  0
SEQEND
  8
0
  0
POLYLINE
  8
1
 66
1
 10
0.0000
 20
0.0000
 30
0.0000
 40
0.1524
 41
0.1524
 70
0
  0
VERTEX
  8
1
 10
2.6200
 20
15.5200
 30
0.0000
 42
1.0000
  0
VERTEX
  8
1
 10
2.6800
 20
15.3800
 30
0.0000
  0
SEQEND
  8
0
  0
POLYLINE
  8
1
 66
1
 10
0.0000
 20
0.0000
 30
0.0000
 40
0.1524
 41
0.1524
 70
0
  0
VERTEX
  8
1
 10
3.3800
 20
15.6800
 30
0.0000
 42
1.0000
  0
VERTEX
  8
1
 10
3.3200
 20
15.8200
 30
0.0000
  0
SEQEND
  8
0
  0
POLYLINE
  8
1
 66
1
 10
0.0000
 20
0.0000
 30
0.0000
 40
0.3048
 41
0.3048
 70
0
  0
VERTEX
  8
1
 10
9.9100
 20
13.3500
 30
0.0000
  0
VERTEX
  8
1
 10
10.7500
 20
13.3500
 30
0.0000
  0
SEQEND
  8
0
  0
POLYLINE
  8
1
 66
1
 10
0.0000
 20
0.0000
 30
0.0000
 40
0.1524
 41
0.1524
 70
0
  0
VERTEX
  8
1
 10
10.7500
 20
13.2738
 30
0.0000
 42
1.0000
  0
VERTEX
  8
1
 10
10.7500
 20
13.4262
 30
0.0000
  0
SEQEND
  8
0
  0
POLYLINE
  8
1
 66
1
 10
0.0000
 20
0.0000
 30
0.0000
 40
0.1524
 41
0.1524
 70
0
  0
VERTEX
  8
1
 10
9.9100
 20
13.4262
 30
0.0000
 42
1.0000
  0
VERTEX
  8
1
 10
9.9100
 20
13.2738
 30
0.0000
  0
SEQEND
  8
0
  0
POLYLINE
  8
1
 66
1
 10
0.0000
 20
0.0000
 30
0.0000
 40
0.3048
 41
0.3048
 70
0
  0
VERTEX
  8
1
 10
10.7500
 20
13.3500
 30
0.0000
  0
VERTEX
  8
1
 10
11.5000
 20
14.1000
 30
0.0000
  0
SEQEND
  8
0
  0
POLYLINE
  8
1
 66
1
 10
0.0000
 20
0.0000
 30
0.0000
 40
0.1524
 41
0.1524
 70
0
  0
VERTEX
  8
1
 10
11.5539
 20
14.0461
 30
0.0000
 42
1.0000
  0
VERTEX
  8
1
 10
11.4461
 20
14.1539
 30
0.0000
  0
SEQEND
  8
0
  0
POLYLINE
  8
1
 66
1
 10
0.0000
 20
0.0000
 30
0.0000
 40
0.1524
 41
0.1524
 70
0
  0
VERTEX
  8
1
 10
10.6961
 20
13.4039
 30
0.0000
 42
1.0000
  0
VERTEX
  8
1
 10
10.8039
 20
13.2961
 30
0.0000
  0
SEQEND
  8
0
  0
POLYLINE
  8
1
 66
1
 10
0.0000
 20
0.0000
 30
0.0000
 40
0.3048
 41
0.3048
 70
0
  0
VERTEX
  8
1
 10
11.0000
 20
18.1000
 30
0.0000
  0
VERTEX
  8
1
 10
1.9000
 20
18.1000
 30
0.0000
  0
SEQEND
  8
0
  0
POLYLINE
  8
1
 66
1
 10
0.0000
 20
0.0000
 30
0.0000
 40
0.1524
 41
0.1524
 70
0
  0
VERTEX
  8
1
 10
1.9000
 20
18.1762
 30
0.0000
 42
1.0000
  0
VERTEX
  8
1
 10
1.9000
 20
18.0238
 30
0.0000
  0
SEQEND
  8
0
  0
POLYLINE
  8
1
 66
1
 10
0.0000
 20
0.0000
 30
0.0000
 40
0.1524
 41
0.1524
 70
0
  0
VERTEX
  8
1
 10
11.0000
 20
18.0238
 30
0.0000
 42
1.0000
  0
VERTEX
  8
1
 10
11.0000
 20
18.1762
 30
0.0000
  0
SEQEND
  8
0
  0
POLYLINE
  8
1
 66
1
 10
0.0000
 20
0.0000
 30
0.0000
 40
0.3048
 41
0.3048
 70
0
  0
VERTEX
  8
1
 10
3.3500
 20
15.7500
 30
0.0000
  0
VERTEX
  8
1
 10
1.6500
 20
15.7500
 30
0.0000
  0
SEQEND
  8
0
  0
POLYLINE
  8
1
 66
1
 10
0.0000
 20
0.0000
 30
0.0000
 40
0.1524
 41
0.1524
 70
0
  0
VERTEX
  8
1
 10
1.6500
 20
15.8262
 30
0.0000
 42
1.0000
  0
VERTEX
  8
1
 10
1.6500
 20
15.6738
 30
0.0000
  0
SEQEND
  8
0
  0
POLYLINE
  8
1
 66
1
 10
0.0000
 20
0.0000
 30
0.0000
 40
0.1524
 41
0.1524
 70
0
  0
VERTEX
  8
1
 10
3.3500
 20
15.6738
 30
0.0000
 42
1.0000
  0
VERTEX
  8
1
 10
3.3500
 20
15.8262
 30
0.0000
  0
SEQEND
  8
0
  0
POLYLINE
  8
1
 66
1
 10
0.0000
 20
0.0000
 30
0.0000
 40
0.3048
 41
0.3048
 70
0
  0
VERTEX
  8
1
 10
1.6500
 20
15.7500
 30
0.0000
  0
VERTEX
  8
1
 10
1.3000
 20
16.1000
 30
0.0000
  0
SEQEND
  8
0
  0
POLYLINE
  8
1
 66
1
 10
0.0000
 20
0.0000
 30
0.0000
 40
0.1524
 41
0.1524
 70
0
  0
VERTEX
  8
1
 10
1.3539
 20
16.1539
 30
0.0000
 42
1.0000
  0
VERTEX
  8
1
 10
1.2461
 20
16.0461
 30
0.0000
  0
SEQEND
  8
0
  0
POLYLINE
  8
1
 66
1
 10
0.0000
 20
0.0000
 30
0.0000
 40
0.1524
 41
0.1524
 70
0
  0
VERTEX
  8
1
 10
1.5961
 20
15.6961
 30
0.0000
 42
1.0000
  0
VERTEX
  8
1
 10
1.7039
 20
15.8039
 30
0.0000
  0
SEQEND
  8
0
  0
POLYLINE
  8
1
 66
1
 10
0.0000
 20
0.0000
 30
0.0000
 40
0.3048
 41
0.3048
 70
0
  0
VERTEX
  8
1
 10
1.3000
 20
16.1000
 30
0.0000
  0
VERTEX
  8
1
 10
1.3000
 20
17.5000
 30
0.0000
  0
SEQEND
  8
0
  0
POLYLINE
  8
1
 66
1
 10
0.0000
 20
0.0000
 30
0.0000
 40
0.1524
 41
0.1524
 70
0
  0
VERTEX
  8
1
 10
1.3762
 20
17.5000
 30
0.0000
 42
1.0000
  0
VERTEX
  8
1
 10
1.2238
 20
17.5000
 30
0.0000
  0
SEQEND
  8
0
  0
POLYLINE
  8
1
 66
1
 10
0.0000
 20
0.0000
 30
0.0000
 40
0.1524
 41
0.1524
 70
0
  0
VERTEX
  8
1
 10
1.2238
 20
16.1000
 30
0.0000
 42
1.0000
  0
VERTEX
  8
1
 10
1.3762
 20
16.1000
 30
0.0000
  0
SEQEND
  8
0
  0
POLYLINE
  8
1
 66
1
 10
0.0000
 20
0.0000
 30
0.0000
 40
0.3048
 41
0.3048
 70
0
  0
VERTEX
  8
1
 10
1.3000
 20
17.5000
 30
0.0000
  0
VERTEX
  8
1
 10
1.9000
 20
18.1000
 30
0.0000
  0
SEQEND
  8
0
  0
POLYLINE
  8
1
 66
1
 10
0.0000
 20
0.0000
 30
0.0000
 40
0.1524
 41
0.1524
 70
0
  0
VERTEX
  8
1
 10
1.9539
 20
18.0461
 30
0.0000
 42
1.0000
  0
VERTEX
  8
1
 10
1.8461
 20
18.1539
 30
0.0000
  0
SEQEND
  8
0
  0
POLYLINE
  8
1
 66
1
 10
0.0000
 20
0.0000
 30
0.0000
 40
0.1524
 41
0.1524
 70
0
  0
VERTEX
  8
1
 10
1.2461
 20
17.5539
 30
0.0000
 42
1.0000
  0
VERTEX
  8
1
 10
1.3539
 20
17.4461
 30
0.0000
  0
SEQEND
  8
0
  0
POLYLINE
  8
1
 66
1
 10
0.0000
 20
0.0000
 30
0.0000
 40
0.3048
 41
0.3048
 70
0
  0
VERTEX
  8
1
 10
11.0000
 20
18.1000
 30
0.0000
  0
VERTEX
  8
1
 10
11.5000
 20
17.6000
 30
0.0000
  0
SEQEND
  8
0
  0
POLYLINE
  8
1
 66
1
 10
0.0000
 20
0.0000
 30
0.0000
 40
0.1524
 41
0.1524
 70
0
  0
VERTEX
  8
1
 10
11.4461
 20
17.5461
 30
0.0000
 42
1.0000
  0
VERTEX
  8
1
 10
11.5539
 20
17.6539
 30
0.0000
  0
SEQEND
  8
0
  0
POLYLINE
  8
1
 66
1
 10
0.0000
 20
0.0000
 30
0.0000
 40
0.1524
 41
0.1524
 70
0
  0
VERTEX
  8
1
 10
11.0539
 20
18.1539
 30
0.0000
 42
1.0000
  0
VERTEX
  8
1
 10
10.9461
 20
18.0461
 30
0.0000
  0
SEQEND
  8
0
  0
POLYLINE
  8
1
 66
1
 10
0.0000
 20
0.0000
 30
0.0000
 40
0.3048
 41
0.3048
 70
0
  0
VERTEX
  8
1
 10
11.5000
 20
17.6000
 30
0.0000
  0
VERTEX
  8
1
 10
11.5000
 20
14.1000
 30
0.0000
  0
SEQEND
  8
0
  0
POLYLINE
  8
1
 66
1
 10
0.0000
 20
0.0000
 30
0.0000
 40
0.1524
 41
0.1524
 70
0
  0
VERTEX
  8
1
 10
11.4238
 20
14.1000
 30
0.0000
 42
1.0000
  0
VERTEX
  8
1
 10
11.5762
 20
14.1000
 30
0.0000
  0
SEQEND
  8
0
  0
POLYLINE
  8
1
 66
1
 10
0.0000
 20
0.0000
 30
0.0000
 40
0.1524
 41
0.1524
 70
0
  0
VERTEX
  8
1
 10
11.5762
 20
17.6000
 30
0.0000
 42
1.0000
  0
VERTEX
  8
1
 10
11.4238
 20
17.6000
 30
0.0000
  0
SEQEND
  8
0
  0
POLYLINE
  8
1
 66
1
 10
0.0000
 20
0.0000
 30
0.0000
 40
0.3048
 41
0.3048
 70
0
  0
VERTEX
  8
1
 10
3.0250
 20
8.4300
 30
0.0000
  0
VERTEX
  8
1
 10
3.0250
 20
13.0750
 30
0.0000
  0
SEQEND
  8
0
  0
POLYLINE
  8
1
 66
1
 10
0.0000
 20
0.0000
 30
0.0000
 40
0.1524
 41
0.1524
 70
0
  0
VERTEX
  8
1
 10
3.1012
 20
13.0750
 30
0.0000
 42
1.0000
  0
VERTEX
  8
1
 10
2.9488
 20
13.0750
 30
0.0000
  0
SEQEND
  8
0
  0
POLYLINE
  8
1
 66
1
 10
0.0000
 20
0.0000
 30
0.0000
 40
0.1524
 41
0.1524
 70
0
  0
VERTEX
  8
1
 10
2.9488
 20
8.4300
 30
0.0000
 42
1.0000
  0
VERTEX
  8
1
 10
3.1012
 20
8.4300
 30
0.0000
  0
SEQEND
  8
0
  0
POLYLINE
  8
1
 66
1
 10
0.0000
 20
0.0000
 30
0.0000
 40
0.3048
 41
0.3048
 70
0
  0
VERTEX
  8
1
 10
3.0250
 20
13.0750
 30
0.0000
  0
VERTEX
  8
1
 10
3.3500
 20
13.4000
 30
0.0000
  0
SEQEND
  8
0
  0
POLYLINE
  8
1
 66
1
 10
0.0000
 20
0.0000
 30
0.0000
 40
0.1524
 41
0.1524
 70
0
  0
VERTEX
  8
1
 10
3.4039
 20
13.3461
 30
0.0000
 42
1.0000
  0
VERTEX
  8
1
 10
3.2961
 20
13.4539
 30
0.0000
  0
SEQEND
  8
0
  0
POLYLINE
  8
1
 66
1
 10
0.0000
 20
0.0000
 30
0.0000
 40
0.1524
 41
0.1524
 70
0
  0
VERTEX
  8
1
 10
2.9711
 20
13.1289
 30
0.0000
 42
1.0000
  0
VERTEX
  8
1
 10
3.0789
 20
13.0211
 30
0.0000
  0
SEQEND
  8
0
  0
POLYLINE
  8
1
 66
1
 10
0.0000
 20
0.0000
 30
0.0000
 40
0.3048
 41
0.3048
 70
0
  0
VERTEX
  8
1
 10
3.3500
 20
13.4000
 30
0.0000
  0
VERTEX
  8
1
 10
3.3500
 20
14.4500
 30
0.0000
  0
SEQEND
  8
0
  0
POLYLINE
  8
1
 66
1
 10
0.0000
 20
0.0000
 30
0.0000
 40
0.1524
 41
0.1524
 70
0
  0
VERTEX
  8
1
 10
3.4262
 20
14.4500
 30
0.0000
 42
1.0000
  0
VERTEX
  8
1
 10
3.2738
 20
14.4500
 30
0.0000
  0
SEQEND
  8
0
  0
POLYLINE
  8
1
 66
1
 10
0.0000
 20
0.0000
 30
0.0000
 40
0.1524
 41
0.1524
 70
0
  0
VERTEX
  8
1
 10
3.2738
 20
13.4000
 30
0.0000
 42
1.0000
  0
VERTEX
  8
1
 10
3.4262
 20
13.4000
 30
0.0000
  0
SEQEND
  8
0
  0
POLYLINE
  8
1
 66
1
 10
0.0000
 20
0.0000
 30
0.0000
 40
0.3048
 41
0.3048
 70
0
  0
VERTEX
  8
1
 10
3.3500
 20
14.4500
 30
0.0000
  0
VERTEX
  8
1
 10
3.6000
 20
14.7000
 30
0.0000
  0
SEQEND
  8
0
  0
POLYLINE
  8
1
 66
1
 10
0.0000
 20
0.0000
 30
0.0000
 40
0.1524
 41
0.1524
 70
0
  0
VERTEX
  8
1
 10
3.6539
 20
14.6461
 30
0.0000
 42
1.0000
  0
VERTEX
  8
1
 10
3.5461
 20
14.7539
 30
0.0000
  0
SEQEND
  8
0
  0
POLYLINE
  8
1
 66
1
 10
0.0000
 20
0.0000
 30
0.0000
 40
0.1524
 41
0.1524
 70
0
  0
VERTEX
  8
1
 10
3.2961
 20
14.5039
 30
0.0000
 42
1.0000
  0
VERTEX
  8
1
 10
3.4039
 20
14.3961
 30
0.0000
  0
SEQEND
  8
0
  0
POLYLINE
  8
1
 66
1
 10
0.0000
 20
0.0000
 30
0.0000
 40
0.3048
 41
0.3048
 70
0
  0
VERTEX
  8
1
 10
3.6000
 20
14.7000
 30
0.0000
  0
VERTEX
  8
1
 10
5.1000
 20
14.7000
 30
0.0000
  0
SEQEND
  8
0
  0
POLYLINE
  8
1
 66
1
 10
0.0000
 20
0.0000
 30
0.0000
 40
0.1524
 41
0.1524
 70
0
  0
VERTEX
  8
1
 10
5.1000
 20
14.6238
 30
0.0000
 42
1.0000
  0
VERTEX
  8
1
 10
5.1000
 20
14.7762
 30
0.0000
  0
SEQEND
  8
0
  0
POLYLINE
  8
1
 66
1
 10
0.0000
 20
0.0000
 30
0.0000
 40
0.1524
 41
0.1524
 70
0
  0
VERTEX
  8
1
 10
3.6000
 20
14.7762
 30
0.0000
 42
1.0000
  0
VERTEX
  8
1
 10
3.6000
 20
14.6238
 30
0.0000
  0
SEQEND
  8
0
  0
POLYLINE
  8
1
 66
1
 10
0.0000
 20
0.0000
 30
0.0000
 40
0.3048
 41
0.3048
 70
0
  0
VERTEX
  8
1
 10
5.1000
 20
14.7000
 30
0.0000
  0
VERTEX
  8
1
 10
5.5000
 20
15.1000
 30
0.0000
  0
SEQEND
  8
0
  0
POLYLINE
  8
1
 66
1
 10
0.0000
 20
0.0000
 30
0.0000
 40
0.1524
 41
0.1524
 70
0
  0
VERTEX
  8
1
 10
5.5539
 20
15.0461
 30
0.0000
 42
1.0000
  0
VERTEX
  8
1
 10
5.4461
 20
15.1539
 30
0.0000
  0
SEQEND
  8
0
  0
POLYLINE
  8
1
 66
1
 10
0.0000
 20
0.0000
 30
0.0000
 40
0.1524
 41
0.1524
 70
0
  0
VERTEX
  8
1
 10
5.0461
 20
14.7539
 30
0.0000
 42
1.0000
  0
VERTEX
  8
1
 10
5.1539
 20
14.6461
 30
0.0000
  0
SEQEND
  8
0
  0
POLYLINE
  8
1
 66
1
 10
0.0000
 20
0.0000
 30
0.0000
 40
0.3048
 41
0.3048
 70
0
  0
VERTEX
  8
1
 10
5.5000
 20
15.1000
 30
0.0000
  0
VERTEX
  8
1
 10
5.5000
 20
16.3000
 30
0.0000
  0
SEQEND
  8
0
  0
POLYLINE
  8
1
 66
1
 10
0.0000
 20
0.0000
 30
0.0000
 40
0.1524
 41
0.1524
 70
0
  0
VERTEX
  8
1
 10
5.5762
 20
16.3000
 30
0.0000
 42
1.0000
  0
VERTEX
  8
1
 10
5.4238
 20
16.3000
 30
0.0000
  0
SEQEND
  8
0
  0
POLYLINE
  8
1
 66
1
 10
0.0000
 20
0.0000
 30
0.0000
 40
0.1524
 41
0.1524
 70
0
  0
VERTEX
  8
1
 10
5.4238
 20
15.1000
 30
0.0000
 42
1.0000
  0
VERTEX
  8
1
 10
5.5762
 20
15.1000
 30
0.0000
  0
SEQEND
  8
0
  0
POLYLINE
  8
1
 66
1
 10
0.0000
 20
0.0000
 30
0.0000
 40
0.3048
 41
0.3048
 70
0
  0
VERTEX
  8
1
 10
5.5000
 20
16.3000
 30
0.0000
  0
VERTEX
  8
1
 10
5.0000
 20
16.8000
 30
0.0000
  0
SEQEND
  8
0
  0
POLYLINE
  8
1
 66
1
 10
0.0000
 20
0.0000
 30
0.0000
 40
0.1524
 41
0.1524
 70
0
  0
VERTEX
  8
1
 10
5.0539
 20
16.8539
 30
0.0000
 42
1.0000
  0
VERTEX
  8
1
 10
4.9461
 20
16.7461
 30
0.0000
  0
SEQEND
  8
0
  0
POLYLINE
  8
1
 66
1
 10
0.0000
 20
0.0000
 30
0.0000
 40
0.1524
 41
0.1524
 70
0
  0
VERTEX
  8
1
 10
5.4461
 20
16.2461
 30
0.0000
 42
1.0000
  0
VERTEX
  8
1
 10
5.5539
 20
16.3539
 30
0.0000
  0
SEQEND
  8
0
  0
POLYLINE
  8
1
 66
1
 10
0.0000
 20
0.0000
 30
0.0000
 40
0.3048
 41
0.3048
 70
0
  0
VERTEX
  8
1
 10
5.0000
 20
16.8000
 30
0.0000
  0
VERTEX
  8
1
 10
3.3000
 20
16.8000
 30
0.0000
  0
SEQEND
  8
0
  0
POLYLINE
  8
1
 66
1
 10
0.0000
 20
0.0000
 30
0.0000
 40
0.1524
 41
0.1524
 70
0
  0
VERTEX
  8
1
 10
3.3000
 20
16.8762
 30
0.0000
 42
1.0000
  0
VERTEX
  8
1
 10
3.3000
 20
16.7238
 30
0.0000
  0
SEQEND
  8
0
  0
POLYLINE
  8
1
 66
1
 10
0.0000
 20
0.0000
 30
0.0000
 40
0.1524
 41
0.1524
 70
0
  0
VERTEX
  8
1
 10
5.0000
 20
16.7238
 30
0.0000
 42
1.0000
  0
VERTEX
  8
1
 10
5.0000
 20
16.8762
 30
0.0000
  0
SEQEND
  8
0
  0
POLYLINE
  8
1
 66
1
 10
0.0000
 20
0.0000
 30
0.0000
 40
0.3048
 41
0.3048
 70
0
  0
VERTEX
  8
1
 10
3.3000
 20
16.8000
 30
0.0000
  0
VERTEX
  8
1
 10
3.3500
 20
16.8500
 30
0.0000
  0
SEQEND
  8
0
  0
POLYLINE
  8
1
 66
1
 10
0.0000
 20
0.0000
 30
0.0000
 40
0.1524
 41
0.1524
 70
0
  0
VERTEX
  8
1
 10
3.4039
 20
16.7961
 30
0.0000
 42
1.0000
  0
VERTEX
  8
1
 10
3.2961
 20
16.9039
 30
0.0000
  0
SEQEND
  8
0
  0
POLYLINE
  8
1
 66
1
 10
0.0000
 20
0.0000
 30
0.0000
 40
0.1524
 41
0.1524
 70
0
  0
VERTEX
  8
1
 10
3.2461
 20
16.8539
 30
0.0000
 42
1.0000
  0
VERTEX
  8
1
 10
3.3539
 20
16.7461
 30
0.0000
  0
SEQEND
  8
0
  0
POLYLINE
  8
1
 66
1
 10
0.0000
 20
0.0000
 30
0.0000
 40
0.4064
 41
0.4064
 70
0
  0
VERTEX
  8
1
 10
0.0000
 20
0.0000
 30
0.0000
  0
VERTEX
  8
1
 10
12.7950
 20
0.0000
 30
0.0000
  0
SEQEND
  8
0
  0
POLYLINE
  8
1
 66
1
 10
0.0000
 20
0.0000
 30
0.0000
 40
0.2032
 41
0.2032
 70
0
  0
VERTEX
  8
1
 10
12.7950
 20
-0.1016
 30
0.0000
 42
1.0000
  0
VERTEX
  8
1
 10
12.7950
 20
0.1016
 30
0.0000
  0
SEQEND
  8
0
  0
POLYLINE
  8
1
 66
1
 10
0.0000
 20
0.0000
 30
0.0000
 40
0.2032
 41
0.2032
 70
0
  0
VERTEX
  8
1
 10
0.0000
 20
0.1016
 30
0.0000
 42
1.0000
  0
VERTEX
  8
1
 10
0.0000
 20
-0.1016
 30
0.0000
  0
SEQEND
  8
0
  0
POLYLINE
  8
1
 66
1
 10
0.0000
 20
0.0000
 30
0.0000
 40
0.4064
 41
0.4064
 70
0
  0
VERTEX
  8
1
 10
12.7950
 20
0.0000
 30
0.0000
  0
VERTEX
  8
1
 10
12.7950
 20
19.3650
 30
0.0000
  0
SEQEND
  8
0
  0
POLYLINE
  8
1
 66
1
 10
0.0000
 20
0.0000
 30
0.0000
 40
0.2032
 41
0.2032
 70
0
  0
VERTEX
  8
1
 10
12.8966
 20
19.3650
 30
0.0000
 42
1.0000
  0
VERTEX
  8
1
 10
12.6934
 20
19.3650
 30
0.0000
  0
SEQEND
  8
0
  0
POLYLINE
  8
1
 66
1
 10
0.0000
 20
0.0000
 30
0.0000
 40
0.2032
 41
0.2032
 70
0
  0
VERTEX
  8
1
 10
12.6934
 20
0.0000
 30
0.0000
 42
1.0000
  0
VERTEX
  8
1
 10
12.8966
 20
0.0000
 30
0.0000
  0
SEQEND
  8
0
  0
POLYLINE
  8
1
 66
1
 10
0.0000
 20
0.0000
 30
0.0000
 40
0.4064
 41
0.4064
 70
0
  0
VERTEX
  8
1
 10
12.7950
 20
19.3650
 30
0.0000
  0
VERTEX
  8
1
 10
0.0000
 20
19.3650
 30
0.0000
  0
SEQEND
  8
0
  0
POLYLINE
  8
1
 66
1
 10
0.0000
 20
0.0000
 30
0.0000
 40
0.2032
 41
0.2032
 70
0
  0
VERTEX
  8
1
 10
0.0000
 20
19.4666
 30
0.0000
 42
1.0000
  0
VERTEX
  8
1
 10
0.0000
 20
19.2634
 30
0.0000
  0
SEQEND
  8
0
  0
POLYLINE
  8
1
 66
1
 10
0.0000
 20
0.0000
 30
0.0000
 40
0.2032
 41
0.2032
 70
0
  0
VERTEX
  8
1
 10
12.7950
 20
19.2634
 30
0.0000
 42
1.0000
  0
VERTEX
  8
1
 10
12.7950
 20
19.4666
 30
0.0000
  0
SEQEND
  8
0
  0
POLYLINE
  8
1
 66
1
 10
0.0000
 20
0.0000
 30
0.0000
 40
0.4064
 41
0.4064
 70
0
  0
VERTEX
  8
1
 10
0.0000
 20
19.3650
 30
0.0000
  0
VERTEX
  8
1
 10
0.0000
 20
0.0000
 30
0.0000
  0
SEQEND
  8
0
  0
POLYLINE
  8
1
 66
1
 10
0.0000
 20
0.0000
 30
0.0000
 40
0.2032
 41
0.2032
 70
0
  0
VERTEX
  8
1
 10
-0.1016
 20
0.0000
 30
0.0000
 42
1.0000
  0
VERTEX
  8
1
 10
0.1016
 20
0.0000
 30
0.0000
  0
SEQEND
  8
0
  0
POLYLINE
  8
1
 66
1
 10
0.0000
 20
0.0000
 30
0.0000
 40
0.2032
 41
0.2032
 70
0
  0
VERTEX
  8
1
 10
0.1016
 20
19.3650
 30
0.0000
 42
1.0000
  0
VERTEX
  8
1
 10
-0.1016
 20
19.3650
 30
0.0000
  0
SEQEND
  8
0
  0
POLYLINE
  8
1
 66
1
 10
0.0000
 20
0.0000
 30
0.0000
 40
0.3048
 41
0.3048
 70
0
  0
VERTEX
  8
1
 10
4.2950
 20
10.9700
 30
0.0000
  0
VERTEX
  8
1
 10
4.2950
 20
11.5950
 30
0.0000
  0
SEQEND
  8
0
  0
POLYLINE
  8
1
 66
1
 10
0.0000
 20
0.0000
 30
0.0000
 40
0.1524
 41
0.1524
 70
0
  0
VERTEX
  8
1
 10
4.3712
 20
11.5950
 30
0.0000
 42
1.0000
  0
VERTEX
  8
1
 10
4.2188
 20
11.5950
 30
0.0000
  0
SEQEND
  8
0
  0
POLYLINE
  8
1
 66
1
 10
0.0000
 20
0.0000
 30
0.0000
 40
0.1524
 41
0.1524
 70
0
  0
VERTEX
  8
1
 10
4.2188
 20
10.9700
 30
0.0000
 42
1.0000
  0
VERTEX
  8
1
 10
4.3712
 20
10.9700
 30
0.0000
  0
SEQEND
  8
0
  0
POLYLINE
  8
1
 66
1
 10
0.0000
 20
0.0000
 30
0.0000
 40
0.3048
 41
0.3048
 70
0
  0
VERTEX
  8
1
 10
4.2950
 20
11.5950
 30
0.0000
  0
VERTEX
  8
1
 10
5.2000
 20
12.5000
 30
0.0000
  0
SEQEND
  8
0
  0
POLYLINE
  8
1
 66
1
 10
0.0000
 20
0.0000
 30
0.0000
 40
0.1524
 41
0.1524
 70
0
  0
VERTEX
  8
1
 10
5.2539
 20
12.4461
 30
0.0000
 42
1.0000
  0
VERTEX
  8
1
 10
5.1461
 20
12.5539
 30
0.0000
  0
SEQEND
  8
0
  0
POLYLINE
  8
1
 66
1
 10
0.0000
 20
0.0000
 30
0.0000
 40
0.1524
 41
0.1524
 70
0
  0
VERTEX
  8
1
 10
4.2411
 20
11.6489
 30
0.0000
 42
1.0000
  0
VERTEX
  8
1
 10
4.3489
 20
11.5411
 30
0.0000
  0
SEQEND
  8
0
  0
POLYLINE
  8
1
 66
1
 10
0.0000
 20
0.0000
 30
0.0000
 40
0.3048
 41
0.3048
 70
0
  0
VERTEX
  8
1
 10
5.2000
 20
12.5000
 30
0.0000
  0
VERTEX
  8
1
 10
5.2000
 20
13.3500
 30
0.0000
  0
SEQEND
  8
0
  0
POLYLINE
  8
1
 66
1
 10
0.0000
 20
0.0000
 30
0.0000
 40
0.1524
 41
0.1524
 70
0
  0
VERTEX
  8
1
 10
5.2762
 20
13.3500
 30
0.0000
 42
1.0000
  0
VERTEX
  8
1
 10
5.1238
 20
13.3500
 30
0.0000
  0
SEQEND
  8
0
  0
POLYLINE
  8
1
 66
1
 10
0.0000
 20
0.0000
 30
0.0000
 40
0.1524
 41
0.1524
 70
0
  0
VERTEX
  8
1
 10
5.1238
 20
12.5000
 30
0.0000
 42
1.0000
  0
VERTEX
  8
1
 10
5.2762
 20
12.5000
 30
0.0000
  0
SEQEND
  8
0
  0
POLYLINE
  8
1
 66
1
 10
0.0000
 20
0.0000
 30
0.0000
 40
0.3048
 41
0.3048
 70
0
  0
VERTEX
  8
1
 10
5.2000
 20
13.3500
 30
0.0000
  0
VERTEX
  8
1
 10
5.2500
 20
13.4000
 30
0.0000
  0
SEQEND
  8
0
  0
POLYLINE
  8
1
 66
1
 10
0.0000
 20
0.0000
 30
0.0000
 40
0.1524
 41
0.1524
 70
0
  0
VERTEX
  8
1
 10
5.3039
 20
13.3461
 30
0.0000
 42
1.0000
  0
VERTEX
  8
1
 10
5.1961
 20
13.4539
 30
0.0000
  0
SEQEND
  8
0
  0
POLYLINE
  8
1
 66
1
 10
0.0000
 20
0.0000
 30
0.0000
 40
0.1524
 41
0.1524
 70
0
  0
VERTEX
  8
1
 10
5.1461
 20
13.4039
 30
0.0000
 42
1.0000
  0
VERTEX
  8
1
 10
5.2539
 20
13.2961
 30
0.0000
  0
SEQEND
  8
0
  0
POLYLINE
  8
1
 66
1
 10
0.0000
 20
0.0000
 30
0.0000
 40
0.3048
 41
0.3048
 70
0
  0
VERTEX
  8
1
 10
5.5650
 20
8.4300
 30
0.0000
  0
VERTEX
  8
1
 10
5.5650
 20
11.3650
 30
0.0000
  0
SEQEND
  8
0
  0
POLYLINE
  8
1
 66
1
 10
0.0000
 20
0.0000
 30
0.0000
 40
0.1524
 41
0.1524
 70
0
  0
VERTEX
  8
1
 10
5.6412
 20
11.3650
 30
0.0000
 42
1.0000
  0
VERTEX
  8
1
 10
5.4888
 20
11.3650
 30
0.0000
  0
SEQEND
  8
0
  0
POLYLINE
  8
1
 66
1
 10
0.0000
 20
0.0000
 30
0.0000
 40
0.1524
 41
0.1524
 70
0
  0
VERTEX
  8
1
 10
5.4888
 20
8.4300
 30
0.0000
 42
1.0000
  0
VERTEX
  8
1
 10
5.6412
 20
8.4300
 30
0.0000
  0
SEQEND
  8
0
  0
POLYLINE
  8
1
 66
1
 10
0.0000
 20
0.0000
 30
0.0000
 40
0.3048
 41
0.3048
 70
0
  0
VERTEX
  8
1
 10
5.5650
 20
11.3650
 30
0.0000
  0
VERTEX
  8
1
 10
6.6000
 20
12.4000
 30
0.0000
  0
SEQEND
  8
0
  0
POLYLINE
  8
1
 66
1
 10
0.0000
 20
0.0000
 30
0.0000
 40
0.1524
 41
0.1524
 70
0
  0
VERTEX
  8
1
 10
6.6539
 20
12.3461
 30
0.0000
 42
1.0000
  0
VERTEX
  8
1
 10
6.5461
 20
12.4539
 30
0.0000
  0
SEQEND
  8
0
  0
POLYLINE
  8
1
 66
1
 10
0.0000
 20
0.0000
 30
0.0000
 40
0.1524
 41
0.1524
 70
0
  0
VERTEX
  8
1
 10
5.5111
 20
11.4189
 30
0.0000
 42
1.0000
  0
VERTEX
  8
1
 10
5.6189
 20
11.3111
 30
0.0000
  0
SEQEND
  8
0
  0
POLYLINE
  8
1
 66
1
 10
0.0000
 20
0.0000
 30
0.0000
 40
0.3048
 41
0.3048
 70
0
  0
VERTEX
  8
1
 10
7.2500
 20
16.8500
 30
0.0000
  0
VERTEX
  8
1
 10
6.6000
 20
16.2000
 30
0.0000
  0
SEQEND
  8
0
  0
POLYLINE
  8
1
 66
1
 10
0.0000
 20
0.0000
 30
0.0000
 40
0.1524
 41
0.1524
 70
0
  0
VERTEX
  8
1
 10
6.5461
 20
16.2539
 30
0.0000
 42
1.0000
  0
VERTEX
  8
1
 10
6.6539
 20
16.1461
 30
0.0000
  0
SEQEND
  8
0
  0
POLYLINE
  8
1
 66
1
 10
0.0000
 20
0.0000
 30
0.0000
 40
0.1524
 41
0.1524
 70
0
  0
VERTEX
  8
1
 10
7.3039
 20
16.7961
 30
0.0000
 42
1.0000
  0
VERTEX
  8
1
 10
7.1961
 20
16.9039
 30
0.0000
  0
SEQEND
  8
0
  0
POLYLINE
  8
1
 66
1
 10
0.0000
 20
0.0000
 30
0.0000
 40
0.3048
 41
0.3048
 70
0
  0
VERTEX
  8
1
 10
6.6000
 20
16.2000
 30
0.0000
  0
VERTEX
  8
1
 10
6.6000
 20
12.4000
 30
0.0000
  0
SEQEND
  8
0
  0
POLYLINE
  8
1
 66
1
 10
0.0000
 20
0.0000
 30
0.0000
 40
0.1524
 41
0.1524
 70
0
  0
VERTEX
  8
1
 10
6.5238
 20
12.4000
 30
0.0000
 42
1.0000
  0
VERTEX
  8
1
 10
6.6762
 20
12.4000
 30
0.0000
  0
SEQEND
  8
0
  0
POLYLINE
  8
1
 66
1
 10
0.0000
 20
0.0000
 30
0.0000
 40
0.1524
 41
0.1524
 70
0
  0
VERTEX
  8
1
 10
6.6762
 20
16.2000
 30
0.0000
 42
1.0000
  0
VERTEX
  8
1
 10
6.5238
 20
16.2000
 30
0.0000
  0
SEQEND
  8
0
  0
POLYLINE
  8
1
 66
1
 10
0.0000
 20
0.0000
 30
0.0000
 40
0.3048
 41
0.3048
 70
0
  0
VERTEX
  8
1
 10
9.2500
 20
16.8500
 30
0.0000
  0
VERTEX
  8
1
 10
7.2500
 20
16.8500
 30
0.0000
  0
SEQEND
  8
0
  0
POLYLINE
  8
1
 66
1
 10
0.0000
 20
0.0000
 30
0.0000
 40
0.1524
 41
0.1524
 70
0
  0
VERTEX
  8
1
 10
7.2500
 20
16.9262
 30
0.0000
 42
1.0000
  0
VERTEX
  8
1
 10
7.2500
 20
16.7738
 30
0.0000
  0
SEQEND
  8
0
  0
POLYLINE
  8
1
 66
1
 10
0.0000
 20
0.0000
 30
0.0000
 40
0.1524
 41
0.1524
 70
0
  0
VERTEX
  8
1
 10
9.2500
 20
16.7738
 30
0.0000
 42
1.0000
  0
VERTEX
  8
1
 10
9.2500
 20
16.9262
 30
0.0000
  0
SEQEND
  8
0
  0
POLYLINE
  8
1
 66
1
 10
0.0000
 20
0.0000
 30
0.0000
 40
0.3048
 41
0.3048
 70
0
  0
VERTEX
  8
1
 10
8.0100
 20
13.3500
 30
0.0000
  0
VERTEX
  8
1
 10
8.0100
 20
14.6100
 30
0.0000
  0
SEQEND
  8
0
  0
POLYLINE
  8
1
 66
1
 10
0.0000
 20
0.0000
 30
0.0000
 40
0.1524
 41
0.1524
 70
0
  0
VERTEX
  8
1
 10
8.0862
 20
14.6100
 30
0.0000
 42
1.0000
  0
VERTEX
  8
1
 10
7.9338
 20
14.6100
 30
0.0000
  0
SEQEND
  8
0
  0
POLYLINE
  8
1
 66
1
 10
0.0000
 20
0.0000
 30
0.0000
 40
0.1524
 41
0.1524
 70
0
  0
VERTEX
  8
1
 10
7.9338
 20
13.3500
 30
0.0000
 42
1.0000
  0
VERTEX
  8
1
 10
8.0862
 20
13.3500
 30
0.0000
  0
SEQEND
  8
0
  0
POLYLINE
  8
1
 66
1
 10
0.0000
 20
0.0000
 30
0.0000
 40
0.3048
 41
0.3048
 70
0
  0
VERTEX
  8
1
 10
9.2500
 20
15.7500
 30
0.0000
  0
VERTEX
  8
1
 10
9.1500
 20
15.7500
 30
0.0000
  0
SEQEND
  8
0
  0
POLYLINE
  8
1
 66
1
 10
0.0000
 20
0.0000
 30
0.0000
 40
0.1524
 41
0.1524
 70
0
  0
VERTEX
  8
1
 10
9.1500
 20
15.8262
 30
0.0000
 42
1.0000
  0
VERTEX
  8
1
 10
9.1500
 20
15.6738
 30
0.0000
  0
SEQEND
  8
0
  0
POLYLINE
  8
1
 66
1
 10
0.0000
 20
0.0000
 30
0.0000
 40
0.1524
 41
0.1524
 70
0
  0
VERTEX
  8
1
 10
9.2500
 20
15.6738
 30
0.0000
 42
1.0000
  0
VERTEX
  8
1
 10
9.2500
 20
15.8262
 30
0.0000
  0
SEQEND
  8
0
  0
POLYLINE
  8
1
 66
1
 10
0.0000
 20
0.0000
 30
0.0000
 40
0.3048
 41
0.3048
 70
0
  0
VERTEX
  8
1
 10
9.1500
 20
15.7500
 30
0.0000
  0
VERTEX
  8
1
 10
8.0100
 20
14.6100
 30
0.0000
  0
SEQEND
  8
0
  0
POLYLINE
  8
1
 66
1
 10
0.0000
 20
0.0000
 30
0.0000
 40
0.1524
 41
0.1524
 70
0
  0
VERTEX
  8
1
 10
7.9561
 20
14.6639
 30
0.0000
 42
1.0000
  0
VERTEX
  8
1
 10
8.0639
 20
14.5561
 30
0.0000
  0
SEQEND
  8
0
  0
POLYLINE
  8
1
 66
1
 10
0.0000
 20
0.0000
 30
0.0000
 40
0.1524
 41
0.1524
 70
0
  0
VERTEX
  8
1
 10
9.2039
 20
15.6961
 30
0.0000
 42
1.0000
  0
VERTEX
  8
1
 10
9.0961
 20
15.8039
 30
0.0000
  0
SEQEND
  8
0
  0
POLYLINE
  8
1
 66
1
 10
0.0000
 20
0.0000
 30
0.0000
 40
0.3048
 41
0.3048
 70
0
  0
VERTEX
  8
1
 10
9.3750
 20
10.9700
 30
0.0000
  0
VERTEX
  8
1
 10
9.3750
 20
6.1450
 30
0.0000
  0
SEQEND
  8
0
  0
POLYLINE
  8
1
 66
1
 10
0.0000
 20
0.0000
 30
0.0000
 40
0.1524
 41
0.1524
 70
0
  0
VERTEX
  8
1
 10
9.2988
 20
6.1450
 30
0.0000
 42
1.0000
  0
VERTEX
  8
1
 10
9.4512
 20
6.1450
 30
0.0000
  0
SEQEND
  8
0
  0
POLYLINE
  8
1
 66
1
 10
0.0000
 20
0.0000
 30
0.0000
 40
0.1524
 41
0.1524
 70
0
  0
VERTEX
  8
1
 10
9.4512
 20
10.9700
 30
0.0000
 42
1.0000
  0
VERTEX
  8
1
 10
9.2988
 20
10.9700
 30
0.0000
  0
SEQEND
  8
0
  0
POLYLINE
  8
1
 66
1
 10
0.0000
 20
0.0000
 30
0.0000
 40
0.3048
 41
0.3048
 70
0
  0
VERTEX
  8
1
 10
9.3750
 20
6.1450
 30
0.0000
  0
VERTEX
  8
1
 10
8.9500
 20
5.7200
 30
0.0000
  0
SEQEND
  8
0
  0
POLYLINE
  8
1
 66
1
 10
0.0000
 20
0.0000
 30
0.0000
 40
0.1524
 41
0.1524
 70
0
  0
VERTEX
  8
1
 10
8.8961
 20
5.7739
 30
0.0000
 42
1.0000
  0
VERTEX
  8
1
 10
9.0039
 20
5.6661
 30
0.0000
  0
SEQEND
  8
0
  0
POLYLINE
  8
1
 66
1
 10
0.0000
 20
0.0000
 30
0.0000
 40
0.1524
 41
0.1524
 70
0
  0
VERTEX
  8
1
 10
9.4289
 20
6.0911
 30
0.0000
 42
1.0000
  0
VERTEX
  8
1
 10
9.3211
 20
6.1989
 30
0.0000
  0
SEQEND
  8
0
  0
POLYLINE
  8
1
 66
1
 10
0.0000
 20
0.0000
 30
0.0000
 40
0.3048
 41
0.3048
 70
0
  0
VERTEX
  8
1
 10
10.6450
 20
8.4300
 30
0.0000
  0
VERTEX
  8
1
 10
10.6450
 20
7.2550
 30
0.0000
  0
SEQEND
  8
0
  0
POLYLINE
  8
1
 66
1
 10
0.0000
 20
0.0000
 30
0.0000
 40
0.1524
 41
0.1524
 70
0
  0
VERTEX
  8
1
 10
10.5688
 20
7.2550
 30
0.0000
 42
1.0000
  0
VERTEX
  8
1
 10
10.7212
 20
7.2550
 30
0.0000
  0
SEQEND
  8
0
  0
POLYLINE
  8
1
 66
1
 10
0.0000
 20
0.0000
 30
0.0000
 40
0.1524
 41
0.1524
 70
0
  0
VERTEX
  8
1
 10
10.7212
 20
8.4300
 30
0.0000
 42
1.0000
  0
VERTEX
  8
1
 10
10.5688
 20
8.4300
 30
0.0000
  0
SEQEND
  8
0
  0
POLYLINE
  8
1
 66
1
 10
0.0000
 20
0.0000
 30
0.0000
 40
0.3048
 41
0.3048
 70
0
  0
VERTEX
  8
1
 10
10.6450
 20
7.2550
 30
0.0000
  0
VERTEX
  8
1
 10
11.4000
 20
6.5000
 30
0.0000
  0
SEQEND
  8
0
  0
POLYLINE
  8
1
 66
1
 10
0.0000
 20
0.0000
 30
0.0000
 40
0.1524
 41
0.1524
 70
0
  0
VERTEX
  8
1
 10
11.3461
 20
6.4461
 30
0.0000
 42
1.0000
  0
VERTEX
  8
1
 10
11.4539
 20
6.5539
 30
0.0000
  0
SEQEND
  8
0
  0
POLYLINE
  8
1
 66
1
 10
0.0000
 20
0.0000
 30
0.0000
 40
0.1524
 41
0.1524
 70
0
  0
VERTEX
  8
1
 10
10.6989
 20
7.3089
 30
0.0000
 42
1.0000
  0
VERTEX
  8
1
 10
10.5911
 20
7.2011
 30
0.0000
  0
SEQEND
  8
0
  0
POLYLINE
  8
1
 66
1
 10
0.0000
 20
0.0000
 30
0.0000
 40
0.3048
 41
0.3048
 70
0
  0
VERTEX
  8
1
 10
11.4000
 20
6.5000
 30
0.0000
  0
VERTEX
  8
1
 10
11.4000
 20
4.4000
 30
0.0000
  0
SEQEND
  8
0
  0
POLYLINE
  8
1
 66
1
 10
0.0000
 20
0.0000
 30
0.0000
 40
0.1524
 41
0.1524
 70
0
  0
VERTEX
  8
1
 10
11.3238
 20
4.4000
 30
0.0000
 42
1.0000
  0
VERTEX
  8
1
 10
11.4762
 20
4.4000
 30
0.0000
  0
SEQEND
  8
0
  0
POLYLINE
  8
1
 66
1
 10
0.0000
 20
0.0000
 30
0.0000
 40
0.1524
 41
0.1524
 70
0
  0
VERTEX
  8
1
 10
11.4762
 20
6.5000
 30
0.0000
 42
1.0000
  0
VERTEX
  8
1
 10
11.3238
 20
6.5000
 30
0.0000
  0
SEQEND
  8
0
  0
POLYLINE
  8
1
 66
1
 10
0.0000
 20
0.0000
 30
0.0000
 40
0.3048
 41
0.3048
 70
0
  0
VERTEX
  8
1
 10
11.4000
 20
4.4000
 30
0.0000
  0
VERTEX
  8
1
 10
10.9000
 20
3.9000
 30
0.0000
  0
SEQEND
  8
0
  0
POLYLINE
  8
1
 66
1
 10
0.0000
 20
0.0000
 30
0.0000
 40
0.1524
 41
0.1524
 70
0
  0
VERTEX
  8
1
 10
10.8461
 20
3.9539
 30
0.0000
 42
1.0000
  0
VERTEX
  8
1
 10
10.9539
 20
3.8461
 30
0.0000
  0
SEQEND
  8
0
  0
POLYLINE
  8
1
 66
1
 10
0.0000
 20
0.0000
 30
0.0000
 40
0.1524
 41
0.1524
 70
0
  0
VERTEX
  8
1
 10
11.4539
 20
4.3461
 30
0.0000
 42
1.0000
  0
VERTEX
  8
1
 10
11.3461
 20
4.4539
 30
0.0000
  0
SEQEND
  8
0
  0
POLYLINE
  8
1
 66
1
 10
0.0000
 20
0.0000
 30
0.0000
 40
0.3048
 41
0.3048
 70
0
  0
VERTEX
  8
1
 10
8.9500
 20
3.9200
 30
0.0000
  0
VERTEX
  8
1
 10
10.8800
 20
3.9200
 30
0.0000
  0
SEQEND
  8
0
  0
POLYLINE
  8
1
 66
1
 10
0.0000
 20
0.0000
 30
0.0000
 40
0.1524
 41
0.1524
 70
0
  0
VERTEX
  8
1
 10
10.8800
 20
3.8438
 30
0.0000
 42
1.0000
  0
VERTEX
  8
1
 10
10.8800
 20
3.9962
 30
0.0000
  0
SEQEND
  8
0
  0
POLYLINE
  8
1
 66
1
 10
0.0000
 20
0.0000
 30
0.0000
 40
0.1524
 41
0.1524
 70
0
  0
VERTEX
  8
1
 10
8.9500
 20
3.9962
 30
0.0000
 42
1.0000
  0
VERTEX
  8
1
 10
8.9500
 20
3.8438
 30
0.0000
  0
SEQEND
  8
0
  0
POLYLINE
  8
1
 66
1
 10
0.0000
 20
0.0000
 30
0.0000
 40
0.3048
 41
0.3048
 70
0
  0
VERTEX
  8
1
 10
10.8800
 20
3.9200
 30
0.0000
  0
VERTEX
  8
1
 10
10.9000
 20
3.9000
 30
0.0000
  0
SEQEND
  8
0
  0
POLYLINE
  8
1
 66
1
 10
0.0000
 20
0.0000
 30
0.0000
 40
0.1524
 41
0.1524
 70
0
  0
VERTEX
  8
1
 10
10.8461
 20
3.8461
 30
0.0000
 42
1.0000
  0
VERTEX
  8
1
 10
10.9539
 20
3.9539
 30
0.0000
  0
SEQEND
  8
0
  0
POLYLINE
  8
1
 66
1
 10
0.0000
 20
0.0000
 30
0.0000
 40
0.1524
 41
0.1524
 70
0
  0
VERTEX
  8
1
 10
10.9339
 20
3.9739
 30
0.0000
 42
1.0000
  0
VERTEX
  8
1
 10
10.8261
 20
3.8661
 30
0.0000
  0
SEQEND
  8
0
  0
POLYLINE
  8
1
 66
1
 10
0.0000
 20
0.0000
 30
0.0000
 40
0.3048
 41
0.3048
 70
0
  0
VERTEX
  8
1
 10
8.1050
 20
8.4300
 30
0.0000
  0
VERTEX
  8
1
 10
8.1050
 20
7.8050
 30
0.0000
  0
SEQEND
  8
0
  0
POLYLINE
  8
1
 66
1
 10
0.0000
 20
0.0000
 30
0.0000
 40
0.1524
 41
0.1524
 70
0
  0
VERTEX
  8
1
 10
8.0288
 20
7.8050
 30
0.0000
 42
1.0000
  0
VERTEX
  8
1
 10
8.1812
 20
7.8050
 30
0.0000
  0
SEQEND
  8
0
  0
POLYLINE
  8
1
 66
1
 10
0.0000
 20
0.0000
 30
0.0000
 40
0.1524
 41
0.1524
 70
0
  0
VERTEX
  8
1
 10
8.1812
 20
8.4300
 30
0.0000
 42
1.0000
  0
VERTEX
  8
1
 10
8.0288
 20
8.4300
 30
0.0000
  0
SEQEND
  8
0
  0
POLYLINE
  8
1
 66
1
 10
0.0000
 20
0.0000
 30
0.0000
 40
0.3048
 41
0.3048
 70
0
  0
VERTEX
  8
1
 10
8.1050
 20
7.8050
 30
0.0000
  0
VERTEX
  8
1
 10
6.2000
 20
5.9000
 30
0.0000
  0
SEQEND
  8
0
  0
POLYLINE
  8
1
 66
1
 10
0.0000
 20
0.0000
 30
0.0000
 40
0.1524
 41
0.1524
 70
0
  0
VERTEX
  8
1
 10
6.1461
 20
5.9539
 30
0.0000
 42
1.0000
  0
VERTEX
  8
1
 10
6.2539
 20
5.8461
 30
0.0000
  0
SEQEND
  8
0
  0
POLYLINE
  8
1
 66
1
 10
0.0000
 20
0.0000
 30
0.0000
 40
0.1524
 41
0.1524
 70
0
  0
VERTEX
  8
1
 10
8.1589
 20
7.7511
 30
0.0000
 42
1.0000
  0
VERTEX
  8
1
 10
8.0511
 20
7.8589
 30
0.0000
  0
SEQEND
  8
0
  0
POLYLINE
  8
1
 66
1
 10
0.0000
 20
0.0000
 30
0.0000
 40
0.3048
 41
0.3048
 70
0
  0
VERTEX
  8
1
 10
6.2000
 20
5.9000
 30
0.0000
  0
VERTEX
  8
1
 10
6.2000
 20
2.6000
 30
0.0000
  0
SEQEND
  8
0
  0
POLYLINE
  8
1
 66
1
 10
0.0000
 20
0.0000
 30
0.0000
 40
0.1524
 41
0.1524
 70
0
  0
VERTEX
  8
1
 10
6.1238
 20
2.6000
 30
0.0000
 42
1.0000
  0
VERTEX
  8
1
 10
6.2762
 20
2.6000
 30
0.0000
  0
SEQEND
  8
0
  0
POLYLINE
  8
1
 66
1
 10
0.0000
 20
0.0000
 30
0.0000
 40
0.1524
 41
0.1524
 70
0
  0
VERTEX
  8
1
 10
6.2762
 20
5.9000
 30
0.0000
 42
1.0000
  0
VERTEX
  8
1
 10
6.1238
 20
5.9000
 30
0.0000
  0
SEQEND
  8
0
  0
POLYLINE
  8
1
 66
1
 10
0.0000
 20
0.0000
 30
0.0000
 40
0.3048
 41
0.3048
 70
0
  0
VERTEX
  8
1
 10
6.2000
 20
2.6000
 30
0.0000
  0
VERTEX
  8
1
 10
6.7000
 20
2.1000
 30
0.0000
  0
SEQEND
  8
0
  0
POLYLINE
  8
1
 66
1
 10
0.0000
 20
0.0000
 30
0.0000
 40
0.1524
 41
0.1524
 70
0
  0
VERTEX
  8
1
 10
6.6461
 20
2.0461
 30
0.0000
 42
1.0000
  0
VERTEX
  8
1
 10
6.7539
 20
2.1539
 30
0.0000
  0
SEQEND
  8
0
  0
POLYLINE
  8
1
 66
1
 10
0.0000
 20
0.0000
 30
0.0000
 40
0.1524
 41
0.1524
 70
0
  0
VERTEX
  8
1
 10
6.2539
 20
2.6539
 30
0.0000
 42
1.0000
  0
VERTEX
  8
1
 10
6.1461
 20
2.5461
 30
0.0000
  0
SEQEND
  8
0
  0
POLYLINE
  8
1
 66
1
 10
0.0000
 20
0.0000
 30
0.0000
 40
0.3048
 41
0.3048
 70
0
  0
VERTEX
  8
1
 10
6.7000
 20
2.1000
 30
0.0000
  0
VERTEX
  8
1
 10
8.9300
 20
2.1000
 30
0.0000
  0
SEQEND
  8
0
  0
POLYLINE
  8
1
 66
1
 10
0.0000
 20
0.0000
 30
0.0000
 40
0.1524
 41
0.1524
 70
0
  0
VERTEX
  8
1
 10
8.9300
 20
2.0238
 30
0.0000
 42
1.0000
  0
VERTEX
  8
1
 10
8.9300
 20
2.1762
 30
0.0000
  0
SEQEND
  8
0
  0
POLYLINE
  8
1
 66
1
 10
0.0000
 20
0.0000
 30
0.0000
 40
0.1524
 41
0.1524
 70
0
  0
VERTEX
  8
1
 10
6.7000
 20
2.1762
 30
0.0000
 42
1.0000
  0
VERTEX
  8
1
 10
6.7000
 20
2.0238
 30
0.0000
  0
SEQEND
  8
0
  0
POLYLINE
  8
1
 66
1
 10
0.0000
 20
0.0000
 30
0.0000
 40
0.3048
 41
0.3048
 70
0
  0
VERTEX
  8
1
 10
8.9300
 20
2.1000
 30
0.0000
  0
VERTEX
  8
1
 10
8.9500
 20
2.1200
 30
0.0000
  0
SEQEND
  8
0
  0
POLYLINE
  8
1
 66
1
 10
0.0000
 20
0.0000
 30
0.0000
 40
0.1524
 41
0.1524
 70
0
  0
VERTEX
  8
1
 10
9.0039
 20
2.0661
 30
0.0000
 42
1.0000
  0
VERTEX
  8
1
 10
8.8961
 20
2.1739
 30
0.0000
  0
SEQEND
  8
0
  0
POLYLINE
  8
1
 66
1
 10
0.0000
 20
0.0000
 30
0.0000
 40
0.1524
 41
0.1524
 70
0
  0
VERTEX
  8
1
 10
8.8761
 20
2.1539
 30
0.0000
 42
1.0000
  0
VERTEX
  8
1
 10
8.9839
 20
2.0461
 30
0.0000
  0
SEQEND
  8
0
  0
POLYLINE
  8
1
 66
1
 10
0.0000
 20
0.0000
 30
0.0000
 40
0.4064
 41
0.4064
 70
0
  0
VERTEX
  8
1
 10
3.5500
 20
2.1200
 30
0.0000
  0
VERTEX
  8
1
 10
3.5500
 20
3.9200
 30
0.0000
  0
SEQEND
  8
0
  0
POLYLINE
  8
1
 66
1
 10
0.0000
 20
0.0000
 30
0.0000
 40
0.2032
 41
0.2032
 70
0
  0
VERTEX
  8
1
 10
3.6516
 20
3.9200
 30
0.0000
 42
1.0000
  0
VERTEX
  8
1
 10
3.4484
 20
3.9200
 30
0.0000
  0
SEQEND
  8
0
  0
POLYLINE
  8
1
 66
1
 10
0.0000
 20
0.0000
 30
0.0000
 40
0.2032
 41
0.2032
 70
0
  0
VERTEX
  8
1
 10
3.4484
 20
2.1200
 30
0.0000
 42
1.0000
  0
VERTEX
  8
1
 10
3.6516
 20
2.1200
 30
0.0000
  0
SEQEND
  8
0
  0
POLYLINE
  8
1
 66
1
 10
0.0000
 20
0.0000
 30
0.0000
 40
0.4064
 41
0.4064
 70
0
  0
VERTEX
  8
1
 10
3.5500
 20
3.9200
 30
0.0000
  0
VERTEX
  8
1
 10
3.5500
 20
5.7200
 30
0.0000
  0
SEQEND
  8
0
  0
POLYLINE
  8
1
 66
1
 10
0.0000
 20
0.0000
 30
0.0000
 40
0.2032
 41
0.2032
 70
0
  0
VERTEX
  8
1
 10
3.6516
 20
5.7200
 30
0.0000
 42
1.0000
  0
VERTEX
  8
1
 10
3.4484
 20
5.7200
 30
0.0000
  0
SEQEND
  8
0
  0
POLYLINE
  8
1
 66
1
 10
0.0000
 20
0.0000
 30
0.0000
 40
0.2032
 41
0.2032
 70
0
  0
VERTEX
  8
1
 10
3.4484
 20
3.9200
 30
0.0000
 42
1.0000
  0
VERTEX
  8
1
 10
3.6516
 20
3.9200
 30
0.0000
  0
SEQEND
  8
0
  0
POLYLINE
  8
1
 66
1
 10
0.0000
 20
0.0000
 30
0.0000
 40
0.3048
 41
0.3048
 70
0
  0
VERTEX
  8
1
 10
6.8350
 20
10.9700
 30
0.0000
  0
VERTEX
  8
1
 10
6.8350
 20
7.6350
 30
0.0000
  0
SEQEND
  8
0
  0
POLYLINE
  8
1
 66
1
 10
0.0000
 20
0.0000
 30
0.0000
 40
0.1524
 41
0.1524
 70
0
  0
VERTEX
  8
1
 10
6.7588
 20
7.6350
 30
0.0000
 42
1.0000
  0
VERTEX
  8
1
 10
6.9112
 20
7.6350
 30
0.0000
  0
SEQEND
  8
0
  0
POLYLINE
  8
1
 66
1
 10
0.0000
 20
0.0000
 30
0.0000
 40
0.1524
 41
0.1524
 70
0
  0
VERTEX
  8
1
 10
6.9112
 20
10.9700
 30
0.0000
 42
1.0000
  0
VERTEX
  8
1
 10
6.7588
 20
10.9700
 30
0.0000
  0
SEQEND
  8
0
  0
POLYLINE
  8
1
 66
1
 10
0.0000
 20
0.0000
 30
0.0000
 40
0.3048
 41
0.3048
 70
0
  0
VERTEX
  8
1
 10
6.8350
 20
7.6350
 30
0.0000
  0
VERTEX
  8
1
 10
5.0000
 20
5.8000
 30
0.0000
  0
SEQEND
  8
0
  0
POLYLINE
  8
1
 66
1
 10
0.0000
 20
0.0000
 30
0.0000
 40
0.1524
 41
0.1524
 70
0
  0
VERTEX
  8
1
 10
4.9461
 20
5.8539
 30
0.0000
 42
1.0000
  0
VERTEX
  8
1
 10
5.0539
 20
5.7461
 30
0.0000
  0
SEQEND
  8
0
  0
POLYLINE
  8
1
 66
1
 10
0.0000
 20
0.0000
 30
0.0000
 40
0.1524
 41
0.1524
 70
0
  0
VERTEX
  8
1
 10
6.8889
 20
7.5811
 30
0.0000
 42
1.0000
  0
VERTEX
  8
1
 10
6.7811
 20
7.6889
 30
0.0000
  0
SEQEND
  8
0
  0
POLYLINE
  8
1
 66
1
 10
0.0000
 20
0.0000
 30
0.0000
 40
0.3048
 41
0.3048
 70
0
  0
VERTEX
  8
1
 10
5.0000
 20
5.8000
 30
0.0000
  0
VERTEX
  8
1
 10
3.6300
 20
5.8000
 30
0.0000
  0
SEQEND
  8
0
  0
POLYLINE
  8
1
 66
1
 10
0.0000
 20
0.0000
 30
0.0000
 40
0.1524
 41
0.1524
 70
0
  0
VERTEX
  8
1
 10
3.6300
 20
5.8762
 30
0.0000
 42
1.0000
  0
VERTEX
  8
1
 10
3.6300
 20
5.7238
 30
0.0000
  0
SEQEND
  8
0
  0
POLYLINE
  8
1
 66
1
 10
0.0000
 20
0.0000
 30
0.0000
 40
0.1524
 41
0.1524
 70
0
  0
VERTEX
  8
1
 10
5.0000
 20
5.7238
 30
0.0000
 42
1.0000
  0
VERTEX
  8
1
 10
5.0000
 20
5.8762
 30
0.0000
  0
SEQEND
  8
0
  0
POLYLINE
  8
1
 66
1
 10
0.0000
 20
0.0000
 30
0.0000
 40
0.3048
 41
0.3048
 70
0
  0
VERTEX
  8
1
 10
3.6300
 20
5.8000
 30
0.0000
  0
VERTEX
  8
1
 10
3.5500
 20
5.7200
 30
0.0000
  0
SEQEND
  8
0
  0
POLYLINE
  8
1
 66
1
 10
0.0000
 20
0.0000
 30
0.0000
 40
0.1524
 41
0.1524
 70
0
  0
VERTEX
  8
1
 10
3.4961
 20
5.7739
 30
0.0000
 42
1.0000
  0
VERTEX
  8
1
 10
3.6039
 20
5.6661
 30
0.0000
  0
SEQEND
  8
0
  0
POLYLINE
  8
1
 66
1
 10
0.0000
 20
0.0000
 30
0.0000
 40
0.1524
 41
0.1524
 70
0
  0
VERTEX
  8
1
 10
3.6839
 20
5.7461
 30
0.0000
 42
1.0000
  0
VERTEX
  8
1
 10
3.5761
 20
5.8539
 30
0.0000
  0
SEQEND
  8
0
  0
ENDSEC
  0
EOF
