  0
SECTION
  2
HEADER
  9
$ACADVER
  1
AC1009
  9
$EXTMIN
 10
0.0
 20
0.0
 30
0.0
  9
$EXTMAX
 10
1000.0
 20
1000.0
 30
0.0
  9
$FILLMODE
 70
 0
  9
$SPLFRAME
 70
 1
  0
ENDSEC
  0
SECTION
  2
TABLES
  0
TABLE
  2
LAYER
 70
1
  0
LAYER
  2
0
 70
     0
 62
     7
  6
CONTINUOUS
  0
ENDTAB
  0
ENDSEC
  0
SECTION
  2
ENTITIES
  0
POLYLINE
  8
0
 62
     0
 66
     1
 10
0
 20
0
 30
0.0
 40
0.72
 41
0.72
  0
VERTEX
  8
0
 10
2.10667
 20
9.03444
 30
0.0
 40
0.01
 41
0.01
  0
VERTEX
  8
0
 10
2.22
 20
8.99946
 30
0.0
 40
0.01
 41
0.01
  0
SEQEND
 8
0
  0
POLYLINE
  8
0
 62
     0
 66
     1
 10
0
 20
0
 30
0.0
 40
0.72
 41
0.72
  0
VERTEX
  8
0
 10
2.22
 20
7.42779
 30
0.0
 40
0.01
 41
0.01
  0
VERTEX
  8
0
 10
2.22
 20
9.10113
 30
0.0
 40
0.01
 41
0.01
  0
SEQEND
 8
0
  0
POLYLINE
  8
0
 62
     0
 66
     1
 10
0
 20
0
 30
0.0
 40
0.72
 41
0.72
  0
VERTEX
  8
0
 10
2.685
 20
9.76779
 30
0.0
 40
0.01
 41
0.01
  0
VERTEX
  8
0
 10
2.60167
 20
9.68446
 30
0.0
 40
0.01
 41
0.01
  0
VERTEX
  8
0
 10
2.52501
 20
9.59614
 30
0.0
 40
0.01
 41
0.01
  0
VERTEX
  8
0
 10
2.45335
 20
9.50444
 30
0.0
 40
0.01
 41
0.01
  0
VERTEX
  8
0
 10
2.38667
 20
9.40944
 30
0.0
 40
0.01
 41
0.01
  0
VERTEX
  8
0
 10
2.32497
 20
9.30946
 30
0.0
 40
0.01
 41
0.01
  0
VERTEX
  8
0
 10
2.27001
 20
9.20611
 30
0.0
 40
0.01
 41
0.01
  0
VERTEX
  8
0
 10
2.22
 20
9.10113
 30
0.0
 40
0.01
 41
0.01
  0
SEQEND
 8
0
  0
POLYLINE
  8
0
 62
     0
 66
     1
 10
0
 20
0
 30
0.0
 40
0.72
 41
0.72
  0
VERTEX
  8
0
 10
2.685
 20
9.76779
 30
0.0
 40
0.01
 41
0.01
  0
VERTEX
  8
0
 10
2.685
 20
8.89111
 30
0.0
 40
0.01
 41
0.01
  0
VERTEX
  8
0
 10
2.76335
 20
8.89111
 30
0.0
 40
0.01
 41
0.01
  0
VERTEX
  8
0
 10
2.76335
 20
9.87446
 30
0.0
 40
0.01
 41
0.01
  0
VERTEX
  8
0
 10
2.80501
 20
9.87446
 30
0.0
 40
0.01
 41
0.01
  0
SEQEND
 8
0
  0
POLYLINE
  8
0
 62
     0
 66
     1
 10
0
 20
0
 30
0.0
 40
0.72
 41
0.72
  0
VERTEX
  8
0
 10
5.45665
 20
9.87446
 30
0.0
 40
0.01
 41
0.01
  0
VERTEX
  8
0
 10
5.36664
 20
9.94612
 30
0.0
 40
0.01
 41
0.01
  0
VERTEX
  8
0
 10
5.27165
 20
10.0111
 30
0.0
 40
0.01
 41
0.01
  0
VERTEX
  8
0
 10
5.17333
 20
10.0711
 30
0.0
 40
0.01
 41
0.01
  0
VERTEX
  8
0
 10
5.07167
 20
10.1261
 30
0.0
 40
0.01
 41
0.01
  0
VERTEX
  8
0
 10
4.96832
 20
10.1744
 30
0.0
 40
0.01
 41
0.01
  0
VERTEX
  8
0
 10
4.86165
 20
10.2178
 30
0.0
 40
0.01
 41
0.01
  0
VERTEX
  8
0
 10
4.75331
 20
10.2561
 30
0.0
 40
0.01
 41
0.01
  0
VERTEX
  8
0
 10
4.64333
 20
10.2861
 30
0.0
 40
0.01
 41
0.01
  0
VERTEX
  8
0
 10
4.53
 20
10.3128
 30
0.0
 40
0.01
 41
0.01
  0
VERTEX
  8
0
 10
4.41667
 20
10.3311
 30
0.0
 40
0.01
 41
0.01
  0
VERTEX
  8
0
 10
4.30333
 20
10.3445
 30
0.0
 40
0.01
 41
0.01
  0
VERTEX
  8
0
 10
4.18832
 20
10.3494
 30
0.0
 40
0.01
 41
0.01
  0
VERTEX
  8
0
 10
4.07335
 20
10.3494
 30
0.0
 40
0.01
 41
0.01
  0
VERTEX
  8
0
 10
3.95833
 20
10.3445
 30
0.0
 40
0.01
 41
0.01
  0
VERTEX
  8
0
 10
3.845
 20
10.3311
 30
0.0
 40
0.01
 41
0.01
  0
VERTEX
  8
0
 10
3.73167
 20
10.3128
 30
0.0
 40
0.01
 41
0.01
  0
VERTEX
  8
0
 10
3.61833
 20
10.2861
 30
0.0
 40
0.01
 41
0.01
  0
VERTEX
  8
0
 10
3.50836
 20
10.2561
 30
0.0
 40
0.01
 41
0.01
  0
VERTEX
  8
0
 10
3.40001
 20
10.2178
 30
0.0
 40
0.01
 41
0.01
  0
VERTEX
  8
0
 10
3.29335
 20
10.1744
 30
0.0
 40
0.01
 41
0.01
  0
VERTEX
  8
0
 10
3.19
 20
10.1261
 30
0.0
 40
0.01
 41
0.01
  0
VERTEX
  8
0
 10
3.08832
 20
10.0711
 30
0.0
 40
0.01
 41
0.01
  0
VERTEX
  8
0
 10
2.99001
 20
10.0111
 30
0.0
 40
0.01
 41
0.01
  0
VERTEX
  8
0
 10
2.89501
 20
9.94612
 30
0.0
 40
0.01
 41
0.01
  0
VERTEX
  8
0
 10
2.80501
 20
9.87446
 30
0.0
 40
0.01
 41
0.01
  0
SEQEND
 8
0
  0
POLYLINE
  8
0
 62
     0
 66
     1
 10
0
 20
0
 30
0.0
 40
0.72
 41
0.72
  0
VERTEX
  8
0
 10
3.20833
 20
10.2228
 30
0.0
 40
0.01
 41
0.01
  0
VERTEX
  8
0
 10
3.23665
 20
10.1495
 30
0.0
 40
0.01
 41
0.01
  0
SEQEND
 8
0
  0
POLYLINE
  8
0
 62
     0
 66
     1
 10
0
 20
0
 30
0.0
 40
0.72
 41
0.72
  0
VERTEX
  8
0
 10
2.80501
 20
9.87446
 30
0.0
 40
0.01
 41
0.01
  0
VERTEX
  8
0
 10
2.76335
 20
9.87446
 30
0.0
 40
0.01
 41
0.01
  0
VERTEX
  8
0
 10
2.76335
 20
8.89111
 30
0.0
 40
0.01
 41
0.01
  0
VERTEX
  8
0
 10
2.685
 20
8.89111
 30
0.0
 40
0.01
 41
0.01
  0
VERTEX
  8
0
 10
2.685
 20
8.69444
 30
0.0
 40
0.01
 41
0.01
  0
VERTEX
  8
0
 10
2.76335
 20
8.69444
 30
0.0
 40
0.01
 41
0.01
  0
VERTEX
  8
0
 10
2.76335
 20
7.83447
 30
0.0
 40
0.01
 41
0.01
  0
VERTEX
  8
0
 10
2.685
 20
7.83447
 30
0.0
 40
0.01
 41
0.01
  0
VERTEX
  8
0
 10
2.685
 20
7.63781
 30
0.0
 40
0.01
 41
0.01
  0
VERTEX
  8
0
 10
2.76335
 20
7.63781
 30
0.0
 40
0.01
 41
0.01
  0
VERTEX
  8
0
 10
2.76335
 20
6.65278
 30
0.0
 40
0.01
 41
0.01
  0
VERTEX
  8
0
 10
2.80501
 20
6.65278
 30
0.0
 40
0.01
 41
0.01
  0
VERTEX
  8
0
 10
2.89501
 20
6.58279
 30
0.0
 40
0.01
 41
0.01
  0
VERTEX
  8
0
 10
2.99001
 20
6.51779
 30
0.0
 40
0.01
 41
0.01
  0
VERTEX
  8
0
 10
3.08832
 20
6.45611
 30
0.0
 40
0.01
 41
0.01
  0
VERTEX
  8
0
 10
3.19
 20
6.40278
 30
0.0
 40
0.01
 41
0.01
  0
VERTEX
  8
0
 10
3.29335
 20
6.35275
 30
0.0
 40
0.01
 41
0.01
  0
VERTEX
  8
0
 10
3.40001
 20
6.30946
 30
0.0
 40
0.01
 41
0.01
  0
VERTEX
  8
0
 10
3.50836
 20
6.27279
 30
0.0
 40
0.01
 41
0.01
  0
VERTEX
  8
0
 10
3.61833
 20
6.2411
 30
0.0
 40
0.01
 41
0.01
  0
VERTEX
  8
0
 10
3.73167
 20
6.2161
 30
0.0
 40
0.01
 41
0.01
  0
VERTEX
  8
0
 10
3.845
 20
6.19781
 30
0.0
 40
0.01
 41
0.01
  0
VERTEX
  8
0
 10
3.95833
 20
6.18446
 30
0.0
 40
0.01
 41
0.01
  0
VERTEX
  8
0
 10
4.07335
 20
6.17779
 30
0.0
 40
0.01
 41
0.01
  0
VERTEX
  8
0
 10
4.18832
 20
6.17779
 30
0.0
 40
0.01
 41
0.01
  0
VERTEX
  8
0
 10
4.30333
 20
6.18446
 30
0.0
 40
0.01
 41
0.01
  0
VERTEX
  8
0
 10
4.41667
 20
6.19781
 30
0.0
 40
0.01
 41
0.01
  0
VERTEX
  8
0
 10
4.53
 20
6.2161
 30
0.0
 40
0.01
 41
0.01
  0
VERTEX
  8
0
 10
4.64333
 20
6.2411
 30
0.0
 40
0.01
 41
0.01
  0
VERTEX
  8
0
 10
4.75331
 20
6.27279
 30
0.0
 40
0.01
 41
0.01
  0
VERTEX
  8
0
 10
4.86165
 20
6.30946
 30
0.0
 40
0.01
 41
0.01
  0
VERTEX
  8
0
 10
4.96832
 20
6.35275
 30
0.0
 40
0.01
 41
0.01
  0
VERTEX
  8
0
 10
5.07167
 20
6.40278
 30
0.0
 40
0.01
 41
0.01
  0
VERTEX
  8
0
 10
5.17333
 20
6.45611
 30
0.0
 40
0.01
 41
0.01
  0
VERTEX
  8
0
 10
5.27165
 20
6.51779
 30
0.0
 40
0.01
 41
0.01
  0
VERTEX
  8
0
 10
5.36664
 20
6.58279
 30
0.0
 40
0.01
 41
0.01
  0
VERTEX
  8
0
 10
5.45665
 20
6.65278
 30
0.0
 40
0.01
 41
0.01
  0
SEQEND
 8
0
  0
POLYLINE
  8
0
 62
     0
 66
     1
 10
0
 20
0
 30
0.0
 40
0.72
 41
0.72
  0
VERTEX
  8
0
 10
2.80501
 20
6.65278
 30
0.0
 40
0.01
 41
0.01
  0
VERTEX
  8
0
 10
2.89501
 20
6.58279
 30
0.0
 40
0.01
 41
0.01
  0
VERTEX
  8
0
 10
2.99001
 20
6.51779
 30
0.0
 40
0.01
 41
0.01
  0
VERTEX
  8
0
 10
3.08832
 20
6.45611
 30
0.0
 40
0.01
 41
0.01
  0
VERTEX
  8
0
 10
3.19
 20
6.40278
 30
0.0
 40
0.01
 41
0.01
  0
VERTEX
  8
0
 10
3.29335
 20
6.35275
 30
0.0
 40
0.01
 41
0.01
  0
VERTEX
  8
0
 10
3.40001
 20
6.30946
 30
0.0
 40
0.01
 41
0.01
  0
VERTEX
  8
0
 10
3.50836
 20
6.27279
 30
0.0
 40
0.01
 41
0.01
  0
VERTEX
  8
0
 10
3.61833
 20
6.2411
 30
0.0
 40
0.01
 41
0.01
  0
VERTEX
  8
0
 10
3.73167
 20
6.2161
 30
0.0
 40
0.01
 41
0.01
  0
VERTEX
  8
0
 10
3.845
 20
6.19781
 30
0.0
 40
0.01
 41
0.01
  0
VERTEX
  8
0
 10
3.95833
 20
6.18446
 30
0.0
 40
0.01
 41
0.01
  0
VERTEX
  8
0
 10
4.07335
 20
6.17779
 30
0.0
 40
0.01
 41
0.01
  0
VERTEX
  8
0
 10
4.18832
 20
6.17779
 30
0.0
 40
0.01
 41
0.01
  0
VERTEX
  8
0
 10
4.30333
 20
6.18446
 30
0.0
 40
0.01
 41
0.01
  0
VERTEX
  8
0
 10
4.41667
 20
6.19781
 30
0.0
 40
0.01
 41
0.01
  0
VERTEX
  8
0
 10
4.53
 20
6.2161
 30
0.0
 40
0.01
 41
0.01
  0
VERTEX
  8
0
 10
4.64333
 20
6.2411
 30
0.0
 40
0.01
 41
0.01
  0
VERTEX
  8
0
 10
4.75331
 20
6.27279
 30
0.0
 40
0.01
 41
0.01
  0
VERTEX
  8
0
 10
4.86165
 20
6.30946
 30
0.0
 40
0.01
 41
0.01
  0
VERTEX
  8
0
 10
4.96832
 20
6.35275
 30
0.0
 40
0.01
 41
0.01
  0
VERTEX
  8
0
 10
5.07167
 20
6.40278
 30
0.0
 40
0.01
 41
0.01
  0
VERTEX
  8
0
 10
5.17333
 20
6.45611
 30
0.0
 40
0.01
 41
0.01
  0
VERTEX
  8
0
 10
5.27165
 20
6.51779
 30
0.0
 40
0.01
 41
0.01
  0
VERTEX
  8
0
 10
5.36664
 20
6.58279
 30
0.0
 40
0.01
 41
0.01
  0
VERTEX
  8
0
 10
5.45665
 20
6.65278
 30
0.0
 40
0.01
 41
0.01
  0
SEQEND
 8
0
  0
POLYLINE
  8
0
 62
     0
 66
     1
 10
0
 20
0
 30
0.0
 40
0.72
 41
0.72
  0
VERTEX
  8
0
 10
2.80501
 20
6.65278
 30
0.0
 40
0.01
 41
0.01
  0
VERTEX
  8
0
 10
2.89501
 20
6.58279
 30
0.0
 40
0.01
 41
0.01
  0
VERTEX
  8
0
 10
2.99001
 20
6.51779
 30
0.0
 40
0.01
 41
0.01
  0
VERTEX
  8
0
 10
3.08832
 20
6.45611
 30
0.0
 40
0.01
 41
0.01
  0
VERTEX
  8
0
 10
3.19
 20
6.40278
 30
0.0
 40
0.01
 41
0.01
  0
VERTEX
  8
0
 10
3.29335
 20
6.35275
 30
0.0
 40
0.01
 41
0.01
  0
VERTEX
  8
0
 10
3.40001
 20
6.30946
 30
0.0
 40
0.01
 41
0.01
  0
VERTEX
  8
0
 10
3.50836
 20
6.27279
 30
0.0
 40
0.01
 41
0.01
  0
VERTEX
  8
0
 10
3.61833
 20
6.2411
 30
0.0
 40
0.01
 41
0.01
  0
VERTEX
  8
0
 10
3.73167
 20
6.2161
 30
0.0
 40
0.01
 41
0.01
  0
VERTEX
  8
0
 10
3.845
 20
6.19781
 30
0.0
 40
0.01
 41
0.01
  0
VERTEX
  8
0
 10
3.95833
 20
6.18446
 30
0.0
 40
0.01
 41
0.01
  0
VERTEX
  8
0
 10
4.07335
 20
6.17779
 30
0.0
 40
0.01
 41
0.01
  0
VERTEX
  8
0
 10
4.18832
 20
6.17779
 30
0.0
 40
0.01
 41
0.01
  0
VERTEX
  8
0
 10
4.30333
 20
6.18446
 30
0.0
 40
0.01
 41
0.01
  0
VERTEX
  8
0
 10
4.41667
 20
6.19781
 30
0.0
 40
0.01
 41
0.01
  0
VERTEX
  8
0
 10
4.53
 20
6.2161
 30
0.0
 40
0.01
 41
0.01
  0
VERTEX
  8
0
 10
4.64333
 20
6.2411
 30
0.0
 40
0.01
 41
0.01
  0
VERTEX
  8
0
 10
4.75331
 20
6.27279
 30
0.0
 40
0.01
 41
0.01
  0
VERTEX
  8
0
 10
4.86165
 20
6.30946
 30
0.0
 40
0.01
 41
0.01
  0
VERTEX
  8
0
 10
4.96832
 20
6.35275
 30
0.0
 40
0.01
 41
0.01
  0
VERTEX
  8
0
 10
5.07167
 20
6.40278
 30
0.0
 40
0.01
 41
0.01
  0
VERTEX
  8
0
 10
5.17333
 20
6.45611
 30
0.0
 40
0.01
 41
0.01
  0
VERTEX
  8
0
 10
5.27165
 20
6.51779
 30
0.0
 40
0.01
 41
0.01
  0
VERTEX
  8
0
 10
5.36664
 20
6.58279
 30
0.0
 40
0.01
 41
0.01
  0
VERTEX
  8
0
 10
5.45665
 20
6.65278
 30
0.0
 40
0.01
 41
0.01
  0
SEQEND
 8
0
  0
POLYLINE
  8
0
 62
     0
 66
     1
 10
0
 20
0
 30
0.0
 40
0.72
 41
0.72
  0
VERTEX
  8
0
 10
2.80501
 20
6.65278
 30
0.0
 40
0.01
 41
0.01
  0
VERTEX
  8
0
 10
2.89501
 20
6.58279
 30
0.0
 40
0.01
 41
0.01
  0
VERTEX
  8
0
 10
2.99001
 20
6.51779
 30
0.0
 40
0.01
 41
0.01
  0
VERTEX
  8
0
 10
3.08832
 20
6.45611
 30
0.0
 40
0.01
 41
0.01
  0
VERTEX
  8
0
 10
3.19
 20
6.40278
 30
0.0
 40
0.01
 41
0.01
  0
VERTEX
  8
0
 10
3.29335
 20
6.35275
 30
0.0
 40
0.01
 41
0.01
  0
VERTEX
  8
0
 10
3.40001
 20
6.30946
 30
0.0
 40
0.01
 41
0.01
  0
VERTEX
  8
0
 10
3.50836
 20
6.27279
 30
0.0
 40
0.01
 41
0.01
  0
VERTEX
  8
0
 10
3.61833
 20
6.2411
 30
0.0
 40
0.01
 41
0.01
  0
VERTEX
  8
0
 10
3.73167
 20
6.2161
 30
0.0
 40
0.01
 41
0.01
  0
VERTEX
  8
0
 10
3.845
 20
6.19781
 30
0.0
 40
0.01
 41
0.01
  0
VERTEX
  8
0
 10
3.95833
 20
6.18446
 30
0.0
 40
0.01
 41
0.01
  0
VERTEX
  8
0
 10
4.07335
 20
6.17779
 30
0.0
 40
0.01
 41
0.01
  0
VERTEX
  8
0
 10
4.18832
 20
6.17779
 30
0.0
 40
0.01
 41
0.01
  0
VERTEX
  8
0
 10
4.30333
 20
6.18446
 30
0.0
 40
0.01
 41
0.01
  0
VERTEX
  8
0
 10
4.41667
 20
6.19781
 30
0.0
 40
0.01
 41
0.01
  0
VERTEX
  8
0
 10
4.53
 20
6.2161
 30
0.0
 40
0.01
 41
0.01
  0
VERTEX
  8
0
 10
4.64333
 20
6.2411
 30
0.0
 40
0.01
 41
0.01
  0
VERTEX
  8
0
 10
4.75331
 20
6.27279
 30
0.0
 40
0.01
 41
0.01
  0
VERTEX
  8
0
 10
4.86165
 20
6.30946
 30
0.0
 40
0.01
 41
0.01
  0
VERTEX
  8
0
 10
4.96832
 20
6.35275
 30
0.0
 40
0.01
 41
0.01
  0
VERTEX
  8
0
 10
5.07167
 20
6.40278
 30
0.0
 40
0.01
 41
0.01
  0
VERTEX
  8
0
 10
5.17333
 20
6.45611
 30
0.0
 40
0.01
 41
0.01
  0
VERTEX
  8
0
 10
5.27165
 20
6.51779
 30
0.0
 40
0.01
 41
0.01
  0
VERTEX
  8
0
 10
5.36664
 20
6.58279
 30
0.0
 40
0.01
 41
0.01
  0
VERTEX
  8
0
 10
5.45665
 20
6.65278
 30
0.0
 40
0.01
 41
0.01
  0
SEQEND
 8
0
  0
POLYLINE
  8
0
 62
     0
 66
     1
 10
0
 20
0
 30
0.0
 40
0.72
 41
0.72
  0
VERTEX
  8
0
 10
2.80501
 20
6.65278
 30
0.0
 40
0.01
 41
0.01
  0
VERTEX
  8
0
 10
2.89501
 20
6.58279
 30
0.0
 40
0.01
 41
0.01
  0
VERTEX
  8
0
 10
2.99001
 20
6.51779
 30
0.0
 40
0.01
 41
0.01
  0
VERTEX
  8
0
 10
3.08832
 20
6.45611
 30
0.0
 40
0.01
 41
0.01
  0
VERTEX
  8
0
 10
3.19
 20
6.40278
 30
0.0
 40
0.01
 41
0.01
  0
VERTEX
  8
0
 10
3.29335
 20
6.35275
 30
0.0
 40
0.01
 41
0.01
  0
VERTEX
  8
0
 10
3.40001
 20
6.30946
 30
0.0
 40
0.01
 41
0.01
  0
VERTEX
  8
0
 10
3.50836
 20
6.27279
 30
0.0
 40
0.01
 41
0.01
  0
VERTEX
  8
0
 10
3.61833
 20
6.2411
 30
0.0
 40
0.01
 41
0.01
  0
VERTEX
  8
0
 10
3.73167
 20
6.2161
 30
0.0
 40
0.01
 41
0.01
  0
VERTEX
  8
0
 10
3.845
 20
6.19781
 30
0.0
 40
0.01
 41
0.01
  0
VERTEX
  8
0
 10
3.95833
 20
6.18446
 30
0.0
 40
0.01
 41
0.01
  0
VERTEX
  8
0
 10
4.07335
 20
6.17779
 30
0.0
 40
0.01
 41
0.01
  0
VERTEX
  8
0
 10
4.18832
 20
6.17779
 30
0.0
 40
0.01
 41
0.01
  0
VERTEX
  8
0
 10
4.30333
 20
6.18446
 30
0.0
 40
0.01
 41
0.01
  0
VERTEX
  8
0
 10
4.41667
 20
6.19781
 30
0.0
 40
0.01
 41
0.01
  0
VERTEX
  8
0
 10
4.53
 20
6.2161
 30
0.0
 40
0.01
 41
0.01
  0
VERTEX
  8
0
 10
4.64333
 20
6.2411
 30
0.0
 40
0.01
 41
0.01
  0
VERTEX
  8
0
 10
4.75331
 20
6.27279
 30
0.0
 40
0.01
 41
0.01
  0
VERTEX
  8
0
 10
4.86165
 20
6.30946
 30
0.0
 40
0.01
 41
0.01
  0
VERTEX
  8
0
 10
4.96832
 20
6.35275
 30
0.0
 40
0.01
 41
0.01
  0
VERTEX
  8
0
 10
5.07167
 20
6.40278
 30
0.0
 40
0.01
 41
0.01
  0
VERTEX
  8
0
 10
5.17333
 20
6.45611
 30
0.0
 40
0.01
 41
0.01
  0
VERTEX
  8
0
 10
5.27165
 20
6.51779
 30
0.0
 40
0.01
 41
0.01
  0
VERTEX
  8
0
 10
5.36664
 20
6.58279
 30
0.0
 40
0.01
 41
0.01
  0
VERTEX
  8
0
 10
5.45665
 20
6.65278
 30
0.0
 40
0.01
 41
0.01
  0
VERTEX
  8
0
 10
5.49832
 20
6.65278
 30
0.0
 40
0.01
 41
0.01
  0
VERTEX
  8
0
 10
5.49832
 20
7.63781
 30
0.0
 40
0.01
 41
0.01
  0
VERTEX
  8
0
 10
5.57667
 20
7.63781
 30
0.0
 40
0.01
 41
0.01
  0
VERTEX
  8
0
 10
5.57667
 20
7.83447
 30
0.0
 40
0.01
 41
0.01
  0
VERTEX
  8
0
 10
5.49832
 20
7.83447
 30
0.0
 40
0.01
 41
0.01
  0
VERTEX
  8
0
 10
5.49832
 20
8.69444
 30
0.0
 40
0.01
 41
0.01
  0
VERTEX
  8
0
 10
5.57667
 20
8.69444
 30
0.0
 40
0.01
 41
0.01
  0
VERTEX
  8
0
 10
5.57667
 20
8.89111
 30
0.0
 40
0.01
 41
0.01
  0
VERTEX
  8
0
 10
5.49832
 20
8.89111
 30
0.0
 40
0.01
 41
0.01
  0
VERTEX
  8
0
 10
5.49832
 20
9.87446
 30
0.0
 40
0.01
 41
0.01
  0
VERTEX
  8
0
 10
5.45665
 20
9.87446
 30
0.0
 40
0.01
 41
0.01
  0
VERTEX
  8
0
 10
5.36664
 20
9.94612
 30
0.0
 40
0.01
 41
0.01
  0
VERTEX
  8
0
 10
5.27165
 20
10.0111
 30
0.0
 40
0.01
 41
0.01
  0
VERTEX
  8
0
 10
5.17333
 20
10.0711
 30
0.0
 40
0.01
 41
0.01
  0
VERTEX
  8
0
 10
5.07167
 20
10.1261
 30
0.0
 40
0.01
 41
0.01
  0
VERTEX
  8
0
 10
4.96832
 20
10.1744
 30
0.0
 40
0.01
 41
0.01
  0
VERTEX
  8
0
 10
4.86165
 20
10.2178
 30
0.0
 40
0.01
 41
0.01
  0
VERTEX
  8
0
 10
4.75331
 20
10.2561
 30
0.0
 40
0.01
 41
0.01
  0
VERTEX
  8
0
 10
4.64333
 20
10.2861
 30
0.0
 40
0.01
 41
0.01
  0
VERTEX
  8
0
 10
4.53
 20
10.3128
 30
0.0
 40
0.01
 41
0.01
  0
VERTEX
  8
0
 10
4.41667
 20
10.3311
 30
0.0
 40
0.01
 41
0.01
  0
VERTEX
  8
0
 10
4.30333
 20
10.3445
 30
0.0
 40
0.01
 41
0.01
  0
VERTEX
  8
0
 10
4.18832
 20
10.3494
 30
0.0
 40
0.01
 41
0.01
  0
VERTEX
  8
0
 10
4.07335
 20
10.3494
 30
0.0
 40
0.01
 41
0.01
  0
VERTEX
  8
0
 10
3.95833
 20
10.3445
 30
0.0
 40
0.01
 41
0.01
  0
VERTEX
  8
0
 10
3.845
 20
10.3311
 30
0.0
 40
0.01
 41
0.01
  0
VERTEX
  8
0
 10
3.73167
 20
10.3128
 30
0.0
 40
0.01
 41
0.01
  0
VERTEX
  8
0
 10
3.61833
 20
10.2861
 30
0.0
 40
0.01
 41
0.01
  0
VERTEX
  8
0
 10
3.50836
 20
10.2561
 30
0.0
 40
0.01
 41
0.01
  0
VERTEX
  8
0
 10
3.40001
 20
10.2178
 30
0.0
 40
0.01
 41
0.01
  0
VERTEX
  8
0
 10
3.29335
 20
10.1744
 30
0.0
 40
0.01
 41
0.01
  0
VERTEX
  8
0
 10
3.19
 20
10.1261
 30
0.0
 40
0.01
 41
0.01
  0
VERTEX
  8
0
 10
3.08832
 20
10.0711
 30
0.0
 40
0.01
 41
0.01
  0
VERTEX
  8
0
 10
2.99001
 20
10.0111
 30
0.0
 40
0.01
 41
0.01
  0
VERTEX
  8
0
 10
2.89501
 20
9.94612
 30
0.0
 40
0.01
 41
0.01
  0
VERTEX
  8
0
 10
2.80501
 20
9.87446
 30
0.0
 40
0.01
 41
0.01
  0
SEQEND
 8
0
  0
POLYLINE
  8
0
 62
     0
 66
     1
 10
0
 20
0
 30
0.0
 40
0.72
 41
0.72
  0
VERTEX
  8
0
 10
5.45665
 20
9.87446
 30
0.0
 40
0.01
 41
0.01
  0
VERTEX
  8
0
 10
5.36664
 20
9.94612
 30
0.0
 40
0.01
 41
0.01
  0
VERTEX
  8
0
 10
5.27165
 20
10.0111
 30
0.0
 40
0.01
 41
0.01
  0
VERTEX
  8
0
 10
5.17333
 20
10.0711
 30
0.0
 40
0.01
 41
0.01
  0
VERTEX
  8
0
 10
5.07167
 20
10.1261
 30
0.0
 40
0.01
 41
0.01
  0
VERTEX
  8
0
 10
4.96832
 20
10.1744
 30
0.0
 40
0.01
 41
0.01
  0
VERTEX
  8
0
 10
4.86165
 20
10.2178
 30
0.0
 40
0.01
 41
0.01
  0
VERTEX
  8
0
 10
4.75331
 20
10.2561
 30
0.0
 40
0.01
 41
0.01
  0
VERTEX
  8
0
 10
4.64333
 20
10.2861
 30
0.0
 40
0.01
 41
0.01
  0
VERTEX
  8
0
 10
4.53
 20
10.3128
 30
0.0
 40
0.01
 41
0.01
  0
VERTEX
  8
0
 10
4.41667
 20
10.3311
 30
0.0
 40
0.01
 41
0.01
  0
VERTEX
  8
0
 10
4.30333
 20
10.3445
 30
0.0
 40
0.01
 41
0.01
  0
VERTEX
  8
0
 10
4.18832
 20
10.3494
 30
0.0
 40
0.01
 41
0.01
  0
VERTEX
  8
0
 10
4.07335
 20
10.3494
 30
0.0
 40
0.01
 41
0.01
  0
VERTEX
  8
0
 10
3.95833
 20
10.3445
 30
0.0
 40
0.01
 41
0.01
  0
VERTEX
  8
0
 10
3.845
 20
10.3311
 30
0.0
 40
0.01
 41
0.01
  0
VERTEX
  8
0
 10
3.73167
 20
10.3128
 30
0.0
 40
0.01
 41
0.01
  0
VERTEX
  8
0
 10
3.61833
 20
10.2861
 30
0.0
 40
0.01
 41
0.01
  0
VERTEX
  8
0
 10
3.50836
 20
10.2561
 30
0.0
 40
0.01
 41
0.01
  0
VERTEX
  8
0
 10
3.40001
 20
10.2178
 30
0.0
 40
0.01
 41
0.01
  0
VERTEX
  8
0
 10
3.29335
 20
10.1744
 30
0.0
 40
0.01
 41
0.01
  0
VERTEX
  8
0
 10
3.19
 20
10.1261
 30
0.0
 40
0.01
 41
0.01
  0
VERTEX
  8
0
 10
3.08832
 20
10.0711
 30
0.0
 40
0.01
 41
0.01
  0
VERTEX
  8
0
 10
2.99001
 20
10.0111
 30
0.0
 40
0.01
 41
0.01
  0
VERTEX
  8
0
 10
2.89501
 20
9.94612
 30
0.0
 40
0.01
 41
0.01
  0
VERTEX
  8
0
 10
2.80501
 20
9.87446
 30
0.0
 40
0.01
 41
0.01
  0
SEQEND
 8
0
  0
POLYLINE
  8
0
 62
     0
 66
     1
 10
0
 20
0
 30
0.0
 40
0.72
 41
0.72
  0
VERTEX
  8
0
 10
5.45665
 20
9.87446
 30
0.0
 40
0.01
 41
0.01
  0
VERTEX
  8
0
 10
5.36664
 20
9.94612
 30
0.0
 40
0.01
 41
0.01
  0
VERTEX
  8
0
 10
5.27165
 20
10.0111
 30
0.0
 40
0.01
 41
0.01
  0
VERTEX
  8
0
 10
5.17333
 20
10.0711
 30
0.0
 40
0.01
 41
0.01
  0
VERTEX
  8
0
 10
5.07167
 20
10.1261
 30
0.0
 40
0.01
 41
0.01
  0
VERTEX
  8
0
 10
4.96832
 20
10.1744
 30
0.0
 40
0.01
 41
0.01
  0
VERTEX
  8
0
 10
4.86165
 20
10.2178
 30
0.0
 40
0.01
 41
0.01
  0
VERTEX
  8
0
 10
4.75331
 20
10.2561
 30
0.0
 40
0.01
 41
0.01
  0
VERTEX
  8
0
 10
4.64333
 20
10.2861
 30
0.0
 40
0.01
 41
0.01
  0
VERTEX
  8
0
 10
4.53
 20
10.3128
 30
0.0
 40
0.01
 41
0.01
  0
VERTEX
  8
0
 10
4.41667
 20
10.3311
 30
0.0
 40
0.01
 41
0.01
  0
VERTEX
  8
0
 10
4.30333
 20
10.3445
 30
0.0
 40
0.01
 41
0.01
  0
VERTEX
  8
0
 10
4.18832
 20
10.3494
 30
0.0
 40
0.01
 41
0.01
  0
VERTEX
  8
0
 10
4.07335
 20
10.3494
 30
0.0
 40
0.01
 41
0.01
  0
VERTEX
  8
0
 10
3.95833
 20
10.3445
 30
0.0
 40
0.01
 41
0.01
  0
VERTEX
  8
0
 10
3.845
 20
10.3311
 30
0.0
 40
0.01
 41
0.01
  0
VERTEX
  8
0
 10
3.73167
 20
10.3128
 30
0.0
 40
0.01
 41
0.01
  0
VERTEX
  8
0
 10
3.61833
 20
10.2861
 30
0.0
 40
0.01
 41
0.01
  0
VERTEX
  8
0
 10
3.50836
 20
10.2561
 30
0.0
 40
0.01
 41
0.01
  0
VERTEX
  8
0
 10
3.40001
 20
10.2178
 30
0.0
 40
0.01
 41
0.01
  0
VERTEX
  8
0
 10
3.29335
 20
10.1744
 30
0.0
 40
0.01
 41
0.01
  0
VERTEX
  8
0
 10
3.19
 20
10.1261
 30
0.0
 40
0.01
 41
0.01
  0
VERTEX
  8
0
 10
3.08832
 20
10.0711
 30
0.0
 40
0.01
 41
0.01
  0
VERTEX
  8
0
 10
2.99001
 20
10.0111
 30
0.0
 40
0.01
 41
0.01
  0
VERTEX
  8
0
 10
2.89501
 20
9.94612
 30
0.0
 40
0.01
 41
0.01
  0
VERTEX
  8
0
 10
2.80501
 20
9.87446
 30
0.0
 40
0.01
 41
0.01
  0
SEQEND
 8
0
  0
POLYLINE
  8
0
 62
     0
 66
     1
 10
0
 20
0
 30
0.0
 40
0.72
 41
0.72
  0
VERTEX
  8
0
 10
3.51167
 20
10.2561
 30
0.0
 40
0.01
 41
0.01
  0
VERTEX
  8
0
 10
3.41835
 20
10.2244
 30
0.0
 40
0.01
 41
0.01
  0
VERTEX
  8
0
 10
3.32667
 20
10.1895
 30
0.0
 40
0.01
 41
0.01
  0
VERTEX
  8
0
 10
3.23665
 20
10.1495
 30
0.0
 40
0.01
 41
0.01
  0
SEQEND
 8
0
  0
POLYLINE
  8
0
 62
     0
 66
     1
 10
0
 20
0
 30
0.0
 40
0.72
 41
0.72
  0
VERTEX
  8
0
 10
5.45665
 20
9.87446
 30
0.0
 40
0.01
 41
0.01
  0
VERTEX
  8
0
 10
5.36664
 20
9.94612
 30
0.0
 40
0.01
 41
0.01
  0
VERTEX
  8
0
 10
5.27165
 20
10.0111
 30
0.0
 40
0.01
 41
0.01
  0
VERTEX
  8
0
 10
5.17333
 20
10.0711
 30
0.0
 40
0.01
 41
0.01
  0
VERTEX
  8
0
 10
5.07167
 20
10.1261
 30
0.0
 40
0.01
 41
0.01
  0
VERTEX
  8
0
 10
4.96832
 20
10.1744
 30
0.0
 40
0.01
 41
0.01
  0
VERTEX
  8
0
 10
4.86165
 20
10.2178
 30
0.0
 40
0.01
 41
0.01
  0
VERTEX
  8
0
 10
4.75331
 20
10.2561
 30
0.0
 40
0.01
 41
0.01
  0
VERTEX
  8
0
 10
4.64333
 20
10.2861
 30
0.0
 40
0.01
 41
0.01
  0
VERTEX
  8
0
 10
4.53
 20
10.3128
 30
0.0
 40
0.01
 41
0.01
  0
VERTEX
  8
0
 10
4.41667
 20
10.3311
 30
0.0
 40
0.01
 41
0.01
  0
VERTEX
  8
0
 10
4.30333
 20
10.3445
 30
0.0
 40
0.01
 41
0.01
  0
VERTEX
  8
0
 10
4.18832
 20
10.3494
 30
0.0
 40
0.01
 41
0.01
  0
VERTEX
  8
0
 10
4.07335
 20
10.3494
 30
0.0
 40
0.01
 41
0.01
  0
VERTEX
  8
0
 10
3.95833
 20
10.3445
 30
0.0
 40
0.01
 41
0.01
  0
VERTEX
  8
0
 10
3.845
 20
10.3311
 30
0.0
 40
0.01
 41
0.01
  0
VERTEX
  8
0
 10
3.73167
 20
10.3128
 30
0.0
 40
0.01
 41
0.01
  0
VERTEX
  8
0
 10
3.61833
 20
10.2861
 30
0.0
 40
0.01
 41
0.01
  0
VERTEX
  8
0
 10
3.50836
 20
10.2561
 30
0.0
 40
0.01
 41
0.01
  0
VERTEX
  8
0
 10
3.40001
 20
10.2178
 30
0.0
 40
0.01
 41
0.01
  0
VERTEX
  8
0
 10
3.29335
 20
10.1744
 30
0.0
 40
0.01
 41
0.01
  0
VERTEX
  8
0
 10
3.19
 20
10.1261
 30
0.0
 40
0.01
 41
0.01
  0
VERTEX
  8
0
 10
3.08832
 20
10.0711
 30
0.0
 40
0.01
 41
0.01
  0
VERTEX
  8
0
 10
2.99001
 20
10.0111
 30
0.0
 40
0.01
 41
0.01
  0
VERTEX
  8
0
 10
2.89501
 20
9.94612
 30
0.0
 40
0.01
 41
0.01
  0
VERTEX
  8
0
 10
2.80501
 20
9.87446
 30
0.0
 40
0.01
 41
0.01
  0
SEQEND
 8
0
  0
POLYLINE
  8
0
 62
     0
 66
     1
 10
0
 20
0
 30
0.0
 40
0.72
 41
0.72
  0
VERTEX
  8
0
 10
5.05333
 20
10.2228
 30
0.0
 40
0.01
 41
0.01
  0
VERTEX
  8
0
 10
5.02501
 20
10.1495
 30
0.0
 40
0.01
 41
0.01
  0
SEQEND
 8
0
  0
POLYLINE
  8
0
 62
     0
 66
     1
 10
0
 20
0
 30
0.0
 40
0.72
 41
0.72
  0
VERTEX
  8
0
 10
5.45665
 20
9.87446
 30
0.0
 40
0.01
 41
0.01
  0
VERTEX
  8
0
 10
5.36664
 20
9.94612
 30
0.0
 40
0.01
 41
0.01
  0
VERTEX
  8
0
 10
5.27165
 20
10.0111
 30
0.0
 40
0.01
 41
0.01
  0
VERTEX
  8
0
 10
5.17333
 20
10.0711
 30
0.0
 40
0.01
 41
0.01
  0
VERTEX
  8
0
 10
5.07167
 20
10.1261
 30
0.0
 40
0.01
 41
0.01
  0
VERTEX
  8
0
 10
4.96832
 20
10.1744
 30
0.0
 40
0.01
 41
0.01
  0
VERTEX
  8
0
 10
4.86165
 20
10.2178
 30
0.0
 40
0.01
 41
0.01
  0
VERTEX
  8
0
 10
4.75331
 20
10.2561
 30
0.0
 40
0.01
 41
0.01
  0
VERTEX
  8
0
 10
4.64333
 20
10.2861
 30
0.0
 40
0.01
 41
0.01
  0
VERTEX
  8
0
 10
4.53
 20
10.3128
 30
0.0
 40
0.01
 41
0.01
  0
VERTEX
  8
0
 10
4.41667
 20
10.3311
 30
0.0
 40
0.01
 41
0.01
  0
VERTEX
  8
0
 10
4.30333
 20
10.3445
 30
0.0
 40
0.01
 41
0.01
  0
VERTEX
  8
0
 10
4.18832
 20
10.3494
 30
0.0
 40
0.01
 41
0.01
  0
VERTEX
  8
0
 10
4.07335
 20
10.3494
 30
0.0
 40
0.01
 41
0.01
  0
VERTEX
  8
0
 10
3.95833
 20
10.3445
 30
0.0
 40
0.01
 41
0.01
  0
VERTEX
  8
0
 10
3.845
 20
10.3311
 30
0.0
 40
0.01
 41
0.01
  0
VERTEX
  8
0
 10
3.73167
 20
10.3128
 30
0.0
 40
0.01
 41
0.01
  0
VERTEX
  8
0
 10
3.61833
 20
10.2861
 30
0.0
 40
0.01
 41
0.01
  0
VERTEX
  8
0
 10
3.50836
 20
10.2561
 30
0.0
 40
0.01
 41
0.01
  0
VERTEX
  8
0
 10
3.40001
 20
10.2178
 30
0.0
 40
0.01
 41
0.01
  0
VERTEX
  8
0
 10
3.29335
 20
10.1744
 30
0.0
 40
0.01
 41
0.01
  0
VERTEX
  8
0
 10
3.19
 20
10.1261
 30
0.0
 40
0.01
 41
0.01
  0
VERTEX
  8
0
 10
3.08832
 20
10.0711
 30
0.0
 40
0.01
 41
0.01
  0
VERTEX
  8
0
 10
2.99001
 20
10.0111
 30
0.0
 40
0.01
 41
0.01
  0
VERTEX
  8
0
 10
2.89501
 20
9.94612
 30
0.0
 40
0.01
 41
0.01
  0
VERTEX
  8
0
 10
2.80501
 20
9.87446
 30
0.0
 40
0.01
 41
0.01
  0
SEQEND
 8
0
  0
POLYLINE
  8
0
 62
     0
 66
     1
 10
0
 20
0
 30
0.0
 40
0.72
 41
0.72
  0
VERTEX
  8
0
 10
5.45665
 20
9.87446
 30
0.0
 40
0.01
 41
0.01
  0
VERTEX
  8
0
 10
5.49832
 20
9.87446
 30
0.0
 40
0.01
 41
0.01
  0
VERTEX
  8
0
 10
5.49832
 20
8.89111
 30
0.0
 40
0.01
 41
0.01
  0
VERTEX
  8
0
 10
5.57667
 20
8.89111
 30
0.0
 40
0.01
 41
0.01
  0
VERTEX
  8
0
 10
5.57667
 20
9.76779
 30
0.0
 40
0.01
 41
0.01
  0
SEQEND
 8
0
  0
POLYLINE
  8
0
 62
     0
 66
     1
 10
0
 20
0
 30
0.0
 40
0.72
 41
0.72
  0
VERTEX
  8
0
 10
6.04167
 20
9.10113
 30
0.0
 40
0.01
 41
0.01
  0
VERTEX
  8
0
 10
5.99164
 20
9.20611
 30
0.0
 40
0.01
 41
0.01
  0
VERTEX
  8
0
 10
5.93668
 20
9.30946
 30
0.0
 40
0.01
 41
0.01
  0
VERTEX
  8
0
 10
5.875
 20
9.40944
 30
0.0
 40
0.01
 41
0.01
  0
VERTEX
  8
0
 10
5.80832
 20
9.50444
 30
0.0
 40
0.01
 41
0.01
  0
VERTEX
  8
0
 10
5.73665
 20
9.59614
 30
0.0
 40
0.01
 41
0.01
  0
VERTEX
  8
0
 10
5.66
 20
9.68446
 30
0.0
 40
0.01
 41
0.01
  0
VERTEX
  8
0
 10
5.57667
 20
9.76779
 30
0.0
 40
0.01
 41
0.01
  0
SEQEND
 8
0
  0
POLYLINE
  8
0
 62
     0
 66
     1
 10
0
 20
0
 30
0.0
 40
0.72
 41
0.72
  0
VERTEX
  8
0
 10
6.04167
 20
9.10113
 30
0.0
 40
0.01
 41
0.01
  0
VERTEX
  8
0
 10
6.04167
 20
7.42779
 30
0.0
 40
0.01
 41
0.01
  0
SEQEND
 8
0
  0
POLYLINE
  8
0
 62
     0
 66
     1
 10
0
 20
0
 30
0.0
 40
0.72
 41
0.72
  0
VERTEX
  8
0
 10
6.155
 20
9.03444
 30
0.0
 40
0.01
 41
0.01
  0
VERTEX
  8
0
 10
6.04167
 20
8.99946
 30
0.0
 40
0.01
 41
0.01
  0
SEQEND
 8
0
  0
POLYLINE
  8
0
 62
     0
 66
     1
 10
0
 20
0
 30
0.0
 70
     1
 40
0.72
 41
0.72
  0
VERTEX
  8
0
 10
2.685
 20
9.76779
 30
0.0
 40
0.01
 41
0.01
  0
VERTEX
  8
0
 10
2.60167
 20
9.68446
 30
0.0
 40
0.01
 41
0.01
  0
VERTEX
  8
0
 10
2.52501
 20
9.59614
 30
0.0
 40
0.01
 41
0.01
  0
VERTEX
  8
0
 10
2.45335
 20
9.50444
 30
0.0
 40
0.01
 41
0.01
  0
VERTEX
  8
0
 10
2.38667
 20
9.40944
 30
0.0
 40
0.01
 41
0.01
  0
VERTEX
  8
0
 10
2.32497
 20
9.30946
 30
0.0
 40
0.01
 41
0.01
  0
VERTEX
  8
0
 10
2.27001
 20
9.20611
 30
0.0
 40
0.01
 41
0.01
  0
VERTEX
  8
0
 10
2.22
 20
9.10113
 30
0.0
 40
0.01
 41
0.01
  0
VERTEX
  8
0
 10
2.22
 20
7.42779
 30
0.0
 40
0.01
 41
0.01
  0
VERTEX
  8
0
 10
2.22
 20
9.10113
 30
0.0
 40
0.01
 41
0.01
  0
VERTEX
  8
0
 10
2.22
 20
7.42779
 30
0.0
 40
0.01
 41
0.01
  0
VERTEX
  8
0
 10
2.22
 20
9.10113
 30
0.0
 40
0.01
 41
0.01
  0
VERTEX
  8
0
 10
2.22
 20
7.42779
 30
0.0
 40
0.01
 41
0.01
  0
VERTEX
  8
0
 10
2.27001
 20
7.32112
 30
0.0
 40
0.01
 41
0.01
  0
VERTEX
  8
0
 10
2.32497
 20
7.21946
 30
0.0
 40
0.01
 41
0.01
  0
VERTEX
  8
0
 10
2.38667
 20
7.11947
 30
0.0
 40
0.01
 41
0.01
  0
VERTEX
  8
0
 10
2.45335
 20
7.02447
 30
0.0
 40
0.01
 41
0.01
  0
VERTEX
  8
0
 10
2.52501
 20
6.9311
 30
0.0
 40
0.01
 41
0.01
  0
VERTEX
  8
0
 10
2.60167
 20
6.84446
 30
0.0
 40
0.01
 41
0.01
  0
VERTEX
  8
0
 10
2.685
 20
6.76112
 30
0.0
 40
0.01
 41
0.01
  0
VERTEX
  8
0
 10
2.685
 20
9.76779
 30
0.0
 40
0.01
 41
0.01
  0
SEQEND
 8
0
  0
POLYLINE
  8
0
 62
     0
 66
     1
 10
0
 20
0
 30
0.0
 40
0.72
 41
0.72
  0
VERTEX
  8
0
 10
3.20833
 20
6.3061
 30
0.0
 40
0.01
 41
0.01
  0
VERTEX
  8
0
 10
3.23665
 20
6.37944
 30
0.0
 40
0.01
 41
0.01
  0
SEQEND
 8
0
  0
POLYLINE
  8
0
 62
     0
 66
     1
 10
0
 20
0
 30
0.0
 40
0.72
 41
0.72
  0
VERTEX
  8
0
 10
2.80501
 20
6.65278
 30
0.0
 40
0.01
 41
0.01
  0
VERTEX
  8
0
 10
2.89501
 20
6.58279
 30
0.0
 40
0.01
 41
0.01
  0
VERTEX
  8
0
 10
2.99001
 20
6.51779
 30
0.0
 40
0.01
 41
0.01
  0
VERTEX
  8
0
 10
3.08832
 20
6.45611
 30
0.0
 40
0.01
 41
0.01
  0
VERTEX
  8
0
 10
3.19
 20
6.40278
 30
0.0
 40
0.01
 41
0.01
  0
VERTEX
  8
0
 10
3.29335
 20
6.35275
 30
0.0
 40
0.01
 41
0.01
  0
VERTEX
  8
0
 10
3.40001
 20
6.30946
 30
0.0
 40
0.01
 41
0.01
  0
VERTEX
  8
0
 10
3.50836
 20
6.27279
 30
0.0
 40
0.01
 41
0.01
  0
VERTEX
  8
0
 10
3.61833
 20
6.2411
 30
0.0
 40
0.01
 41
0.01
  0
VERTEX
  8
0
 10
3.73167
 20
6.2161
 30
0.0
 40
0.01
 41
0.01
  0
VERTEX
  8
0
 10
3.845
 20
6.19781
 30
0.0
 40
0.01
 41
0.01
  0
VERTEX
  8
0
 10
3.95833
 20
6.18446
 30
0.0
 40
0.01
 41
0.01
  0
VERTEX
  8
0
 10
4.07335
 20
6.17779
 30
0.0
 40
0.01
 41
0.01
  0
VERTEX
  8
0
 10
4.18832
 20
6.17779
 30
0.0
 40
0.01
 41
0.01
  0
VERTEX
  8
0
 10
4.30333
 20
6.18446
 30
0.0
 40
0.01
 41
0.01
  0
VERTEX
  8
0
 10
4.41667
 20
6.19781
 30
0.0
 40
0.01
 41
0.01
  0
VERTEX
  8
0
 10
4.53
 20
6.2161
 30
0.0
 40
0.01
 41
0.01
  0
VERTEX
  8
0
 10
4.64333
 20
6.2411
 30
0.0
 40
0.01
 41
0.01
  0
VERTEX
  8
0
 10
4.75331
 20
6.27279
 30
0.0
 40
0.01
 41
0.01
  0
VERTEX
  8
0
 10
4.86165
 20
6.30946
 30
0.0
 40
0.01
 41
0.01
  0
VERTEX
  8
0
 10
4.96832
 20
6.35275
 30
0.0
 40
0.01
 41
0.01
  0
VERTEX
  8
0
 10
5.07167
 20
6.40278
 30
0.0
 40
0.01
 41
0.01
  0
VERTEX
  8
0
 10
5.17333
 20
6.45611
 30
0.0
 40
0.01
 41
0.01
  0
VERTEX
  8
0
 10
5.27165
 20
6.51779
 30
0.0
 40
0.01
 41
0.01
  0
VERTEX
  8
0
 10
5.36664
 20
6.58279
 30
0.0
 40
0.01
 41
0.01
  0
VERTEX
  8
0
 10
5.45665
 20
6.65278
 30
0.0
 40
0.01
 41
0.01
  0
SEQEND
 8
0
  0
POLYLINE
  8
0
 62
     0
 66
     1
 10
0
 20
0
 30
0.0
 40
0.72
 41
0.72
  0
VERTEX
  8
0
 10
2.80501
 20
6.65278
 30
0.0
 40
0.01
 41
0.01
  0
VERTEX
  8
0
 10
2.76335
 20
6.65278
 30
0.0
 40
0.01
 41
0.01
  0
VERTEX
  8
0
 10
2.76335
 20
7.63781
 30
0.0
 40
0.01
 41
0.01
  0
VERTEX
  8
0
 10
2.685
 20
7.63781
 30
0.0
 40
0.01
 41
0.01
  0
VERTEX
  8
0
 10
2.685
 20
6.76112
 30
0.0
 40
0.01
 41
0.01
  0
SEQEND
 8
0
  0
POLYLINE
  8
0
 62
     0
 66
     1
 10
0
 20
0
 30
0.0
 40
0.72
 41
0.72
  0
VERTEX
  8
0
 10
2.22
 20
7.42779
 30
0.0
 40
0.01
 41
0.01
  0
VERTEX
  8
0
 10
2.27001
 20
7.32112
 30
0.0
 40
0.01
 41
0.01
  0
VERTEX
  8
0
 10
2.32497
 20
7.21946
 30
0.0
 40
0.01
 41
0.01
  0
VERTEX
  8
0
 10
2.38667
 20
7.11947
 30
0.0
 40
0.01
 41
0.01
  0
VERTEX
  8
0
 10
2.45335
 20
7.02447
 30
0.0
 40
0.01
 41
0.01
  0
VERTEX
  8
0
 10
2.52501
 20
6.9311
 30
0.0
 40
0.01
 41
0.01
  0
VERTEX
  8
0
 10
2.60167
 20
6.84446
 30
0.0
 40
0.01
 41
0.01
  0
VERTEX
  8
0
 10
2.685
 20
6.76112
 30
0.0
 40
0.01
 41
0.01
  0
SEQEND
 8
0
  0
POLYLINE
  8
0
 62
     0
 66
     1
 10
0
 20
0
 30
0.0
 40
0.72
 41
0.72
  0
VERTEX
  8
0
 10
2.22
 20
7.42779
 30
0.0
 40
0.01
 41
0.01
  0
VERTEX
  8
0
 10
2.22
 20
9.10113
 30
0.0
 40
0.01
 41
0.01
  0
SEQEND
 8
0
  0
POLYLINE
  8
0
 62
     0
 66
     1
 10
0
 20
0
 30
0.0
 40
0.72
 41
0.72
  0
VERTEX
  8
0
 10
2.10667
 20
7.49447
 30
0.0
 40
0.01
 41
0.01
  0
VERTEX
  8
0
 10
2.22
 20
7.52946
 30
0.0
 40
0.01
 41
0.01
  0
SEQEND
 8
0
  0
POLYLINE
  8
0
 62
     0
 66
     1
 10
0
 20
0
 30
0.0
 40
0.72
 41
0.72
  0
VERTEX
  8
0
 10
6.155
 20
7.49447
 30
0.0
 40
0.01
 41
0.01
  0
VERTEX
  8
0
 10
6.04167
 20
7.52946
 30
0.0
 40
0.01
 41
0.01
  0
SEQEND
 8
0
  0
POLYLINE
  8
0
 62
     0
 66
     1
 10
0
 20
0
 30
0.0
 40
0.72
 41
0.72
  0
VERTEX
  8
0
 10
6.04167
 20
9.10113
 30
0.0
 40
0.01
 41
0.01
  0
VERTEX
  8
0
 10
6.04167
 20
7.42779
 30
0.0
 40
0.01
 41
0.01
  0
SEQEND
 8
0
  0
POLYLINE
  8
0
 62
     0
 66
     1
 10
0
 20
0
 30
0.0
 40
0.72
 41
0.72
  0
VERTEX
  8
0
 10
5.57667
 20
6.76112
 30
0.0
 40
0.01
 41
0.01
  0
VERTEX
  8
0
 10
5.66
 20
6.84446
 30
0.0
 40
0.01
 41
0.01
  0
VERTEX
  8
0
 10
5.73665
 20
6.9311
 30
0.0
 40
0.01
 41
0.01
  0
VERTEX
  8
0
 10
5.80832
 20
7.02447
 30
0.0
 40
0.01
 41
0.01
  0
VERTEX
  8
0
 10
5.875
 20
7.11947
 30
0.0
 40
0.01
 41
0.01
  0
VERTEX
  8
0
 10
5.93668
 20
7.21946
 30
0.0
 40
0.01
 41
0.01
  0
VERTEX
  8
0
 10
5.99164
 20
7.32112
 30
0.0
 40
0.01
 41
0.01
  0
VERTEX
  8
0
 10
6.04167
 20
7.42779
 30
0.0
 40
0.01
 41
0.01
  0
SEQEND
 8
0
  0
POLYLINE
  8
0
 62
     0
 66
     1
 10
0
 20
0
 30
0.0
 40
0.72
 41
0.72
  0
VERTEX
  8
0
 10
5.57667
 20
6.76112
 30
0.0
 40
0.01
 41
0.01
  0
VERTEX
  8
0
 10
5.57667
 20
7.63781
 30
0.0
 40
0.01
 41
0.01
  0
VERTEX
  8
0
 10
5.49832
 20
7.63781
 30
0.0
 40
0.01
 41
0.01
  0
VERTEX
  8
0
 10
5.49832
 20
6.65278
 30
0.0
 40
0.01
 41
0.01
  0
VERTEX
  8
0
 10
5.45665
 20
6.65278
 30
0.0
 40
0.01
 41
0.01
  0
SEQEND
 8
0
  0
POLYLINE
  8
0
 62
     0
 66
     1
 10
0
 20
0
 30
0.0
 40
0.72
 41
0.72
  0
VERTEX
  8
0
 10
2.80501
 20
6.65278
 30
0.0
 40
0.01
 41
0.01
  0
VERTEX
  8
0
 10
2.89501
 20
6.58279
 30
0.0
 40
0.01
 41
0.01
  0
VERTEX
  8
0
 10
2.99001
 20
6.51779
 30
0.0
 40
0.01
 41
0.01
  0
VERTEX
  8
0
 10
3.08832
 20
6.45611
 30
0.0
 40
0.01
 41
0.01
  0
VERTEX
  8
0
 10
3.19
 20
6.40278
 30
0.0
 40
0.01
 41
0.01
  0
VERTEX
  8
0
 10
3.29335
 20
6.35275
 30
0.0
 40
0.01
 41
0.01
  0
VERTEX
  8
0
 10
3.40001
 20
6.30946
 30
0.0
 40
0.01
 41
0.01
  0
VERTEX
  8
0
 10
3.50836
 20
6.27279
 30
0.0
 40
0.01
 41
0.01
  0
VERTEX
  8
0
 10
3.61833
 20
6.2411
 30
0.0
 40
0.01
 41
0.01
  0
VERTEX
  8
0
 10
3.73167
 20
6.2161
 30
0.0
 40
0.01
 41
0.01
  0
VERTEX
  8
0
 10
3.845
 20
6.19781
 30
0.0
 40
0.01
 41
0.01
  0
VERTEX
  8
0
 10
3.95833
 20
6.18446
 30
0.0
 40
0.01
 41
0.01
  0
VERTEX
  8
0
 10
4.07335
 20
6.17779
 30
0.0
 40
0.01
 41
0.01
  0
VERTEX
  8
0
 10
4.18832
 20
6.17779
 30
0.0
 40
0.01
 41
0.01
  0
VERTEX
  8
0
 10
4.30333
 20
6.18446
 30
0.0
 40
0.01
 41
0.01
  0
VERTEX
  8
0
 10
4.41667
 20
6.19781
 30
0.0
 40
0.01
 41
0.01
  0
VERTEX
  8
0
 10
4.53
 20
6.2161
 30
0.0
 40
0.01
 41
0.01
  0
VERTEX
  8
0
 10
4.64333
 20
6.2411
 30
0.0
 40
0.01
 41
0.01
  0
VERTEX
  8
0
 10
4.75331
 20
6.27279
 30
0.0
 40
0.01
 41
0.01
  0
VERTEX
  8
0
 10
4.86165
 20
6.30946
 30
0.0
 40
0.01
 41
0.01
  0
VERTEX
  8
0
 10
4.96832
 20
6.35275
 30
0.0
 40
0.01
 41
0.01
  0
VERTEX
  8
0
 10
5.07167
 20
6.40278
 30
0.0
 40
0.01
 41
0.01
  0
VERTEX
  8
0
 10
5.17333
 20
6.45611
 30
0.0
 40
0.01
 41
0.01
  0
VERTEX
  8
0
 10
5.27165
 20
6.51779
 30
0.0
 40
0.01
 41
0.01
  0
VERTEX
  8
0
 10
5.36664
 20
6.58279
 30
0.0
 40
0.01
 41
0.01
  0
VERTEX
  8
0
 10
5.45665
 20
6.65278
 30
0.0
 40
0.01
 41
0.01
  0
SEQEND
 8
0
  0
POLYLINE
  8
0
 62
     0
 66
     1
 10
0
 20
0
 30
0.0
 40
0.72
 41
0.72
  0
VERTEX
  8
0
 10
5.05333
 20
6.3061
 30
0.0
 40
0.01
 41
0.01
  0
VERTEX
  8
0
 10
5.02501
 20
6.37944
 30
0.0
 40
0.01
 41
0.01
  0
SEQEND
 8
0
  0
POLYLINE
  8
0
 62
     0
 66
     1
 10
0
 20
0
 30
0.0
 70
     1
 40
0.72
 41
0.72
  0
VERTEX
  8
0
 10
2.685
 20
7.83447
 30
0.0
 40
0.01
 41
0.01
  0
VERTEX
  8
0
 10
2.76335
 20
7.83447
 30
0.0
 40
0.01
 41
0.01
  0
VERTEX
  8
0
 10
2.76335
 20
8.69444
 30
0.0
 40
0.01
 41
0.01
  0
VERTEX
  8
0
 10
2.685
 20
8.69444
 30
0.0
 40
0.01
 41
0.01
  0
VERTEX
  8
0
 10
2.685
 20
7.83447
 30
0.0
 40
0.01
 41
0.01
  0
SEQEND
 8
0
  0
POLYLINE
  8
0
 62
     0
 66
     1
 10
0
 20
0
 30
0.0
 70
     1
 40
0.72
 41
0.72
  0
VERTEX
  8
0
 10
5.49832
 20
7.83447
 30
0.0
 40
0.01
 41
0.01
  0
VERTEX
  8
0
 10
5.57667
 20
7.83447
 30
0.0
 40
0.01
 41
0.01
  0
VERTEX
  8
0
 10
5.57667
 20
8.69444
 30
0.0
 40
0.01
 41
0.01
  0
VERTEX
  8
0
 10
5.49832
 20
8.69444
 30
0.0
 40
0.01
 41
0.01
  0
VERTEX
  8
0
 10
5.49832
 20
7.83447
 30
0.0
 40
0.01
 41
0.01
  0
SEQEND
 8
0
  0
POLYLINE
  8
0
 62
     0
 66
     1
 10
0
 20
0
 30
0.0
 70
     1
 40
0.72
 41
0.72
  0
VERTEX
  8
0
 10
5.57667
 20
6.76112
 30
0.0
 40
0.01
 41
0.01
  0
VERTEX
  8
0
 10
5.66
 20
6.84446
 30
0.0
 40
0.01
 41
0.01
  0
VERTEX
  8
0
 10
5.73665
 20
6.9311
 30
0.0
 40
0.01
 41
0.01
  0
VERTEX
  8
0
 10
5.80832
 20
7.02447
 30
0.0
 40
0.01
 41
0.01
  0
VERTEX
  8
0
 10
5.875
 20
7.11947
 30
0.0
 40
0.01
 41
0.01
  0
VERTEX
  8
0
 10
5.93668
 20
7.21946
 30
0.0
 40
0.01
 41
0.01
  0
VERTEX
  8
0
 10
5.99164
 20
7.32112
 30
0.0
 40
0.01
 41
0.01
  0
VERTEX
  8
0
 10
6.04167
 20
7.42779
 30
0.0
 40
0.01
 41
0.01
  0
VERTEX
  8
0
 10
6.04167
 20
9.10113
 30
0.0
 40
0.01
 41
0.01
  0
VERTEX
  8
0
 10
6.04167
 20
7.42779
 30
0.0
 40
0.01
 41
0.01
  0
VERTEX
  8
0
 10
6.04167
 20
9.10113
 30
0.0
 40
0.01
 41
0.01
  0
VERTEX
  8
0
 10
6.04167
 20
7.42779
 30
0.0
 40
0.01
 41
0.01
  0
VERTEX
  8
0
 10
6.04167
 20
9.10113
 30
0.0
 40
0.01
 41
0.01
  0
VERTEX
  8
0
 10
5.99164
 20
9.20611
 30
0.0
 40
0.01
 41
0.01
  0
VERTEX
  8
0
 10
5.93668
 20
9.30946
 30
0.0
 40
0.01
 41
0.01
  0
VERTEX
  8
0
 10
5.875
 20
9.40944
 30
0.0
 40
0.01
 41
0.01
  0
VERTEX
  8
0
 10
5.80832
 20
9.50444
 30
0.0
 40
0.01
 41
0.01
  0
VERTEX
  8
0
 10
5.73665
 20
9.59614
 30
0.0
 40
0.01
 41
0.01
  0
VERTEX
  8
0
 10
5.66
 20
9.68446
 30
0.0
 40
0.01
 41
0.01
  0
VERTEX
  8
0
 10
5.57667
 20
9.76779
 30
0.0
 40
0.01
 41
0.01
  0
VERTEX
  8
0
 10
5.57667
 20
6.76112
 30
0.0
 40
0.01
 41
0.01
  0
SEQEND
 8
0
  0
POLYLINE
  8
0
 62
     0
 66
     1
 10
0
 20
0
 30
0.0
 40
0.72
 41
0.72
  0
VERTEX
  8
0
 10
3.20833
 20
10.2228
 30
0.0
 40
0.01
 41
0.01
  0
VERTEX
  8
0
 10
3.23665
 20
10.1495
 30
0.0
 40
0.01
 41
0.01
  0
SEQEND
 8
0
  0
POLYLINE
  8
0
 62
     0
 66
     1
 10
0
 20
0
 30
0.0
 40
0.72
 41
0.72
  0
VERTEX
  8
0
 10
5.45665
 20
9.87446
 30
0.0
 40
0.01
 41
0.01
  0
VERTEX
  8
0
 10
5.36664
 20
9.94612
 30
0.0
 40
0.01
 41
0.01
  0
VERTEX
  8
0
 10
5.27165
 20
10.0111
 30
0.0
 40
0.01
 41
0.01
  0
VERTEX
  8
0
 10
5.17333
 20
10.0711
 30
0.0
 40
0.01
 41
0.01
  0
VERTEX
  8
0
 10
5.07167
 20
10.1261
 30
0.0
 40
0.01
 41
0.01
  0
VERTEX
  8
0
 10
4.96832
 20
10.1744
 30
0.0
 40
0.01
 41
0.01
  0
VERTEX
  8
0
 10
4.86165
 20
10.2178
 30
0.0
 40
0.01
 41
0.01
  0
VERTEX
  8
0
 10
4.75331
 20
10.2561
 30
0.0
 40
0.01
 41
0.01
  0
VERTEX
  8
0
 10
4.64333
 20
10.2861
 30
0.0
 40
0.01
 41
0.01
  0
VERTEX
  8
0
 10
4.53
 20
10.3128
 30
0.0
 40
0.01
 41
0.01
  0
VERTEX
  8
0
 10
4.41667
 20
10.3311
 30
0.0
 40
0.01
 41
0.01
  0
VERTEX
  8
0
 10
4.30333
 20
10.3445
 30
0.0
 40
0.01
 41
0.01
  0
VERTEX
  8
0
 10
4.18832
 20
10.3494
 30
0.0
 40
0.01
 41
0.01
  0
VERTEX
  8
0
 10
4.07335
 20
10.3494
 30
0.0
 40
0.01
 41
0.01
  0
VERTEX
  8
0
 10
3.95833
 20
10.3445
 30
0.0
 40
0.01
 41
0.01
  0
VERTEX
  8
0
 10
3.845
 20
10.3311
 30
0.0
 40
0.01
 41
0.01
  0
VERTEX
  8
0
 10
3.73167
 20
10.3128
 30
0.0
 40
0.01
 41
0.01
  0
VERTEX
  8
0
 10
3.61833
 20
10.2861
 30
0.0
 40
0.01
 41
0.01
  0
VERTEX
  8
0
 10
3.50836
 20
10.2561
 30
0.0
 40
0.01
 41
0.01
  0
VERTEX
  8
0
 10
3.40001
 20
10.2178
 30
0.0
 40
0.01
 41
0.01
  0
VERTEX
  8
0
 10
3.29335
 20
10.1744
 30
0.0
 40
0.01
 41
0.01
  0
VERTEX
  8
0
 10
3.19
 20
10.1261
 30
0.0
 40
0.01
 41
0.01
  0
VERTEX
  8
0
 10
3.08832
 20
10.0711
 30
0.0
 40
0.01
 41
0.01
  0
VERTEX
  8
0
 10
2.99001
 20
10.0111
 30
0.0
 40
0.01
 41
0.01
  0
VERTEX
  8
0
 10
2.89501
 20
9.94612
 30
0.0
 40
0.01
 41
0.01
  0
VERTEX
  8
0
 10
2.80501
 20
9.87446
 30
0.0
 40
0.01
 41
0.01
  0
SEQEND
 8
0
  0
POLYLINE
  8
0
 62
     0
 66
     1
 10
0
 20
0
 30
0.0
 40
0.72
 41
0.72
  0
VERTEX
  8
0
 10
3.48335
 20
10.3294
 30
0.0
 40
0.01
 41
0.01
  0
VERTEX
  8
0
 10
3.51167
 20
10.2561
 30
0.0
 40
0.01
 41
0.01
  0
SEQEND
 8
0
  0
POLYLINE
  8
0
 62
     0
 66
     1
 10
0
 20
0
 30
0.0
 40
0.72
 41
0.72
  0
VERTEX
  8
0
 10
3.20833
 20
10.2228
 30
0.0
 40
0.01
 41
0.01
  0
VERTEX
  8
0
 10
3.23665
 20
10.1495
 30
0.0
 40
0.01
 41
0.01
  0
SEQEND
 8
0
  0
POLYLINE
  8
0
 62
     0
 66
     1
 10
0
 20
0
 30
0.0
 40
0.72
 41
0.72
  0
VERTEX
  8
0
 10
3.51167
 20
10.2561
 30
0.0
 40
0.01
 41
0.01
  0
VERTEX
  8
0
 10
3.41835
 20
10.2244
 30
0.0
 40
0.01
 41
0.01
  0
VERTEX
  8
0
 10
3.32667
 20
10.1895
 30
0.0
 40
0.01
 41
0.01
  0
VERTEX
  8
0
 10
3.23665
 20
10.1495
 30
0.0
 40
0.01
 41
0.01
  0
SEQEND
 8
0
  0
POLYLINE
  8
0
 62
     0
 66
     1
 10
0
 20
0
 30
0.0
 40
0.72
 41
0.72
  0
VERTEX
  8
0
 10
3.51167
 20
10.2561
 30
0.0
 40
0.01
 41
0.01
  0
VERTEX
  8
0
 10
3.48335
 20
10.3294
 30
0.0
 40
0.01
 41
0.01
  0
SEQEND
 8
0
  0
POLYLINE
  8
0
 62
     0
 66
     1
 10
0
 20
0
 30
0.0
 40
0.72
 41
0.72
  0
VERTEX
  8
0
 10
5.45665
 20
9.87446
 30
0.0
 40
0.01
 41
0.01
  0
VERTEX
  8
0
 10
5.36664
 20
9.94612
 30
0.0
 40
0.01
 41
0.01
  0
VERTEX
  8
0
 10
5.27165
 20
10.0111
 30
0.0
 40
0.01
 41
0.01
  0
VERTEX
  8
0
 10
5.17333
 20
10.0711
 30
0.0
 40
0.01
 41
0.01
  0
VERTEX
  8
0
 10
5.07167
 20
10.1261
 30
0.0
 40
0.01
 41
0.01
  0
VERTEX
  8
0
 10
4.96832
 20
10.1744
 30
0.0
 40
0.01
 41
0.01
  0
VERTEX
  8
0
 10
4.86165
 20
10.2178
 30
0.0
 40
0.01
 41
0.01
  0
VERTEX
  8
0
 10
4.75331
 20
10.2561
 30
0.0
 40
0.01
 41
0.01
  0
VERTEX
  8
0
 10
4.64333
 20
10.2861
 30
0.0
 40
0.01
 41
0.01
  0
VERTEX
  8
0
 10
4.53
 20
10.3128
 30
0.0
 40
0.01
 41
0.01
  0
VERTEX
  8
0
 10
4.41667
 20
10.3311
 30
0.0
 40
0.01
 41
0.01
  0
VERTEX
  8
0
 10
4.30333
 20
10.3445
 30
0.0
 40
0.01
 41
0.01
  0
VERTEX
  8
0
 10
4.18832
 20
10.3494
 30
0.0
 40
0.01
 41
0.01
  0
VERTEX
  8
0
 10
4.07335
 20
10.3494
 30
0.0
 40
0.01
 41
0.01
  0
VERTEX
  8
0
 10
3.95833
 20
10.3445
 30
0.0
 40
0.01
 41
0.01
  0
VERTEX
  8
0
 10
3.845
 20
10.3311
 30
0.0
 40
0.01
 41
0.01
  0
VERTEX
  8
0
 10
3.73167
 20
10.3128
 30
0.0
 40
0.01
 41
0.01
  0
VERTEX
  8
0
 10
3.61833
 20
10.2861
 30
0.0
 40
0.01
 41
0.01
  0
VERTEX
  8
0
 10
3.50836
 20
10.2561
 30
0.0
 40
0.01
 41
0.01
  0
VERTEX
  8
0
 10
3.40001
 20
10.2178
 30
0.0
 40
0.01
 41
0.01
  0
VERTEX
  8
0
 10
3.29335
 20
10.1744
 30
0.0
 40
0.01
 41
0.01
  0
VERTEX
  8
0
 10
3.19
 20
10.1261
 30
0.0
 40
0.01
 41
0.01
  0
VERTEX
  8
0
 10
3.08832
 20
10.0711
 30
0.0
 40
0.01
 41
0.01
  0
VERTEX
  8
0
 10
2.99001
 20
10.0111
 30
0.0
 40
0.01
 41
0.01
  0
VERTEX
  8
0
 10
2.89501
 20
9.94612
 30
0.0
 40
0.01
 41
0.01
  0
VERTEX
  8
0
 10
2.80501
 20
9.87446
 30
0.0
 40
0.01
 41
0.01
  0
SEQEND
 8
0
  0
POLYLINE
  8
0
 62
     0
 66
     1
 10
0
 20
0
 30
0.0
 40
0.72
 41
0.72
  0
VERTEX
  8
0
 10
5.45665
 20
9.87446
 30
0.0
 40
0.01
 41
0.01
  0
VERTEX
  8
0
 10
5.36664
 20
9.94612
 30
0.0
 40
0.01
 41
0.01
  0
VERTEX
  8
0
 10
5.27165
 20
10.0111
 30
0.0
 40
0.01
 41
0.01
  0
VERTEX
  8
0
 10
5.17333
 20
10.0711
 30
0.0
 40
0.01
 41
0.01
  0
VERTEX
  8
0
 10
5.07167
 20
10.1261
 30
0.0
 40
0.01
 41
0.01
  0
VERTEX
  8
0
 10
4.96832
 20
10.1744
 30
0.0
 40
0.01
 41
0.01
  0
VERTEX
  8
0
 10
4.86165
 20
10.2178
 30
0.0
 40
0.01
 41
0.01
  0
VERTEX
  8
0
 10
4.75331
 20
10.2561
 30
0.0
 40
0.01
 41
0.01
  0
VERTEX
  8
0
 10
4.64333
 20
10.2861
 30
0.0
 40
0.01
 41
0.01
  0
VERTEX
  8
0
 10
4.53
 20
10.3128
 30
0.0
 40
0.01
 41
0.01
  0
VERTEX
  8
0
 10
4.41667
 20
10.3311
 30
0.0
 40
0.01
 41
0.01
  0
VERTEX
  8
0
 10
4.30333
 20
10.3445
 30
0.0
 40
0.01
 41
0.01
  0
VERTEX
  8
0
 10
4.18832
 20
10.3494
 30
0.0
 40
0.01
 41
0.01
  0
VERTEX
  8
0
 10
4.07335
 20
10.3494
 30
0.0
 40
0.01
 41
0.01
  0
VERTEX
  8
0
 10
3.95833
 20
10.3445
 30
0.0
 40
0.01
 41
0.01
  0
VERTEX
  8
0
 10
3.845
 20
10.3311
 30
0.0
 40
0.01
 41
0.01
  0
VERTEX
  8
0
 10
3.73167
 20
10.3128
 30
0.0
 40
0.01
 41
0.01
  0
VERTEX
  8
0
 10
3.61833
 20
10.2861
 30
0.0
 40
0.01
 41
0.01
  0
VERTEX
  8
0
 10
3.50836
 20
10.2561
 30
0.0
 40
0.01
 41
0.01
  0
VERTEX
  8
0
 10
3.40001
 20
10.2178
 30
0.0
 40
0.01
 41
0.01
  0
VERTEX
  8
0
 10
3.29335
 20
10.1744
 30
0.0
 40
0.01
 41
0.01
  0
VERTEX
  8
0
 10
3.19
 20
10.1261
 30
0.0
 40
0.01
 41
0.01
  0
VERTEX
  8
0
 10
3.08832
 20
10.0711
 30
0.0
 40
0.01
 41
0.01
  0
VERTEX
  8
0
 10
2.99001
 20
10.0111
 30
0.0
 40
0.01
 41
0.01
  0
VERTEX
  8
0
 10
2.89501
 20
9.94612
 30
0.0
 40
0.01
 41
0.01
  0
VERTEX
  8
0
 10
2.80501
 20
9.87446
 30
0.0
 40
0.01
 41
0.01
  0
VERTEX
  8
0
 10
2.76335
 20
9.87446
 30
0.0
 40
0.01
 41
0.01
  0
VERTEX
  8
0
 10
2.76335
 20
8.89111
 30
0.0
 40
0.01
 41
0.01
  0
VERTEX
  8
0
 10
2.685
 20
8.89111
 30
0.0
 40
0.01
 41
0.01
  0
VERTEX
  8
0
 10
2.685
 20
8.69444
 30
0.0
 40
0.01
 41
0.01
  0
VERTEX
  8
0
 10
2.76335
 20
8.69444
 30
0.0
 40
0.01
 41
0.01
  0
VERTEX
  8
0
 10
2.76335
 20
7.83447
 30
0.0
 40
0.01
 41
0.01
  0
VERTEX
  8
0
 10
2.685
 20
7.83447
 30
0.0
 40
0.01
 41
0.01
  0
VERTEX
  8
0
 10
2.685
 20
7.63781
 30
0.0
 40
0.01
 41
0.01
  0
VERTEX
  8
0
 10
2.76335
 20
7.63781
 30
0.0
 40
0.01
 41
0.01
  0
VERTEX
  8
0
 10
2.76335
 20
6.65278
 30
0.0
 40
0.01
 41
0.01
  0
VERTEX
  8
0
 10
2.80501
 20
6.65278
 30
0.0
 40
0.01
 41
0.01
  0
VERTEX
  8
0
 10
2.89501
 20
6.58279
 30
0.0
 40
0.01
 41
0.01
  0
VERTEX
  8
0
 10
2.99001
 20
6.51779
 30
0.0
 40
0.01
 41
0.01
  0
VERTEX
  8
0
 10
3.08832
 20
6.45611
 30
0.0
 40
0.01
 41
0.01
  0
VERTEX
  8
0
 10
3.19
 20
6.40278
 30
0.0
 40
0.01
 41
0.01
  0
VERTEX
  8
0
 10
3.29335
 20
6.35275
 30
0.0
 40
0.01
 41
0.01
  0
VERTEX
  8
0
 10
3.40001
 20
6.30946
 30
0.0
 40
0.01
 41
0.01
  0
VERTEX
  8
0
 10
3.50836
 20
6.27279
 30
0.0
 40
0.01
 41
0.01
  0
VERTEX
  8
0
 10
3.61833
 20
6.2411
 30
0.0
 40
0.01
 41
0.01
  0
VERTEX
  8
0
 10
3.73167
 20
6.2161
 30
0.0
 40
0.01
 41
0.01
  0
VERTEX
  8
0
 10
3.845
 20
6.19781
 30
0.0
 40
0.01
 41
0.01
  0
VERTEX
  8
0
 10
3.95833
 20
6.18446
 30
0.0
 40
0.01
 41
0.01
  0
VERTEX
  8
0
 10
4.07335
 20
6.17779
 30
0.0
 40
0.01
 41
0.01
  0
VERTEX
  8
0
 10
4.18832
 20
6.17779
 30
0.0
 40
0.01
 41
0.01
  0
VERTEX
  8
0
 10
4.30333
 20
6.18446
 30
0.0
 40
0.01
 41
0.01
  0
VERTEX
  8
0
 10
4.41667
 20
6.19781
 30
0.0
 40
0.01
 41
0.01
  0
VERTEX
  8
0
 10
4.53
 20
6.2161
 30
0.0
 40
0.01
 41
0.01
  0
VERTEX
  8
0
 10
4.64333
 20
6.2411
 30
0.0
 40
0.01
 41
0.01
  0
VERTEX
  8
0
 10
4.75331
 20
6.27279
 30
0.0
 40
0.01
 41
0.01
  0
VERTEX
  8
0
 10
4.86165
 20
6.30946
 30
0.0
 40
0.01
 41
0.01
  0
VERTEX
  8
0
 10
4.96832
 20
6.35275
 30
0.0
 40
0.01
 41
0.01
  0
VERTEX
  8
0
 10
5.07167
 20
6.40278
 30
0.0
 40
0.01
 41
0.01
  0
VERTEX
  8
0
 10
5.17333
 20
6.45611
 30
0.0
 40
0.01
 41
0.01
  0
VERTEX
  8
0
 10
5.27165
 20
6.51779
 30
0.0
 40
0.01
 41
0.01
  0
VERTEX
  8
0
 10
5.36664
 20
6.58279
 30
0.0
 40
0.01
 41
0.01
  0
VERTEX
  8
0
 10
5.45665
 20
6.65278
 30
0.0
 40
0.01
 41
0.01
  0
SEQEND
 8
0
  0
POLYLINE
  8
0
 62
     0
 66
     1
 10
0
 20
0
 30
0.0
 40
0.72
 41
0.72
  0
VERTEX
  8
0
 10
2.80501
 20
6.65278
 30
0.0
 40
0.01
 41
0.01
  0
VERTEX
  8
0
 10
2.89501
 20
6.58279
 30
0.0
 40
0.01
 41
0.01
  0
VERTEX
  8
0
 10
2.99001
 20
6.51779
 30
0.0
 40
0.01
 41
0.01
  0
VERTEX
  8
0
 10
3.08832
 20
6.45611
 30
0.0
 40
0.01
 41
0.01
  0
VERTEX
  8
0
 10
3.19
 20
6.40278
 30
0.0
 40
0.01
 41
0.01
  0
VERTEX
  8
0
 10
3.29335
 20
6.35275
 30
0.0
 40
0.01
 41
0.01
  0
VERTEX
  8
0
 10
3.40001
 20
6.30946
 30
0.0
 40
0.01
 41
0.01
  0
VERTEX
  8
0
 10
3.50836
 20
6.27279
 30
0.0
 40
0.01
 41
0.01
  0
VERTEX
  8
0
 10
3.61833
 20
6.2411
 30
0.0
 40
0.01
 41
0.01
  0
VERTEX
  8
0
 10
3.73167
 20
6.2161
 30
0.0
 40
0.01
 41
0.01
  0
VERTEX
  8
0
 10
3.845
 20
6.19781
 30
0.0
 40
0.01
 41
0.01
  0
VERTEX
  8
0
 10
3.95833
 20
6.18446
 30
0.0
 40
0.01
 41
0.01
  0
VERTEX
  8
0
 10
4.07335
 20
6.17779
 30
0.0
 40
0.01
 41
0.01
  0
VERTEX
  8
0
 10
4.18832
 20
6.17779
 30
0.0
 40
0.01
 41
0.01
  0
VERTEX
  8
0
 10
4.30333
 20
6.18446
 30
0.0
 40
0.01
 41
0.01
  0
VERTEX
  8
0
 10
4.41667
 20
6.19781
 30
0.0
 40
0.01
 41
0.01
  0
VERTEX
  8
0
 10
4.53
 20
6.2161
 30
0.0
 40
0.01
 41
0.01
  0
VERTEX
  8
0
 10
4.64333
 20
6.2411
 30
0.0
 40
0.01
 41
0.01
  0
VERTEX
  8
0
 10
4.75331
 20
6.27279
 30
0.0
 40
0.01
 41
0.01
  0
VERTEX
  8
0
 10
4.86165
 20
6.30946
 30
0.0
 40
0.01
 41
0.01
  0
VERTEX
  8
0
 10
4.96832
 20
6.35275
 30
0.0
 40
0.01
 41
0.01
  0
VERTEX
  8
0
 10
5.07167
 20
6.40278
 30
0.0
 40
0.01
 41
0.01
  0
VERTEX
  8
0
 10
5.17333
 20
6.45611
 30
0.0
 40
0.01
 41
0.01
  0
VERTEX
  8
0
 10
5.27165
 20
6.51779
 30
0.0
 40
0.01
 41
0.01
  0
VERTEX
  8
0
 10
5.36664
 20
6.58279
 30
0.0
 40
0.01
 41
0.01
  0
VERTEX
  8
0
 10
5.45665
 20
6.65278
 30
0.0
 40
0.01
 41
0.01
  0
SEQEND
 8
0
  0
POLYLINE
  8
0
 62
     0
 66
     1
 10
0
 20
0
 30
0.0
 40
0.72
 41
0.72
  0
VERTEX
  8
0
 10
2.80501
 20
6.65278
 30
0.0
 40
0.01
 41
0.01
  0
VERTEX
  8
0
 10
2.89501
 20
6.58279
 30
0.0
 40
0.01
 41
0.01
  0
VERTEX
  8
0
 10
2.99001
 20
6.51779
 30
0.0
 40
0.01
 41
0.01
  0
VERTEX
  8
0
 10
3.08832
 20
6.45611
 30
0.0
 40
0.01
 41
0.01
  0
VERTEX
  8
0
 10
3.19
 20
6.40278
 30
0.0
 40
0.01
 41
0.01
  0
VERTEX
  8
0
 10
3.29335
 20
6.35275
 30
0.0
 40
0.01
 41
0.01
  0
VERTEX
  8
0
 10
3.40001
 20
6.30946
 30
0.0
 40
0.01
 41
0.01
  0
VERTEX
  8
0
 10
3.50836
 20
6.27279
 30
0.0
 40
0.01
 41
0.01
  0
VERTEX
  8
0
 10
3.61833
 20
6.2411
 30
0.0
 40
0.01
 41
0.01
  0
VERTEX
  8
0
 10
3.73167
 20
6.2161
 30
0.0
 40
0.01
 41
0.01
  0
VERTEX
  8
0
 10
3.845
 20
6.19781
 30
0.0
 40
0.01
 41
0.01
  0
VERTEX
  8
0
 10
3.95833
 20
6.18446
 30
0.0
 40
0.01
 41
0.01
  0
VERTEX
  8
0
 10
4.07335
 20
6.17779
 30
0.0
 40
0.01
 41
0.01
  0
VERTEX
  8
0
 10
4.18832
 20
6.17779
 30
0.0
 40
0.01
 41
0.01
  0
VERTEX
  8
0
 10
4.30333
 20
6.18446
 30
0.0
 40
0.01
 41
0.01
  0
VERTEX
  8
0
 10
4.41667
 20
6.19781
 30
0.0
 40
0.01
 41
0.01
  0
VERTEX
  8
0
 10
4.53
 20
6.2161
 30
0.0
 40
0.01
 41
0.01
  0
VERTEX
  8
0
 10
4.64333
 20
6.2411
 30
0.0
 40
0.01
 41
0.01
  0
VERTEX
  8
0
 10
4.75331
 20
6.27279
 30
0.0
 40
0.01
 41
0.01
  0
VERTEX
  8
0
 10
4.86165
 20
6.30946
 30
0.0
 40
0.01
 41
0.01
  0
VERTEX
  8
0
 10
4.96832
 20
6.35275
 30
0.0
 40
0.01
 41
0.01
  0
VERTEX
  8
0
 10
5.07167
 20
6.40278
 30
0.0
 40
0.01
 41
0.01
  0
VERTEX
  8
0
 10
5.17333
 20
6.45611
 30
0.0
 40
0.01
 41
0.01
  0
VERTEX
  8
0
 10
5.27165
 20
6.51779
 30
0.0
 40
0.01
 41
0.01
  0
VERTEX
  8
0
 10
5.36664
 20
6.58279
 30
0.0
 40
0.01
 41
0.01
  0
VERTEX
  8
0
 10
5.45665
 20
6.65278
 30
0.0
 40
0.01
 41
0.01
  0
SEQEND
 8
0
  0
POLYLINE
  8
0
 62
     0
 66
     1
 10
0
 20
0
 30
0.0
 40
0.72
 41
0.72
  0
VERTEX
  8
0
 10
2.80501
 20
6.65278
 30
0.0
 40
0.01
 41
0.01
  0
VERTEX
  8
0
 10
2.89501
 20
6.58279
 30
0.0
 40
0.01
 41
0.01
  0
VERTEX
  8
0
 10
2.99001
 20
6.51779
 30
0.0
 40
0.01
 41
0.01
  0
VERTEX
  8
0
 10
3.08832
 20
6.45611
 30
0.0
 40
0.01
 41
0.01
  0
VERTEX
  8
0
 10
3.19
 20
6.40278
 30
0.0
 40
0.01
 41
0.01
  0
VERTEX
  8
0
 10
3.29335
 20
6.35275
 30
0.0
 40
0.01
 41
0.01
  0
VERTEX
  8
0
 10
3.40001
 20
6.30946
 30
0.0
 40
0.01
 41
0.01
  0
VERTEX
  8
0
 10
3.50836
 20
6.27279
 30
0.0
 40
0.01
 41
0.01
  0
VERTEX
  8
0
 10
3.61833
 20
6.2411
 30
0.0
 40
0.01
 41
0.01
  0
VERTEX
  8
0
 10
3.73167
 20
6.2161
 30
0.0
 40
0.01
 41
0.01
  0
VERTEX
  8
0
 10
3.845
 20
6.19781
 30
0.0
 40
0.01
 41
0.01
  0
VERTEX
  8
0
 10
3.95833
 20
6.18446
 30
0.0
 40
0.01
 41
0.01
  0
VERTEX
  8
0
 10
4.07335
 20
6.17779
 30
0.0
 40
0.01
 41
0.01
  0
VERTEX
  8
0
 10
4.18832
 20
6.17779
 30
0.0
 40
0.01
 41
0.01
  0
VERTEX
  8
0
 10
4.30333
 20
6.18446
 30
0.0
 40
0.01
 41
0.01
  0
VERTEX
  8
0
 10
4.41667
 20
6.19781
 30
0.0
 40
0.01
 41
0.01
  0
VERTEX
  8
0
 10
4.53
 20
6.2161
 30
0.0
 40
0.01
 41
0.01
  0
VERTEX
  8
0
 10
4.64333
 20
6.2411
 30
0.0
 40
0.01
 41
0.01
  0
VERTEX
  8
0
 10
4.75331
 20
6.27279
 30
0.0
 40
0.01
 41
0.01
  0
VERTEX
  8
0
 10
4.86165
 20
6.30946
 30
0.0
 40
0.01
 41
0.01
  0
VERTEX
  8
0
 10
4.96832
 20
6.35275
 30
0.0
 40
0.01
 41
0.01
  0
VERTEX
  8
0
 10
5.07167
 20
6.40278
 30
0.0
 40
0.01
 41
0.01
  0
VERTEX
  8
0
 10
5.17333
 20
6.45611
 30
0.0
 40
0.01
 41
0.01
  0
VERTEX
  8
0
 10
5.27165
 20
6.51779
 30
0.0
 40
0.01
 41
0.01
  0
VERTEX
  8
0
 10
5.36664
 20
6.58279
 30
0.0
 40
0.01
 41
0.01
  0
VERTEX
  8
0
 10
5.45665
 20
6.65278
 30
0.0
 40
0.01
 41
0.01
  0
SEQEND
 8
0
  0
POLYLINE
  8
0
 62
     0
 66
     1
 10
0
 20
0
 30
0.0
 40
0.72
 41
0.72
  0
VERTEX
  8
0
 10
2.80501
 20
6.65278
 30
0.0
 40
0.01
 41
0.01
  0
VERTEX
  8
0
 10
2.89501
 20
6.58279
 30
0.0
 40
0.01
 41
0.01
  0
VERTEX
  8
0
 10
2.99001
 20
6.51779
 30
0.0
 40
0.01
 41
0.01
  0
VERTEX
  8
0
 10
3.08832
 20
6.45611
 30
0.0
 40
0.01
 41
0.01
  0
VERTEX
  8
0
 10
3.19
 20
6.40278
 30
0.0
 40
0.01
 41
0.01
  0
VERTEX
  8
0
 10
3.29335
 20
6.35275
 30
0.0
 40
0.01
 41
0.01
  0
VERTEX
  8
0
 10
3.40001
 20
6.30946
 30
0.0
 40
0.01
 41
0.01
  0
VERTEX
  8
0
 10
3.50836
 20
6.27279
 30
0.0
 40
0.01
 41
0.01
  0
VERTEX
  8
0
 10
3.61833
 20
6.2411
 30
0.0
 40
0.01
 41
0.01
  0
VERTEX
  8
0
 10
3.73167
 20
6.2161
 30
0.0
 40
0.01
 41
0.01
  0
VERTEX
  8
0
 10
3.845
 20
6.19781
 30
0.0
 40
0.01
 41
0.01
  0
VERTEX
  8
0
 10
3.95833
 20
6.18446
 30
0.0
 40
0.01
 41
0.01
  0
VERTEX
  8
0
 10
4.07335
 20
6.17779
 30
0.0
 40
0.01
 41
0.01
  0
VERTEX
  8
0
 10
4.18832
 20
6.17779
 30
0.0
 40
0.01
 41
0.01
  0
VERTEX
  8
0
 10
4.30333
 20
6.18446
 30
0.0
 40
0.01
 41
0.01
  0
VERTEX
  8
0
 10
4.41667
 20
6.19781
 30
0.0
 40
0.01
 41
0.01
  0
VERTEX
  8
0
 10
4.53
 20
6.2161
 30
0.0
 40
0.01
 41
0.01
  0
VERTEX
  8
0
 10
4.64333
 20
6.2411
 30
0.0
 40
0.01
 41
0.01
  0
VERTEX
  8
0
 10
4.75331
 20
6.27279
 30
0.0
 40
0.01
 41
0.01
  0
VERTEX
  8
0
 10
4.86165
 20
6.30946
 30
0.0
 40
0.01
 41
0.01
  0
VERTEX
  8
0
 10
4.96832
 20
6.35275
 30
0.0
 40
0.01
 41
0.01
  0
VERTEX
  8
0
 10
5.07167
 20
6.40278
 30
0.0
 40
0.01
 41
0.01
  0
VERTEX
  8
0
 10
5.17333
 20
6.45611
 30
0.0
 40
0.01
 41
0.01
  0
VERTEX
  8
0
 10
5.27165
 20
6.51779
 30
0.0
 40
0.01
 41
0.01
  0
VERTEX
  8
0
 10
5.36664
 20
6.58279
 30
0.0
 40
0.01
 41
0.01
  0
VERTEX
  8
0
 10
5.45665
 20
6.65278
 30
0.0
 40
0.01
 41
0.01
  0
VERTEX
  8
0
 10
5.49832
 20
6.65278
 30
0.0
 40
0.01
 41
0.01
  0
VERTEX
  8
0
 10
5.49832
 20
7.63781
 30
0.0
 40
0.01
 41
0.01
  0
VERTEX
  8
0
 10
5.57667
 20
7.63781
 30
0.0
 40
0.01
 41
0.01
  0
VERTEX
  8
0
 10
5.57667
 20
7.83447
 30
0.0
 40
0.01
 41
0.01
  0
VERTEX
  8
0
 10
5.49832
 20
7.83447
 30
0.0
 40
0.01
 41
0.01
  0
VERTEX
  8
0
 10
5.49832
 20
8.69444
 30
0.0
 40
0.01
 41
0.01
  0
VERTEX
  8
0
 10
5.57667
 20
8.69444
 30
0.0
 40
0.01
 41
0.01
  0
VERTEX
  8
0
 10
5.57667
 20
8.89111
 30
0.0
 40
0.01
 41
0.01
  0
VERTEX
  8
0
 10
5.49832
 20
8.89111
 30
0.0
 40
0.01
 41
0.01
  0
VERTEX
  8
0
 10
5.49832
 20
9.87446
 30
0.0
 40
0.01
 41
0.01
  0
VERTEX
  8
0
 10
5.45665
 20
9.87446
 30
0.0
 40
0.01
 41
0.01
  0
VERTEX
  8
0
 10
5.36664
 20
9.94612
 30
0.0
 40
0.01
 41
0.01
  0
VERTEX
  8
0
 10
5.27165
 20
10.0111
 30
0.0
 40
0.01
 41
0.01
  0
VERTEX
  8
0
 10
5.17333
 20
10.0711
 30
0.0
 40
0.01
 41
0.01
  0
VERTEX
  8
0
 10
5.07167
 20
10.1261
 30
0.0
 40
0.01
 41
0.01
  0
VERTEX
  8
0
 10
4.96832
 20
10.1744
 30
0.0
 40
0.01
 41
0.01
  0
VERTEX
  8
0
 10
4.86165
 20
10.2178
 30
0.0
 40
0.01
 41
0.01
  0
VERTEX
  8
0
 10
4.75331
 20
10.2561
 30
0.0
 40
0.01
 41
0.01
  0
VERTEX
  8
0
 10
4.64333
 20
10.2861
 30
0.0
 40
0.01
 41
0.01
  0
VERTEX
  8
0
 10
4.53
 20
10.3128
 30
0.0
 40
0.01
 41
0.01
  0
VERTEX
  8
0
 10
4.41667
 20
10.3311
 30
0.0
 40
0.01
 41
0.01
  0
VERTEX
  8
0
 10
4.30333
 20
10.3445
 30
0.0
 40
0.01
 41
0.01
  0
VERTEX
  8
0
 10
4.18832
 20
10.3494
 30
0.0
 40
0.01
 41
0.01
  0
VERTEX
  8
0
 10
4.07335
 20
10.3494
 30
0.0
 40
0.01
 41
0.01
  0
VERTEX
  8
0
 10
3.95833
 20
10.3445
 30
0.0
 40
0.01
 41
0.01
  0
VERTEX
  8
0
 10
3.845
 20
10.3311
 30
0.0
 40
0.01
 41
0.01
  0
VERTEX
  8
0
 10
3.73167
 20
10.3128
 30
0.0
 40
0.01
 41
0.01
  0
VERTEX
  8
0
 10
3.61833
 20
10.2861
 30
0.0
 40
0.01
 41
0.01
  0
VERTEX
  8
0
 10
3.50836
 20
10.2561
 30
0.0
 40
0.01
 41
0.01
  0
VERTEX
  8
0
 10
3.40001
 20
10.2178
 30
0.0
 40
0.01
 41
0.01
  0
VERTEX
  8
0
 10
3.29335
 20
10.1744
 30
0.0
 40
0.01
 41
0.01
  0
VERTEX
  8
0
 10
3.19
 20
10.1261
 30
0.0
 40
0.01
 41
0.01
  0
VERTEX
  8
0
 10
3.08832
 20
10.0711
 30
0.0
 40
0.01
 41
0.01
  0
VERTEX
  8
0
 10
2.99001
 20
10.0111
 30
0.0
 40
0.01
 41
0.01
  0
VERTEX
  8
0
 10
2.89501
 20
9.94612
 30
0.0
 40
0.01
 41
0.01
  0
VERTEX
  8
0
 10
2.80501
 20
9.87446
 30
0.0
 40
0.01
 41
0.01
  0
SEQEND
 8
0
  0
POLYLINE
  8
0
 62
     0
 66
     1
 10
0
 20
0
 30
0.0
 40
0.72
 41
0.72
  0
VERTEX
  8
0
 10
5.45665
 20
9.87446
 30
0.0
 40
0.01
 41
0.01
  0
VERTEX
  8
0
 10
5.36664
 20
9.94612
 30
0.0
 40
0.01
 41
0.01
  0
VERTEX
  8
0
 10
5.27165
 20
10.0111
 30
0.0
 40
0.01
 41
0.01
  0
VERTEX
  8
0
 10
5.17333
 20
10.0711
 30
0.0
 40
0.01
 41
0.01
  0
VERTEX
  8
0
 10
5.07167
 20
10.1261
 30
0.0
 40
0.01
 41
0.01
  0
VERTEX
  8
0
 10
4.96832
 20
10.1744
 30
0.0
 40
0.01
 41
0.01
  0
VERTEX
  8
0
 10
4.86165
 20
10.2178
 30
0.0
 40
0.01
 41
0.01
  0
VERTEX
  8
0
 10
4.75331
 20
10.2561
 30
0.0
 40
0.01
 41
0.01
  0
VERTEX
  8
0
 10
4.64333
 20
10.2861
 30
0.0
 40
0.01
 41
0.01
  0
VERTEX
  8
0
 10
4.53
 20
10.3128
 30
0.0
 40
0.01
 41
0.01
  0
VERTEX
  8
0
 10
4.41667
 20
10.3311
 30
0.0
 40
0.01
 41
0.01
  0
VERTEX
  8
0
 10
4.30333
 20
10.3445
 30
0.0
 40
0.01
 41
0.01
  0
VERTEX
  8
0
 10
4.18832
 20
10.3494
 30
0.0
 40
0.01
 41
0.01
  0
VERTEX
  8
0
 10
4.07335
 20
10.3494
 30
0.0
 40
0.01
 41
0.01
  0
VERTEX
  8
0
 10
3.95833
 20
10.3445
 30
0.0
 40
0.01
 41
0.01
  0
VERTEX
  8
0
 10
3.845
 20
10.3311
 30
0.0
 40
0.01
 41
0.01
  0
VERTEX
  8
0
 10
3.73167
 20
10.3128
 30
0.0
 40
0.01
 41
0.01
  0
VERTEX
  8
0
 10
3.61833
 20
10.2861
 30
0.0
 40
0.01
 41
0.01
  0
VERTEX
  8
0
 10
3.50836
 20
10.2561
 30
0.0
 40
0.01
 41
0.01
  0
VERTEX
  8
0
 10
3.40001
 20
10.2178
 30
0.0
 40
0.01
 41
0.01
  0
VERTEX
  8
0
 10
3.29335
 20
10.1744
 30
0.0
 40
0.01
 41
0.01
  0
VERTEX
  8
0
 10
3.19
 20
10.1261
 30
0.0
 40
0.01
 41
0.01
  0
VERTEX
  8
0
 10
3.08832
 20
10.0711
 30
0.0
 40
0.01
 41
0.01
  0
VERTEX
  8
0
 10
2.99001
 20
10.0111
 30
0.0
 40
0.01
 41
0.01
  0
VERTEX
  8
0
 10
2.89501
 20
9.94612
 30
0.0
 40
0.01
 41
0.01
  0
VERTEX
  8
0
 10
2.80501
 20
9.87446
 30
0.0
 40
0.01
 41
0.01
  0
SEQEND
 8
0
  0
POLYLINE
  8
0
 62
     0
 66
     1
 10
0
 20
0
 30
0.0
 40
0.72
 41
0.72
  0
VERTEX
  8
0
 10
5.45665
 20
9.87446
 30
0.0
 40
0.01
 41
0.01
  0
VERTEX
  8
0
 10
5.36664
 20
9.94612
 30
0.0
 40
0.01
 41
0.01
  0
VERTEX
  8
0
 10
5.27165
 20
10.0111
 30
0.0
 40
0.01
 41
0.01
  0
VERTEX
  8
0
 10
5.17333
 20
10.0711
 30
0.0
 40
0.01
 41
0.01
  0
VERTEX
  8
0
 10
5.07167
 20
10.1261
 30
0.0
 40
0.01
 41
0.01
  0
VERTEX
  8
0
 10
4.96832
 20
10.1744
 30
0.0
 40
0.01
 41
0.01
  0
VERTEX
  8
0
 10
4.86165
 20
10.2178
 30
0.0
 40
0.01
 41
0.01
  0
VERTEX
  8
0
 10
4.75331
 20
10.2561
 30
0.0
 40
0.01
 41
0.01
  0
VERTEX
  8
0
 10
4.64333
 20
10.2861
 30
0.0
 40
0.01
 41
0.01
  0
VERTEX
  8
0
 10
4.53
 20
10.3128
 30
0.0
 40
0.01
 41
0.01
  0
VERTEX
  8
0
 10
4.41667
 20
10.3311
 30
0.0
 40
0.01
 41
0.01
  0
VERTEX
  8
0
 10
4.30333
 20
10.3445
 30
0.0
 40
0.01
 41
0.01
  0
VERTEX
  8
0
 10
4.18832
 20
10.3494
 30
0.0
 40
0.01
 41
0.01
  0
VERTEX
  8
0
 10
4.07335
 20
10.3494
 30
0.0
 40
0.01
 41
0.01
  0
VERTEX
  8
0
 10
3.95833
 20
10.3445
 30
0.0
 40
0.01
 41
0.01
  0
VERTEX
  8
0
 10
3.845
 20
10.3311
 30
0.0
 40
0.01
 41
0.01
  0
VERTEX
  8
0
 10
3.73167
 20
10.3128
 30
0.0
 40
0.01
 41
0.01
  0
VERTEX
  8
0
 10
3.61833
 20
10.2861
 30
0.0
 40
0.01
 41
0.01
  0
VERTEX
  8
0
 10
3.50836
 20
10.2561
 30
0.0
 40
0.01
 41
0.01
  0
VERTEX
  8
0
 10
3.40001
 20
10.2178
 30
0.0
 40
0.01
 41
0.01
  0
VERTEX
  8
0
 10
3.29335
 20
10.1744
 30
0.0
 40
0.01
 41
0.01
  0
VERTEX
  8
0
 10
3.19
 20
10.1261
 30
0.0
 40
0.01
 41
0.01
  0
VERTEX
  8
0
 10
3.08832
 20
10.0711
 30
0.0
 40
0.01
 41
0.01
  0
VERTEX
  8
0
 10
2.99001
 20
10.0111
 30
0.0
 40
0.01
 41
0.01
  0
VERTEX
  8
0
 10
2.89501
 20
9.94612
 30
0.0
 40
0.01
 41
0.01
  0
VERTEX
  8
0
 10
2.80501
 20
9.87446
 30
0.0
 40
0.01
 41
0.01
  0
SEQEND
 8
0
  0
POLYLINE
  8
0
 62
     0
 66
     1
 10
0
 20
0
 30
0.0
 40
0.72
 41
0.72
  0
VERTEX
  8
0
 10
3.48335
 20
10.3294
 30
0.0
 40
0.01
 41
0.01
  0
VERTEX
  8
0
 10
3.51167
 20
10.2561
 30
0.0
 40
0.01
 41
0.01
  0
SEQEND
 8
0
  0
POLYLINE
  8
0
 62
     0
 66
     1
 10
0
 20
0
 30
0.0
 40
0.72
 41
0.72
  0
VERTEX
  8
0
 10
5.45665
 20
9.87446
 30
0.0
 40
0.01
 41
0.01
  0
VERTEX
  8
0
 10
5.36664
 20
9.94612
 30
0.0
 40
0.01
 41
0.01
  0
VERTEX
  8
0
 10
5.27165
 20
10.0111
 30
0.0
 40
0.01
 41
0.01
  0
VERTEX
  8
0
 10
5.17333
 20
10.0711
 30
0.0
 40
0.01
 41
0.01
  0
VERTEX
  8
0
 10
5.07167
 20
10.1261
 30
0.0
 40
0.01
 41
0.01
  0
VERTEX
  8
0
 10
4.96832
 20
10.1744
 30
0.0
 40
0.01
 41
0.01
  0
VERTEX
  8
0
 10
4.86165
 20
10.2178
 30
0.0
 40
0.01
 41
0.01
  0
VERTEX
  8
0
 10
4.75331
 20
10.2561
 30
0.0
 40
0.01
 41
0.01
  0
VERTEX
  8
0
 10
4.64333
 20
10.2861
 30
0.0
 40
0.01
 41
0.01
  0
VERTEX
  8
0
 10
4.53
 20
10.3128
 30
0.0
 40
0.01
 41
0.01
  0
VERTEX
  8
0
 10
4.41667
 20
10.3311
 30
0.0
 40
0.01
 41
0.01
  0
VERTEX
  8
0
 10
4.30333
 20
10.3445
 30
0.0
 40
0.01
 41
0.01
  0
VERTEX
  8
0
 10
4.18832
 20
10.3494
 30
0.0
 40
0.01
 41
0.01
  0
VERTEX
  8
0
 10
4.07335
 20
10.3494
 30
0.0
 40
0.01
 41
0.01
  0
VERTEX
  8
0
 10
3.95833
 20
10.3445
 30
0.0
 40
0.01
 41
0.01
  0
VERTEX
  8
0
 10
3.845
 20
10.3311
 30
0.0
 40
0.01
 41
0.01
  0
VERTEX
  8
0
 10
3.73167
 20
10.3128
 30
0.0
 40
0.01
 41
0.01
  0
VERTEX
  8
0
 10
3.61833
 20
10.2861
 30
0.0
 40
0.01
 41
0.01
  0
VERTEX
  8
0
 10
3.50836
 20
10.2561
 30
0.0
 40
0.01
 41
0.01
  0
VERTEX
  8
0
 10
3.40001
 20
10.2178
 30
0.0
 40
0.01
 41
0.01
  0
VERTEX
  8
0
 10
3.29335
 20
10.1744
 30
0.0
 40
0.01
 41
0.01
  0
VERTEX
  8
0
 10
3.19
 20
10.1261
 30
0.0
 40
0.01
 41
0.01
  0
VERTEX
  8
0
 10
3.08832
 20
10.0711
 30
0.0
 40
0.01
 41
0.01
  0
VERTEX
  8
0
 10
2.99001
 20
10.0111
 30
0.0
 40
0.01
 41
0.01
  0
VERTEX
  8
0
 10
2.89501
 20
9.94612
 30
0.0
 40
0.01
 41
0.01
  0
VERTEX
  8
0
 10
2.80501
 20
9.87446
 30
0.0
 40
0.01
 41
0.01
  0
SEQEND
 8
0
  0
POLYLINE
  8
0
 62
     0
 66
     1
 10
0
 20
0
 30
0.0
 70
     1
 40
0.72
 41
0.72
  0
VERTEX
  8
0
 10
4.77832
 20
10.3294
 30
0.0
 40
0.01
 41
0.01
  0
VERTEX
  8
0
 10
4.75
 20
10.2561
 30
0.0
 40
0.01
 41
0.01
  0
VERTEX
  8
0
 10
4.77832
 20
10.3294
 30
0.0
 40
0.01
 41
0.01
  0
SEQEND
 8
0
  0
POLYLINE
  8
0
 62
     0
 66
     1
 10
0
 20
0
 30
0.0
 40
0.72
 41
0.72
  0
VERTEX
  8
0
 10
5.45665
 20
9.87446
 30
0.0
 40
0.01
 41
0.01
  0
VERTEX
  8
0
 10
5.36664
 20
9.94612
 30
0.0
 40
0.01
 41
0.01
  0
VERTEX
  8
0
 10
5.27165
 20
10.0111
 30
0.0
 40
0.01
 41
0.01
  0
VERTEX
  8
0
 10
5.17333
 20
10.0711
 30
0.0
 40
0.01
 41
0.01
  0
VERTEX
  8
0
 10
5.07167
 20
10.1261
 30
0.0
 40
0.01
 41
0.01
  0
VERTEX
  8
0
 10
4.96832
 20
10.1744
 30
0.0
 40
0.01
 41
0.01
  0
VERTEX
  8
0
 10
4.86165
 20
10.2178
 30
0.0
 40
0.01
 41
0.01
  0
VERTEX
  8
0
 10
4.75331
 20
10.2561
 30
0.0
 40
0.01
 41
0.01
  0
VERTEX
  8
0
 10
4.64333
 20
10.2861
 30
0.0
 40
0.01
 41
0.01
  0
VERTEX
  8
0
 10
4.53
 20
10.3128
 30
0.0
 40
0.01
 41
0.01
  0
VERTEX
  8
0
 10
4.41667
 20
10.3311
 30
0.0
 40
0.01
 41
0.01
  0
VERTEX
  8
0
 10
4.30333
 20
10.3445
 30
0.0
 40
0.01
 41
0.01
  0
VERTEX
  8
0
 10
4.18832
 20
10.3494
 30
0.0
 40
0.01
 41
0.01
  0
VERTEX
  8
0
 10
4.07335
 20
10.3494
 30
0.0
 40
0.01
 41
0.01
  0
VERTEX
  8
0
 10
3.95833
 20
10.3445
 30
0.0
 40
0.01
 41
0.01
  0
VERTEX
  8
0
 10
3.845
 20
10.3311
 30
0.0
 40
0.01
 41
0.01
  0
VERTEX
  8
0
 10
3.73167
 20
10.3128
 30
0.0
 40
0.01
 41
0.01
  0
VERTEX
  8
0
 10
3.61833
 20
10.2861
 30
0.0
 40
0.01
 41
0.01
  0
VERTEX
  8
0
 10
3.50836
 20
10.2561
 30
0.0
 40
0.01
 41
0.01
  0
VERTEX
  8
0
 10
3.40001
 20
10.2178
 30
0.0
 40
0.01
 41
0.01
  0
VERTEX
  8
0
 10
3.29335
 20
10.1744
 30
0.0
 40
0.01
 41
0.01
  0
VERTEX
  8
0
 10
3.19
 20
10.1261
 30
0.0
 40
0.01
 41
0.01
  0
VERTEX
  8
0
 10
3.08832
 20
10.0711
 30
0.0
 40
0.01
 41
0.01
  0
VERTEX
  8
0
 10
2.99001
 20
10.0111
 30
0.0
 40
0.01
 41
0.01
  0
VERTEX
  8
0
 10
2.89501
 20
9.94612
 30
0.0
 40
0.01
 41
0.01
  0
VERTEX
  8
0
 10
2.80501
 20
9.87446
 30
0.0
 40
0.01
 41
0.01
  0
SEQEND
 8
0
  0
POLYLINE
  8
0
 62
     0
 66
     1
 10
0
 20
0
 30
0.0
 40
0.72
 41
0.72
  0
VERTEX
  8
0
 10
5.05333
 20
10.2228
 30
0.0
 40
0.01
 41
0.01
  0
VERTEX
  8
0
 10
5.02501
 20
10.1495
 30
0.0
 40
0.01
 41
0.01
  0
SEQEND
 8
0
  0
POLYLINE
  8
0
 62
     0
 66
     1
 10
0
 20
0
 30
0.0
 40
0.72
 41
0.72
  0
VERTEX
  8
0
 10
6.155
 20
9.03444
 30
0.0
 40
0.01
 41
0.01
  0
VERTEX
  8
0
 10
6.04167
 20
8.99946
 30
0.0
 40
0.01
 41
0.01
  0
SEQEND
 8
0
  0
POLYLINE
  8
0
 62
     0
 66
     1
 10
0
 20
0
 30
0.0
 40
0.72
 41
0.72
  0
VERTEX
  8
0
 10
6.04167
 20
9.10113
 30
0.0
 40
0.01
 41
0.01
  0
VERTEX
  8
0
 10
6.04167
 20
7.42779
 30
0.0
 40
0.01
 41
0.01
  0
SEQEND
 8
0
  0
POLYLINE
  8
0
 62
     0
 66
     1
 10
0
 20
0
 30
0.0
 70
     1
 40
0.72
 41
0.72
  0
VERTEX
  8
0
 10
6.24001
 20
8.75114
 30
0.0
 40
0.01
 41
0.01
  0
VERTEX
  8
0
 10
6.04167
 20
8.69114
 30
0.0
 40
0.01
 41
0.01
  0
VERTEX
  8
0
 10
6.24001
 20
8.75114
 30
0.0
 40
0.01
 41
0.01
  0
SEQEND
 8
0
  0
POLYLINE
  8
0
 62
     0
 66
     1
 10
0
 20
0
 30
0.0
 40
0.72
 41
0.72
  0
VERTEX
  8
0
 10
6.04167
 20
9.10113
 30
0.0
 40
0.01
 41
0.01
  0
VERTEX
  8
0
 10
6.04167
 20
7.42779
 30
0.0
 40
0.01
 41
0.01
  0
SEQEND
 8
0
  0
POLYLINE
  8
0
 62
     0
 66
     1
 10
0
 20
0
 30
0.0
 70
     1
 40
0.72
 41
0.72
  0
VERTEX
  8
0
 10
6.24001
 20
7.7761
 30
0.0
 40
0.01
 41
0.01
  0
VERTEX
  8
0
 10
6.04167
 20
7.83778
 30
0.0
 40
0.01
 41
0.01
  0
VERTEX
  8
0
 10
6.24001
 20
7.7761
 30
0.0
 40
0.01
 41
0.01
  0
SEQEND
 8
0
  0
POLYLINE
  8
0
 62
     0
 66
     1
 10
0
 20
0
 30
0.0
 40
0.72
 41
0.72
  0
VERTEX
  8
0
 10
6.04167
 20
9.10113
 30
0.0
 40
0.01
 41
0.01
  0
VERTEX
  8
0
 10
6.04167
 20
7.42779
 30
0.0
 40
0.01
 41
0.01
  0
SEQEND
 8
0
  0
POLYLINE
  8
0
 62
     0
 66
     1
 10
0
 20
0
 30
0.0
 40
0.72
 41
0.72
  0
VERTEX
  8
0
 10
6.155
 20
7.49447
 30
0.0
 40
0.01
 41
0.01
  0
VERTEX
  8
0
 10
6.04167
 20
7.52946
 30
0.0
 40
0.01
 41
0.01
  0
SEQEND
 8
0
  0
POLYLINE
  8
0
 62
     0
 66
     1
 10
0
 20
0
 30
0.0
 40
0.72
 41
0.72
  0
VERTEX
  8
0
 10
5.05333
 20
6.3061
 30
0.0
 40
0.01
 41
0.01
  0
VERTEX
  8
0
 10
5.02501
 20
6.37944
 30
0.0
 40
0.01
 41
0.01
  0
SEQEND
 8
0
  0
POLYLINE
  8
0
 62
     0
 66
     1
 10
0
 20
0
 30
0.0
 40
0.72
 41
0.72
  0
VERTEX
  8
0
 10
2.80501
 20
6.65278
 30
0.0
 40
0.01
 41
0.01
  0
VERTEX
  8
0
 10
2.89501
 20
6.58279
 30
0.0
 40
0.01
 41
0.01
  0
VERTEX
  8
0
 10
2.99001
 20
6.51779
 30
0.0
 40
0.01
 41
0.01
  0
VERTEX
  8
0
 10
3.08832
 20
6.45611
 30
0.0
 40
0.01
 41
0.01
  0
VERTEX
  8
0
 10
3.19
 20
6.40278
 30
0.0
 40
0.01
 41
0.01
  0
VERTEX
  8
0
 10
3.29335
 20
6.35275
 30
0.0
 40
0.01
 41
0.01
  0
VERTEX
  8
0
 10
3.40001
 20
6.30946
 30
0.0
 40
0.01
 41
0.01
  0
VERTEX
  8
0
 10
3.50836
 20
6.27279
 30
0.0
 40
0.01
 41
0.01
  0
VERTEX
  8
0
 10
3.61833
 20
6.2411
 30
0.0
 40
0.01
 41
0.01
  0
VERTEX
  8
0
 10
3.73167
 20
6.2161
 30
0.0
 40
0.01
 41
0.01
  0
VERTEX
  8
0
 10
3.845
 20
6.19781
 30
0.0
 40
0.01
 41
0.01
  0
VERTEX
  8
0
 10
3.95833
 20
6.18446
 30
0.0
 40
0.01
 41
0.01
  0
VERTEX
  8
0
 10
4.07335
 20
6.17779
 30
0.0
 40
0.01
 41
0.01
  0
VERTEX
  8
0
 10
4.18832
 20
6.17779
 30
0.0
 40
0.01
 41
0.01
  0
VERTEX
  8
0
 10
4.30333
 20
6.18446
 30
0.0
 40
0.01
 41
0.01
  0
VERTEX
  8
0
 10
4.41667
 20
6.19781
 30
0.0
 40
0.01
 41
0.01
  0
VERTEX
  8
0
 10
4.53
 20
6.2161
 30
0.0
 40
0.01
 41
0.01
  0
VERTEX
  8
0
 10
4.64333
 20
6.2411
 30
0.0
 40
0.01
 41
0.01
  0
VERTEX
  8
0
 10
4.75331
 20
6.27279
 30
0.0
 40
0.01
 41
0.01
  0
VERTEX
  8
0
 10
4.86165
 20
6.30946
 30
0.0
 40
0.01
 41
0.01
  0
VERTEX
  8
0
 10
4.96832
 20
6.35275
 30
0.0
 40
0.01
 41
0.01
  0
VERTEX
  8
0
 10
5.07167
 20
6.40278
 30
0.0
 40
0.01
 41
0.01
  0
VERTEX
  8
0
 10
5.17333
 20
6.45611
 30
0.0
 40
0.01
 41
0.01
  0
VERTEX
  8
0
 10
5.27165
 20
6.51779
 30
0.0
 40
0.01
 41
0.01
  0
VERTEX
  8
0
 10
5.36664
 20
6.58279
 30
0.0
 40
0.01
 41
0.01
  0
VERTEX
  8
0
 10
5.45665
 20
6.65278
 30
0.0
 40
0.01
 41
0.01
  0
SEQEND
 8
0
  0
POLYLINE
  8
0
 62
     0
 66
     1
 10
0
 20
0
 30
0.0
 70
     1
 40
0.72
 41
0.72
  0
VERTEX
  8
0
 10
4.77832
 20
6.19781
 30
0.0
 40
0.01
 41
0.01
  0
VERTEX
  8
0
 10
4.75
 20
6.27111
 30
0.0
 40
0.01
 41
0.01
  0
VERTEX
  8
0
 10
4.77832
 20
6.19781
 30
0.0
 40
0.01
 41
0.01
  0
SEQEND
 8
0
  0
POLYLINE
  8
0
 62
     0
 66
     1
 10
0
 20
0
 30
0.0
 40
0.72
 41
0.72
  0
VERTEX
  8
0
 10
2.80501
 20
6.65278
 30
0.0
 40
0.01
 41
0.01
  0
VERTEX
  8
0
 10
2.89501
 20
6.58279
 30
0.0
 40
0.01
 41
0.01
  0
VERTEX
  8
0
 10
2.99001
 20
6.51779
 30
0.0
 40
0.01
 41
0.01
  0
VERTEX
  8
0
 10
3.08832
 20
6.45611
 30
0.0
 40
0.01
 41
0.01
  0
VERTEX
  8
0
 10
3.19
 20
6.40278
 30
0.0
 40
0.01
 41
0.01
  0
VERTEX
  8
0
 10
3.29335
 20
6.35275
 30
0.0
 40
0.01
 41
0.01
  0
VERTEX
  8
0
 10
3.40001
 20
6.30946
 30
0.0
 40
0.01
 41
0.01
  0
VERTEX
  8
0
 10
3.50836
 20
6.27279
 30
0.0
 40
0.01
 41
0.01
  0
VERTEX
  8
0
 10
3.61833
 20
6.2411
 30
0.0
 40
0.01
 41
0.01
  0
VERTEX
  8
0
 10
3.73167
 20
6.2161
 30
0.0
 40
0.01
 41
0.01
  0
VERTEX
  8
0
 10
3.845
 20
6.19781
 30
0.0
 40
0.01
 41
0.01
  0
VERTEX
  8
0
 10
3.95833
 20
6.18446
 30
0.0
 40
0.01
 41
0.01
  0
VERTEX
  8
0
 10
4.07335
 20
6.17779
 30
0.0
 40
0.01
 41
0.01
  0
VERTEX
  8
0
 10
4.18832
 20
6.17779
 30
0.0
 40
0.01
 41
0.01
  0
VERTEX
  8
0
 10
4.30333
 20
6.18446
 30
0.0
 40
0.01
 41
0.01
  0
VERTEX
  8
0
 10
4.41667
 20
6.19781
 30
0.0
 40
0.01
 41
0.01
  0
VERTEX
  8
0
 10
4.53
 20
6.2161
 30
0.0
 40
0.01
 41
0.01
  0
VERTEX
  8
0
 10
4.64333
 20
6.2411
 30
0.0
 40
0.01
 41
0.01
  0
VERTEX
  8
0
 10
4.75331
 20
6.27279
 30
0.0
 40
0.01
 41
0.01
  0
VERTEX
  8
0
 10
4.86165
 20
6.30946
 30
0.0
 40
0.01
 41
0.01
  0
VERTEX
  8
0
 10
4.96832
 20
6.35275
 30
0.0
 40
0.01
 41
0.01
  0
VERTEX
  8
0
 10
5.07167
 20
6.40278
 30
0.0
 40
0.01
 41
0.01
  0
VERTEX
  8
0
 10
5.17333
 20
6.45611
 30
0.0
 40
0.01
 41
0.01
  0
VERTEX
  8
0
 10
5.27165
 20
6.51779
 30
0.0
 40
0.01
 41
0.01
  0
VERTEX
  8
0
 10
5.36664
 20
6.58279
 30
0.0
 40
0.01
 41
0.01
  0
VERTEX
  8
0
 10
5.45665
 20
6.65278
 30
0.0
 40
0.01
 41
0.01
  0
SEQEND
 8
0
  0
POLYLINE
  8
0
 62
     0
 66
     1
 10
0
 20
0
 30
0.0
 70
     1
 40
0.72
 41
0.72
  0
VERTEX
  8
0
 10
3.48335
 20
6.19781
 30
0.0
 40
0.01
 41
0.01
  0
VERTEX
  8
0
 10
3.51167
 20
6.27111
 30
0.0
 40
0.01
 41
0.01
  0
VERTEX
  8
0
 10
3.48335
 20
6.19781
 30
0.0
 40
0.01
 41
0.01
  0
SEQEND
 8
0
  0
POLYLINE
  8
0
 62
     0
 66
     1
 10
0
 20
0
 30
0.0
 40
0.72
 41
0.72
  0
VERTEX
  8
0
 10
2.80501
 20
6.65278
 30
0.0
 40
0.01
 41
0.01
  0
VERTEX
  8
0
 10
2.89501
 20
6.58279
 30
0.0
 40
0.01
 41
0.01
  0
VERTEX
  8
0
 10
2.99001
 20
6.51779
 30
0.0
 40
0.01
 41
0.01
  0
VERTEX
  8
0
 10
3.08832
 20
6.45611
 30
0.0
 40
0.01
 41
0.01
  0
VERTEX
  8
0
 10
3.19
 20
6.40278
 30
0.0
 40
0.01
 41
0.01
  0
VERTEX
  8
0
 10
3.29335
 20
6.35275
 30
0.0
 40
0.01
 41
0.01
  0
VERTEX
  8
0
 10
3.40001
 20
6.30946
 30
0.0
 40
0.01
 41
0.01
  0
VERTEX
  8
0
 10
3.50836
 20
6.27279
 30
0.0
 40
0.01
 41
0.01
  0
VERTEX
  8
0
 10
3.61833
 20
6.2411
 30
0.0
 40
0.01
 41
0.01
  0
VERTEX
  8
0
 10
3.73167
 20
6.2161
 30
0.0
 40
0.01
 41
0.01
  0
VERTEX
  8
0
 10
3.845
 20
6.19781
 30
0.0
 40
0.01
 41
0.01
  0
VERTEX
  8
0
 10
3.95833
 20
6.18446
 30
0.0
 40
0.01
 41
0.01
  0
VERTEX
  8
0
 10
4.07335
 20
6.17779
 30
0.0
 40
0.01
 41
0.01
  0
VERTEX
  8
0
 10
4.18832
 20
6.17779
 30
0.0
 40
0.01
 41
0.01
  0
VERTEX
  8
0
 10
4.30333
 20
6.18446
 30
0.0
 40
0.01
 41
0.01
  0
VERTEX
  8
0
 10
4.41667
 20
6.19781
 30
0.0
 40
0.01
 41
0.01
  0
VERTEX
  8
0
 10
4.53
 20
6.2161
 30
0.0
 40
0.01
 41
0.01
  0
VERTEX
  8
0
 10
4.64333
 20
6.2411
 30
0.0
 40
0.01
 41
0.01
  0
VERTEX
  8
0
 10
4.75331
 20
6.27279
 30
0.0
 40
0.01
 41
0.01
  0
VERTEX
  8
0
 10
4.86165
 20
6.30946
 30
0.0
 40
0.01
 41
0.01
  0
VERTEX
  8
0
 10
4.96832
 20
6.35275
 30
0.0
 40
0.01
 41
0.01
  0
VERTEX
  8
0
 10
5.07167
 20
6.40278
 30
0.0
 40
0.01
 41
0.01
  0
VERTEX
  8
0
 10
5.17333
 20
6.45611
 30
0.0
 40
0.01
 41
0.01
  0
VERTEX
  8
0
 10
5.27165
 20
6.51779
 30
0.0
 40
0.01
 41
0.01
  0
VERTEX
  8
0
 10
5.36664
 20
6.58279
 30
0.0
 40
0.01
 41
0.01
  0
VERTEX
  8
0
 10
5.45665
 20
6.65278
 30
0.0
 40
0.01
 41
0.01
  0
SEQEND
 8
0
  0
POLYLINE
  8
0
 62
     0
 66
     1
 10
0
 20
0
 30
0.0
 40
0.72
 41
0.72
  0
VERTEX
  8
0
 10
3.20833
 20
6.3061
 30
0.0
 40
0.01
 41
0.01
  0
VERTEX
  8
0
 10
3.23665
 20
6.37944
 30
0.0
 40
0.01
 41
0.01
  0
SEQEND
 8
0
  0
POLYLINE
  8
0
 62
     0
 66
     1
 10
0
 20
0
 30
0.0
 40
0.72
 41
0.72
  0
VERTEX
  8
0
 10
2.02165
 20
7.7761
 30
0.0
 40
0.01
 41
0.01
  0
VERTEX
  8
0
 10
2.22
 20
7.83778
 30
0.0
 40
0.01
 41
0.01
  0
SEQEND
 8
0
  0
POLYLINE
  8
0
 62
     0
 66
     1
 10
0
 20
0
 30
0.0
 40
0.72
 41
0.72
  0
VERTEX
  8
0
 10
2.22
 20
7.42779
 30
0.0
 40
0.01
 41
0.01
  0
VERTEX
  8
0
 10
2.22
 20
9.10113
 30
0.0
 40
0.01
 41
0.01
  0
SEQEND
 8
0
  0
POLYLINE
  8
0
 62
     0
 66
     1
 10
0
 20
0
 30
0.0
 70
     1
 40
0.72
 41
0.72
  0
VERTEX
  8
0
 10
2.02165
 20
8.75114
 30
0.0
 40
0.01
 41
0.01
  0
VERTEX
  8
0
 10
2.22
 20
8.69114
 30
0.0
 40
0.01
 41
0.01
  0
VERTEX
  8
0
 10
2.02165
 20
8.75114
 30
0.0
 40
0.01
 41
0.01
  0
SEQEND
 8
0
  0
POLYLINE
  8
0
 62
     0
 66
     1
 10
0
 20
0
 30
0.0
 40
0.72
 41
0.72
  0
VERTEX
  8
0
 10
2.22
 20
7.42779
 30
0.0
 40
0.01
 41
0.01
  0
VERTEX
  8
0
 10
2.22
 20
9.10113
 30
0.0
 40
0.01
 41
0.01
  0
SEQEND
 8
0
  0
POLYLINE
  8
0
 62
     0
 66
     1
 10
0
 20
0
 30
0.0
 40
0.72
 41
0.72
  0
VERTEX
  8
0
 10
2.10667
 20
9.03444
 30
0.0
 40
0.01
 41
0.01
  0
VERTEX
  8
0
 10
2.22
 20
8.99946
 30
0.0
 40
0.01
 41
0.01
  0
SEQEND
 8
0
  0
POLYLINE
  8
0
 62
     0
 66
     1
 10
0
 20
0
 30
0.0
 40
0.72
 41
0.72
  0
VERTEX
  8
0
 10
2.10667
 20
7.49447
 30
0.0
 40
0.01
 41
0.01
  0
VERTEX
  8
0
 10
2.22
 20
7.52946
 30
0.0
 40
0.01
 41
0.01
  0
SEQEND
 8
0
  0
POLYLINE
  8
0
 62
     0
 66
     1
 10
0
 20
0
 30
0.0
 40
0.72
 41
0.72
  0
VERTEX
  8
0
 10
2.22
 20
7.42779
 30
0.0
 40
0.01
 41
0.01
  0
VERTEX
  8
0
 10
2.22
 20
9.10113
 30
0.0
 40
0.01
 41
0.01
  0
SEQEND
 8
0
  0
POLYLINE
  8
0
 62
     0
 66
     1
 10
0
 20
0
 30
0.0
 40
0.72
 41
0.72
  0
VERTEX
  8
0
 10
2.02165
 20
7.7761
 30
0.0
 40
0.01
 41
0.01
  0
VERTEX
  8
0
 10
2.22
 20
7.83778
 30
0.0
 40
0.01
 41
0.01
  0
SEQEND
 8
0
  0
POLYLINE
  8
0
 62
     0
 66
     1
 10
0
 20
0
 30
0.0
 40
0.72
 41
0.72
  0
VERTEX
  8
0
 10
5.57667
 20
8.89111
 30
0.0
 40
0.01
 41
0.01
  0
VERTEX
  8
0
 10
5.49832
 20
8.89111
 30
0.0
 40
0.01
 41
0.01
  0
VERTEX
  8
0
 10
5.49832
 20
9.87446
 30
0.0
 40
0.01
 41
0.01
  0
VERTEX
  8
0
 10
5.45665
 20
9.87446
 30
0.0
 40
0.01
 41
0.01
  0
VERTEX
  8
0
 10
5.36664
 20
9.94612
 30
0.0
 40
0.01
 41
0.01
  0
VERTEX
  8
0
 10
5.27165
 20
10.0111
 30
0.0
 40
0.01
 41
0.01
  0
VERTEX
  8
0
 10
5.17333
 20
10.0711
 30
0.0
 40
0.01
 41
0.01
  0
VERTEX
  8
0
 10
5.07167
 20
10.1261
 30
0.0
 40
0.01
 41
0.01
  0
VERTEX
  8
0
 10
4.96832
 20
10.1744
 30
0.0
 40
0.01
 41
0.01
  0
VERTEX
  8
0
 10
4.86165
 20
10.2178
 30
0.0
 40
0.01
 41
0.01
  0
VERTEX
  8
0
 10
4.75331
 20
10.2561
 30
0.0
 40
0.01
 41
0.01
  0
VERTEX
  8
0
 10
4.64333
 20
10.2861
 30
0.0
 40
0.01
 41
0.01
  0
VERTEX
  8
0
 10
4.53
 20
10.3128
 30
0.0
 40
0.01
 41
0.01
  0
VERTEX
  8
0
 10
4.41667
 20
10.3311
 30
0.0
 40
0.01
 41
0.01
  0
VERTEX
  8
0
 10
4.30333
 20
10.3445
 30
0.0
 40
0.01
 41
0.01
  0
VERTEX
  8
0
 10
4.18832
 20
10.3494
 30
0.0
 40
0.01
 41
0.01
  0
VERTEX
  8
0
 10
4.07335
 20
10.3494
 30
0.0
 40
0.01
 41
0.01
  0
VERTEX
  8
0
 10
3.95833
 20
10.3445
 30
0.0
 40
0.01
 41
0.01
  0
VERTEX
  8
0
 10
3.845
 20
10.3311
 30
0.0
 40
0.01
 41
0.01
  0
VERTEX
  8
0
 10
3.73167
 20
10.3128
 30
0.0
 40
0.01
 41
0.01
  0
VERTEX
  8
0
 10
3.61833
 20
10.2861
 30
0.0
 40
0.01
 41
0.01
  0
VERTEX
  8
0
 10
3.50836
 20
10.2561
 30
0.0
 40
0.01
 41
0.01
  0
VERTEX
  8
0
 10
3.40001
 20
10.2178
 30
0.0
 40
0.01
 41
0.01
  0
VERTEX
  8
0
 10
3.29335
 20
10.1744
 30
0.0
 40
0.01
 41
0.01
  0
VERTEX
  8
0
 10
3.19
 20
10.1261
 30
0.0
 40
0.01
 41
0.01
  0
VERTEX
  8
0
 10
3.08832
 20
10.0711
 30
0.0
 40
0.01
 41
0.01
  0
VERTEX
  8
0
 10
2.99001
 20
10.0111
 30
0.0
 40
0.01
 41
0.01
  0
VERTEX
  8
0
 10
2.89501
 20
9.94612
 30
0.0
 40
0.01
 41
0.01
  0
VERTEX
  8
0
 10
2.80501
 20
9.87446
 30
0.0
 40
0.01
 41
0.01
  0
VERTEX
  8
0
 10
2.76335
 20
9.87446
 30
0.0
 40
0.01
 41
0.01
  0
VERTEX
  8
0
 10
2.76335
 20
8.89111
 30
0.0
 40
0.01
 41
0.01
  0
VERTEX
  8
0
 10
2.685
 20
8.89111
 30
0.0
 40
0.01
 41
0.01
  0
VERTEX
  8
0
 10
2.685
 20
9.76779
 30
0.0
 40
0.01
 41
0.01
  0
VERTEX
  8
0
 10
2.60167
 20
9.68446
 30
0.0
 40
0.01
 41
0.01
  0
VERTEX
  8
0
 10
2.52501
 20
9.59614
 30
0.0
 40
0.01
 41
0.01
  0
VERTEX
  8
0
 10
2.45335
 20
9.50444
 30
0.0
 40
0.01
 41
0.01
  0
VERTEX
  8
0
 10
2.38667
 20
9.40944
 30
0.0
 40
0.01
 41
0.01
  0
VERTEX
  8
0
 10
2.32497
 20
9.30946
 30
0.0
 40
0.01
 41
0.01
  0
VERTEX
  8
0
 10
2.27001
 20
9.20611
 30
0.0
 40
0.01
 41
0.01
  0
VERTEX
  8
0
 10
2.22
 20
9.10113
 30
0.0
 40
0.01
 41
0.01
  0
VERTEX
  8
0
 10
2.22
 20
7.42779
 30
0.0
 40
0.01
 41
0.01
  0
VERTEX
  8
0
 10
2.27001
 20
7.32112
 30
0.0
 40
0.01
 41
0.01
  0
VERTEX
  8
0
 10
2.32497
 20
7.21946
 30
0.0
 40
0.01
 41
0.01
  0
VERTEX
  8
0
 10
2.38667
 20
7.11947
 30
0.0
 40
0.01
 41
0.01
  0
VERTEX
  8
0
 10
2.45335
 20
7.02447
 30
0.0
 40
0.01
 41
0.01
  0
VERTEX
  8
0
 10
2.52501
 20
6.9311
 30
0.0
 40
0.01
 41
0.01
  0
VERTEX
  8
0
 10
2.60167
 20
6.84446
 30
0.0
 40
0.01
 41
0.01
  0
VERTEX
  8
0
 10
2.685
 20
6.76112
 30
0.0
 40
0.01
 41
0.01
  0
VERTEX
  8
0
 10
2.685
 20
7.63781
 30
0.0
 40
0.01
 41
0.01
  0
SEQEND
 8
0
  0
POLYLINE
  8
0
 62
     0
 66
     1
 10
0
 20
0
 30
0.0
 40
0.72
 41
0.72
  0
VERTEX
  8
0
 10
5.57667
 20
7.63781
 30
0.0
 40
0.01
 41
0.01
  0
VERTEX
  8
0
 10
5.49832
 20
7.63781
 30
0.0
 40
0.01
 41
0.01
  0
VERTEX
  8
0
 10
5.49832
 20
6.65278
 30
0.0
 40
0.01
 41
0.01
  0
VERTEX
  8
0
 10
5.45665
 20
6.65278
 30
0.0
 40
0.01
 41
0.01
  0
SEQEND
 8
0
  0
POLYLINE
  8
0
 62
     0
 66
     1
 10
0
 20
0
 30
0.0
 40
0.72
 41
0.72
  0
VERTEX
  8
0
 10
2.80501
 20
6.65278
 30
0.0
 40
0.01
 41
0.01
  0
VERTEX
  8
0
 10
2.89501
 20
6.58279
 30
0.0
 40
0.01
 41
0.01
  0
VERTEX
  8
0
 10
2.99001
 20
6.51779
 30
0.0
 40
0.01
 41
0.01
  0
VERTEX
  8
0
 10
3.08832
 20
6.45611
 30
0.0
 40
0.01
 41
0.01
  0
VERTEX
  8
0
 10
3.19
 20
6.40278
 30
0.0
 40
0.01
 41
0.01
  0
VERTEX
  8
0
 10
3.29335
 20
6.35275
 30
0.0
 40
0.01
 41
0.01
  0
VERTEX
  8
0
 10
3.40001
 20
6.30946
 30
0.0
 40
0.01
 41
0.01
  0
VERTEX
  8
0
 10
3.50836
 20
6.27279
 30
0.0
 40
0.01
 41
0.01
  0
VERTEX
  8
0
 10
3.61833
 20
6.2411
 30
0.0
 40
0.01
 41
0.01
  0
VERTEX
  8
0
 10
3.73167
 20
6.2161
 30
0.0
 40
0.01
 41
0.01
  0
VERTEX
  8
0
 10
3.845
 20
6.19781
 30
0.0
 40
0.01
 41
0.01
  0
VERTEX
  8
0
 10
3.95833
 20
6.18446
 30
0.0
 40
0.01
 41
0.01
  0
VERTEX
  8
0
 10
4.07335
 20
6.17779
 30
0.0
 40
0.01
 41
0.01
  0
VERTEX
  8
0
 10
4.18832
 20
6.17779
 30
0.0
 40
0.01
 41
0.01
  0
VERTEX
  8
0
 10
4.30333
 20
6.18446
 30
0.0
 40
0.01
 41
0.01
  0
VERTEX
  8
0
 10
4.41667
 20
6.19781
 30
0.0
 40
0.01
 41
0.01
  0
VERTEX
  8
0
 10
4.53
 20
6.2161
 30
0.0
 40
0.01
 41
0.01
  0
VERTEX
  8
0
 10
4.64333
 20
6.2411
 30
0.0
 40
0.01
 41
0.01
  0
VERTEX
  8
0
 10
4.75331
 20
6.27279
 30
0.0
 40
0.01
 41
0.01
  0
VERTEX
  8
0
 10
4.86165
 20
6.30946
 30
0.0
 40
0.01
 41
0.01
  0
VERTEX
  8
0
 10
4.96832
 20
6.35275
 30
0.0
 40
0.01
 41
0.01
  0
VERTEX
  8
0
 10
5.07167
 20
6.40278
 30
0.0
 40
0.01
 41
0.01
  0
VERTEX
  8
0
 10
5.17333
 20
6.45611
 30
0.0
 40
0.01
 41
0.01
  0
VERTEX
  8
0
 10
5.27165
 20
6.51779
 30
0.0
 40
0.01
 41
0.01
  0
VERTEX
  8
0
 10
5.36664
 20
6.58279
 30
0.0
 40
0.01
 41
0.01
  0
VERTEX
  8
0
 10
5.45665
 20
6.65278
 30
0.0
 40
0.01
 41
0.01
  0
SEQEND
 8
0
  0
POLYLINE
  8
0
 62
     0
 66
     1
 10
0
 20
0
 30
0.0
 40
0.72
 41
0.72
  0
VERTEX
  8
0
 10
2.80501
 20
6.65278
 30
0.0
 40
0.01
 41
0.01
  0
VERTEX
  8
0
 10
2.76335
 20
6.65278
 30
0.0
 40
0.01
 41
0.01
  0
VERTEX
  8
0
 10
2.76335
 20
7.63781
 30
0.0
 40
0.01
 41
0.01
  0
VERTEX
  8
0
 10
2.685
 20
7.63781
 30
0.0
 40
0.01
 41
0.01
  0
SEQEND
 8
0
  0
POLYLINE
  8
0
 62
     0
 66
     1
 10
0
 20
0
 30
0.0
 40
0.72
 41
0.72
  0
VERTEX
  8
0
 10
2.685
 20
7.83447
 30
0.0
 40
0.01
 41
0.01
  0
VERTEX
  8
0
 10
2.76335
 20
7.83447
 30
0.0
 40
0.01
 41
0.01
  0
VERTEX
  8
0
 10
2.76335
 20
8.69444
 30
0.0
 40
0.01
 41
0.01
  0
VERTEX
  8
0
 10
2.685
 20
8.69444
 30
0.0
 40
0.01
 41
0.01
  0
SEQEND
 8
0
  0
POLYLINE
  8
0
 62
     0
 66
     1
 10
0
 20
0
 30
0.0
 40
0.72
 41
0.72
  0
VERTEX
  8
0
 10
5.57667
 20
8.69444
 30
0.0
 40
0.01
 41
0.01
  0
VERTEX
  8
0
 10
5.49832
 20
8.69444
 30
0.0
 40
0.01
 41
0.01
  0
VERTEX
  8
0
 10
5.49832
 20
7.83447
 30
0.0
 40
0.01
 41
0.01
  0
VERTEX
  8
0
 10
5.57667
 20
7.83447
 30
0.0
 40
0.01
 41
0.01
  0
SEQEND
 8
0
  0
POLYLINE
  8
0
 62
     0
 66
     1
 10
0
 20
0
 30
0.0
 40
0.72
 41
0.72
  0
VERTEX
  8
0
 10
5.57667
 20
8.89111
 30
0.0
 40
0.01
 41
0.01
  0
VERTEX
  8
0
 10
5.57667
 20
9.76779
 30
0.0
 40
0.01
 41
0.01
  0
SEQEND
 8
0
  0
POLYLINE
  8
0
 62
     0
 66
     1
 10
0
 20
0
 30
0.0
 40
0.72
 41
0.72
  0
VERTEX
  8
0
 10
6.04167
 20
9.10113
 30
0.0
 40
0.01
 41
0.01
  0
VERTEX
  8
0
 10
5.99164
 20
9.20611
 30
0.0
 40
0.01
 41
0.01
  0
VERTEX
  8
0
 10
5.93668
 20
9.30946
 30
0.0
 40
0.01
 41
0.01
  0
VERTEX
  8
0
 10
5.875
 20
9.40944
 30
0.0
 40
0.01
 41
0.01
  0
VERTEX
  8
0
 10
5.80832
 20
9.50444
 30
0.0
 40
0.01
 41
0.01
  0
VERTEX
  8
0
 10
5.73665
 20
9.59614
 30
0.0
 40
0.01
 41
0.01
  0
VERTEX
  8
0
 10
5.66
 20
9.68446
 30
0.0
 40
0.01
 41
0.01
  0
VERTEX
  8
0
 10
5.57667
 20
9.76779
 30
0.0
 40
0.01
 41
0.01
  0
SEQEND
 8
0
  0
POLYLINE
  8
0
 62
     0
 66
     1
 10
0
 20
0
 30
0.0
 40
0.72
 41
0.72
  0
VERTEX
  8
0
 10
6.04167
 20
9.10113
 30
0.0
 40
0.01
 41
0.01
  0
VERTEX
  8
0
 10
6.04167
 20
7.42779
 30
0.0
 40
0.01
 41
0.01
  0
SEQEND
 8
0
  0
POLYLINE
  8
0
 62
     0
 66
     1
 10
0
 20
0
 30
0.0
 40
0.72
 41
0.72
  0
VERTEX
  8
0
 10
5.57667
 20
6.76112
 30
0.0
 40
0.01
 41
0.01
  0
VERTEX
  8
0
 10
5.66
 20
6.84446
 30
0.0
 40
0.01
 41
0.01
  0
VERTEX
  8
0
 10
5.73665
 20
6.9311
 30
0.0
 40
0.01
 41
0.01
  0
VERTEX
  8
0
 10
5.80832
 20
7.02447
 30
0.0
 40
0.01
 41
0.01
  0
VERTEX
  8
0
 10
5.875
 20
7.11947
 30
0.0
 40
0.01
 41
0.01
  0
VERTEX
  8
0
 10
5.93668
 20
7.21946
 30
0.0
 40
0.01
 41
0.01
  0
VERTEX
  8
0
 10
5.99164
 20
7.32112
 30
0.0
 40
0.01
 41
0.01
  0
VERTEX
  8
0
 10
6.04167
 20
7.42779
 30
0.0
 40
0.01
 41
0.01
  0
SEQEND
 8
0
  0
POLYLINE
  8
0
 62
     0
 66
     1
 10
0
 20
0
 30
0.0
 40
0.72
 41
0.72
  0
VERTEX
  8
0
 10
5.57667
 20
6.76112
 30
0.0
 40
0.01
 41
0.01
  0
VERTEX
  8
0
 10
5.57667
 20
7.63781
 30
0.0
 40
0.01
 41
0.01
  0
SEQEND
 8
0
  0
POLYLINE
  8
0
 62
     0
 66
     1
 10
0
 20
0
 30
0.0
 70
     1
 40
0.72
 41
0.72
  0
VERTEX
  8
0
 10
4.12999
 20
6.09944
 30
0.0
 40
0.01
 41
0.01
  0
VERTEX
  8
0
 10
4.24832
 20
6.10275
 30
0.0
 40
0.01
 41
0.01
  0
VERTEX
  8
0
 10
4.36501
 20
6.11111
 30
0.0
 40
0.01
 41
0.01
  0
VERTEX
  8
0
 10
4.48167
 20
6.12776
 30
0.0
 40
0.01
 41
0.01
  0
VERTEX
  8
0
 10
4.59668
 20
6.14947
 30
0.0
 40
0.01
 41
0.01
  0
VERTEX
  8
0
 10
4.71001
 20
6.17779
 30
0.0
 40
0.01
 41
0.01
  0
VERTEX
  8
0
 10
4.82167
 20
6.21278
 30
0.0
 40
0.01
 41
0.01
  0
VERTEX
  8
0
 10
4.93164
 20
6.25276
 30
0.0
 40
0.01
 41
0.01
  0
VERTEX
  8
0
 10
5.03999
 20
6.29943
 30
0.0
 40
0.01
 41
0.01
  0
VERTEX
  8
0
 10
5.14501
 20
6.35113
 30
0.0
 40
0.01
 41
0.01
  0
VERTEX
  8
0
 10
5.24669
 20
6.40944
 30
0.0
 40
0.01
 41
0.01
  0
VERTEX
  8
0
 10
5.345
 20
6.47114
 30
0.0
 40
0.01
 41
0.01
  0
VERTEX
  8
0
 10
5.44168
 20
6.54113
 30
0.0
 40
0.01
 41
0.01
  0
VERTEX
  8
0
 10
5.53168
 20
6.61447
 30
0.0
 40
0.01
 41
0.01
  0
VERTEX
  8
0
 10
5.62001
 20
6.69276
 30
0.0
 40
0.01
 41
0.01
  0
VERTEX
  8
0
 10
5.70335
 20
6.77447
 30
0.0
 40
0.01
 41
0.01
  0
VERTEX
  8
0
 10
5.78
 20
6.86279
 30
0.0
 40
0.01
 41
0.01
  0
VERTEX
  8
0
 10
5.85499
 20
6.95443
 30
0.0
 40
0.01
 41
0.01
  0
VERTEX
  8
0
 10
5.92333
 20
7.04943
 30
0.0
 40
0.01
 41
0.01
  0
VERTEX
  8
0
 10
5.98503
 20
7.14779
 30
0.0
 40
0.01
 41
0.01
  0
VERTEX
  8
0
 10
6.04335
 20
7.24946
 30
0.0
 40
0.01
 41
0.01
  0
VERTEX
  8
0
 10
6.095
 20
7.35444
 30
0.0
 40
0.01
 41
0.01
  0
VERTEX
  8
0
 10
6.14165
 20
7.46278
 30
0.0
 40
0.01
 41
0.01
  0
VERTEX
  8
0
 10
6.18164
 20
7.57281
 30
0.0
 40
0.01
 41
0.01
  0
VERTEX
  8
0
 10
6.21669
 20
7.68446
 30
0.0
 40
0.01
 41
0.01
  0
VERTEX
  8
0
 10
6.24501
 20
7.79943
 30
0.0
 40
0.01
 41
0.01
  0
VERTEX
  8
0
 10
6.26665
 20
7.91444
 30
0.0
 40
0.01
 41
0.01
  0
VERTEX
  8
0
 10
6.28331
 20
8.02946
 30
0.0
 40
0.01
 41
0.01
  0
VERTEX
  8
0
 10
6.29335
 20
8.14611
 30
0.0
 40
0.01
 41
0.01
  0
VERTEX
  8
0
 10
6.29497
 20
8.26443
 30
0.0
 40
0.01
 41
0.01
  0
VERTEX
  8
0
 10
6.29335
 20
8.38112
 30
0.0
 40
0.01
 41
0.01
  0
VERTEX
  8
0
 10
6.28331
 20
8.49778
 30
0.0
 40
0.01
 41
0.01
  0
VERTEX
  8
0
 10
6.26665
 20
8.61447
 30
0.0
 40
0.01
 41
0.01
  0
VERTEX
  8
0
 10
6.24501
 20
8.72944
 30
0.0
 40
0.01
 41
0.01
  0
VERTEX
  8
0
 10
6.21669
 20
8.84278
 30
0.0
 40
0.01
 41
0.01
  0
VERTEX
  8
0
 10
6.18164
 20
8.95611
 30
0.0
 40
0.01
 41
0.01
  0
VERTEX
  8
0
 10
6.14165
 20
9.06614
 30
0.0
 40
0.01
 41
0.01
  0
VERTEX
  8
0
 10
6.095
 20
9.17279
 30
0.0
 40
0.01
 41
0.01
  0
VERTEX
  8
0
 10
6.04335
 20
9.27778
 30
0.0
 40
0.01
 41
0.01
  0
VERTEX
  8
0
 10
5.98503
 20
9.38112
 30
0.0
 40
0.01
 41
0.01
  0
VERTEX
  8
0
 10
5.92333
 20
9.47944
 30
0.0
 40
0.01
 41
0.01
  0
VERTEX
  8
0
 10
5.85499
 20
9.57443
 30
0.0
 40
0.01
 41
0.01
  0
VERTEX
  8
0
 10
5.78
 20
9.66613
 30
0.0
 40
0.01
 41
0.01
  0
VERTEX
  8
0
 10
5.70335
 20
9.75276
 30
0.0
 40
0.01
 41
0.01
  0
VERTEX
  8
0
 10
5.62001
 20
9.8361
 30
0.0
 40
0.01
 41
0.01
  0
VERTEX
  8
0
 10
5.53168
 20
9.91444
 30
0.0
 40
0.01
 41
0.01
  0
VERTEX
  8
0
 10
5.44168
 20
9.98779
 30
0.0
 40
0.01
 41
0.01
  0
VERTEX
  8
0
 10
5.345
 20
10.0561
 30
0.0
 40
0.01
 41
0.01
  0
VERTEX
  8
0
 10
5.24669
 20
10.1195
 30
0.0
 40
0.01
 41
0.01
  0
VERTEX
  8
0
 10
5.14501
 20
10.1778
 30
0.0
 40
0.01
 41
0.01
  0
VERTEX
  8
0
 10
5.03999
 20
10.2294
 30
0.0
 40
0.01
 41
0.01
  0
VERTEX
  8
0
 10
4.93164
 20
10.2761
 30
0.0
 40
0.01
 41
0.01
  0
VERTEX
  8
0
 10
4.82167
 20
10.3161
 30
0.0
 40
0.01
 41
0.01
  0
VERTEX
  8
0
 10
4.71001
 20
10.3511
 30
0.0
 40
0.01
 41
0.01
  0
VERTEX
  8
0
 10
4.59668
 20
10.3794
 30
0.0
 40
0.01
 41
0.01
  0
VERTEX
  8
0
 10
4.48167
 20
10.4011
 30
0.0
 40
0.01
 41
0.01
  0
VERTEX
  8
0
 10
4.36501
 20
10.4161
 30
0.0
 40
0.01
 41
0.01
  0
VERTEX
  8
0
 10
4.24832
 20
10.4261
 30
0.0
 40
0.01
 41
0.01
  0
VERTEX
  8
0
 10
4.12999
 20
10.4295
 30
0.0
 40
0.01
 41
0.01
  0
VERTEX
  8
0
 10
4.01335
 20
10.4261
 30
0.0
 40
0.01
 41
0.01
  0
VERTEX
  8
0
 10
3.89665
 20
10.4161
 30
0.0
 40
0.01
 41
0.01
  0
VERTEX
  8
0
 10
3.78
 20
10.4011
 30
0.0
 40
0.01
 41
0.01
  0
VERTEX
  8
0
 10
3.66499
 20
10.3794
 30
0.0
 40
0.01
 41
0.01
  0
VERTEX
  8
0
 10
3.55165
 20
10.3511
 30
0.0
 40
0.01
 41
0.01
  0
VERTEX
  8
0
 10
3.44
 20
10.3161
 30
0.0
 40
0.01
 41
0.01
  0
VERTEX
  8
0
 10
3.33003
 20
10.2761
 30
0.0
 40
0.01
 41
0.01
  0
VERTEX
  8
0
 10
3.22168
 20
10.2294
 30
0.0
 40
0.01
 41
0.01
  0
VERTEX
  8
0
 10
3.11664
 20
10.1778
 30
0.0
 40
0.01
 41
0.01
  0
VERTEX
  8
0
 10
3.01497
 20
10.1195
 30
0.0
 40
0.01
 41
0.01
  0
VERTEX
  8
0
 10
2.91667
 20
10.0561
 30
0.0
 40
0.01
 41
0.01
  0
VERTEX
  8
0
 10
2.81999
 20
9.98779
 30
0.0
 40
0.01
 41
0.01
  0
VERTEX
  8
0
 10
2.72999
 20
9.91444
 30
0.0
 40
0.01
 41
0.01
  0
VERTEX
  8
0
 10
2.64165
 20
9.8361
 30
0.0
 40
0.01
 41
0.01
  0
VERTEX
  8
0
 10
2.55832
 20
9.75276
 30
0.0
 40
0.01
 41
0.01
  0
VERTEX
  8
0
 10
2.48167
 20
9.66613
 30
0.0
 40
0.01
 41
0.01
  0
VERTEX
  8
0
 10
2.40668
 20
9.57443
 30
0.0
 40
0.01
 41
0.01
  0
VERTEX
  8
0
 10
2.33832
 20
9.47944
 30
0.0
 40
0.01
 41
0.01
  0
VERTEX
  8
0
 10
2.27669
 20
9.38112
 30
0.0
 40
0.01
 41
0.01
  0
VERTEX
  8
0
 10
2.21832
 20
9.27778
 30
0.0
 40
0.01
 41
0.01
  0
VERTEX
  8
0
 10
2.16667
 20
9.17279
 30
0.0
 40
0.01
 41
0.01
  0
VERTEX
  8
0
 10
2.12001
 20
9.06614
 30
0.0
 40
0.01
 41
0.01
  0
VERTEX
  8
0
 10
2.08003
 20
8.95611
 30
0.0
 40
0.01
 41
0.01
  0
VERTEX
  8
0
 10
2.04497
 20
8.84278
 30
0.0
 40
0.01
 41
0.01
  0
VERTEX
  8
0
 10
2.01665
 20
8.72944
 30
0.0
 40
0.01
 41
0.01
  0
VERTEX
  8
0
 10
1.99501
 20
8.61447
 30
0.0
 40
0.01
 41
0.01
  0
VERTEX
  8
0
 10
1.97835
 20
8.49778
 30
0.0
 40
0.01
 41
0.01
  0
VERTEX
  8
0
 10
1.96832
 20
8.38112
 30
0.0
 40
0.01
 41
0.01
  0
VERTEX
  8
0
 10
1.96669
 20
8.26443
 30
0.0
 40
0.01
 41
0.01
  0
VERTEX
  8
0
 10
1.96832
 20
8.14611
 30
0.0
 40
0.01
 41
0.01
  0
VERTEX
  8
0
 10
1.97835
 20
8.02946
 30
0.0
 40
0.01
 41
0.01
  0
VERTEX
  8
0
 10
1.99501
 20
7.91444
 30
0.0
 40
0.01
 41
0.01
  0
VERTEX
  8
0
 10
2.01665
 20
7.79943
 30
0.0
 40
0.01
 41
0.01
  0
VERTEX
  8
0
 10
2.04497
 20
7.68446
 30
0.0
 40
0.01
 41
0.01
  0
VERTEX
  8
0
 10
2.08003
 20
7.57281
 30
0.0
 40
0.01
 41
0.01
  0
VERTEX
  8
0
 10
2.12001
 20
7.46278
 30
0.0
 40
0.01
 41
0.01
  0
VERTEX
  8
0
 10
2.16667
 20
7.35444
 30
0.0
 40
0.01
 41
0.01
  0
VERTEX
  8
0
 10
2.21832
 20
7.24946
 30
0.0
 40
0.01
 41
0.01
  0
VERTEX
  8
0
 10
2.27669
 20
7.14779
 30
0.0
 40
0.01
 41
0.01
  0
VERTEX
  8
0
 10
2.33832
 20
7.04943
 30
0.0
 40
0.01
 41
0.01
  0
VERTEX
  8
0
 10
2.40668
 20
6.95443
 30
0.0
 40
0.01
 41
0.01
  0
VERTEX
  8
0
 10
2.48167
 20
6.86279
 30
0.0
 40
0.01
 41
0.01
  0
VERTEX
  8
0
 10
2.55832
 20
6.77447
 30
0.0
 40
0.01
 41
0.01
  0
VERTEX
  8
0
 10
2.64165
 20
6.69276
 30
0.0
 40
0.01
 41
0.01
  0
VERTEX
  8
0
 10
2.72999
 20
6.61447
 30
0.0
 40
0.01
 41
0.01
  0
VERTEX
  8
0
 10
2.81999
 20
6.54113
 30
0.0
 40
0.01
 41
0.01
  0
VERTEX
  8
0
 10
2.91667
 20
6.47114
 30
0.0
 40
0.01
 41
0.01
  0
VERTEX
  8
0
 10
3.01497
 20
6.40944
 30
0.0
 40
0.01
 41
0.01
  0
VERTEX
  8
0
 10
3.11664
 20
6.35113
 30
0.0
 40
0.01
 41
0.01
  0
VERTEX
  8
0
 10
3.22168
 20
6.29943
 30
0.0
 40
0.01
 41
0.01
  0
VERTEX
  8
0
 10
3.33003
 20
6.25276
 30
0.0
 40
0.01
 41
0.01
  0
VERTEX
  8
0
 10
3.44
 20
6.21278
 30
0.0
 40
0.01
 41
0.01
  0
VERTEX
  8
0
 10
3.55165
 20
6.17779
 30
0.0
 40
0.01
 41
0.01
  0
VERTEX
  8
0
 10
3.66499
 20
6.14947
 30
0.0
 40
0.01
 41
0.01
  0
VERTEX
  8
0
 10
3.78
 20
6.12776
 30
0.0
 40
0.01
 41
0.01
  0
VERTEX
  8
0
 10
3.89665
 20
6.11111
 30
0.0
 40
0.01
 41
0.01
  0
VERTEX
  8
0
 10
4.01335
 20
6.10275
 30
0.0
 40
0.01
 41
0.01
  0
VERTEX
  8
0
 10
4.12999
 20
6.09944
 30
0.0
 40
0.01
 41
0.01
  0
SEQEND
 8
0
  0
ENDSEC
  0
EOF
