  0
SECTION
  2
HEADER
  9
$ACADVER
  1
AC1009
  9
$EXTMIN
 10
0.0
 20
0.0
 30
0.0
  9
$EXTMAX
 10
1000.0
 20
1000.0
 30
0.0
  9
$FILLMODE
 70
 0
  9
$SPLFRAME
 70
 1
  0
ENDSEC
  0
SECTION
  2
TABLES
  0
TABLE
  2
LAYER
 70
1
  0
LAYER
  2
0
 70
     0
 62
     7
  6
CONTINUOUS
  0
ENDTAB
  0
ENDSEC
  0
SECTION
  2
ENTITIES
  0
LINE
  8
0
 62
     0
 10
53.5093
 20
229.475
 30
0.0
 11
56.388
 21
228.586
 31
0.0
  0
LINE
  8
0
 62
     0
 10
56.388
 20
188.666
 30
0.0
 11
56.388
 21
231.169
 31
0.0
  0
LINE
  8
0
 62
     0
 10
68.199
 20
248.102
 30
0.0
 11
66.0823
 21
245.985
 31
0.0
  0
LINE
  8
0
 62
     0
 10
66.0823
 20
245.985
 30
0.0
 11
64.1354
 21
243.742
 31
0.0
  0
LINE
  8
0
 62
     0
 10
64.1354
 20
243.742
 30
0.0
 11
62.315
 21
241.413
 31
0.0
  0
LINE
  8
0
 62
     0
 10
62.315
 20
241.413
 30
0.0
 11
60.6213
 21
239
 31
0.0
  0
LINE
  8
0
 62
     0
 10
60.6213
 20
239
 30
0.0
 11
59.0543
 21
236.46
 31
0.0
  0
LINE
  8
0
 62
     0
 10
59.0543
 20
236.46
 30
0.0
 11
57.6584
 21
233.835
 31
0.0
  0
LINE
  8
0
 62
     0
 10
57.6584
 20
233.835
 30
0.0
 11
56.388
 21
231.169
 31
0.0
  0
LINE
  8
0
 62
     0
 10
68.199
 20
248.102
 30
0.0
 11
68.199
 21
225.834
 31
0.0
  0
LINE
  8
0
 62
     0
 10
68.199
 20
225.834
 30
0.0
 11
70.189
 21
225.834
 31
0.0
  0
LINE
  8
0
 62
     0
 10
70.189
 20
225.834
 30
0.0
 11
70.189
 21
250.811
 31
0.0
  0
LINE
  8
0
 62
     0
 10
70.189
 20
250.811
 30
0.0
 11
71.2474
 21
250.811
 31
0.0
  0
LINE
  8
0
 62
     0
 10
138.599
 20
250.811
 30
0.0
 11
136.313
 21
252.632
 31
0.0
  0
LINE
  8
0
 62
     0
 10
136.313
 20
252.632
 30
0.0
 11
133.9
 21
254.283
 31
0.0
  0
LINE
  8
0
 62
     0
 10
133.9
 20
254.283
 30
0.0
 11
131.403
 21
255.807
 31
0.0
  0
LINE
  8
0
 62
     0
 10
131.403
 20
255.807
 30
0.0
 11
128.82
 21
257.204
 31
0.0
  0
LINE
  8
0
 62
     0
 10
128.82
 20
257.204
 30
0.0
 11
126.195
 21
258.431
 31
0.0
  0
LINE
  8
0
 62
     0
 10
126.195
 20
258.431
 30
0.0
 11
123.486
 21
259.532
 31
0.0
  0
LINE
  8
0
 62
     0
 10
123.486
 20
259.532
 30
0.0
 11
120.734
 21
260.506
 31
0.0
  0
LINE
  8
0
 62
     0
 10
120.734
 20
260.506
 30
0.0
 11
117.941
 21
261.268
 31
0.0
  0
LINE
  8
0
 62
     0
 10
117.941
 20
261.268
 30
0.0
 11
115.062
 21
261.945
 31
0.0
  0
LINE
  8
0
 62
     0
 10
115.062
 20
261.945
 30
0.0
 11
112.183
 21
262.41
 31
0.0
  0
LINE
  8
0
 62
     0
 10
112.183
 20
262.41
 30
0.0
 11
109.305
 21
262.749
 31
0.0
  0
LINE
  8
0
 62
     0
 10
109.305
 20
262.749
 30
0.0
 11
106.383
 21
262.876
 31
0.0
  0
LINE
  8
0
 62
     0
 10
106.383
 20
262.876
 30
0.0
 11
103.463
 21
262.876
 31
0.0
  0
LINE
  8
0
 62
     0
 10
103.463
 20
262.876
 30
0.0
 11
100.542
 21
262.749
 31
0.0
  0
LINE
  8
0
 62
     0
 10
100.542
 20
262.749
 30
0.0
 11
97.663
 21
262.41
 31
0.0
  0
LINE
  8
0
 62
     0
 10
97.663
 20
262.41
 30
0.0
 11
94.7843
 21
261.945
 31
0.0
  0
LINE
  8
0
 62
     0
 10
94.7843
 20
261.945
 30
0.0
 11
91.9057
 21
261.268
 31
0.0
  0
LINE
  8
0
 62
     0
 10
91.9057
 20
261.268
 30
0.0
 11
89.1124
 21
260.506
 31
0.0
  0
LINE
  8
0
 62
     0
 10
89.1124
 20
260.506
 30
0.0
 11
86.3604
 21
259.532
 31
0.0
  0
LINE
  8
0
 62
     0
 10
86.3604
 20
259.532
 30
0.0
 11
83.651
 21
258.431
 31
0.0
  0
LINE
  8
0
 62
     0
 10
83.651
 20
258.431
 30
0.0
 11
81.026
 21
257.204
 31
0.0
  0
LINE
  8
0
 62
     0
 10
81.026
 20
257.204
 30
0.0
 11
78.4433
 21
255.807
 31
0.0
  0
LINE
  8
0
 62
     0
 10
78.4433
 20
255.807
 30
0.0
 11
75.9464
 21
254.283
 31
0.0
  0
LINE
  8
0
 62
     0
 10
75.9464
 20
254.283
 30
0.0
 11
73.5334
 21
252.632
 31
0.0
  0
LINE
  8
0
 62
     0
 10
73.5334
 20
252.632
 30
0.0
 11
71.2474
 21
250.811
 31
0.0
  0
LINE
  8
0
 62
     0
 10
81.4917
 20
259.658
 30
0.0
 11
82.211
 21
257.797
 31
0.0
  0
LINE
  8
0
 62
     0
 10
71.2474
 20
250.811
 30
0.0
 11
70.189
 21
250.811
 31
0.0
  0
LINE
  8
0
 62
     0
 10
70.189
 20
250.811
 30
0.0
 11
70.189
 21
225.834
 31
0.0
  0
LINE
  8
0
 62
     0
 10
70.189
 20
225.834
 30
0.0
 11
68.199
 21
225.834
 31
0.0
  0
LINE
  8
0
 62
     0
 10
68.199
 20
225.834
 30
0.0
 11
68.199
 21
220.839
 31
0.0
  0
LINE
  8
0
 62
     0
 10
68.199
 20
220.839
 30
0.0
 11
70.189
 21
220.839
 31
0.0
  0
LINE
  8
0
 62
     0
 10
70.189
 20
220.839
 30
0.0
 11
70.189
 21
198.996
 31
0.0
  0
LINE
  8
0
 62
     0
 10
70.189
 20
198.996
 30
0.0
 11
68.199
 21
198.996
 31
0.0
  0
LINE
  8
0
 62
     0
 10
68.199
 20
198.996
 30
0.0
 11
68.199
 21
194
 31
0.0
  0
LINE
  8
0
 62
     0
 10
68.199
 20
194
 30
0.0
 11
70.189
 21
194
 31
0.0
  0
LINE
  8
0
 62
     0
 10
70.189
 20
194
 30
0.0
 11
70.189
 21
168.981
 31
0.0
  0
LINE
  8
0
 62
     0
 10
70.189
 20
168.981
 30
0.0
 11
71.2474
 21
168.981
 31
0.0
  0
LINE
  8
0
 62
     0
 10
71.2474
 20
168.981
 30
0.0
 11
73.5334
 21
167.203
 31
0.0
  0
LINE
  8
0
 62
     0
 10
73.5334
 20
167.203
 30
0.0
 11
75.9464
 21
165.552
 31
0.0
  0
LINE
  8
0
 62
     0
 10
75.9464
 20
165.552
 30
0.0
 11
78.4433
 21
163.985
 31
0.0
  0
LINE
  8
0
 62
     0
 10
78.4433
 20
163.985
 30
0.0
 11
81.026
 21
162.631
 31
0.0
  0
LINE
  8
0
 62
     0
 10
81.026
 20
162.631
 30
0.0
 11
83.651
 21
161.36
 31
0.0
  0
LINE
  8
0
 62
     0
 10
83.651
 20
161.36
 30
0.0
 11
86.3604
 21
160.26
 31
0.0
  0
LINE
  8
0
 62
     0
 10
86.3604
 20
160.26
 30
0.0
 11
89.1124
 21
159.329
 31
0.0
  0
LINE
  8
0
 62
     0
 10
89.1124
 20
159.329
 30
0.0
 11
91.9057
 21
158.524
 31
0.0
  0
LINE
  8
0
 62
     0
 10
91.9057
 20
158.524
 30
0.0
 11
94.7843
 21
157.889
 31
0.0
  0
LINE
  8
0
 62
     0
 10
94.7843
 20
157.889
 30
0.0
 11
97.663
 21
157.424
 31
0.0
  0
LINE
  8
0
 62
     0
 10
97.663
 20
157.424
 30
0.0
 11
100.542
 21
157.085
 31
0.0
  0
LINE
  8
0
 62
     0
 10
100.542
 20
157.085
 30
0.0
 11
103.463
 21
156.916
 31
0.0
  0
LINE
  8
0
 62
     0
 10
103.463
 20
156.916
 30
0.0
 11
106.383
 21
156.916
 31
0.0
  0
LINE
  8
0
 62
     0
 10
106.383
 20
156.916
 30
0.0
 11
109.305
 21
157.085
 31
0.0
  0
LINE
  8
0
 62
     0
 10
109.305
 20
157.085
 30
0.0
 11
112.183
 21
157.424
 31
0.0
  0
LINE
  8
0
 62
     0
 10
112.183
 20
157.424
 30
0.0
 11
115.062
 21
157.889
 31
0.0
  0
LINE
  8
0
 62
     0
 10
115.062
 20
157.889
 30
0.0
 11
117.941
 21
158.524
 31
0.0
  0
LINE
  8
0
 62
     0
 10
117.941
 20
158.524
 30
0.0
 11
120.734
 21
159.329
 31
0.0
  0
LINE
  8
0
 62
     0
 10
120.734
 20
159.329
 30
0.0
 11
123.486
 21
160.26
 31
0.0
  0
LINE
  8
0
 62
     0
 10
123.486
 20
160.26
 30
0.0
 11
126.195
 21
161.36
 31
0.0
  0
LINE
  8
0
 62
     0
 10
126.195
 20
161.36
 30
0.0
 11
128.82
 21
162.631
 31
0.0
  0
LINE
  8
0
 62
     0
 10
128.82
 20
162.631
 30
0.0
 11
131.403
 21
163.985
 31
0.0
  0
LINE
  8
0
 62
     0
 10
131.403
 20
163.985
 30
0.0
 11
133.9
 21
165.552
 31
0.0
  0
LINE
  8
0
 62
     0
 10
133.9
 20
165.552
 30
0.0
 11
136.313
 21
167.203
 31
0.0
  0
LINE
  8
0
 62
     0
 10
136.313
 20
167.203
 30
0.0
 11
138.599
 21
168.981
 31
0.0
  0
LINE
  8
0
 62
     0
 10
71.2474
 20
168.981
 30
0.0
 11
73.5334
 21
167.203
 31
0.0
  0
LINE
  8
0
 62
     0
 10
73.5334
 20
167.203
 30
0.0
 11
75.9464
 21
165.552
 31
0.0
  0
LINE
  8
0
 62
     0
 10
75.9464
 20
165.552
 30
0.0
 11
78.4433
 21
163.985
 31
0.0
  0
LINE
  8
0
 62
     0
 10
78.4433
 20
163.985
 30
0.0
 11
81.026
 21
162.631
 31
0.0
  0
LINE
  8
0
 62
     0
 10
81.026
 20
162.631
 30
0.0
 11
83.651
 21
161.36
 31
0.0
  0
LINE
  8
0
 62
     0
 10
83.651
 20
161.36
 30
0.0
 11
86.3604
 21
160.26
 31
0.0
  0
LINE
  8
0
 62
     0
 10
86.3604
 20
160.26
 30
0.0
 11
89.1124
 21
159.329
 31
0.0
  0
LINE
  8
0
 62
     0
 10
89.1124
 20
159.329
 30
0.0
 11
91.9057
 21
158.524
 31
0.0
  0
LINE
  8
0
 62
     0
 10
91.9057
 20
158.524
 30
0.0
 11
94.7843
 21
157.889
 31
0.0
  0
LINE
  8
0
 62
     0
 10
94.7843
 20
157.889
 30
0.0
 11
97.663
 21
157.424
 31
0.0
  0
LINE
  8
0
 62
     0
 10
97.663
 20
157.424
 30
0.0
 11
100.542
 21
157.085
 31
0.0
  0
LINE
  8
0
 62
     0
 10
100.542
 20
157.085
 30
0.0
 11
103.463
 21
156.916
 31
0.0
  0
LINE
  8
0
 62
     0
 10
103.463
 20
156.916
 30
0.0
 11
106.383
 21
156.916
 31
0.0
  0
LINE
  8
0
 62
     0
 10
106.383
 20
156.916
 30
0.0
 11
109.305
 21
157.085
 31
0.0
  0
LINE
  8
0
 62
     0
 10
109.305
 20
157.085
 30
0.0
 11
112.183
 21
157.424
 31
0.0
  0
LINE
  8
0
 62
     0
 10
112.183
 20
157.424
 30
0.0
 11
115.062
 21
157.889
 31
0.0
  0
LINE
  8
0
 62
     0
 10
115.062
 20
157.889
 30
0.0
 11
117.941
 21
158.524
 31
0.0
  0
LINE
  8
0
 62
     0
 10
117.941
 20
158.524
 30
0.0
 11
120.734
 21
159.329
 31
0.0
  0
LINE
  8
0
 62
     0
 10
120.734
 20
159.329
 30
0.0
 11
123.486
 21
160.26
 31
0.0
  0
LINE
  8
0
 62
     0
 10
123.486
 20
160.26
 30
0.0
 11
126.195
 21
161.36
 31
0.0
  0
LINE
  8
0
 62
     0
 10
126.195
 20
161.36
 30
0.0
 11
128.82
 21
162.631
 31
0.0
  0
LINE
  8
0
 62
     0
 10
128.82
 20
162.631
 30
0.0
 11
131.403
 21
163.985
 31
0.0
  0
LINE
  8
0
 62
     0
 10
131.403
 20
163.985
 30
0.0
 11
133.9
 21
165.552
 31
0.0
  0
LINE
  8
0
 62
     0
 10
133.9
 20
165.552
 30
0.0
 11
136.313
 21
167.203
 31
0.0
  0
LINE
  8
0
 62
     0
 10
136.313
 20
167.203
 30
0.0
 11
138.599
 21
168.981
 31
0.0
  0
LINE
  8
0
 62
     0
 10
71.2474
 20
168.981
 30
0.0
 11
73.5334
 21
167.203
 31
0.0
  0
LINE
  8
0
 62
     0
 10
73.5334
 20
167.203
 30
0.0
 11
75.9464
 21
165.552
 31
0.0
  0
LINE
  8
0
 62
     0
 10
75.9464
 20
165.552
 30
0.0
 11
78.4433
 21
163.985
 31
0.0
  0
LINE
  8
0
 62
     0
 10
78.4433
 20
163.985
 30
0.0
 11
81.026
 21
162.631
 31
0.0
  0
LINE
  8
0
 62
     0
 10
81.026
 20
162.631
 30
0.0
 11
83.651
 21
161.36
 31
0.0
  0
LINE
  8
0
 62
     0
 10
83.651
 20
161.36
 30
0.0
 11
86.3604
 21
160.26
 31
0.0
  0
LINE
  8
0
 62
     0
 10
86.3604
 20
160.26
 30
0.0
 11
89.1124
 21
159.329
 31
0.0
  0
LINE
  8
0
 62
     0
 10
89.1124
 20
159.329
 30
0.0
 11
91.9057
 21
158.524
 31
0.0
  0
LINE
  8
0
 62
     0
 10
91.9057
 20
158.524
 30
0.0
 11
94.7843
 21
157.889
 31
0.0
  0
LINE
  8
0
 62
     0
 10
94.7843
 20
157.889
 30
0.0
 11
97.663
 21
157.424
 31
0.0
  0
LINE
  8
0
 62
     0
 10
97.663
 20
157.424
 30
0.0
 11
100.542
 21
157.085
 31
0.0
  0
LINE
  8
0
 62
     0
 10
100.542
 20
157.085
 30
0.0
 11
103.463
 21
156.916
 31
0.0
  0
LINE
  8
0
 62
     0
 10
103.463
 20
156.916
 30
0.0
 11
106.383
 21
156.916
 31
0.0
  0
LINE
  8
0
 62
     0
 10
106.383
 20
156.916
 30
0.0
 11
109.305
 21
157.085
 31
0.0
  0
LINE
  8
0
 62
     0
 10
109.305
 20
157.085
 30
0.0
 11
112.183
 21
157.424
 31
0.0
  0
LINE
  8
0
 62
     0
 10
112.183
 20
157.424
 30
0.0
 11
115.062
 21
157.889
 31
0.0
  0
LINE
  8
0
 62
     0
 10
115.062
 20
157.889
 30
0.0
 11
117.941
 21
158.524
 31
0.0
  0
LINE
  8
0
 62
     0
 10
117.941
 20
158.524
 30
0.0
 11
120.734
 21
159.329
 31
0.0
  0
LINE
  8
0
 62
     0
 10
120.734
 20
159.329
 30
0.0
 11
123.486
 21
160.26
 31
0.0
  0
LINE
  8
0
 62
     0
 10
123.486
 20
160.26
 30
0.0
 11
126.195
 21
161.36
 31
0.0
  0
LINE
  8
0
 62
     0
 10
126.195
 20
161.36
 30
0.0
 11
128.82
 21
162.631
 31
0.0
  0
LINE
  8
0
 62
     0
 10
128.82
 20
162.631
 30
0.0
 11
131.403
 21
163.985
 31
0.0
  0
LINE
  8
0
 62
     0
 10
131.403
 20
163.985
 30
0.0
 11
133.9
 21
165.552
 31
0.0
  0
LINE
  8
0
 62
     0
 10
133.9
 20
165.552
 30
0.0
 11
136.313
 21
167.203
 31
0.0
  0
LINE
  8
0
 62
     0
 10
136.313
 20
167.203
 30
0.0
 11
138.599
 21
168.981
 31
0.0
  0
LINE
  8
0
 62
     0
 10
71.2474
 20
168.981
 30
0.0
 11
73.5334
 21
167.203
 31
0.0
  0
LINE
  8
0
 62
     0
 10
73.5334
 20
167.203
 30
0.0
 11
75.9464
 21
165.552
 31
0.0
  0
LINE
  8
0
 62
     0
 10
75.9464
 20
165.552
 30
0.0
 11
78.4433
 21
163.985
 31
0.0
  0
LINE
  8
0
 62
     0
 10
78.4433
 20
163.985
 30
0.0
 11
81.026
 21
162.631
 31
0.0
  0
LINE
  8
0
 62
     0
 10
81.026
 20
162.631
 30
0.0
 11
83.651
 21
161.36
 31
0.0
  0
LINE
  8
0
 62
     0
 10
83.651
 20
161.36
 30
0.0
 11
86.3604
 21
160.26
 31
0.0
  0
LINE
  8
0
 62
     0
 10
86.3604
 20
160.26
 30
0.0
 11
89.1124
 21
159.329
 31
0.0
  0
LINE
  8
0
 62
     0
 10
89.1124
 20
159.329
 30
0.0
 11
91.9057
 21
158.524
 31
0.0
  0
LINE
  8
0
 62
     0
 10
91.9057
 20
158.524
 30
0.0
 11
94.7843
 21
157.889
 31
0.0
  0
LINE
  8
0
 62
     0
 10
94.7843
 20
157.889
 30
0.0
 11
97.663
 21
157.424
 31
0.0
  0
LINE
  8
0
 62
     0
 10
97.663
 20
157.424
 30
0.0
 11
100.542
 21
157.085
 31
0.0
  0
LINE
  8
0
 62
     0
 10
100.542
 20
157.085
 30
0.0
 11
103.463
 21
156.916
 31
0.0
  0
LINE
  8
0
 62
     0
 10
103.463
 20
156.916
 30
0.0
 11
106.383
 21
156.916
 31
0.0
  0
LINE
  8
0
 62
     0
 10
106.383
 20
156.916
 30
0.0
 11
109.305
 21
157.085
 31
0.0
  0
LINE
  8
0
 62
     0
 10
109.305
 20
157.085
 30
0.0
 11
112.183
 21
157.424
 31
0.0
  0
LINE
  8
0
 62
     0
 10
112.183
 20
157.424
 30
0.0
 11
115.062
 21
157.889
 31
0.0
  0
LINE
  8
0
 62
     0
 10
115.062
 20
157.889
 30
0.0
 11
117.941
 21
158.524
 31
0.0
  0
LINE
  8
0
 62
     0
 10
117.941
 20
158.524
 30
0.0
 11
120.734
 21
159.329
 31
0.0
  0
LINE
  8
0
 62
     0
 10
120.734
 20
159.329
 30
0.0
 11
123.486
 21
160.26
 31
0.0
  0
LINE
  8
0
 62
     0
 10
123.486
 20
160.26
 30
0.0
 11
126.195
 21
161.36
 31
0.0
  0
LINE
  8
0
 62
     0
 10
126.195
 20
161.36
 30
0.0
 11
128.82
 21
162.631
 31
0.0
  0
LINE
  8
0
 62
     0
 10
128.82
 20
162.631
 30
0.0
 11
131.403
 21
163.985
 31
0.0
  0
LINE
  8
0
 62
     0
 10
131.403
 20
163.985
 30
0.0
 11
133.9
 21
165.552
 31
0.0
  0
LINE
  8
0
 62
     0
 10
133.9
 20
165.552
 30
0.0
 11
136.313
 21
167.203
 31
0.0
  0
LINE
  8
0
 62
     0
 10
136.313
 20
167.203
 30
0.0
 11
138.599
 21
168.981
 31
0.0
  0
LINE
  8
0
 62
     0
 10
71.2474
 20
168.981
 30
0.0
 11
73.5334
 21
167.203
 31
0.0
  0
LINE
  8
0
 62
     0
 10
73.5334
 20
167.203
 30
0.0
 11
75.9464
 21
165.552
 31
0.0
  0
LINE
  8
0
 62
     0
 10
75.9464
 20
165.552
 30
0.0
 11
78.4433
 21
163.985
 31
0.0
  0
LINE
  8
0
 62
     0
 10
78.4433
 20
163.985
 30
0.0
 11
81.026
 21
162.631
 31
0.0
  0
LINE
  8
0
 62
     0
 10
81.026
 20
162.631
 30
0.0
 11
83.651
 21
161.36
 31
0.0
  0
LINE
  8
0
 62
     0
 10
83.651
 20
161.36
 30
0.0
 11
86.3604
 21
160.26
 31
0.0
  0
LINE
  8
0
 62
     0
 10
86.3604
 20
160.26
 30
0.0
 11
89.1124
 21
159.329
 31
0.0
  0
LINE
  8
0
 62
     0
 10
89.1124
 20
159.329
 30
0.0
 11
91.9057
 21
158.524
 31
0.0
  0
LINE
  8
0
 62
     0
 10
91.9057
 20
158.524
 30
0.0
 11
94.7843
 21
157.889
 31
0.0
  0
LINE
  8
0
 62
     0
 10
94.7843
 20
157.889
 30
0.0
 11
97.663
 21
157.424
 31
0.0
  0
LINE
  8
0
 62
     0
 10
97.663
 20
157.424
 30
0.0
 11
100.542
 21
157.085
 31
0.0
  0
LINE
  8
0
 62
     0
 10
100.542
 20
157.085
 30
0.0
 11
103.463
 21
156.916
 31
0.0
  0
LINE
  8
0
 62
     0
 10
103.463
 20
156.916
 30
0.0
 11
106.383
 21
156.916
 31
0.0
  0
LINE
  8
0
 62
     0
 10
106.383
 20
156.916
 30
0.0
 11
109.305
 21
157.085
 31
0.0
  0
LINE
  8
0
 62
     0
 10
109.305
 20
157.085
 30
0.0
 11
112.183
 21
157.424
 31
0.0
  0
LINE
  8
0
 62
     0
 10
112.183
 20
157.424
 30
0.0
 11
115.062
 21
157.889
 31
0.0
  0
LINE
  8
0
 62
     0
 10
115.062
 20
157.889
 30
0.0
 11
117.941
 21
158.524
 31
0.0
  0
LINE
  8
0
 62
     0
 10
117.941
 20
158.524
 30
0.0
 11
120.734
 21
159.329
 31
0.0
  0
LINE
  8
0
 62
     0
 10
120.734
 20
159.329
 30
0.0
 11
123.486
 21
160.26
 31
0.0
  0
LINE
  8
0
 62
     0
 10
123.486
 20
160.26
 30
0.0
 11
126.195
 21
161.36
 31
0.0
  0
LINE
  8
0
 62
     0
 10
126.195
 20
161.36
 30
0.0
 11
128.82
 21
162.631
 31
0.0
  0
LINE
  8
0
 62
     0
 10
128.82
 20
162.631
 30
0.0
 11
131.403
 21
163.985
 31
0.0
  0
LINE
  8
0
 62
     0
 10
131.403
 20
163.985
 30
0.0
 11
133.9
 21
165.552
 31
0.0
  0
LINE
  8
0
 62
     0
 10
133.9
 20
165.552
 30
0.0
 11
136.313
 21
167.203
 31
0.0
  0
LINE
  8
0
 62
     0
 10
136.313
 20
167.203
 30
0.0
 11
138.599
 21
168.981
 31
0.0
  0
LINE
  8
0
 62
     0
 10
138.599
 20
168.981
 30
0.0
 11
139.657
 21
168.981
 31
0.0
  0
LINE
  8
0
 62
     0
 10
139.657
 20
168.981
 30
0.0
 11
139.657
 21
194
 31
0.0
  0
LINE
  8
0
 62
     0
 10
139.657
 20
194
 30
0.0
 11
141.647
 21
194
 31
0.0
  0
LINE
  8
0
 62
     0
 10
141.647
 20
194
 30
0.0
 11
141.647
 21
198.996
 31
0.0
  0
LINE
  8
0
 62
     0
 10
141.647
 20
198.996
 30
0.0
 11
139.657
 21
198.996
 31
0.0
  0
LINE
  8
0
 62
     0
 10
139.657
 20
198.996
 30
0.0
 11
139.657
 21
220.839
 31
0.0
  0
LINE
  8
0
 62
     0
 10
139.657
 20
220.839
 30
0.0
 11
141.647
 21
220.839
 31
0.0
  0
LINE
  8
0
 62
     0
 10
141.647
 20
220.839
 30
0.0
 11
141.647
 21
225.834
 31
0.0
  0
LINE
  8
0
 62
     0
 10
141.647
 20
225.834
 30
0.0
 11
139.657
 21
225.834
 31
0.0
  0
LINE
  8
0
 62
     0
 10
139.657
 20
225.834
 30
0.0
 11
139.657
 21
250.811
 31
0.0
  0
LINE
  8
0
 62
     0
 10
139.657
 20
250.811
 30
0.0
 11
138.599
 21
250.811
 31
0.0
  0
LINE
  8
0
 62
     0
 10
138.599
 20
250.811
 30
0.0
 11
136.313
 21
252.632
 31
0.0
  0
LINE
  8
0
 62
     0
 10
136.313
 20
252.632
 30
0.0
 11
133.9
 21
254.283
 31
0.0
  0
LINE
  8
0
 62
     0
 10
133.9
 20
254.283
 30
0.0
 11
131.403
 21
255.807
 31
0.0
  0
LINE
  8
0
 62
     0
 10
131.403
 20
255.807
 30
0.0
 11
128.82
 21
257.204
 31
0.0
  0
LINE
  8
0
 62
     0
 10
128.82
 20
257.204
 30
0.0
 11
126.195
 21
258.431
 31
0.0
  0
LINE
  8
0
 62
     0
 10
126.195
 20
258.431
 30
0.0
 11
123.486
 21
259.532
 31
0.0
  0
LINE
  8
0
 62
     0
 10
123.486
 20
259.532
 30
0.0
 11
120.734
 21
260.506
 31
0.0
  0
LINE
  8
0
 62
     0
 10
120.734
 20
260.506
 30
0.0
 11
117.941
 21
261.268
 31
0.0
  0
LINE
  8
0
 62
     0
 10
117.941
 20
261.268
 30
0.0
 11
115.062
 21
261.945
 31
0.0
  0
LINE
  8
0
 62
     0
 10
115.062
 20
261.945
 30
0.0
 11
112.183
 21
262.41
 31
0.0
  0
LINE
  8
0
 62
     0
 10
112.183
 20
262.41
 30
0.0
 11
109.305
 21
262.749
 31
0.0
  0
LINE
  8
0
 62
     0
 10
109.305
 20
262.749
 30
0.0
 11
106.383
 21
262.876
 31
0.0
  0
LINE
  8
0
 62
     0
 10
106.383
 20
262.876
 30
0.0
 11
103.463
 21
262.876
 31
0.0
  0
LINE
  8
0
 62
     0
 10
103.463
 20
262.876
 30
0.0
 11
100.542
 21
262.749
 31
0.0
  0
LINE
  8
0
 62
     0
 10
100.542
 20
262.749
 30
0.0
 11
97.663
 21
262.41
 31
0.0
  0
LINE
  8
0
 62
     0
 10
97.663
 20
262.41
 30
0.0
 11
94.7843
 21
261.945
 31
0.0
  0
LINE
  8
0
 62
     0
 10
94.7843
 20
261.945
 30
0.0
 11
91.9057
 21
261.268
 31
0.0
  0
LINE
  8
0
 62
     0
 10
91.9057
 20
261.268
 30
0.0
 11
89.1124
 21
260.506
 31
0.0
  0
LINE
  8
0
 62
     0
 10
89.1124
 20
260.506
 30
0.0
 11
86.3604
 21
259.532
 31
0.0
  0
LINE
  8
0
 62
     0
 10
86.3604
 20
259.532
 30
0.0
 11
83.651
 21
258.431
 31
0.0
  0
LINE
  8
0
 62
     0
 10
83.651
 20
258.431
 30
0.0
 11
81.026
 21
257.204
 31
0.0
  0
LINE
  8
0
 62
     0
 10
81.026
 20
257.204
 30
0.0
 11
78.4433
 21
255.807
 31
0.0
  0
LINE
  8
0
 62
     0
 10
78.4433
 20
255.807
 30
0.0
 11
75.9464
 21
254.283
 31
0.0
  0
LINE
  8
0
 62
     0
 10
75.9464
 20
254.283
 30
0.0
 11
73.5334
 21
252.632
 31
0.0
  0
LINE
  8
0
 62
     0
 10
73.5334
 20
252.632
 30
0.0
 11
71.2474
 21
250.811
 31
0.0
  0
LINE
  8
0
 62
     0
 10
138.599
 20
250.811
 30
0.0
 11
136.313
 21
252.632
 31
0.0
  0
LINE
  8
0
 62
     0
 10
136.313
 20
252.632
 30
0.0
 11
133.9
 21
254.283
 31
0.0
  0
LINE
  8
0
 62
     0
 10
133.9
 20
254.283
 30
0.0
 11
131.403
 21
255.807
 31
0.0
  0
LINE
  8
0
 62
     0
 10
131.403
 20
255.807
 30
0.0
 11
128.82
 21
257.204
 31
0.0
  0
LINE
  8
0
 62
     0
 10
128.82
 20
257.204
 30
0.0
 11
126.195
 21
258.431
 31
0.0
  0
LINE
  8
0
 62
     0
 10
126.195
 20
258.431
 30
0.0
 11
123.486
 21
259.532
 31
0.0
  0
LINE
  8
0
 62
     0
 10
123.486
 20
259.532
 30
0.0
 11
120.734
 21
260.506
 31
0.0
  0
LINE
  8
0
 62
     0
 10
120.734
 20
260.506
 30
0.0
 11
117.941
 21
261.268
 31
0.0
  0
LINE
  8
0
 62
     0
 10
117.941
 20
261.268
 30
0.0
 11
115.062
 21
261.945
 31
0.0
  0
LINE
  8
0
 62
     0
 10
115.062
 20
261.945
 30
0.0
 11
112.183
 21
262.41
 31
0.0
  0
LINE
  8
0
 62
     0
 10
112.183
 20
262.41
 30
0.0
 11
109.305
 21
262.749
 31
0.0
  0
LINE
  8
0
 62
     0
 10
109.305
 20
262.749
 30
0.0
 11
106.383
 21
262.876
 31
0.0
  0
LINE
  8
0
 62
     0
 10
106.383
 20
262.876
 30
0.0
 11
103.463
 21
262.876
 31
0.0
  0
LINE
  8
0
 62
     0
 10
103.463
 20
262.876
 30
0.0
 11
100.542
 21
262.749
 31
0.0
  0
LINE
  8
0
 62
     0
 10
100.542
 20
262.749
 30
0.0
 11
97.663
 21
262.41
 31
0.0
  0
LINE
  8
0
 62
     0
 10
97.663
 20
262.41
 30
0.0
 11
94.7843
 21
261.945
 31
0.0
  0
LINE
  8
0
 62
     0
 10
94.7843
 20
261.945
 30
0.0
 11
91.9057
 21
261.268
 31
0.0
  0
LINE
  8
0
 62
     0
 10
91.9057
 20
261.268
 30
0.0
 11
89.1124
 21
260.506
 31
0.0
  0
LINE
  8
0
 62
     0
 10
89.1124
 20
260.506
 30
0.0
 11
86.3604
 21
259.532
 31
0.0
  0
LINE
  8
0
 62
     0
 10
86.3604
 20
259.532
 30
0.0
 11
83.651
 21
258.431
 31
0.0
  0
LINE
  8
0
 62
     0
 10
83.651
 20
258.431
 30
0.0
 11
81.026
 21
257.204
 31
0.0
  0
LINE
  8
0
 62
     0
 10
81.026
 20
257.204
 30
0.0
 11
78.4433
 21
255.807
 31
0.0
  0
LINE
  8
0
 62
     0
 10
78.4433
 20
255.807
 30
0.0
 11
75.9464
 21
254.283
 31
0.0
  0
LINE
  8
0
 62
     0
 10
75.9464
 20
254.283
 30
0.0
 11
73.5334
 21
252.632
 31
0.0
  0
LINE
  8
0
 62
     0
 10
73.5334
 20
252.632
 30
0.0
 11
71.2474
 21
250.811
 31
0.0
  0
LINE
  8
0
 62
     0
 10
138.599
 20
250.811
 30
0.0
 11
136.313
 21
252.632
 31
0.0
  0
LINE
  8
0
 62
     0
 10
136.313
 20
252.632
 30
0.0
 11
133.9
 21
254.283
 31
0.0
  0
LINE
  8
0
 62
     0
 10
133.9
 20
254.283
 30
0.0
 11
131.403
 21
255.807
 31
0.0
  0
LINE
  8
0
 62
     0
 10
131.403
 20
255.807
 30
0.0
 11
128.82
 21
257.204
 31
0.0
  0
LINE
  8
0
 62
     0
 10
128.82
 20
257.204
 30
0.0
 11
126.195
 21
258.431
 31
0.0
  0
LINE
  8
0
 62
     0
 10
126.195
 20
258.431
 30
0.0
 11
123.486
 21
259.532
 31
0.0
  0
LINE
  8
0
 62
     0
 10
123.486
 20
259.532
 30
0.0
 11
120.734
 21
260.506
 31
0.0
  0
LINE
  8
0
 62
     0
 10
120.734
 20
260.506
 30
0.0
 11
117.941
 21
261.268
 31
0.0
  0
LINE
  8
0
 62
     0
 10
117.941
 20
261.268
 30
0.0
 11
115.062
 21
261.945
 31
0.0
  0
LINE
  8
0
 62
     0
 10
115.062
 20
261.945
 30
0.0
 11
112.183
 21
262.41
 31
0.0
  0
LINE
  8
0
 62
     0
 10
112.183
 20
262.41
 30
0.0
 11
109.305
 21
262.749
 31
0.0
  0
LINE
  8
0
 62
     0
 10
109.305
 20
262.749
 30
0.0
 11
106.383
 21
262.876
 31
0.0
  0
LINE
  8
0
 62
     0
 10
106.383
 20
262.876
 30
0.0
 11
103.463
 21
262.876
 31
0.0
  0
LINE
  8
0
 62
     0
 10
103.463
 20
262.876
 30
0.0
 11
100.542
 21
262.749
 31
0.0
  0
LINE
  8
0
 62
     0
 10
100.542
 20
262.749
 30
0.0
 11
97.663
 21
262.41
 31
0.0
  0
LINE
  8
0
 62
     0
 10
97.663
 20
262.41
 30
0.0
 11
94.7843
 21
261.945
 31
0.0
  0
LINE
  8
0
 62
     0
 10
94.7843
 20
261.945
 30
0.0
 11
91.9057
 21
261.268
 31
0.0
  0
LINE
  8
0
 62
     0
 10
91.9057
 20
261.268
 30
0.0
 11
89.1124
 21
260.506
 31
0.0
  0
LINE
  8
0
 62
     0
 10
89.1124
 20
260.506
 30
0.0
 11
86.3604
 21
259.532
 31
0.0
  0
LINE
  8
0
 62
     0
 10
86.3604
 20
259.532
 30
0.0
 11
83.651
 21
258.431
 31
0.0
  0
LINE
  8
0
 62
     0
 10
83.651
 20
258.431
 30
0.0
 11
81.026
 21
257.204
 31
0.0
  0
LINE
  8
0
 62
     0
 10
81.026
 20
257.204
 30
0.0
 11
78.4433
 21
255.807
 31
0.0
  0
LINE
  8
0
 62
     0
 10
78.4433
 20
255.807
 30
0.0
 11
75.9464
 21
254.283
 31
0.0
  0
LINE
  8
0
 62
     0
 10
75.9464
 20
254.283
 30
0.0
 11
73.5334
 21
252.632
 31
0.0
  0
LINE
  8
0
 62
     0
 10
73.5334
 20
252.632
 30
0.0
 11
71.2474
 21
250.811
 31
0.0
  0
LINE
  8
0
 62
     0
 10
89.1963
 20
260.506
 30
0.0
 11
86.826
 21
259.701
 31
0.0
  0
LINE
  8
0
 62
     0
 10
86.826
 20
259.701
 30
0.0
 11
84.4973
 21
258.812
 31
0.0
  0
LINE
  8
0
 62
     0
 10
84.4973
 20
258.812
 30
0.0
 11
82.211
 21
257.797
 31
0.0
  0
LINE
  8
0
 62
     0
 10
138.599
 20
250.811
 30
0.0
 11
136.313
 21
252.632
 31
0.0
  0
LINE
  8
0
 62
     0
 10
136.313
 20
252.632
 30
0.0
 11
133.9
 21
254.283
 31
0.0
  0
LINE
  8
0
 62
     0
 10
133.9
 20
254.283
 30
0.0
 11
131.403
 21
255.807
 31
0.0
  0
LINE
  8
0
 62
     0
 10
131.403
 20
255.807
 30
0.0
 11
128.82
 21
257.204
 31
0.0
  0
LINE
  8
0
 62
     0
 10
128.82
 20
257.204
 30
0.0
 11
126.195
 21
258.431
 31
0.0
  0
LINE
  8
0
 62
     0
 10
126.195
 20
258.431
 30
0.0
 11
123.486
 21
259.532
 31
0.0
  0
LINE
  8
0
 62
     0
 10
123.486
 20
259.532
 30
0.0
 11
120.734
 21
260.506
 31
0.0
  0
LINE
  8
0
 62
     0
 10
120.734
 20
260.506
 30
0.0
 11
117.941
 21
261.268
 31
0.0
  0
LINE
  8
0
 62
     0
 10
117.941
 20
261.268
 30
0.0
 11
115.062
 21
261.945
 31
0.0
  0
LINE
  8
0
 62
     0
 10
115.062
 20
261.945
 30
0.0
 11
112.183
 21
262.41
 31
0.0
  0
LINE
  8
0
 62
     0
 10
112.183
 20
262.41
 30
0.0
 11
109.305
 21
262.749
 31
0.0
  0
LINE
  8
0
 62
     0
 10
109.305
 20
262.749
 30
0.0
 11
106.383
 21
262.876
 31
0.0
  0
LINE
  8
0
 62
     0
 10
106.383
 20
262.876
 30
0.0
 11
103.463
 21
262.876
 31
0.0
  0
LINE
  8
0
 62
     0
 10
103.463
 20
262.876
 30
0.0
 11
100.542
 21
262.749
 31
0.0
  0
LINE
  8
0
 62
     0
 10
100.542
 20
262.749
 30
0.0
 11
97.663
 21
262.41
 31
0.0
  0
LINE
  8
0
 62
     0
 10
97.663
 20
262.41
 30
0.0
 11
94.7843
 21
261.945
 31
0.0
  0
LINE
  8
0
 62
     0
 10
94.7843
 20
261.945
 30
0.0
 11
91.9057
 21
261.268
 31
0.0
  0
LINE
  8
0
 62
     0
 10
91.9057
 20
261.268
 30
0.0
 11
89.1124
 21
260.506
 31
0.0
  0
LINE
  8
0
 62
     0
 10
89.1124
 20
260.506
 30
0.0
 11
86.3604
 21
259.532
 31
0.0
  0
LINE
  8
0
 62
     0
 10
86.3604
 20
259.532
 30
0.0
 11
83.651
 21
258.431
 31
0.0
  0
LINE
  8
0
 62
     0
 10
83.651
 20
258.431
 30
0.0
 11
81.026
 21
257.204
 31
0.0
  0
LINE
  8
0
 62
     0
 10
81.026
 20
257.204
 30
0.0
 11
78.4433
 21
255.807
 31
0.0
  0
LINE
  8
0
 62
     0
 10
78.4433
 20
255.807
 30
0.0
 11
75.9464
 21
254.283
 31
0.0
  0
LINE
  8
0
 62
     0
 10
75.9464
 20
254.283
 30
0.0
 11
73.5334
 21
252.632
 31
0.0
  0
LINE
  8
0
 62
     0
 10
73.5334
 20
252.632
 30
0.0
 11
71.2474
 21
250.811
 31
0.0
  0
LINE
  8
0
 62
     0
 10
128.355
 20
259.658
 30
0.0
 11
127.635
 21
257.797
 31
0.0
  0
LINE
  8
0
 62
     0
 10
138.599
 20
250.811
 30
0.0
 11
136.313
 21
252.632
 31
0.0
  0
LINE
  8
0
 62
     0
 10
136.313
 20
252.632
 30
0.0
 11
133.9
 21
254.283
 31
0.0
  0
LINE
  8
0
 62
     0
 10
133.9
 20
254.283
 30
0.0
 11
131.403
 21
255.807
 31
0.0
  0
LINE
  8
0
 62
     0
 10
131.403
 20
255.807
 30
0.0
 11
128.82
 21
257.204
 31
0.0
  0
LINE
  8
0
 62
     0
 10
128.82
 20
257.204
 30
0.0
 11
126.195
 21
258.431
 31
0.0
  0
LINE
  8
0
 62
     0
 10
126.195
 20
258.431
 30
0.0
 11
123.486
 21
259.532
 31
0.0
  0
LINE
  8
0
 62
     0
 10
123.486
 20
259.532
 30
0.0
 11
120.734
 21
260.506
 31
0.0
  0
LINE
  8
0
 62
     0
 10
120.734
 20
260.506
 30
0.0
 11
117.941
 21
261.268
 31
0.0
  0
LINE
  8
0
 62
     0
 10
117.941
 20
261.268
 30
0.0
 11
115.062
 21
261.945
 31
0.0
  0
LINE
  8
0
 62
     0
 10
115.062
 20
261.945
 30
0.0
 11
112.183
 21
262.41
 31
0.0
  0
LINE
  8
0
 62
     0
 10
112.183
 20
262.41
 30
0.0
 11
109.305
 21
262.749
 31
0.0
  0
LINE
  8
0
 62
     0
 10
109.305
 20
262.749
 30
0.0
 11
106.383
 21
262.876
 31
0.0
  0
LINE
  8
0
 62
     0
 10
106.383
 20
262.876
 30
0.0
 11
103.463
 21
262.876
 31
0.0
  0
LINE
  8
0
 62
     0
 10
103.463
 20
262.876
 30
0.0
 11
100.542
 21
262.749
 31
0.0
  0
LINE
  8
0
 62
     0
 10
100.542
 20
262.749
 30
0.0
 11
97.663
 21
262.41
 31
0.0
  0
LINE
  8
0
 62
     0
 10
97.663
 20
262.41
 30
0.0
 11
94.7843
 21
261.945
 31
0.0
  0
LINE
  8
0
 62
     0
 10
94.7843
 20
261.945
 30
0.0
 11
91.9057
 21
261.268
 31
0.0
  0
LINE
  8
0
 62
     0
 10
91.9057
 20
261.268
 30
0.0
 11
89.1124
 21
260.506
 31
0.0
  0
LINE
  8
0
 62
     0
 10
89.1124
 20
260.506
 30
0.0
 11
86.3604
 21
259.532
 31
0.0
  0
LINE
  8
0
 62
     0
 10
86.3604
 20
259.532
 30
0.0
 11
83.651
 21
258.431
 31
0.0
  0
LINE
  8
0
 62
     0
 10
83.651
 20
258.431
 30
0.0
 11
81.026
 21
257.204
 31
0.0
  0
LINE
  8
0
 62
     0
 10
81.026
 20
257.204
 30
0.0
 11
78.4433
 21
255.807
 31
0.0
  0
LINE
  8
0
 62
     0
 10
78.4433
 20
255.807
 30
0.0
 11
75.9464
 21
254.283
 31
0.0
  0
LINE
  8
0
 62
     0
 10
75.9464
 20
254.283
 30
0.0
 11
73.5334
 21
252.632
 31
0.0
  0
LINE
  8
0
 62
     0
 10
73.5334
 20
252.632
 30
0.0
 11
71.2474
 21
250.811
 31
0.0
  0
LINE
  8
0
 62
     0
 10
138.599
 20
250.811
 30
0.0
 11
139.657
 21
250.811
 31
0.0
  0
LINE
  8
0
 62
     0
 10
139.657
 20
250.811
 30
0.0
 11
139.657
 21
225.834
 31
0.0
  0
LINE
  8
0
 62
     0
 10
139.657
 20
225.834
 30
0.0
 11
141.647
 21
225.834
 31
0.0
  0
LINE
  8
0
 62
     0
 10
141.647
 20
225.834
 30
0.0
 11
141.647
 21
248.102
 31
0.0
  0
LINE
  8
0
 62
     0
 10
153.458
 20
231.169
 30
0.0
 11
152.188
 21
233.835
 31
0.0
  0
LINE
  8
0
 62
     0
 10
152.188
 20
233.835
 30
0.0
 11
150.792
 21
236.46
 31
0.0
  0
LINE
  8
0
 62
     0
 10
150.792
 20
236.46
 30
0.0
 11
149.225
 21
239
 31
0.0
  0
LINE
  8
0
 62
     0
 10
149.225
 20
239
 30
0.0
 11
147.531
 21
241.413
 31
0.0
  0
LINE
  8
0
 62
     0
 10
147.531
 20
241.413
 30
0.0
 11
145.711
 21
243.742
 31
0.0
  0
LINE
  8
0
 62
     0
 10
145.711
 20
243.742
 30
0.0
 11
143.764
 21
245.985
 31
0.0
  0
LINE
  8
0
 62
     0
 10
143.764
 20
245.985
 30
0.0
 11
141.647
 21
248.102
 31
0.0
  0
LINE
  8
0
 62
     0
 10
153.458
 20
231.169
 30
0.0
 11
153.458
 21
188.666
 31
0.0
  0
LINE
  8
0
 62
     0
 10
156.337
 20
229.475
 30
0.0
 11
153.458
 21
228.586
 31
0.0
  0
LINE
  8
0
 62
     0
 10
68.199
 20
248.102
 30
0.0
 11
66.0823
 21
245.985
 31
0.0
  0
LINE
  8
0
 62
     0
 10
66.0823
 20
245.985
 30
0.0
 11
64.1354
 21
243.742
 31
0.0
  0
LINE
  8
0
 62
     0
 10
64.1354
 20
243.742
 30
0.0
 11
62.315
 21
241.413
 31
0.0
  0
LINE
  8
0
 62
     0
 10
62.315
 20
241.413
 30
0.0
 11
60.6213
 21
239
 31
0.0
  0
LINE
  8
0
 62
     0
 10
60.6213
 20
239
 30
0.0
 11
59.0543
 21
236.46
 31
0.0
  0
LINE
  8
0
 62
     0
 10
59.0543
 20
236.46
 30
0.0
 11
57.6584
 21
233.835
 31
0.0
  0
LINE
  8
0
 62
     0
 10
57.6584
 20
233.835
 30
0.0
 11
56.388
 21
231.169
 31
0.0
  0
LINE
  8
0
 62
     0
 10
56.388
 20
231.169
 30
0.0
 11
56.388
 21
188.666
 31
0.0
  0
LINE
  8
0
 62
     0
 10
56.388
 20
188.666
 30
0.0
 11
56.388
 21
231.169
 31
0.0
  0
LINE
  8
0
 62
     0
 10
56.388
 20
231.169
 30
0.0
 11
56.388
 21
188.666
 31
0.0
  0
LINE
  8
0
 62
     0
 10
56.388
 20
188.666
 30
0.0
 11
56.388
 21
231.169
 31
0.0
  0
LINE
  8
0
 62
     0
 10
56.388
 20
231.169
 30
0.0
 11
56.388
 21
188.666
 31
0.0
  0
LINE
  8
0
 62
     0
 10
56.388
 20
188.666
 30
0.0
 11
57.6584
 21
185.957
 31
0.0
  0
LINE
  8
0
 62
     0
 10
57.6584
 20
185.957
 30
0.0
 11
59.0543
 21
183.374
 31
0.0
  0
LINE
  8
0
 62
     0
 10
59.0543
 20
183.374
 30
0.0
 11
60.6213
 21
180.835
 31
0.0
  0
LINE
  8
0
 62
     0
 10
60.6213
 20
180.835
 30
0.0
 11
62.315
 21
178.422
 31
0.0
  0
LINE
  8
0
 62
     0
 10
62.315
 20
178.422
 30
0.0
 11
64.1354
 21
176.05
 31
0.0
  0
LINE
  8
0
 62
     0
 10
64.1354
 20
176.05
 30
0.0
 11
66.0823
 21
173.849
 31
0.0
  0
LINE
  8
0
 62
     0
 10
66.0823
 20
173.849
 30
0.0
 11
68.199
 21
171.733
 31
0.0
  0
LINE
  8
0
 62
     0
 10
68.199
 20
171.733
 30
0.0
 11
68.199
 21
248.102
 31
0.0
  0
LINE
  8
0
 62
     0
 10
81.4917
 20
160.175
 30
0.0
 11
82.211
 21
162.038
 31
0.0
  0
LINE
  8
0
 62
     0
 10
71.2474
 20
168.981
 30
0.0
 11
73.5334
 21
167.203
 31
0.0
  0
LINE
  8
0
 62
     0
 10
73.5334
 20
167.203
 30
0.0
 11
75.9464
 21
165.552
 31
0.0
  0
LINE
  8
0
 62
     0
 10
75.9464
 20
165.552
 30
0.0
 11
78.4433
 21
163.985
 31
0.0
  0
LINE
  8
0
 62
     0
 10
78.4433
 20
163.985
 30
0.0
 11
81.026
 21
162.631
 31
0.0
  0
LINE
  8
0
 62
     0
 10
81.026
 20
162.631
 30
0.0
 11
83.651
 21
161.36
 31
0.0
  0
LINE
  8
0
 62
     0
 10
83.651
 20
161.36
 30
0.0
 11
86.3604
 21
160.26
 31
0.0
  0
LINE
  8
0
 62
     0
 10
86.3604
 20
160.26
 30
0.0
 11
89.1124
 21
159.329
 31
0.0
  0
LINE
  8
0
 62
     0
 10
89.1124
 20
159.329
 30
0.0
 11
91.9057
 21
158.524
 31
0.0
  0
LINE
  8
0
 62
     0
 10
91.9057
 20
158.524
 30
0.0
 11
94.7843
 21
157.889
 31
0.0
  0
LINE
  8
0
 62
     0
 10
94.7843
 20
157.889
 30
0.0
 11
97.663
 21
157.424
 31
0.0
  0
LINE
  8
0
 62
     0
 10
97.663
 20
157.424
 30
0.0
 11
100.542
 21
157.085
 31
0.0
  0
LINE
  8
0
 62
     0
 10
100.542
 20
157.085
 30
0.0
 11
103.463
 21
156.916
 31
0.0
  0
LINE
  8
0
 62
     0
 10
103.463
 20
156.916
 30
0.0
 11
106.383
 21
156.916
 31
0.0
  0
LINE
  8
0
 62
     0
 10
106.383
 20
156.916
 30
0.0
 11
109.305
 21
157.085
 31
0.0
  0
LINE
  8
0
 62
     0
 10
109.305
 20
157.085
 30
0.0
 11
112.183
 21
157.424
 31
0.0
  0
LINE
  8
0
 62
     0
 10
112.183
 20
157.424
 30
0.0
 11
115.062
 21
157.889
 31
0.0
  0
LINE
  8
0
 62
     0
 10
115.062
 20
157.889
 30
0.0
 11
117.941
 21
158.524
 31
0.0
  0
LINE
  8
0
 62
     0
 10
117.941
 20
158.524
 30
0.0
 11
120.734
 21
159.329
 31
0.0
  0
LINE
  8
0
 62
     0
 10
120.734
 20
159.329
 30
0.0
 11
123.486
 21
160.26
 31
0.0
  0
LINE
  8
0
 62
     0
 10
123.486
 20
160.26
 30
0.0
 11
126.195
 21
161.36
 31
0.0
  0
LINE
  8
0
 62
     0
 10
126.195
 20
161.36
 30
0.0
 11
128.82
 21
162.631
 31
0.0
  0
LINE
  8
0
 62
     0
 10
128.82
 20
162.631
 30
0.0
 11
131.403
 21
163.985
 31
0.0
  0
LINE
  8
0
 62
     0
 10
131.403
 20
163.985
 30
0.0
 11
133.9
 21
165.552
 31
0.0
  0
LINE
  8
0
 62
     0
 10
133.9
 20
165.552
 30
0.0
 11
136.313
 21
167.203
 31
0.0
  0
LINE
  8
0
 62
     0
 10
136.313
 20
167.203
 30
0.0
 11
138.599
 21
168.981
 31
0.0
  0
LINE
  8
0
 62
     0
 10
71.2474
 20
168.981
 30
0.0
 11
70.189
 21
168.981
 31
0.0
  0
LINE
  8
0
 62
     0
 10
70.189
 20
168.981
 30
0.0
 11
70.189
 21
194
 31
0.0
  0
LINE
  8
0
 62
     0
 10
70.189
 20
194
 30
0.0
 11
68.199
 21
194
 31
0.0
  0
LINE
  8
0
 62
     0
 10
68.199
 20
194
 30
0.0
 11
68.199
 21
171.733
 31
0.0
  0
LINE
  8
0
 62
     0
 10
56.388
 20
188.666
 30
0.0
 11
57.6584
 21
185.957
 31
0.0
  0
LINE
  8
0
 62
     0
 10
57.6584
 20
185.957
 30
0.0
 11
59.0543
 21
183.374
 31
0.0
  0
LINE
  8
0
 62
     0
 10
59.0543
 20
183.374
 30
0.0
 11
60.6213
 21
180.835
 31
0.0
  0
LINE
  8
0
 62
     0
 10
60.6213
 20
180.835
 30
0.0
 11
62.315
 21
178.422
 31
0.0
  0
LINE
  8
0
 62
     0
 10
62.315
 20
178.422
 30
0.0
 11
64.1354
 21
176.05
 31
0.0
  0
LINE
  8
0
 62
     0
 10
64.1354
 20
176.05
 30
0.0
 11
66.0823
 21
173.849
 31
0.0
  0
LINE
  8
0
 62
     0
 10
66.0823
 20
173.849
 30
0.0
 11
68.199
 21
171.733
 31
0.0
  0
LINE
  8
0
 62
     0
 10
56.388
 20
188.666
 30
0.0
 11
56.388
 21
231.169
 31
0.0
  0
LINE
  8
0
 62
     0
 10
53.5093
 20
190.36
 30
0.0
 11
56.388
 21
191.248
 31
0.0
  0
LINE
  8
0
 62
     0
 10
156.337
 20
190.36
 30
0.0
 11
153.458
 21
191.248
 31
0.0
  0
LINE
  8
0
 62
     0
 10
153.458
 20
231.169
 30
0.0
 11
153.458
 21
188.666
 31
0.0
  0
LINE
  8
0
 62
     0
 10
141.647
 20
171.733
 30
0.0
 11
143.764
 21
173.849
 31
0.0
  0
LINE
  8
0
 62
     0
 10
143.764
 20
173.849
 30
0.0
 11
145.711
 21
176.05
 31
0.0
  0
LINE
  8
0
 62
     0
 10
145.711
 20
176.05
 30
0.0
 11
147.531
 21
178.422
 31
0.0
  0
LINE
  8
0
 62
     0
 10
147.531
 20
178.422
 30
0.0
 11
149.225
 21
180.835
 31
0.0
  0
LINE
  8
0
 62
     0
 10
149.225
 20
180.835
 30
0.0
 11
150.792
 21
183.374
 31
0.0
  0
LINE
  8
0
 62
     0
 10
150.792
 20
183.374
 30
0.0
 11
152.188
 21
185.957
 31
0.0
  0
LINE
  8
0
 62
     0
 10
152.188
 20
185.957
 30
0.0
 11
153.458
 21
188.666
 31
0.0
  0
LINE
  8
0
 62
     0
 10
141.647
 20
171.733
 30
0.0
 11
141.647
 21
194
 31
0.0
  0
LINE
  8
0
 62
     0
 10
141.647
 20
194
 30
0.0
 11
139.657
 21
194
 31
0.0
  0
LINE
  8
0
 62
     0
 10
139.657
 20
194
 30
0.0
 11
139.657
 21
168.981
 31
0.0
  0
LINE
  8
0
 62
     0
 10
139.657
 20
168.981
 30
0.0
 11
138.599
 21
168.981
 31
0.0
  0
LINE
  8
0
 62
     0
 10
71.2474
 20
168.981
 30
0.0
 11
73.5334
 21
167.203
 31
0.0
  0
LINE
  8
0
 62
     0
 10
73.5334
 20
167.203
 30
0.0
 11
75.9464
 21
165.552
 31
0.0
  0
LINE
  8
0
 62
     0
 10
75.9464
 20
165.552
 30
0.0
 11
78.4433
 21
163.985
 31
0.0
  0
LINE
  8
0
 62
     0
 10
78.4433
 20
163.985
 30
0.0
 11
81.026
 21
162.631
 31
0.0
  0
LINE
  8
0
 62
     0
 10
81.026
 20
162.631
 30
0.0
 11
83.651
 21
161.36
 31
0.0
  0
LINE
  8
0
 62
     0
 10
83.651
 20
161.36
 30
0.0
 11
86.3604
 21
160.26
 31
0.0
  0
LINE
  8
0
 62
     0
 10
86.3604
 20
160.26
 30
0.0
 11
89.1124
 21
159.329
 31
0.0
  0
LINE
  8
0
 62
     0
 10
89.1124
 20
159.329
 30
0.0
 11
91.9057
 21
158.524
 31
0.0
  0
LINE
  8
0
 62
     0
 10
91.9057
 20
158.524
 30
0.0
 11
94.7843
 21
157.889
 31
0.0
  0
LINE
  8
0
 62
     0
 10
94.7843
 20
157.889
 30
0.0
 11
97.663
 21
157.424
 31
0.0
  0
LINE
  8
0
 62
     0
 10
97.663
 20
157.424
 30
0.0
 11
100.542
 21
157.085
 31
0.0
  0
LINE
  8
0
 62
     0
 10
100.542
 20
157.085
 30
0.0
 11
103.463
 21
156.916
 31
0.0
  0
LINE
  8
0
 62
     0
 10
103.463
 20
156.916
 30
0.0
 11
106.383
 21
156.916
 31
0.0
  0
LINE
  8
0
 62
     0
 10
106.383
 20
156.916
 30
0.0
 11
109.305
 21
157.085
 31
0.0
  0
LINE
  8
0
 62
     0
 10
109.305
 20
157.085
 30
0.0
 11
112.183
 21
157.424
 31
0.0
  0
LINE
  8
0
 62
     0
 10
112.183
 20
157.424
 30
0.0
 11
115.062
 21
157.889
 31
0.0
  0
LINE
  8
0
 62
     0
 10
115.062
 20
157.889
 30
0.0
 11
117.941
 21
158.524
 31
0.0
  0
LINE
  8
0
 62
     0
 10
117.941
 20
158.524
 30
0.0
 11
120.734
 21
159.329
 31
0.0
  0
LINE
  8
0
 62
     0
 10
120.734
 20
159.329
 30
0.0
 11
123.486
 21
160.26
 31
0.0
  0
LINE
  8
0
 62
     0
 10
123.486
 20
160.26
 30
0.0
 11
126.195
 21
161.36
 31
0.0
  0
LINE
  8
0
 62
     0
 10
126.195
 20
161.36
 30
0.0
 11
128.82
 21
162.631
 31
0.0
  0
LINE
  8
0
 62
     0
 10
128.82
 20
162.631
 30
0.0
 11
131.403
 21
163.985
 31
0.0
  0
LINE
  8
0
 62
     0
 10
131.403
 20
163.985
 30
0.0
 11
133.9
 21
165.552
 31
0.0
  0
LINE
  8
0
 62
     0
 10
133.9
 20
165.552
 30
0.0
 11
136.313
 21
167.203
 31
0.0
  0
LINE
  8
0
 62
     0
 10
136.313
 20
167.203
 30
0.0
 11
138.599
 21
168.981
 31
0.0
  0
LINE
  8
0
 62
     0
 10
128.355
 20
160.175
 30
0.0
 11
127.635
 21
162.038
 31
0.0
  0
LINE
  8
0
 62
     0
 10
68.199
 20
198.996
 30
0.0
 11
70.189
 21
198.996
 31
0.0
  0
LINE
  8
0
 62
     0
 10
70.189
 20
198.996
 30
0.0
 11
70.189
 21
220.839
 31
0.0
  0
LINE
  8
0
 62
     0
 10
70.189
 20
220.839
 30
0.0
 11
68.199
 21
220.839
 31
0.0
  0
LINE
  8
0
 62
     0
 10
68.199
 20
220.839
 30
0.0
 11
68.199
 21
198.996
 31
0.0
  0
LINE
  8
0
 62
     0
 10
139.657
 20
198.996
 30
0.0
 11
141.647
 21
198.996
 31
0.0
  0
LINE
  8
0
 62
     0
 10
141.647
 20
198.996
 30
0.0
 11
141.647
 21
220.839
 31
0.0
  0
LINE
  8
0
 62
     0
 10
141.647
 20
220.839
 30
0.0
 11
139.657
 21
220.839
 31
0.0
  0
LINE
  8
0
 62
     0
 10
139.657
 20
220.839
 30
0.0
 11
139.657
 21
198.996
 31
0.0
  0
LINE
  8
0
 62
     0
 10
141.647
 20
171.733
 30
0.0
 11
143.764
 21
173.849
 31
0.0
  0
LINE
  8
0
 62
     0
 10
143.764
 20
173.849
 30
0.0
 11
145.711
 21
176.05
 31
0.0
  0
LINE
  8
0
 62
     0
 10
145.711
 20
176.05
 30
0.0
 11
147.531
 21
178.422
 31
0.0
  0
LINE
  8
0
 62
     0
 10
147.531
 20
178.422
 30
0.0
 11
149.225
 21
180.835
 31
0.0
  0
LINE
  8
0
 62
     0
 10
149.225
 20
180.835
 30
0.0
 11
150.792
 21
183.374
 31
0.0
  0
LINE
  8
0
 62
     0
 10
150.792
 20
183.374
 30
0.0
 11
152.188
 21
185.957
 31
0.0
  0
LINE
  8
0
 62
     0
 10
152.188
 20
185.957
 30
0.0
 11
153.458
 21
188.666
 31
0.0
  0
LINE
  8
0
 62
     0
 10
153.458
 20
188.666
 30
0.0
 11
153.458
 21
231.169
 31
0.0
  0
LINE
  8
0
 62
     0
 10
153.458
 20
231.169
 30
0.0
 11
153.458
 21
188.666
 31
0.0
  0
LINE
  8
0
 62
     0
 10
153.458
 20
188.666
 30
0.0
 11
153.458
 21
231.169
 31
0.0
  0
LINE
  8
0
 62
     0
 10
153.458
 20
231.169
 30
0.0
 11
153.458
 21
188.666
 31
0.0
  0
LINE
  8
0
 62
     0
 10
153.458
 20
188.666
 30
0.0
 11
153.458
 21
231.169
 31
0.0
  0
LINE
  8
0
 62
     0
 10
153.458
 20
231.169
 30
0.0
 11
152.188
 21
233.835
 31
0.0
  0
LINE
  8
0
 62
     0
 10
152.188
 20
233.835
 30
0.0
 11
150.792
 21
236.46
 31
0.0
  0
LINE
  8
0
 62
     0
 10
150.792
 20
236.46
 30
0.0
 11
149.225
 21
239
 31
0.0
  0
LINE
  8
0
 62
     0
 10
149.225
 20
239
 30
0.0
 11
147.531
 21
241.413
 31
0.0
  0
LINE
  8
0
 62
     0
 10
147.531
 20
241.413
 30
0.0
 11
145.711
 21
243.742
 31
0.0
  0
LINE
  8
0
 62
     0
 10
145.711
 20
243.742
 30
0.0
 11
143.764
 21
245.985
 31
0.0
  0
LINE
  8
0
 62
     0
 10
143.764
 20
245.985
 30
0.0
 11
141.647
 21
248.102
 31
0.0
  0
LINE
  8
0
 62
     0
 10
141.647
 20
248.102
 30
0.0
 11
141.647
 21
171.733
 31
0.0
  0
LINE
  8
0
 62
     0
 10
81.4917
 20
259.658
 30
0.0
 11
82.211
 21
257.797
 31
0.0
  0
LINE
  8
0
 62
     0
 10
138.599
 20
250.811
 30
0.0
 11
136.313
 21
252.632
 31
0.0
  0
LINE
  8
0
 62
     0
 10
136.313
 20
252.632
 30
0.0
 11
133.9
 21
254.283
 31
0.0
  0
LINE
  8
0
 62
     0
 10
133.9
 20
254.283
 30
0.0
 11
131.403
 21
255.807
 31
0.0
  0
LINE
  8
0
 62
     0
 10
131.403
 20
255.807
 30
0.0
 11
128.82
 21
257.204
 31
0.0
  0
LINE
  8
0
 62
     0
 10
128.82
 20
257.204
 30
0.0
 11
126.195
 21
258.431
 31
0.0
  0
LINE
  8
0
 62
     0
 10
126.195
 20
258.431
 30
0.0
 11
123.486
 21
259.532
 31
0.0
  0
LINE
  8
0
 62
     0
 10
123.486
 20
259.532
 30
0.0
 11
120.734
 21
260.506
 31
0.0
  0
LINE
  8
0
 62
     0
 10
120.734
 20
260.506
 30
0.0
 11
117.941
 21
261.268
 31
0.0
  0
LINE
  8
0
 62
     0
 10
117.941
 20
261.268
 30
0.0
 11
115.062
 21
261.945
 31
0.0
  0
LINE
  8
0
 62
     0
 10
115.062
 20
261.945
 30
0.0
 11
112.183
 21
262.41
 31
0.0
  0
LINE
  8
0
 62
     0
 10
112.183
 20
262.41
 30
0.0
 11
109.305
 21
262.749
 31
0.0
  0
LINE
  8
0
 62
     0
 10
109.305
 20
262.749
 30
0.0
 11
106.383
 21
262.876
 31
0.0
  0
LINE
  8
0
 62
     0
 10
106.383
 20
262.876
 30
0.0
 11
103.463
 21
262.876
 31
0.0
  0
LINE
  8
0
 62
     0
 10
103.463
 20
262.876
 30
0.0
 11
100.542
 21
262.749
 31
0.0
  0
LINE
  8
0
 62
     0
 10
100.542
 20
262.749
 30
0.0
 11
97.663
 21
262.41
 31
0.0
  0
LINE
  8
0
 62
     0
 10
97.663
 20
262.41
 30
0.0
 11
94.7843
 21
261.945
 31
0.0
  0
LINE
  8
0
 62
     0
 10
94.7843
 20
261.945
 30
0.0
 11
91.9057
 21
261.268
 31
0.0
  0
LINE
  8
0
 62
     0
 10
91.9057
 20
261.268
 30
0.0
 11
89.1124
 21
260.506
 31
0.0
  0
LINE
  8
0
 62
     0
 10
89.1124
 20
260.506
 30
0.0
 11
86.3604
 21
259.532
 31
0.0
  0
LINE
  8
0
 62
     0
 10
86.3604
 20
259.532
 30
0.0
 11
83.651
 21
258.431
 31
0.0
  0
LINE
  8
0
 62
     0
 10
83.651
 20
258.431
 30
0.0
 11
81.026
 21
257.204
 31
0.0
  0
LINE
  8
0
 62
     0
 10
81.026
 20
257.204
 30
0.0
 11
78.4433
 21
255.807
 31
0.0
  0
LINE
  8
0
 62
     0
 10
78.4433
 20
255.807
 30
0.0
 11
75.9464
 21
254.283
 31
0.0
  0
LINE
  8
0
 62
     0
 10
75.9464
 20
254.283
 30
0.0
 11
73.5334
 21
252.632
 31
0.0
  0
LINE
  8
0
 62
     0
 10
73.5334
 20
252.632
 30
0.0
 11
71.2474
 21
250.811
 31
0.0
  0
LINE
  8
0
 62
     0
 10
88.477
 20
262.368
 30
0.0
 11
89.1963
 21
260.506
 31
0.0
  0
LINE
  8
0
 62
     0
 10
81.4917
 20
259.658
 30
0.0
 11
82.211
 21
257.797
 31
0.0
  0
LINE
  8
0
 62
     0
 10
89.1963
 20
260.506
 30
0.0
 11
86.826
 21
259.701
 31
0.0
  0
LINE
  8
0
 62
     0
 10
86.826
 20
259.701
 30
0.0
 11
84.4973
 21
258.812
 31
0.0
  0
LINE
  8
0
 62
     0
 10
84.4973
 20
258.812
 30
0.0
 11
82.211
 21
257.797
 31
0.0
  0
LINE
  8
0
 62
     0
 10
89.1963
 20
260.506
 30
0.0
 11
88.477
 21
262.368
 31
0.0
  0
LINE
  8
0
 62
     0
 10
138.599
 20
250.811
 30
0.0
 11
136.313
 21
252.632
 31
0.0
  0
LINE
  8
0
 62
     0
 10
136.313
 20
252.632
 30
0.0
 11
133.9
 21
254.283
 31
0.0
  0
LINE
  8
0
 62
     0
 10
133.9
 20
254.283
 30
0.0
 11
131.403
 21
255.807
 31
0.0
  0
LINE
  8
0
 62
     0
 10
131.403
 20
255.807
 30
0.0
 11
128.82
 21
257.204
 31
0.0
  0
LINE
  8
0
 62
     0
 10
128.82
 20
257.204
 30
0.0
 11
126.195
 21
258.431
 31
0.0
  0
LINE
  8
0
 62
     0
 10
126.195
 20
258.431
 30
0.0
 11
123.486
 21
259.532
 31
0.0
  0
LINE
  8
0
 62
     0
 10
123.486
 20
259.532
 30
0.0
 11
120.734
 21
260.506
 31
0.0
  0
LINE
  8
0
 62
     0
 10
120.734
 20
260.506
 30
0.0
 11
117.941
 21
261.268
 31
0.0
  0
LINE
  8
0
 62
     0
 10
117.941
 20
261.268
 30
0.0
 11
115.062
 21
261.945
 31
0.0
  0
LINE
  8
0
 62
     0
 10
115.062
 20
261.945
 30
0.0
 11
112.183
 21
262.41
 31
0.0
  0
LINE
  8
0
 62
     0
 10
112.183
 20
262.41
 30
0.0
 11
109.305
 21
262.749
 31
0.0
  0
LINE
  8
0
 62
     0
 10
109.305
 20
262.749
 30
0.0
 11
106.383
 21
262.876
 31
0.0
  0
LINE
  8
0
 62
     0
 10
106.383
 20
262.876
 30
0.0
 11
103.463
 21
262.876
 31
0.0
  0
LINE
  8
0
 62
     0
 10
103.463
 20
262.876
 30
0.0
 11
100.542
 21
262.749
 31
0.0
  0
LINE
  8
0
 62
     0
 10
100.542
 20
262.749
 30
0.0
 11
97.663
 21
262.41
 31
0.0
  0
LINE
  8
0
 62
     0
 10
97.663
 20
262.41
 30
0.0
 11
94.7843
 21
261.945
 31
0.0
  0
LINE
  8
0
 62
     0
 10
94.7843
 20
261.945
 30
0.0
 11
91.9057
 21
261.268
 31
0.0
  0
LINE
  8
0
 62
     0
 10
91.9057
 20
261.268
 30
0.0
 11
89.1124
 21
260.506
 31
0.0
  0
LINE
  8
0
 62
     0
 10
89.1124
 20
260.506
 30
0.0
 11
86.3604
 21
259.532
 31
0.0
  0
LINE
  8
0
 62
     0
 10
86.3604
 20
259.532
 30
0.0
 11
83.651
 21
258.431
 31
0.0
  0
LINE
  8
0
 62
     0
 10
83.651
 20
258.431
 30
0.0
 11
81.026
 21
257.204
 31
0.0
  0
LINE
  8
0
 62
     0
 10
81.026
 20
257.204
 30
0.0
 11
78.4433
 21
255.807
 31
0.0
  0
LINE
  8
0
 62
     0
 10
78.4433
 20
255.807
 30
0.0
 11
75.9464
 21
254.283
 31
0.0
  0
LINE
  8
0
 62
     0
 10
75.9464
 20
254.283
 30
0.0
 11
73.5334
 21
252.632
 31
0.0
  0
LINE
  8
0
 62
     0
 10
73.5334
 20
252.632
 30
0.0
 11
71.2474
 21
250.811
 31
0.0
  0
LINE
  8
0
 62
     0
 10
138.599
 20
250.811
 30
0.0
 11
136.313
 21
252.632
 31
0.0
  0
LINE
  8
0
 62
     0
 10
136.313
 20
252.632
 30
0.0
 11
133.9
 21
254.283
 31
0.0
  0
LINE
  8
0
 62
     0
 10
133.9
 20
254.283
 30
0.0
 11
131.403
 21
255.807
 31
0.0
  0
LINE
  8
0
 62
     0
 10
131.403
 20
255.807
 30
0.0
 11
128.82
 21
257.204
 31
0.0
  0
LINE
  8
0
 62
     0
 10
128.82
 20
257.204
 30
0.0
 11
126.195
 21
258.431
 31
0.0
  0
LINE
  8
0
 62
     0
 10
126.195
 20
258.431
 30
0.0
 11
123.486
 21
259.532
 31
0.0
  0
LINE
  8
0
 62
     0
 10
123.486
 20
259.532
 30
0.0
 11
120.734
 21
260.506
 31
0.0
  0
LINE
  8
0
 62
     0
 10
120.734
 20
260.506
 30
0.0
 11
117.941
 21
261.268
 31
0.0
  0
LINE
  8
0
 62
     0
 10
117.941
 20
261.268
 30
0.0
 11
115.062
 21
261.945
 31
0.0
  0
LINE
  8
0
 62
     0
 10
115.062
 20
261.945
 30
0.0
 11
112.183
 21
262.41
 31
0.0
  0
LINE
  8
0
 62
     0
 10
112.183
 20
262.41
 30
0.0
 11
109.305
 21
262.749
 31
0.0
  0
LINE
  8
0
 62
     0
 10
109.305
 20
262.749
 30
0.0
 11
106.383
 21
262.876
 31
0.0
  0
LINE
  8
0
 62
     0
 10
106.383
 20
262.876
 30
0.0
 11
103.463
 21
262.876
 31
0.0
  0
LINE
  8
0
 62
     0
 10
103.463
 20
262.876
 30
0.0
 11
100.542
 21
262.749
 31
0.0
  0
LINE
  8
0
 62
     0
 10
100.542
 20
262.749
 30
0.0
 11
97.663
 21
262.41
 31
0.0
  0
LINE
  8
0
 62
     0
 10
97.663
 20
262.41
 30
0.0
 11
94.7843
 21
261.945
 31
0.0
  0
LINE
  8
0
 62
     0
 10
94.7843
 20
261.945
 30
0.0
 11
91.9057
 21
261.268
 31
0.0
  0
LINE
  8
0
 62
     0
 10
91.9057
 20
261.268
 30
0.0
 11
89.1124
 21
260.506
 31
0.0
  0
LINE
  8
0
 62
     0
 10
89.1124
 20
260.506
 30
0.0
 11
86.3604
 21
259.532
 31
0.0
  0
LINE
  8
0
 62
     0
 10
86.3604
 20
259.532
 30
0.0
 11
83.651
 21
258.431
 31
0.0
  0
LINE
  8
0
 62
     0
 10
83.651
 20
258.431
 30
0.0
 11
81.026
 21
257.204
 31
0.0
  0
LINE
  8
0
 62
     0
 10
81.026
 20
257.204
 30
0.0
 11
78.4433
 21
255.807
 31
0.0
  0
LINE
  8
0
 62
     0
 10
78.4433
 20
255.807
 30
0.0
 11
75.9464
 21
254.283
 31
0.0
  0
LINE
  8
0
 62
     0
 10
75.9464
 20
254.283
 30
0.0
 11
73.5334
 21
252.632
 31
0.0
  0
LINE
  8
0
 62
     0
 10
73.5334
 20
252.632
 30
0.0
 11
71.2474
 21
250.811
 31
0.0
  0
LINE
  8
0
 62
     0
 10
71.2474
 20
250.811
 30
0.0
 11
70.189
 21
250.811
 31
0.0
  0
LINE
  8
0
 62
     0
 10
70.189
 20
250.811
 30
0.0
 11
70.189
 21
225.834
 31
0.0
  0
LINE
  8
0
 62
     0
 10
70.189
 20
225.834
 30
0.0
 11
68.199
 21
225.834
 31
0.0
  0
LINE
  8
0
 62
     0
 10
68.199
 20
225.834
 30
0.0
 11
68.199
 21
220.839
 31
0.0
  0
LINE
  8
0
 62
     0
 10
68.199
 20
220.839
 30
0.0
 11
70.189
 21
220.839
 31
0.0
  0
LINE
  8
0
 62
     0
 10
70.189
 20
220.839
 30
0.0
 11
70.189
 21
198.996
 31
0.0
  0
LINE
  8
0
 62
     0
 10
70.189
 20
198.996
 30
0.0
 11
68.199
 21
198.996
 31
0.0
  0
LINE
  8
0
 62
     0
 10
68.199
 20
198.996
 30
0.0
 11
68.199
 21
194
 31
0.0
  0
LINE
  8
0
 62
     0
 10
68.199
 20
194
 30
0.0
 11
70.189
 21
194
 31
0.0
  0
LINE
  8
0
 62
     0
 10
70.189
 20
194
 30
0.0
 11
70.189
 21
168.981
 31
0.0
  0
LINE
  8
0
 62
     0
 10
70.189
 20
168.981
 30
0.0
 11
71.2474
 21
168.981
 31
0.0
  0
LINE
  8
0
 62
     0
 10
71.2474
 20
168.981
 30
0.0
 11
73.5334
 21
167.203
 31
0.0
  0
LINE
  8
0
 62
     0
 10
73.5334
 20
167.203
 30
0.0
 11
75.9464
 21
165.552
 31
0.0
  0
LINE
  8
0
 62
     0
 10
75.9464
 20
165.552
 30
0.0
 11
78.4433
 21
163.985
 31
0.0
  0
LINE
  8
0
 62
     0
 10
78.4433
 20
163.985
 30
0.0
 11
81.026
 21
162.631
 31
0.0
  0
LINE
  8
0
 62
     0
 10
81.026
 20
162.631
 30
0.0
 11
83.651
 21
161.36
 31
0.0
  0
LINE
  8
0
 62
     0
 10
83.651
 20
161.36
 30
0.0
 11
86.3604
 21
160.26
 31
0.0
  0
LINE
  8
0
 62
     0
 10
86.3604
 20
160.26
 30
0.0
 11
89.1124
 21
159.329
 31
0.0
  0
LINE
  8
0
 62
     0
 10
89.1124
 20
159.329
 30
0.0
 11
91.9057
 21
158.524
 31
0.0
  0
LINE
  8
0
 62
     0
 10
91.9057
 20
158.524
 30
0.0
 11
94.7843
 21
157.889
 31
0.0
  0
LINE
  8
0
 62
     0
 10
94.7843
 20
157.889
 30
0.0
 11
97.663
 21
157.424
 31
0.0
  0
LINE
  8
0
 62
     0
 10
97.663
 20
157.424
 30
0.0
 11
100.542
 21
157.085
 31
0.0
  0
LINE
  8
0
 62
     0
 10
100.542
 20
157.085
 30
0.0
 11
103.463
 21
156.916
 31
0.0
  0
LINE
  8
0
 62
     0
 10
103.463
 20
156.916
 30
0.0
 11
106.383
 21
156.916
 31
0.0
  0
LINE
  8
0
 62
     0
 10
106.383
 20
156.916
 30
0.0
 11
109.305
 21
157.085
 31
0.0
  0
LINE
  8
0
 62
     0
 10
109.305
 20
157.085
 30
0.0
 11
112.183
 21
157.424
 31
0.0
  0
LINE
  8
0
 62
     0
 10
112.183
 20
157.424
 30
0.0
 11
115.062
 21
157.889
 31
0.0
  0
LINE
  8
0
 62
     0
 10
115.062
 20
157.889
 30
0.0
 11
117.941
 21
158.524
 31
0.0
  0
LINE
  8
0
 62
     0
 10
117.941
 20
158.524
 30
0.0
 11
120.734
 21
159.329
 31
0.0
  0
LINE
  8
0
 62
     0
 10
120.734
 20
159.329
 30
0.0
 11
123.486
 21
160.26
 31
0.0
  0
LINE
  8
0
 62
     0
 10
123.486
 20
160.26
 30
0.0
 11
126.195
 21
161.36
 31
0.0
  0
LINE
  8
0
 62
     0
 10
126.195
 20
161.36
 30
0.0
 11
128.82
 21
162.631
 31
0.0
  0
LINE
  8
0
 62
     0
 10
128.82
 20
162.631
 30
0.0
 11
131.403
 21
163.985
 31
0.0
  0
LINE
  8
0
 62
     0
 10
131.403
 20
163.985
 30
0.0
 11
133.9
 21
165.552
 31
0.0
  0
LINE
  8
0
 62
     0
 10
133.9
 20
165.552
 30
0.0
 11
136.313
 21
167.203
 31
0.0
  0
LINE
  8
0
 62
     0
 10
136.313
 20
167.203
 30
0.0
 11
138.599
 21
168.981
 31
0.0
  0
LINE
  8
0
 62
     0
 10
71.2474
 20
168.981
 30
0.0
 11
73.5334
 21
167.203
 31
0.0
  0
LINE
  8
0
 62
     0
 10
73.5334
 20
167.203
 30
0.0
 11
75.9464
 21
165.552
 31
0.0
  0
LINE
  8
0
 62
     0
 10
75.9464
 20
165.552
 30
0.0
 11
78.4433
 21
163.985
 31
0.0
  0
LINE
  8
0
 62
     0
 10
78.4433
 20
163.985
 30
0.0
 11
81.026
 21
162.631
 31
0.0
  0
LINE
  8
0
 62
     0
 10
81.026
 20
162.631
 30
0.0
 11
83.651
 21
161.36
 31
0.0
  0
LINE
  8
0
 62
     0
 10
83.651
 20
161.36
 30
0.0
 11
86.3604
 21
160.26
 31
0.0
  0
LINE
  8
0
 62
     0
 10
86.3604
 20
160.26
 30
0.0
 11
89.1124
 21
159.329
 31
0.0
  0
LINE
  8
0
 62
     0
 10
89.1124
 20
159.329
 30
0.0
 11
91.9057
 21
158.524
 31
0.0
  0
LINE
  8
0
 62
     0
 10
91.9057
 20
158.524
 30
0.0
 11
94.7843
 21
157.889
 31
0.0
  0
LINE
  8
0
 62
     0
 10
94.7843
 20
157.889
 30
0.0
 11
97.663
 21
157.424
 31
0.0
  0
LINE
  8
0
 62
     0
 10
97.663
 20
157.424
 30
0.0
 11
100.542
 21
157.085
 31
0.0
  0
LINE
  8
0
 62
     0
 10
100.542
 20
157.085
 30
0.0
 11
103.463
 21
156.916
 31
0.0
  0
LINE
  8
0
 62
     0
 10
103.463
 20
156.916
 30
0.0
 11
106.383
 21
156.916
 31
0.0
  0
LINE
  8
0
 62
     0
 10
106.383
 20
156.916
 30
0.0
 11
109.305
 21
157.085
 31
0.0
  0
LINE
  8
0
 62
     0
 10
109.305
 20
157.085
 30
0.0
 11
112.183
 21
157.424
 31
0.0
  0
LINE
  8
0
 62
     0
 10
112.183
 20
157.424
 30
0.0
 11
115.062
 21
157.889
 31
0.0
  0
LINE
  8
0
 62
     0
 10
115.062
 20
157.889
 30
0.0
 11
117.941
 21
158.524
 31
0.0
  0
LINE
  8
0
 62
     0
 10
117.941
 20
158.524
 30
0.0
 11
120.734
 21
159.329
 31
0.0
  0
LINE
  8
0
 62
     0
 10
120.734
 20
159.329
 30
0.0
 11
123.486
 21
160.26
 31
0.0
  0
LINE
  8
0
 62
     0
 10
123.486
 20
160.26
 30
0.0
 11
126.195
 21
161.36
 31
0.0
  0
LINE
  8
0
 62
     0
 10
126.195
 20
161.36
 30
0.0
 11
128.82
 21
162.631
 31
0.0
  0
LINE
  8
0
 62
     0
 10
128.82
 20
162.631
 30
0.0
 11
131.403
 21
163.985
 31
0.0
  0
LINE
  8
0
 62
     0
 10
131.403
 20
163.985
 30
0.0
 11
133.9
 21
165.552
 31
0.0
  0
LINE
  8
0
 62
     0
 10
133.9
 20
165.552
 30
0.0
 11
136.313
 21
167.203
 31
0.0
  0
LINE
  8
0
 62
     0
 10
136.313
 20
167.203
 30
0.0
 11
138.599
 21
168.981
 31
0.0
  0
LINE
  8
0
 62
     0
 10
71.2474
 20
168.981
 30
0.0
 11
73.5334
 21
167.203
 31
0.0
  0
LINE
  8
0
 62
     0
 10
73.5334
 20
167.203
 30
0.0
 11
75.9464
 21
165.552
 31
0.0
  0
LINE
  8
0
 62
     0
 10
75.9464
 20
165.552
 30
0.0
 11
78.4433
 21
163.985
 31
0.0
  0
LINE
  8
0
 62
     0
 10
78.4433
 20
163.985
 30
0.0
 11
81.026
 21
162.631
 31
0.0
  0
LINE
  8
0
 62
     0
 10
81.026
 20
162.631
 30
0.0
 11
83.651
 21
161.36
 31
0.0
  0
LINE
  8
0
 62
     0
 10
83.651
 20
161.36
 30
0.0
 11
86.3604
 21
160.26
 31
0.0
  0
LINE
  8
0
 62
     0
 10
86.3604
 20
160.26
 30
0.0
 11
89.1124
 21
159.329
 31
0.0
  0
LINE
  8
0
 62
     0
 10
89.1124
 20
159.329
 30
0.0
 11
91.9057
 21
158.524
 31
0.0
  0
LINE
  8
0
 62
     0
 10
91.9057
 20
158.524
 30
0.0
 11
94.7843
 21
157.889
 31
0.0
  0
LINE
  8
0
 62
     0
 10
94.7843
 20
157.889
 30
0.0
 11
97.663
 21
157.424
 31
0.0
  0
LINE
  8
0
 62
     0
 10
97.663
 20
157.424
 30
0.0
 11
100.542
 21
157.085
 31
0.0
  0
LINE
  8
0
 62
     0
 10
100.542
 20
157.085
 30
0.0
 11
103.463
 21
156.916
 31
0.0
  0
LINE
  8
0
 62
     0
 10
103.463
 20
156.916
 30
0.0
 11
106.383
 21
156.916
 31
0.0
  0
LINE
  8
0
 62
     0
 10
106.383
 20
156.916
 30
0.0
 11
109.305
 21
157.085
 31
0.0
  0
LINE
  8
0
 62
     0
 10
109.305
 20
157.085
 30
0.0
 11
112.183
 21
157.424
 31
0.0
  0
LINE
  8
0
 62
     0
 10
112.183
 20
157.424
 30
0.0
 11
115.062
 21
157.889
 31
0.0
  0
LINE
  8
0
 62
     0
 10
115.062
 20
157.889
 30
0.0
 11
117.941
 21
158.524
 31
0.0
  0
LINE
  8
0
 62
     0
 10
117.941
 20
158.524
 30
0.0
 11
120.734
 21
159.329
 31
0.0
  0
LINE
  8
0
 62
     0
 10
120.734
 20
159.329
 30
0.0
 11
123.486
 21
160.26
 31
0.0
  0
LINE
  8
0
 62
     0
 10
123.486
 20
160.26
 30
0.0
 11
126.195
 21
161.36
 31
0.0
  0
LINE
  8
0
 62
     0
 10
126.195
 20
161.36
 30
0.0
 11
128.82
 21
162.631
 31
0.0
  0
LINE
  8
0
 62
     0
 10
128.82
 20
162.631
 30
0.0
 11
131.403
 21
163.985
 31
0.0
  0
LINE
  8
0
 62
     0
 10
131.403
 20
163.985
 30
0.0
 11
133.9
 21
165.552
 31
0.0
  0
LINE
  8
0
 62
     0
 10
133.9
 20
165.552
 30
0.0
 11
136.313
 21
167.203
 31
0.0
  0
LINE
  8
0
 62
     0
 10
136.313
 20
167.203
 30
0.0
 11
138.599
 21
168.981
 31
0.0
  0
LINE
  8
0
 62
     0
 10
71.2474
 20
168.981
 30
0.0
 11
73.5334
 21
167.203
 31
0.0
  0
LINE
  8
0
 62
     0
 10
73.5334
 20
167.203
 30
0.0
 11
75.9464
 21
165.552
 31
0.0
  0
LINE
  8
0
 62
     0
 10
75.9464
 20
165.552
 30
0.0
 11
78.4433
 21
163.985
 31
0.0
  0
LINE
  8
0
 62
     0
 10
78.4433
 20
163.985
 30
0.0
 11
81.026
 21
162.631
 31
0.0
  0
LINE
  8
0
 62
     0
 10
81.026
 20
162.631
 30
0.0
 11
83.651
 21
161.36
 31
0.0
  0
LINE
  8
0
 62
     0
 10
83.651
 20
161.36
 30
0.0
 11
86.3604
 21
160.26
 31
0.0
  0
LINE
  8
0
 62
     0
 10
86.3604
 20
160.26
 30
0.0
 11
89.1124
 21
159.329
 31
0.0
  0
LINE
  8
0
 62
     0
 10
89.1124
 20
159.329
 30
0.0
 11
91.9057
 21
158.524
 31
0.0
  0
LINE
  8
0
 62
     0
 10
91.9057
 20
158.524
 30
0.0
 11
94.7843
 21
157.889
 31
0.0
  0
LINE
  8
0
 62
     0
 10
94.7843
 20
157.889
 30
0.0
 11
97.663
 21
157.424
 31
0.0
  0
LINE
  8
0
 62
     0
 10
97.663
 20
157.424
 30
0.0
 11
100.542
 21
157.085
 31
0.0
  0
LINE
  8
0
 62
     0
 10
100.542
 20
157.085
 30
0.0
 11
103.463
 21
156.916
 31
0.0
  0
LINE
  8
0
 62
     0
 10
103.463
 20
156.916
 30
0.0
 11
106.383
 21
156.916
 31
0.0
  0
LINE
  8
0
 62
     0
 10
106.383
 20
156.916
 30
0.0
 11
109.305
 21
157.085
 31
0.0
  0
LINE
  8
0
 62
     0
 10
109.305
 20
157.085
 30
0.0
 11
112.183
 21
157.424
 31
0.0
  0
LINE
  8
0
 62
     0
 10
112.183
 20
157.424
 30
0.0
 11
115.062
 21
157.889
 31
0.0
  0
LINE
  8
0
 62
     0
 10
115.062
 20
157.889
 30
0.0
 11
117.941
 21
158.524
 31
0.0
  0
LINE
  8
0
 62
     0
 10
117.941
 20
158.524
 30
0.0
 11
120.734
 21
159.329
 31
0.0
  0
LINE
  8
0
 62
     0
 10
120.734
 20
159.329
 30
0.0
 11
123.486
 21
160.26
 31
0.0
  0
LINE
  8
0
 62
     0
 10
123.486
 20
160.26
 30
0.0
 11
126.195
 21
161.36
 31
0.0
  0
LINE
  8
0
 62
     0
 10
126.195
 20
161.36
 30
0.0
 11
128.82
 21
162.631
 31
0.0
  0
LINE
  8
0
 62
     0
 10
128.82
 20
162.631
 30
0.0
 11
131.403
 21
163.985
 31
0.0
  0
LINE
  8
0
 62
     0
 10
131.403
 20
163.985
 30
0.0
 11
133.9
 21
165.552
 31
0.0
  0
LINE
  8
0
 62
     0
 10
133.9
 20
165.552
 30
0.0
 11
136.313
 21
167.203
 31
0.0
  0
LINE
  8
0
 62
     0
 10
136.313
 20
167.203
 30
0.0
 11
138.599
 21
168.981
 31
0.0
  0
LINE
  8
0
 62
     0
 10
71.2474
 20
168.981
 30
0.0
 11
73.5334
 21
167.203
 31
0.0
  0
LINE
  8
0
 62
     0
 10
73.5334
 20
167.203
 30
0.0
 11
75.9464
 21
165.552
 31
0.0
  0
LINE
  8
0
 62
     0
 10
75.9464
 20
165.552
 30
0.0
 11
78.4433
 21
163.985
 31
0.0
  0
LINE
  8
0
 62
     0
 10
78.4433
 20
163.985
 30
0.0
 11
81.026
 21
162.631
 31
0.0
  0
LINE
  8
0
 62
     0
 10
81.026
 20
162.631
 30
0.0
 11
83.651
 21
161.36
 31
0.0
  0
LINE
  8
0
 62
     0
 10
83.651
 20
161.36
 30
0.0
 11
86.3604
 21
160.26
 31
0.0
  0
LINE
  8
0
 62
     0
 10
86.3604
 20
160.26
 30
0.0
 11
89.1124
 21
159.329
 31
0.0
  0
LINE
  8
0
 62
     0
 10
89.1124
 20
159.329
 30
0.0
 11
91.9057
 21
158.524
 31
0.0
  0
LINE
  8
0
 62
     0
 10
91.9057
 20
158.524
 30
0.0
 11
94.7843
 21
157.889
 31
0.0
  0
LINE
  8
0
 62
     0
 10
94.7843
 20
157.889
 30
0.0
 11
97.663
 21
157.424
 31
0.0
  0
LINE
  8
0
 62
     0
 10
97.663
 20
157.424
 30
0.0
 11
100.542
 21
157.085
 31
0.0
  0
LINE
  8
0
 62
     0
 10
100.542
 20
157.085
 30
0.0
 11
103.463
 21
156.916
 31
0.0
  0
LINE
  8
0
 62
     0
 10
103.463
 20
156.916
 30
0.0
 11
106.383
 21
156.916
 31
0.0
  0
LINE
  8
0
 62
     0
 10
106.383
 20
156.916
 30
0.0
 11
109.305
 21
157.085
 31
0.0
  0
LINE
  8
0
 62
     0
 10
109.305
 20
157.085
 30
0.0
 11
112.183
 21
157.424
 31
0.0
  0
LINE
  8
0
 62
     0
 10
112.183
 20
157.424
 30
0.0
 11
115.062
 21
157.889
 31
0.0
  0
LINE
  8
0
 62
     0
 10
115.062
 20
157.889
 30
0.0
 11
117.941
 21
158.524
 31
0.0
  0
LINE
  8
0
 62
     0
 10
117.941
 20
158.524
 30
0.0
 11
120.734
 21
159.329
 31
0.0
  0
LINE
  8
0
 62
     0
 10
120.734
 20
159.329
 30
0.0
 11
123.486
 21
160.26
 31
0.0
  0
LINE
  8
0
 62
     0
 10
123.486
 20
160.26
 30
0.0
 11
126.195
 21
161.36
 31
0.0
  0
LINE
  8
0
 62
     0
 10
126.195
 20
161.36
 30
0.0
 11
128.82
 21
162.631
 31
0.0
  0
LINE
  8
0
 62
     0
 10
128.82
 20
162.631
 30
0.0
 11
131.403
 21
163.985
 31
0.0
  0
LINE
  8
0
 62
     0
 10
131.403
 20
163.985
 30
0.0
 11
133.9
 21
165.552
 31
0.0
  0
LINE
  8
0
 62
     0
 10
133.9
 20
165.552
 30
0.0
 11
136.313
 21
167.203
 31
0.0
  0
LINE
  8
0
 62
     0
 10
136.313
 20
167.203
 30
0.0
 11
138.599
 21
168.981
 31
0.0
  0
LINE
  8
0
 62
     0
 10
138.599
 20
168.981
 30
0.0
 11
139.657
 21
168.981
 31
0.0
  0
LINE
  8
0
 62
     0
 10
139.657
 20
168.981
 30
0.0
 11
139.657
 21
194
 31
0.0
  0
LINE
  8
0
 62
     0
 10
139.657
 20
194
 30
0.0
 11
141.647
 21
194
 31
0.0
  0
LINE
  8
0
 62
     0
 10
141.647
 20
194
 30
0.0
 11
141.647
 21
198.996
 31
0.0
  0
LINE
  8
0
 62
     0
 10
141.647
 20
198.996
 30
0.0
 11
139.657
 21
198.996
 31
0.0
  0
LINE
  8
0
 62
     0
 10
139.657
 20
198.996
 30
0.0
 11
139.657
 21
220.839
 31
0.0
  0
LINE
  8
0
 62
     0
 10
139.657
 20
220.839
 30
0.0
 11
141.647
 21
220.839
 31
0.0
  0
LINE
  8
0
 62
     0
 10
141.647
 20
220.839
 30
0.0
 11
141.647
 21
225.834
 31
0.0
  0
LINE
  8
0
 62
     0
 10
141.647
 20
225.834
 30
0.0
 11
139.657
 21
225.834
 31
0.0
  0
LINE
  8
0
 62
     0
 10
139.657
 20
225.834
 30
0.0
 11
139.657
 21
250.811
 31
0.0
  0
LINE
  8
0
 62
     0
 10
139.657
 20
250.811
 30
0.0
 11
138.599
 21
250.811
 31
0.0
  0
LINE
  8
0
 62
     0
 10
138.599
 20
250.811
 30
0.0
 11
136.313
 21
252.632
 31
0.0
  0
LINE
  8
0
 62
     0
 10
136.313
 20
252.632
 30
0.0
 11
133.9
 21
254.283
 31
0.0
  0
LINE
  8
0
 62
     0
 10
133.9
 20
254.283
 30
0.0
 11
131.403
 21
255.807
 31
0.0
  0
LINE
  8
0
 62
     0
 10
131.403
 20
255.807
 30
0.0
 11
128.82
 21
257.204
 31
0.0
  0
LINE
  8
0
 62
     0
 10
128.82
 20
257.204
 30
0.0
 11
126.195
 21
258.431
 31
0.0
  0
LINE
  8
0
 62
     0
 10
126.195
 20
258.431
 30
0.0
 11
123.486
 21
259.532
 31
0.0
  0
LINE
  8
0
 62
     0
 10
123.486
 20
259.532
 30
0.0
 11
120.734
 21
260.506
 31
0.0
  0
LINE
  8
0
 62
     0
 10
120.734
 20
260.506
 30
0.0
 11
117.941
 21
261.268
 31
0.0
  0
LINE
  8
0
 62
     0
 10
117.941
 20
261.268
 30
0.0
 11
115.062
 21
261.945
 31
0.0
  0
LINE
  8
0
 62
     0
 10
115.062
 20
261.945
 30
0.0
 11
112.183
 21
262.41
 31
0.0
  0
LINE
  8
0
 62
     0
 10
112.183
 20
262.41
 30
0.0
 11
109.305
 21
262.749
 31
0.0
  0
LINE
  8
0
 62
     0
 10
109.305
 20
262.749
 30
0.0
 11
106.383
 21
262.876
 31
0.0
  0
LINE
  8
0
 62
     0
 10
106.383
 20
262.876
 30
0.0
 11
103.463
 21
262.876
 31
0.0
  0
LINE
  8
0
 62
     0
 10
103.463
 20
262.876
 30
0.0
 11
100.542
 21
262.749
 31
0.0
  0
LINE
  8
0
 62
     0
 10
100.542
 20
262.749
 30
0.0
 11
97.663
 21
262.41
 31
0.0
  0
LINE
  8
0
 62
     0
 10
97.663
 20
262.41
 30
0.0
 11
94.7843
 21
261.945
 31
0.0
  0
LINE
  8
0
 62
     0
 10
94.7843
 20
261.945
 30
0.0
 11
91.9057
 21
261.268
 31
0.0
  0
LINE
  8
0
 62
     0
 10
91.9057
 20
261.268
 30
0.0
 11
89.1124
 21
260.506
 31
0.0
  0
LINE
  8
0
 62
     0
 10
89.1124
 20
260.506
 30
0.0
 11
86.3604
 21
259.532
 31
0.0
  0
LINE
  8
0
 62
     0
 10
86.3604
 20
259.532
 30
0.0
 11
83.651
 21
258.431
 31
0.0
  0
LINE
  8
0
 62
     0
 10
83.651
 20
258.431
 30
0.0
 11
81.026
 21
257.204
 31
0.0
  0
LINE
  8
0
 62
     0
 10
81.026
 20
257.204
 30
0.0
 11
78.4433
 21
255.807
 31
0.0
  0
LINE
  8
0
 62
     0
 10
78.4433
 20
255.807
 30
0.0
 11
75.9464
 21
254.283
 31
0.0
  0
LINE
  8
0
 62
     0
 10
75.9464
 20
254.283
 30
0.0
 11
73.5334
 21
252.632
 31
0.0
  0
LINE
  8
0
 62
     0
 10
73.5334
 20
252.632
 30
0.0
 11
71.2474
 21
250.811
 31
0.0
  0
LINE
  8
0
 62
     0
 10
138.599
 20
250.811
 30
0.0
 11
136.313
 21
252.632
 31
0.0
  0
LINE
  8
0
 62
     0
 10
136.313
 20
252.632
 30
0.0
 11
133.9
 21
254.283
 31
0.0
  0
LINE
  8
0
 62
     0
 10
133.9
 20
254.283
 30
0.0
 11
131.403
 21
255.807
 31
0.0
  0
LINE
  8
0
 62
     0
 10
131.403
 20
255.807
 30
0.0
 11
128.82
 21
257.204
 31
0.0
  0
LINE
  8
0
 62
     0
 10
128.82
 20
257.204
 30
0.0
 11
126.195
 21
258.431
 31
0.0
  0
LINE
  8
0
 62
     0
 10
126.195
 20
258.431
 30
0.0
 11
123.486
 21
259.532
 31
0.0
  0
LINE
  8
0
 62
     0
 10
123.486
 20
259.532
 30
0.0
 11
120.734
 21
260.506
 31
0.0
  0
LINE
  8
0
 62
     0
 10
120.734
 20
260.506
 30
0.0
 11
117.941
 21
261.268
 31
0.0
  0
LINE
  8
0
 62
     0
 10
117.941
 20
261.268
 30
0.0
 11
115.062
 21
261.945
 31
0.0
  0
LINE
  8
0
 62
     0
 10
115.062
 20
261.945
 30
0.0
 11
112.183
 21
262.41
 31
0.0
  0
LINE
  8
0
 62
     0
 10
112.183
 20
262.41
 30
0.0
 11
109.305
 21
262.749
 31
0.0
  0
LINE
  8
0
 62
     0
 10
109.305
 20
262.749
 30
0.0
 11
106.383
 21
262.876
 31
0.0
  0
LINE
  8
0
 62
     0
 10
106.383
 20
262.876
 30
0.0
 11
103.463
 21
262.876
 31
0.0
  0
LINE
  8
0
 62
     0
 10
103.463
 20
262.876
 30
0.0
 11
100.542
 21
262.749
 31
0.0
  0
LINE
  8
0
 62
     0
 10
100.542
 20
262.749
 30
0.0
 11
97.663
 21
262.41
 31
0.0
  0
LINE
  8
0
 62
     0
 10
97.663
 20
262.41
 30
0.0
 11
94.7843
 21
261.945
 31
0.0
  0
LINE
  8
0
 62
     0
 10
94.7843
 20
261.945
 30
0.0
 11
91.9057
 21
261.268
 31
0.0
  0
LINE
  8
0
 62
     0
 10
91.9057
 20
261.268
 30
0.0
 11
89.1124
 21
260.506
 31
0.0
  0
LINE
  8
0
 62
     0
 10
89.1124
 20
260.506
 30
0.0
 11
86.3604
 21
259.532
 31
0.0
  0
LINE
  8
0
 62
     0
 10
86.3604
 20
259.532
 30
0.0
 11
83.651
 21
258.431
 31
0.0
  0
LINE
  8
0
 62
     0
 10
83.651
 20
258.431
 30
0.0
 11
81.026
 21
257.204
 31
0.0
  0
LINE
  8
0
 62
     0
 10
81.026
 20
257.204
 30
0.0
 11
78.4433
 21
255.807
 31
0.0
  0
LINE
  8
0
 62
     0
 10
78.4433
 20
255.807
 30
0.0
 11
75.9464
 21
254.283
 31
0.0
  0
LINE
  8
0
 62
     0
 10
75.9464
 20
254.283
 30
0.0
 11
73.5334
 21
252.632
 31
0.0
  0
LINE
  8
0
 62
     0
 10
73.5334
 20
252.632
 30
0.0
 11
71.2474
 21
250.811
 31
0.0
  0
LINE
  8
0
 62
     0
 10
138.599
 20
250.811
 30
0.0
 11
136.313
 21
252.632
 31
0.0
  0
LINE
  8
0
 62
     0
 10
136.313
 20
252.632
 30
0.0
 11
133.9
 21
254.283
 31
0.0
  0
LINE
  8
0
 62
     0
 10
133.9
 20
254.283
 30
0.0
 11
131.403
 21
255.807
 31
0.0
  0
LINE
  8
0
 62
     0
 10
131.403
 20
255.807
 30
0.0
 11
128.82
 21
257.204
 31
0.0
  0
LINE
  8
0
 62
     0
 10
128.82
 20
257.204
 30
0.0
 11
126.195
 21
258.431
 31
0.0
  0
LINE
  8
0
 62
     0
 10
126.195
 20
258.431
 30
0.0
 11
123.486
 21
259.532
 31
0.0
  0
LINE
  8
0
 62
     0
 10
123.486
 20
259.532
 30
0.0
 11
120.734
 21
260.506
 31
0.0
  0
LINE
  8
0
 62
     0
 10
120.734
 20
260.506
 30
0.0
 11
117.941
 21
261.268
 31
0.0
  0
LINE
  8
0
 62
     0
 10
117.941
 20
261.268
 30
0.0
 11
115.062
 21
261.945
 31
0.0
  0
LINE
  8
0
 62
     0
 10
115.062
 20
261.945
 30
0.0
 11
112.183
 21
262.41
 31
0.0
  0
LINE
  8
0
 62
     0
 10
112.183
 20
262.41
 30
0.0
 11
109.305
 21
262.749
 31
0.0
  0
LINE
  8
0
 62
     0
 10
109.305
 20
262.749
 30
0.0
 11
106.383
 21
262.876
 31
0.0
  0
LINE
  8
0
 62
     0
 10
106.383
 20
262.876
 30
0.0
 11
103.463
 21
262.876
 31
0.0
  0
LINE
  8
0
 62
     0
 10
103.463
 20
262.876
 30
0.0
 11
100.542
 21
262.749
 31
0.0
  0
LINE
  8
0
 62
     0
 10
100.542
 20
262.749
 30
0.0
 11
97.663
 21
262.41
 31
0.0
  0
LINE
  8
0
 62
     0
 10
97.663
 20
262.41
 30
0.0
 11
94.7843
 21
261.945
 31
0.0
  0
LINE
  8
0
 62
     0
 10
94.7843
 20
261.945
 30
0.0
 11
91.9057
 21
261.268
 31
0.0
  0
LINE
  8
0
 62
     0
 10
91.9057
 20
261.268
 30
0.0
 11
89.1124
 21
260.506
 31
0.0
  0
LINE
  8
0
 62
     0
 10
89.1124
 20
260.506
 30
0.0
 11
86.3604
 21
259.532
 31
0.0
  0
LINE
  8
0
 62
     0
 10
86.3604
 20
259.532
 30
0.0
 11
83.651
 21
258.431
 31
0.0
  0
LINE
  8
0
 62
     0
 10
83.651
 20
258.431
 30
0.0
 11
81.026
 21
257.204
 31
0.0
  0
LINE
  8
0
 62
     0
 10
81.026
 20
257.204
 30
0.0
 11
78.4433
 21
255.807
 31
0.0
  0
LINE
  8
0
 62
     0
 10
78.4433
 20
255.807
 30
0.0
 11
75.9464
 21
254.283
 31
0.0
  0
LINE
  8
0
 62
     0
 10
75.9464
 20
254.283
 30
0.0
 11
73.5334
 21
252.632
 31
0.0
  0
LINE
  8
0
 62
     0
 10
73.5334
 20
252.632
 30
0.0
 11
71.2474
 21
250.811
 31
0.0
  0
LINE
  8
0
 62
     0
 10
88.477
 20
262.368
 30
0.0
 11
89.1963
 21
260.506
 31
0.0
  0
LINE
  8
0
 62
     0
 10
138.599
 20
250.811
 30
0.0
 11
136.313
 21
252.632
 31
0.0
  0
LINE
  8
0
 62
     0
 10
136.313
 20
252.632
 30
0.0
 11
133.9
 21
254.283
 31
0.0
  0
LINE
  8
0
 62
     0
 10
133.9
 20
254.283
 30
0.0
 11
131.403
 21
255.807
 31
0.0
  0
LINE
  8
0
 62
     0
 10
131.403
 20
255.807
 30
0.0
 11
128.82
 21
257.204
 31
0.0
  0
LINE
  8
0
 62
     0
 10
128.82
 20
257.204
 30
0.0
 11
126.195
 21
258.431
 31
0.0
  0
LINE
  8
0
 62
     0
 10
126.195
 20
258.431
 30
0.0
 11
123.486
 21
259.532
 31
0.0
  0
LINE
  8
0
 62
     0
 10
123.486
 20
259.532
 30
0.0
 11
120.734
 21
260.506
 31
0.0
  0
LINE
  8
0
 62
     0
 10
120.734
 20
260.506
 30
0.0
 11
117.941
 21
261.268
 31
0.0
  0
LINE
  8
0
 62
     0
 10
117.941
 20
261.268
 30
0.0
 11
115.062
 21
261.945
 31
0.0
  0
LINE
  8
0
 62
     0
 10
115.062
 20
261.945
 30
0.0
 11
112.183
 21
262.41
 31
0.0
  0
LINE
  8
0
 62
     0
 10
112.183
 20
262.41
 30
0.0
 11
109.305
 21
262.749
 31
0.0
  0
LINE
  8
0
 62
     0
 10
109.305
 20
262.749
 30
0.0
 11
106.383
 21
262.876
 31
0.0
  0
LINE
  8
0
 62
     0
 10
106.383
 20
262.876
 30
0.0
 11
103.463
 21
262.876
 31
0.0
  0
LINE
  8
0
 62
     0
 10
103.463
 20
262.876
 30
0.0
 11
100.542
 21
262.749
 31
0.0
  0
LINE
  8
0
 62
     0
 10
100.542
 20
262.749
 30
0.0
 11
97.663
 21
262.41
 31
0.0
  0
LINE
  8
0
 62
     0
 10
97.663
 20
262.41
 30
0.0
 11
94.7843
 21
261.945
 31
0.0
  0
LINE
  8
0
 62
     0
 10
94.7843
 20
261.945
 30
0.0
 11
91.9057
 21
261.268
 31
0.0
  0
LINE
  8
0
 62
     0
 10
91.9057
 20
261.268
 30
0.0
 11
89.1124
 21
260.506
 31
0.0
  0
LINE
  8
0
 62
     0
 10
89.1124
 20
260.506
 30
0.0
 11
86.3604
 21
259.532
 31
0.0
  0
LINE
  8
0
 62
     0
 10
86.3604
 20
259.532
 30
0.0
 11
83.651
 21
258.431
 31
0.0
  0
LINE
  8
0
 62
     0
 10
83.651
 20
258.431
 30
0.0
 11
81.026
 21
257.204
 31
0.0
  0
LINE
  8
0
 62
     0
 10
81.026
 20
257.204
 30
0.0
 11
78.4433
 21
255.807
 31
0.0
  0
LINE
  8
0
 62
     0
 10
78.4433
 20
255.807
 30
0.0
 11
75.9464
 21
254.283
 31
0.0
  0
LINE
  8
0
 62
     0
 10
75.9464
 20
254.283
 30
0.0
 11
73.5334
 21
252.632
 31
0.0
  0
LINE
  8
0
 62
     0
 10
73.5334
 20
252.632
 30
0.0
 11
71.2474
 21
250.811
 31
0.0
  0
LINE
  8
0
 62
     0
 10
121.369
 20
262.368
 30
0.0
 11
120.65
 21
260.506
 31
0.0
  0
LINE
  8
0
 62
     0
 10
120.65
 20
260.506
 30
0.0
 11
121.369
 21
262.368
 31
0.0
  0
LINE
  8
0
 62
     0
 10
138.599
 20
250.811
 30
0.0
 11
136.313
 21
252.632
 31
0.0
  0
LINE
  8
0
 62
     0
 10
136.313
 20
252.632
 30
0.0
 11
133.9
 21
254.283
 31
0.0
  0
LINE
  8
0
 62
     0
 10
133.9
 20
254.283
 30
0.0
 11
131.403
 21
255.807
 31
0.0
  0
LINE
  8
0
 62
     0
 10
131.403
 20
255.807
 30
0.0
 11
128.82
 21
257.204
 31
0.0
  0
LINE
  8
0
 62
     0
 10
128.82
 20
257.204
 30
0.0
 11
126.195
 21
258.431
 31
0.0
  0
LINE
  8
0
 62
     0
 10
126.195
 20
258.431
 30
0.0
 11
123.486
 21
259.532
 31
0.0
  0
LINE
  8
0
 62
     0
 10
123.486
 20
259.532
 30
0.0
 11
120.734
 21
260.506
 31
0.0
  0
LINE
  8
0
 62
     0
 10
120.734
 20
260.506
 30
0.0
 11
117.941
 21
261.268
 31
0.0
  0
LINE
  8
0
 62
     0
 10
117.941
 20
261.268
 30
0.0
 11
115.062
 21
261.945
 31
0.0
  0
LINE
  8
0
 62
     0
 10
115.062
 20
261.945
 30
0.0
 11
112.183
 21
262.41
 31
0.0
  0
LINE
  8
0
 62
     0
 10
112.183
 20
262.41
 30
0.0
 11
109.305
 21
262.749
 31
0.0
  0
LINE
  8
0
 62
     0
 10
109.305
 20
262.749
 30
0.0
 11
106.383
 21
262.876
 31
0.0
  0
LINE
  8
0
 62
     0
 10
106.383
 20
262.876
 30
0.0
 11
103.463
 21
262.876
 31
0.0
  0
LINE
  8
0
 62
     0
 10
103.463
 20
262.876
 30
0.0
 11
100.542
 21
262.749
 31
0.0
  0
LINE
  8
0
 62
     0
 10
100.542
 20
262.749
 30
0.0
 11
97.663
 21
262.41
 31
0.0
  0
LINE
  8
0
 62
     0
 10
97.663
 20
262.41
 30
0.0
 11
94.7843
 21
261.945
 31
0.0
  0
LINE
  8
0
 62
     0
 10
94.7843
 20
261.945
 30
0.0
 11
91.9057
 21
261.268
 31
0.0
  0
LINE
  8
0
 62
     0
 10
91.9057
 20
261.268
 30
0.0
 11
89.1124
 21
260.506
 31
0.0
  0
LINE
  8
0
 62
     0
 10
89.1124
 20
260.506
 30
0.0
 11
86.3604
 21
259.532
 31
0.0
  0
LINE
  8
0
 62
     0
 10
86.3604
 20
259.532
 30
0.0
 11
83.651
 21
258.431
 31
0.0
  0
LINE
  8
0
 62
     0
 10
83.651
 20
258.431
 30
0.0
 11
81.026
 21
257.204
 31
0.0
  0
LINE
  8
0
 62
     0
 10
81.026
 20
257.204
 30
0.0
 11
78.4433
 21
255.807
 31
0.0
  0
LINE
  8
0
 62
     0
 10
78.4433
 20
255.807
 30
0.0
 11
75.9464
 21
254.283
 31
0.0
  0
LINE
  8
0
 62
     0
 10
75.9464
 20
254.283
 30
0.0
 11
73.5334
 21
252.632
 31
0.0
  0
LINE
  8
0
 62
     0
 10
73.5334
 20
252.632
 30
0.0
 11
71.2474
 21
250.811
 31
0.0
  0
LINE
  8
0
 62
     0
 10
128.355
 20
259.658
 30
0.0
 11
127.635
 21
257.797
 31
0.0
  0
LINE
  8
0
 62
     0
 10
156.337
 20
229.475
 30
0.0
 11
153.458
 21
228.586
 31
0.0
  0
LINE
  8
0
 62
     0
 10
153.458
 20
231.169
 30
0.0
 11
153.458
 21
188.666
 31
0.0
  0
LINE
  8
0
 62
     0
 10
158.496
 20
222.279
 30
0.0
 11
153.458
 21
220.755
 31
0.0
  0
LINE
  8
0
 62
     0
 10
153.458
 20
220.755
 30
0.0
 11
158.496
 21
222.279
 31
0.0
  0
LINE
  8
0
 62
     0
 10
153.458
 20
231.169
 30
0.0
 11
153.458
 21
188.666
 31
0.0
  0
LINE
  8
0
 62
     0
 10
158.496
 20
197.513
 30
0.0
 11
153.458
 21
199.08
 31
0.0
  0
LINE
  8
0
 62
     0
 10
153.458
 20
199.08
 30
0.0
 11
158.496
 21
197.513
 31
0.0
  0
LINE
  8
0
 62
     0
 10
153.458
 20
231.169
 30
0.0
 11
153.458
 21
188.666
 31
0.0
  0
LINE
  8
0
 62
     0
 10
156.337
 20
190.36
 30
0.0
 11
153.458
 21
191.248
 31
0.0
  0
LINE
  8
0
 62
     0
 10
128.355
 20
160.175
 30
0.0
 11
127.635
 21
162.038
 31
0.0
  0
LINE
  8
0
 62
     0
 10
71.2474
 20
168.981
 30
0.0
 11
73.5334
 21
167.203
 31
0.0
  0
LINE
  8
0
 62
     0
 10
73.5334
 20
167.203
 30
0.0
 11
75.9464
 21
165.552
 31
0.0
  0
LINE
  8
0
 62
     0
 10
75.9464
 20
165.552
 30
0.0
 11
78.4433
 21
163.985
 31
0.0
  0
LINE
  8
0
 62
     0
 10
78.4433
 20
163.985
 30
0.0
 11
81.026
 21
162.631
 31
0.0
  0
LINE
  8
0
 62
     0
 10
81.026
 20
162.631
 30
0.0
 11
83.651
 21
161.36
 31
0.0
  0
LINE
  8
0
 62
     0
 10
83.651
 20
161.36
 30
0.0
 11
86.3604
 21
160.26
 31
0.0
  0
LINE
  8
0
 62
     0
 10
86.3604
 20
160.26
 30
0.0
 11
89.1124
 21
159.329
 31
0.0
  0
LINE
  8
0
 62
     0
 10
89.1124
 20
159.329
 30
0.0
 11
91.9057
 21
158.524
 31
0.0
  0
LINE
  8
0
 62
     0
 10
91.9057
 20
158.524
 30
0.0
 11
94.7843
 21
157.889
 31
0.0
  0
LINE
  8
0
 62
     0
 10
94.7843
 20
157.889
 30
0.0
 11
97.663
 21
157.424
 31
0.0
  0
LINE
  8
0
 62
     0
 10
97.663
 20
157.424
 30
0.0
 11
100.542
 21
157.085
 31
0.0
  0
LINE
  8
0
 62
     0
 10
100.542
 20
157.085
 30
0.0
 11
103.463
 21
156.916
 31
0.0
  0
LINE
  8
0
 62
     0
 10
103.463
 20
156.916
 30
0.0
 11
106.383
 21
156.916
 31
0.0
  0
LINE
  8
0
 62
     0
 10
106.383
 20
156.916
 30
0.0
 11
109.305
 21
157.085
 31
0.0
  0
LINE
  8
0
 62
     0
 10
109.305
 20
157.085
 30
0.0
 11
112.183
 21
157.424
 31
0.0
  0
LINE
  8
0
 62
     0
 10
112.183
 20
157.424
 30
0.0
 11
115.062
 21
157.889
 31
0.0
  0
LINE
  8
0
 62
     0
 10
115.062
 20
157.889
 30
0.0
 11
117.941
 21
158.524
 31
0.0
  0
LINE
  8
0
 62
     0
 10
117.941
 20
158.524
 30
0.0
 11
120.734
 21
159.329
 31
0.0
  0
LINE
  8
0
 62
     0
 10
120.734
 20
159.329
 30
0.0
 11
123.486
 21
160.26
 31
0.0
  0
LINE
  8
0
 62
     0
 10
123.486
 20
160.26
 30
0.0
 11
126.195
 21
161.36
 31
0.0
  0
LINE
  8
0
 62
     0
 10
126.195
 20
161.36
 30
0.0
 11
128.82
 21
162.631
 31
0.0
  0
LINE
  8
0
 62
     0
 10
128.82
 20
162.631
 30
0.0
 11
131.403
 21
163.985
 31
0.0
  0
LINE
  8
0
 62
     0
 10
131.403
 20
163.985
 30
0.0
 11
133.9
 21
165.552
 31
0.0
  0
LINE
  8
0
 62
     0
 10
133.9
 20
165.552
 30
0.0
 11
136.313
 21
167.203
 31
0.0
  0
LINE
  8
0
 62
     0
 10
136.313
 20
167.203
 30
0.0
 11
138.599
 21
168.981
 31
0.0
  0
LINE
  8
0
 62
     0
 10
121.369
 20
157.424
 30
0.0
 11
120.65
 21
159.286
 31
0.0
  0
LINE
  8
0
 62
     0
 10
120.65
 20
159.286
 30
0.0
 11
121.369
 21
157.424
 31
0.0
  0
LINE
  8
0
 62
     0
 10
71.2474
 20
168.981
 30
0.0
 11
73.5334
 21
167.203
 31
0.0
  0
LINE
  8
0
 62
     0
 10
73.5334
 20
167.203
 30
0.0
 11
75.9464
 21
165.552
 31
0.0
  0
LINE
  8
0
 62
     0
 10
75.9464
 20
165.552
 30
0.0
 11
78.4433
 21
163.985
 31
0.0
  0
LINE
  8
0
 62
     0
 10
78.4433
 20
163.985
 30
0.0
 11
81.026
 21
162.631
 31
0.0
  0
LINE
  8
0
 62
     0
 10
81.026
 20
162.631
 30
0.0
 11
83.651
 21
161.36
 31
0.0
  0
LINE
  8
0
 62
     0
 10
83.651
 20
161.36
 30
0.0
 11
86.3604
 21
160.26
 31
0.0
  0
LINE
  8
0
 62
     0
 10
86.3604
 20
160.26
 30
0.0
 11
89.1124
 21
159.329
 31
0.0
  0
LINE
  8
0
 62
     0
 10
89.1124
 20
159.329
 30
0.0
 11
91.9057
 21
158.524
 31
0.0
  0
LINE
  8
0
 62
     0
 10
91.9057
 20
158.524
 30
0.0
 11
94.7843
 21
157.889
 31
0.0
  0
LINE
  8
0
 62
     0
 10
94.7843
 20
157.889
 30
0.0
 11
97.663
 21
157.424
 31
0.0
  0
LINE
  8
0
 62
     0
 10
97.663
 20
157.424
 30
0.0
 11
100.542
 21
157.085
 31
0.0
  0
LINE
  8
0
 62
     0
 10
100.542
 20
157.085
 30
0.0
 11
103.463
 21
156.916
 31
0.0
  0
LINE
  8
0
 62
     0
 10
103.463
 20
156.916
 30
0.0
 11
106.383
 21
156.916
 31
0.0
  0
LINE
  8
0
 62
     0
 10
106.383
 20
156.916
 30
0.0
 11
109.305
 21
157.085
 31
0.0
  0
LINE
  8
0
 62
     0
 10
109.305
 20
157.085
 30
0.0
 11
112.183
 21
157.424
 31
0.0
  0
LINE
  8
0
 62
     0
 10
112.183
 20
157.424
 30
0.0
 11
115.062
 21
157.889
 31
0.0
  0
LINE
  8
0
 62
     0
 10
115.062
 20
157.889
 30
0.0
 11
117.941
 21
158.524
 31
0.0
  0
LINE
  8
0
 62
     0
 10
117.941
 20
158.524
 30
0.0
 11
120.734
 21
159.329
 31
0.0
  0
LINE
  8
0
 62
     0
 10
120.734
 20
159.329
 30
0.0
 11
123.486
 21
160.26
 31
0.0
  0
LINE
  8
0
 62
     0
 10
123.486
 20
160.26
 30
0.0
 11
126.195
 21
161.36
 31
0.0
  0
LINE
  8
0
 62
     0
 10
126.195
 20
161.36
 30
0.0
 11
128.82
 21
162.631
 31
0.0
  0
LINE
  8
0
 62
     0
 10
128.82
 20
162.631
 30
0.0
 11
131.403
 21
163.985
 31
0.0
  0
LINE
  8
0
 62
     0
 10
131.403
 20
163.985
 30
0.0
 11
133.9
 21
165.552
 31
0.0
  0
LINE
  8
0
 62
     0
 10
133.9
 20
165.552
 30
0.0
 11
136.313
 21
167.203
 31
0.0
  0
LINE
  8
0
 62
     0
 10
136.313
 20
167.203
 30
0.0
 11
138.599
 21
168.981
 31
0.0
  0
LINE
  8
0
 62
     0
 10
88.477
 20
157.424
 30
0.0
 11
89.1963
 21
159.286
 31
0.0
  0
LINE
  8
0
 62
     0
 10
89.1963
 20
159.286
 30
0.0
 11
88.477
 21
157.424
 31
0.0
  0
LINE
  8
0
 62
     0
 10
71.2474
 20
168.981
 30
0.0
 11
73.5334
 21
167.203
 31
0.0
  0
LINE
  8
0
 62
     0
 10
73.5334
 20
167.203
 30
0.0
 11
75.9464
 21
165.552
 31
0.0
  0
LINE
  8
0
 62
     0
 10
75.9464
 20
165.552
 30
0.0
 11
78.4433
 21
163.985
 31
0.0
  0
LINE
  8
0
 62
     0
 10
78.4433
 20
163.985
 30
0.0
 11
81.026
 21
162.631
 31
0.0
  0
LINE
  8
0
 62
     0
 10
81.026
 20
162.631
 30
0.0
 11
83.651
 21
161.36
 31
0.0
  0
LINE
  8
0
 62
     0
 10
83.651
 20
161.36
 30
0.0
 11
86.3604
 21
160.26
 31
0.0
  0
LINE
  8
0
 62
     0
 10
86.3604
 20
160.26
 30
0.0
 11
89.1124
 21
159.329
 31
0.0
  0
LINE
  8
0
 62
     0
 10
89.1124
 20
159.329
 30
0.0
 11
91.9057
 21
158.524
 31
0.0
  0
LINE
  8
0
 62
     0
 10
91.9057
 20
158.524
 30
0.0
 11
94.7843
 21
157.889
 31
0.0
  0
LINE
  8
0
 62
     0
 10
94.7843
 20
157.889
 30
0.0
 11
97.663
 21
157.424
 31
0.0
  0
LINE
  8
0
 62
     0
 10
97.663
 20
157.424
 30
0.0
 11
100.542
 21
157.085
 31
0.0
  0
LINE
  8
0
 62
     0
 10
100.542
 20
157.085
 30
0.0
 11
103.463
 21
156.916
 31
0.0
  0
LINE
  8
0
 62
     0
 10
103.463
 20
156.916
 30
0.0
 11
106.383
 21
156.916
 31
0.0
  0
LINE
  8
0
 62
     0
 10
106.383
 20
156.916
 30
0.0
 11
109.305
 21
157.085
 31
0.0
  0
LINE
  8
0
 62
     0
 10
109.305
 20
157.085
 30
0.0
 11
112.183
 21
157.424
 31
0.0
  0
LINE
  8
0
 62
     0
 10
112.183
 20
157.424
 30
0.0
 11
115.062
 21
157.889
 31
0.0
  0
LINE
  8
0
 62
     0
 10
115.062
 20
157.889
 30
0.0
 11
117.941
 21
158.524
 31
0.0
  0
LINE
  8
0
 62
     0
 10
117.941
 20
158.524
 30
0.0
 11
120.734
 21
159.329
 31
0.0
  0
LINE
  8
0
 62
     0
 10
120.734
 20
159.329
 30
0.0
 11
123.486
 21
160.26
 31
0.0
  0
LINE
  8
0
 62
     0
 10
123.486
 20
160.26
 30
0.0
 11
126.195
 21
161.36
 31
0.0
  0
LINE
  8
0
 62
     0
 10
126.195
 20
161.36
 30
0.0
 11
128.82
 21
162.631
 31
0.0
  0
LINE
  8
0
 62
     0
 10
128.82
 20
162.631
 30
0.0
 11
131.403
 21
163.985
 31
0.0
  0
LINE
  8
0
 62
     0
 10
131.403
 20
163.985
 30
0.0
 11
133.9
 21
165.552
 31
0.0
  0
LINE
  8
0
 62
     0
 10
133.9
 20
165.552
 30
0.0
 11
136.313
 21
167.203
 31
0.0
  0
LINE
  8
0
 62
     0
 10
136.313
 20
167.203
 30
0.0
 11
138.599
 21
168.981
 31
0.0
  0
LINE
  8
0
 62
     0
 10
81.4917
 20
160.175
 30
0.0
 11
82.211
 21
162.038
 31
0.0
  0
LINE
  8
0
 62
     0
 10
51.35
 20
197.513
 30
0.0
 11
56.388
 21
199.08
 31
0.0
  0
LINE
  8
0
 62
     0
 10
56.388
 20
188.666
 30
0.0
 11
56.388
 21
231.169
 31
0.0
  0
LINE
  8
0
 62
     0
 10
51.35
 20
222.279
 30
0.0
 11
56.388
 21
220.755
 31
0.0
  0
LINE
  8
0
 62
     0
 10
56.388
 20
220.755
 30
0.0
 11
51.35
 21
222.279
 31
0.0
  0
LINE
  8
0
 62
     0
 10
56.388
 20
188.666
 30
0.0
 11
56.388
 21
231.169
 31
0.0
  0
LINE
  8
0
 62
     0
 10
53.5093
 20
229.475
 30
0.0
 11
56.388
 21
228.586
 31
0.0
  0
LINE
  8
0
 62
     0
 10
53.5093
 20
190.36
 30
0.0
 11
56.388
 21
191.248
 31
0.0
  0
LINE
  8
0
 62
     0
 10
56.388
 20
188.666
 30
0.0
 11
56.388
 21
231.169
 31
0.0
  0
LINE
  8
0
 62
     0
 10
51.35
 20
197.513
 30
0.0
 11
56.388
 21
199.08
 31
0.0
  0
LINE
  8
0
 62
     0
 10
141.647
 20
225.834
 30
0.0
 11
139.657
 21
225.834
 31
0.0
  0
LINE
  8
0
 62
     0
 10
139.657
 20
225.834
 30
0.0
 11
139.657
 21
250.811
 31
0.0
  0
LINE
  8
0
 62
     0
 10
139.657
 20
250.811
 30
0.0
 11
138.599
 21
250.811
 31
0.0
  0
LINE
  8
0
 62
     0
 10
138.599
 20
250.811
 30
0.0
 11
136.313
 21
252.632
 31
0.0
  0
LINE
  8
0
 62
     0
 10
136.313
 20
252.632
 30
0.0
 11
133.9
 21
254.283
 31
0.0
  0
LINE
  8
0
 62
     0
 10
133.9
 20
254.283
 30
0.0
 11
131.403
 21
255.807
 31
0.0
  0
LINE
  8
0
 62
     0
 10
131.403
 20
255.807
 30
0.0
 11
128.82
 21
257.204
 31
0.0
  0
LINE
  8
0
 62
     0
 10
128.82
 20
257.204
 30
0.0
 11
126.195
 21
258.431
 31
0.0
  0
LINE
  8
0
 62
     0
 10
126.195
 20
258.431
 30
0.0
 11
123.486
 21
259.532
 31
0.0
  0
LINE
  8
0
 62
     0
 10
123.486
 20
259.532
 30
0.0
 11
120.734
 21
260.506
 31
0.0
  0
LINE
  8
0
 62
     0
 10
120.734
 20
260.506
 30
0.0
 11
117.941
 21
261.268
 31
0.0
  0
LINE
  8
0
 62
     0
 10
117.941
 20
261.268
 30
0.0
 11
115.062
 21
261.945
 31
0.0
  0
LINE
  8
0
 62
     0
 10
115.062
 20
261.945
 30
0.0
 11
112.183
 21
262.41
 31
0.0
  0
LINE
  8
0
 62
     0
 10
112.183
 20
262.41
 30
0.0
 11
109.305
 21
262.749
 31
0.0
  0
LINE
  8
0
 62
     0
 10
109.305
 20
262.749
 30
0.0
 11
106.383
 21
262.876
 31
0.0
  0
LINE
  8
0
 62
     0
 10
106.383
 20
262.876
 30
0.0
 11
103.463
 21
262.876
 31
0.0
  0
LINE
  8
0
 62
     0
 10
103.463
 20
262.876
 30
0.0
 11
100.542
 21
262.749
 31
0.0
  0
LINE
  8
0
 62
     0
 10
100.542
 20
262.749
 30
0.0
 11
97.663
 21
262.41
 31
0.0
  0
LINE
  8
0
 62
     0
 10
97.663
 20
262.41
 30
0.0
 11
94.7843
 21
261.945
 31
0.0
  0
LINE
  8
0
 62
     0
 10
94.7843
 20
261.945
 30
0.0
 11
91.9057
 21
261.268
 31
0.0
  0
LINE
  8
0
 62
     0
 10
91.9057
 20
261.268
 30
0.0
 11
89.1124
 21
260.506
 31
0.0
  0
LINE
  8
0
 62
     0
 10
89.1124
 20
260.506
 30
0.0
 11
86.3604
 21
259.532
 31
0.0
  0
LINE
  8
0
 62
     0
 10
86.3604
 20
259.532
 30
0.0
 11
83.651
 21
258.431
 31
0.0
  0
LINE
  8
0
 62
     0
 10
83.651
 20
258.431
 30
0.0
 11
81.026
 21
257.204
 31
0.0
  0
LINE
  8
0
 62
     0
 10
81.026
 20
257.204
 30
0.0
 11
78.4433
 21
255.807
 31
0.0
  0
LINE
  8
0
 62
     0
 10
78.4433
 20
255.807
 30
0.0
 11
75.9464
 21
254.283
 31
0.0
  0
LINE
  8
0
 62
     0
 10
75.9464
 20
254.283
 30
0.0
 11
73.5334
 21
252.632
 31
0.0
  0
LINE
  8
0
 62
     0
 10
73.5334
 20
252.632
 30
0.0
 11
71.2474
 21
250.811
 31
0.0
  0
LINE
  8
0
 62
     0
 10
71.2474
 20
250.811
 30
0.0
 11
70.189
 21
250.811
 31
0.0
  0
LINE
  8
0
 62
     0
 10
70.189
 20
250.811
 30
0.0
 11
70.189
 21
225.834
 31
0.0
  0
LINE
  8
0
 62
     0
 10
70.189
 20
225.834
 30
0.0
 11
68.199
 21
225.834
 31
0.0
  0
LINE
  8
0
 62
     0
 10
68.199
 20
225.834
 30
0.0
 11
68.199
 21
248.102
 31
0.0
  0
LINE
  8
0
 62
     0
 10
68.199
 20
248.102
 30
0.0
 11
66.0823
 21
245.985
 31
0.0
  0
LINE
  8
0
 62
     0
 10
66.0823
 20
245.985
 30
0.0
 11
64.1354
 21
243.742
 31
0.0
  0
LINE
  8
0
 62
     0
 10
64.1354
 20
243.742
 30
0.0
 11
62.315
 21
241.413
 31
0.0
  0
LINE
  8
0
 62
     0
 10
62.315
 20
241.413
 30
0.0
 11
60.6213
 21
239
 31
0.0
  0
LINE
  8
0
 62
     0
 10
60.6213
 20
239
 30
0.0
 11
59.0543
 21
236.46
 31
0.0
  0
LINE
  8
0
 62
     0
 10
59.0543
 20
236.46
 30
0.0
 11
57.6584
 21
233.835
 31
0.0
  0
LINE
  8
0
 62
     0
 10
57.6584
 20
233.835
 30
0.0
 11
56.388
 21
231.169
 31
0.0
  0
LINE
  8
0
 62
     0
 10
56.388
 20
231.169
 30
0.0
 11
56.388
 21
188.666
 31
0.0
  0
LINE
  8
0
 62
     0
 10
56.388
 20
188.666
 30
0.0
 11
57.6584
 21
185.957
 31
0.0
  0
LINE
  8
0
 62
     0
 10
57.6584
 20
185.957
 30
0.0
 11
59.0543
 21
183.374
 31
0.0
  0
LINE
  8
0
 62
     0
 10
59.0543
 20
183.374
 30
0.0
 11
60.6213
 21
180.835
 31
0.0
  0
LINE
  8
0
 62
     0
 10
60.6213
 20
180.835
 30
0.0
 11
62.315
 21
178.422
 31
0.0
  0
LINE
  8
0
 62
     0
 10
62.315
 20
178.422
 30
0.0
 11
64.1354
 21
176.05
 31
0.0
  0
LINE
  8
0
 62
     0
 10
64.1354
 20
176.05
 30
0.0
 11
66.0823
 21
173.849
 31
0.0
  0
LINE
  8
0
 62
     0
 10
66.0823
 20
173.849
 30
0.0
 11
68.199
 21
171.733
 31
0.0
  0
LINE
  8
0
 62
     0
 10
68.199
 20
171.733
 30
0.0
 11
68.199
 21
194
 31
0.0
  0
LINE
  8
0
 62
     0
 10
141.647
 20
194
 30
0.0
 11
139.657
 21
194
 31
0.0
  0
LINE
  8
0
 62
     0
 10
139.657
 20
194
 30
0.0
 11
139.657
 21
168.981
 31
0.0
  0
LINE
  8
0
 62
     0
 10
139.657
 20
168.981
 30
0.0
 11
138.599
 21
168.981
 31
0.0
  0
LINE
  8
0
 62
     0
 10
71.2474
 20
168.981
 30
0.0
 11
73.5334
 21
167.203
 31
0.0
  0
LINE
  8
0
 62
     0
 10
73.5334
 20
167.203
 30
0.0
 11
75.9464
 21
165.552
 31
0.0
  0
LINE
  8
0
 62
     0
 10
75.9464
 20
165.552
 30
0.0
 11
78.4433
 21
163.985
 31
0.0
  0
LINE
  8
0
 62
     0
 10
78.4433
 20
163.985
 30
0.0
 11
81.026
 21
162.631
 31
0.0
  0
LINE
  8
0
 62
     0
 10
81.026
 20
162.631
 30
0.0
 11
83.651
 21
161.36
 31
0.0
  0
LINE
  8
0
 62
     0
 10
83.651
 20
161.36
 30
0.0
 11
86.3604
 21
160.26
 31
0.0
  0
LINE
  8
0
 62
     0
 10
86.3604
 20
160.26
 30
0.0
 11
89.1124
 21
159.329
 31
0.0
  0
LINE
  8
0
 62
     0
 10
89.1124
 20
159.329
 30
0.0
 11
91.9057
 21
158.524
 31
0.0
  0
LINE
  8
0
 62
     0
 10
91.9057
 20
158.524
 30
0.0
 11
94.7843
 21
157.889
 31
0.0
  0
LINE
  8
0
 62
     0
 10
94.7843
 20
157.889
 30
0.0
 11
97.663
 21
157.424
 31
0.0
  0
LINE
  8
0
 62
     0
 10
97.663
 20
157.424
 30
0.0
 11
100.542
 21
157.085
 31
0.0
  0
LINE
  8
0
 62
     0
 10
100.542
 20
157.085
 30
0.0
 11
103.463
 21
156.916
 31
0.0
  0
LINE
  8
0
 62
     0
 10
103.463
 20
156.916
 30
0.0
 11
106.383
 21
156.916
 31
0.0
  0
LINE
  8
0
 62
     0
 10
106.383
 20
156.916
 30
0.0
 11
109.305
 21
157.085
 31
0.0
  0
LINE
  8
0
 62
     0
 10
109.305
 20
157.085
 30
0.0
 11
112.183
 21
157.424
 31
0.0
  0
LINE
  8
0
 62
     0
 10
112.183
 20
157.424
 30
0.0
 11
115.062
 21
157.889
 31
0.0
  0
LINE
  8
0
 62
     0
 10
115.062
 20
157.889
 30
0.0
 11
117.941
 21
158.524
 31
0.0
  0
LINE
  8
0
 62
     0
 10
117.941
 20
158.524
 30
0.0
 11
120.734
 21
159.329
 31
0.0
  0
LINE
  8
0
 62
     0
 10
120.734
 20
159.329
 30
0.0
 11
123.486
 21
160.26
 31
0.0
  0
LINE
  8
0
 62
     0
 10
123.486
 20
160.26
 30
0.0
 11
126.195
 21
161.36
 31
0.0
  0
LINE
  8
0
 62
     0
 10
126.195
 20
161.36
 30
0.0
 11
128.82
 21
162.631
 31
0.0
  0
LINE
  8
0
 62
     0
 10
128.82
 20
162.631
 30
0.0
 11
131.403
 21
163.985
 31
0.0
  0
LINE
  8
0
 62
     0
 10
131.403
 20
163.985
 30
0.0
 11
133.9
 21
165.552
 31
0.0
  0
LINE
  8
0
 62
     0
 10
133.9
 20
165.552
 30
0.0
 11
136.313
 21
167.203
 31
0.0
  0
LINE
  8
0
 62
     0
 10
136.313
 20
167.203
 30
0.0
 11
138.599
 21
168.981
 31
0.0
  0
LINE
  8
0
 62
     0
 10
71.2474
 20
168.981
 30
0.0
 11
70.189
 21
168.981
 31
0.0
  0
LINE
  8
0
 62
     0
 10
70.189
 20
168.981
 30
0.0
 11
70.189
 21
194
 31
0.0
  0
LINE
  8
0
 62
     0
 10
70.189
 20
194
 30
0.0
 11
68.199
 21
194
 31
0.0
  0
LINE
  8
0
 62
     0
 10
68.199
 20
198.996
 30
0.0
 11
70.189
 21
198.996
 31
0.0
  0
LINE
  8
0
 62
     0
 10
70.189
 20
198.996
 30
0.0
 11
70.189
 21
220.839
 31
0.0
  0
LINE
  8
0
 62
     0
 10
70.189
 20
220.839
 30
0.0
 11
68.199
 21
220.839
 31
0.0
  0
LINE
  8
0
 62
     0
 10
141.647
 20
220.839
 30
0.0
 11
139.657
 21
220.839
 31
0.0
  0
LINE
  8
0
 62
     0
 10
139.657
 20
220.839
 30
0.0
 11
139.657
 21
198.996
 31
0.0
  0
LINE
  8
0
 62
     0
 10
139.657
 20
198.996
 30
0.0
 11
141.647
 21
198.996
 31
0.0
  0
LINE
  8
0
 62
     0
 10
141.647
 20
225.834
 30
0.0
 11
141.647
 21
248.102
 31
0.0
  0
LINE
  8
0
 62
     0
 10
153.458
 20
231.169
 30
0.0
 11
152.188
 21
233.835
 31
0.0
  0
LINE
  8
0
 62
     0
 10
152.188
 20
233.835
 30
0.0
 11
150.792
 21
236.46
 31
0.0
  0
LINE
  8
0
 62
     0
 10
150.792
 20
236.46
 30
0.0
 11
149.225
 21
239
 31
0.0
  0
LINE
  8
0
 62
     0
 10
149.225
 20
239
 30
0.0
 11
147.531
 21
241.413
 31
0.0
  0
LINE
  8
0
 62
     0
 10
147.531
 20
241.413
 30
0.0
 11
145.711
 21
243.742
 31
0.0
  0
LINE
  8
0
 62
     0
 10
145.711
 20
243.742
 30
0.0
 11
143.764
 21
245.985
 31
0.0
  0
LINE
  8
0
 62
     0
 10
143.764
 20
245.985
 30
0.0
 11
141.647
 21
248.102
 31
0.0
  0
LINE
  8
0
 62
     0
 10
153.458
 20
231.169
 30
0.0
 11
153.458
 21
188.666
 31
0.0
  0
LINE
  8
0
 62
     0
 10
141.647
 20
171.733
 30
0.0
 11
143.764
 21
173.849
 31
0.0
  0
LINE
  8
0
 62
     0
 10
143.764
 20
173.849
 30
0.0
 11
145.711
 21
176.05
 31
0.0
  0
LINE
  8
0
 62
     0
 10
145.711
 20
176.05
 30
0.0
 11
147.531
 21
178.422
 31
0.0
  0
LINE
  8
0
 62
     0
 10
147.531
 20
178.422
 30
0.0
 11
149.225
 21
180.835
 31
0.0
  0
LINE
  8
0
 62
     0
 10
149.225
 20
180.835
 30
0.0
 11
150.792
 21
183.374
 31
0.0
  0
LINE
  8
0
 62
     0
 10
150.792
 20
183.374
 30
0.0
 11
152.188
 21
185.957
 31
0.0
  0
LINE
  8
0
 62
     0
 10
152.188
 20
185.957
 30
0.0
 11
153.458
 21
188.666
 31
0.0
  0
LINE
  8
0
 62
     0
 10
141.647
 20
171.733
 30
0.0
 11
141.647
 21
194
 31
0.0
  0
LINE
  8
0
 62
     0
 10
104.902
 20
154.926
 30
0.0
 11
107.907
 21
155.01
 31
0.0
  0
LINE
  8
0
 62
     0
 10
107.907
 20
155.01
 30
0.0
 11
110.871
 21
155.222
 31
0.0
  0
LINE
  8
0
 62
     0
 10
110.871
 20
155.222
 30
0.0
 11
113.834
 21
155.645
 31
0.0
  0
LINE
  8
0
 62
     0
 10
113.834
 20
155.645
 30
0.0
 11
116.756
 21
156.197
 31
0.0
  0
LINE
  8
0
 62
     0
 10
116.756
 20
156.197
 30
0.0
 11
119.634
 21
156.916
 31
0.0
  0
LINE
  8
0
 62
     0
 10
119.634
 20
156.916
 30
0.0
 11
122.47
 21
157.805
 31
0.0
  0
LINE
  8
0
 62
     0
 10
122.47
 20
157.805
 30
0.0
 11
125.264
 21
158.82
 31
0.0
  0
LINE
  8
0
 62
     0
 10
125.264
 20
158.82
 30
0.0
 11
128.016
 21
160.006
 31
0.0
  0
LINE
  8
0
 62
     0
 10
128.016
 20
160.006
 30
0.0
 11
130.683
 21
161.319
 31
0.0
  0
LINE
  8
0
 62
     0
 10
130.683
 20
161.319
 30
0.0
 11
133.266
 21
162.8
 31
0.0
  0
LINE
  8
0
 62
     0
 10
133.266
 20
162.8
 30
0.0
 11
135.763
 21
164.367
 31
0.0
  0
LINE
  8
0
 62
     0
 10
135.763
 20
164.367
 30
0.0
 11
138.219
 21
166.145
 31
0.0
  0
LINE
  8
0
 62
     0
 10
138.219
 20
166.145
 30
0.0
 11
140.505
 21
168.008
 31
0.0
  0
LINE
  8
0
 62
     0
 10
140.505
 20
168.008
 30
0.0
 11
142.748
 21
169.996
 31
0.0
  0
LINE
  8
0
 62
     0
 10
142.748
 20
169.996
 30
0.0
 11
144.865
 21
172.072
 31
0.0
  0
LINE
  8
0
 62
     0
 10
144.865
 20
172.072
 30
0.0
 11
146.812
 21
174.315
 31
0.0
  0
LINE
  8
0
 62
     0
 10
146.812
 20
174.315
 30
0.0
 11
148.717
 21
176.643
 31
0.0
  0
LINE
  8
0
 62
     0
 10
148.717
 20
176.643
 30
0.0
 11
150.453
 21
179.056
 31
0.0
  0
LINE
  8
0
 62
     0
 10
150.453
 20
179.056
 30
0.0
 11
152.02
 21
181.554
 31
0.0
  0
LINE
  8
0
 62
     0
 10
152.02
 20
181.554
 30
0.0
 11
153.501
 21
184.136
 31
0.0
  0
LINE
  8
0
 62
     0
 10
153.501
 20
184.136
 30
0.0
 11
154.813
 21
186.803
 31
0.0
  0
LINE
  8
0
 62
     0
 10
154.813
 20
186.803
 30
0.0
 11
155.998
 21
189.555
 31
0.0
  0
LINE
  8
0
 62
     0
 10
155.998
 20
189.555
 30
0.0
 11
157.014
 21
192.349
 31
0.0
  0
LINE
  8
0
 62
     0
 10
157.014
 20
192.349
 30
0.0
 11
157.904
 21
195.185
 31
0.0
  0
LINE
  8
0
 62
     0
 10
157.904
 20
195.185
 30
0.0
 11
158.623
 21
198.106
 31
0.0
  0
LINE
  8
0
 62
     0
 10
158.623
 20
198.106
 30
0.0
 11
159.173
 21
201.027
 31
0.0
  0
LINE
  8
0
 62
     0
 10
159.173
 20
201.027
 30
0.0
 11
159.596
 21
203.948
 31
0.0
  0
LINE
  8
0
 62
     0
 10
159.596
 20
203.948
 30
0.0
 11
159.851
 21
206.911
 31
0.0
  0
LINE
  8
0
 62
     0
 10
159.851
 20
206.911
 30
0.0
 11
159.892
 21
209.917
 31
0.0
  0
LINE
  8
0
 62
     0
 10
159.892
 20
209.917
 30
0.0
 11
159.851
 21
212.881
 31
0.0
  0
LINE
  8
0
 62
     0
 10
159.851
 20
212.881
 30
0.0
 11
159.596
 21
215.844
 31
0.0
  0
LINE
  8
0
 62
     0
 10
159.596
 20
215.844
 30
0.0
 11
159.173
 21
218.808
 31
0.0
  0
LINE
  8
0
 62
     0
 10
159.173
 20
218.808
 30
0.0
 11
158.623
 21
221.728
 31
0.0
  0
LINE
  8
0
 62
     0
 10
158.623
 20
221.728
 30
0.0
 11
157.904
 21
224.607
 31
0.0
  0
LINE
  8
0
 62
     0
 10
157.904
 20
224.607
 30
0.0
 11
157.014
 21
227.485
 31
0.0
  0
LINE
  8
0
 62
     0
 10
157.014
 20
227.485
 30
0.0
 11
155.998
 21
230.28
 31
0.0
  0
LINE
  8
0
 62
     0
 10
155.998
 20
230.28
 30
0.0
 11
154.813
 21
232.989
 31
0.0
  0
LINE
  8
0
 62
     0
 10
154.813
 20
232.989
 30
0.0
 11
153.501
 21
235.656
 31
0.0
  0
LINE
  8
0
 62
     0
 10
153.501
 20
235.656
 30
0.0
 11
152.02
 21
238.281
 31
0.0
  0
LINE
  8
0
 62
     0
 10
152.02
 20
238.281
 30
0.0
 11
150.453
 21
240.778
 31
0.0
  0
LINE
  8
0
 62
     0
 10
150.453
 20
240.778
 30
0.0
 11
148.717
 21
243.191
 31
0.0
  0
LINE
  8
0
 62
     0
 10
148.717
 20
243.191
 30
0.0
 11
146.812
 21
245.52
 31
0.0
  0
LINE
  8
0
 62
     0
 10
146.812
 20
245.52
 30
0.0
 11
144.865
 21
247.72
 31
0.0
  0
LINE
  8
0
 62
     0
 10
144.865
 20
247.72
 30
0.0
 11
142.748
 21
249.837
 31
0.0
  0
LINE
  8
0
 62
     0
 10
142.748
 20
249.837
 30
0.0
 11
140.505
 21
251.827
 31
0.0
  0
LINE
  8
0
 62
     0
 10
140.505
 20
251.827
 30
0.0
 11
138.219
 21
253.69
 31
0.0
  0
LINE
  8
0
 62
     0
 10
138.219
 20
253.69
 30
0.0
 11
135.763
 21
255.425
 31
0.0
  0
LINE
  8
0
 62
     0
 10
135.763
 20
255.425
 30
0.0
 11
133.266
 21
257.035
 31
0.0
  0
LINE
  8
0
 62
     0
 10
133.266
 20
257.035
 30
0.0
 11
130.683
 21
258.516
 31
0.0
  0
LINE
  8
0
 62
     0
 10
130.683
 20
258.516
 30
0.0
 11
128.016
 21
259.828
 31
0.0
  0
LINE
  8
0
 62
     0
 10
128.016
 20
259.828
 30
0.0
 11
125.264
 21
261.013
 31
0.0
  0
LINE
  8
0
 62
     0
 10
125.264
 20
261.013
 30
0.0
 11
122.47
 21
262.03
 31
0.0
  0
LINE
  8
0
 62
     0
 10
122.47
 20
262.03
 30
0.0
 11
119.634
 21
262.919
 31
0.0
  0
LINE
  8
0
 62
     0
 10
119.634
 20
262.919
 30
0.0
 11
116.756
 21
263.638
 31
0.0
  0
LINE
  8
0
 62
     0
 10
116.756
 20
263.638
 30
0.0
 11
113.834
 21
264.188
 31
0.0
  0
LINE
  8
0
 62
     0
 10
113.834
 20
264.188
 30
0.0
 11
110.871
 21
264.57
 31
0.0
  0
LINE
  8
0
 62
     0
 10
110.871
 20
264.57
 30
0.0
 11
107.907
 21
264.823
 31
0.0
  0
LINE
  8
0
 62
     0
 10
107.907
 20
264.823
 30
0.0
 11
104.902
 21
264.909
 31
0.0
  0
LINE
  8
0
 62
     0
 10
104.902
 20
264.909
 30
0.0
 11
101.939
 21
264.823
 31
0.0
  0
LINE
  8
0
 62
     0
 10
101.939
 20
264.823
 30
0.0
 11
98.975
 21
264.57
 31
0.0
  0
LINE
  8
0
 62
     0
 10
98.975
 20
264.57
 30
0.0
 11
96.012
 21
264.188
 31
0.0
  0
LINE
  8
0
 62
     0
 10
96.012
 20
264.188
 30
0.0
 11
93.0906
 21
263.638
 31
0.0
  0
LINE
  8
0
 62
     0
 10
93.0906
 20
263.638
 30
0.0
 11
90.212
 21
262.919
 31
0.0
  0
LINE
  8
0
 62
     0
 10
90.212
 20
262.919
 30
0.0
 11
87.376
 21
262.03
 31
0.0
  0
LINE
  8
0
 62
     0
 10
87.376
 20
262.03
 30
0.0
 11
84.5827
 21
261.013
 31
0.0
  0
LINE
  8
0
 62
     0
 10
84.5827
 20
261.013
 30
0.0
 11
81.8307
 21
259.828
 31
0.0
  0
LINE
  8
0
 62
     0
 10
81.8307
 20
259.828
 30
0.0
 11
79.1626
 21
258.516
 31
0.0
  0
LINE
  8
0
 62
     0
 10
79.1626
 20
258.516
 30
0.0
 11
76.5803
 21
257.035
 31
0.0
  0
LINE
  8
0
 62
     0
 10
76.5803
 20
257.035
 30
0.0
 11
74.0833
 21
255.425
 31
0.0
  0
LINE
  8
0
 62
     0
 10
74.0833
 20
255.425
 30
0.0
 11
71.6276
 21
253.69
 31
0.0
  0
LINE
  8
0
 62
     0
 10
71.6276
 20
253.69
 30
0.0
 11
69.3416
 21
251.827
 31
0.0
  0
LINE
  8
0
 62
     0
 10
69.3416
 20
251.827
 30
0.0
 11
67.098
 21
249.837
 31
0.0
  0
LINE
  8
0
 62
     0
 10
67.098
 20
249.837
 30
0.0
 11
64.9813
 21
247.72
 31
0.0
  0
LINE
  8
0
 62
     0
 10
64.9813
 20
247.72
 30
0.0
 11
63.0343
 21
245.52
 31
0.0
  0
LINE
  8
0
 62
     0
 10
63.0343
 20
245.52
 30
0.0
 11
61.1297
 21
243.191
 31
0.0
  0
LINE
  8
0
 62
     0
 10
61.1297
 20
243.191
 30
0.0
 11
59.3933
 21
240.778
 31
0.0
  0
LINE
  8
0
 62
     0
 10
59.3933
 20
240.778
 30
0.0
 11
57.828
 21
238.281
 31
0.0
  0
LINE
  8
0
 62
     0
 10
57.828
 20
238.281
 30
0.0
 11
56.3453
 21
235.656
 31
0.0
  0
LINE
  8
0
 62
     0
 10
56.3453
 20
235.656
 30
0.0
 11
55.0333
 21
232.989
 31
0.0
  0
LINE
  8
0
 62
     0
 10
55.0333
 20
232.989
 30
0.0
 11
53.8484
 21
230.28
 31
0.0
  0
LINE
  8
0
 62
     0
 10
53.8484
 20
230.28
 30
0.0
 11
52.8327
 21
227.485
 31
0.0
  0
LINE
  8
0
 62
     0
 10
52.8327
 20
227.485
 30
0.0
 11
51.9423
 21
224.607
 31
0.0
  0
LINE
  8
0
 62
     0
 10
51.9423
 20
224.607
 30
0.0
 11
51.223
 21
221.728
 31
0.0
  0
LINE
  8
0
 62
     0
 10
51.223
 20
221.728
 30
0.0
 11
50.6734
 21
218.808
 31
0.0
  0
LINE
  8
0
 62
     0
 10
50.6734
 20
218.808
 30
0.0
 11
50.25
 21
215.844
 31
0.0
  0
LINE
  8
0
 62
     0
 10
50.25
 20
215.844
 30
0.0
 11
49.9953
 21
212.881
 31
0.0
  0
LINE
  8
0
 62
     0
 10
49.9953
 20
212.881
 30
0.0
 11
49.954
 21
209.917
 31
0.0
  0
LINE
  8
0
 62
     0
 10
49.954
 20
209.917
 30
0.0
 11
49.9953
 21
206.911
 31
0.0
  0
LINE
  8
0
 62
     0
 10
49.9953
 20
206.911
 30
0.0
 11
50.25
 21
203.948
 31
0.0
  0
LINE
  8
0
 62
     0
 10
50.25
 20
203.948
 30
0.0
 11
50.6734
 21
201.027
 31
0.0
  0
LINE
  8
0
 62
     0
 10
50.6734
 20
201.027
 30
0.0
 11
51.223
 21
198.106
 31
0.0
  0
LINE
  8
0
 62
     0
 10
51.223
 20
198.106
 30
0.0
 11
51.9423
 21
195.185
 31
0.0
  0
LINE
  8
0
 62
     0
 10
51.9423
 20
195.185
 30
0.0
 11
52.8327
 21
192.349
 31
0.0
  0
LINE
  8
0
 62
     0
 10
52.8327
 20
192.349
 30
0.0
 11
53.8484
 21
189.555
 31
0.0
  0
LINE
  8
0
 62
     0
 10
53.8484
 20
189.555
 30
0.0
 11
55.0333
 21
186.803
 31
0.0
  0
LINE
  8
0
 62
     0
 10
55.0333
 20
186.803
 30
0.0
 11
56.3453
 21
184.136
 31
0.0
  0
LINE
  8
0
 62
     0
 10
56.3453
 20
184.136
 30
0.0
 11
57.828
 21
181.554
 31
0.0
  0
LINE
  8
0
 62
     0
 10
57.828
 20
181.554
 30
0.0
 11
59.3933
 21
179.056
 31
0.0
  0
LINE
  8
0
 62
     0
 10
59.3933
 20
179.056
 30
0.0
 11
61.1297
 21
176.643
 31
0.0
  0
LINE
  8
0
 62
     0
 10
61.1297
 20
176.643
 30
0.0
 11
63.0343
 21
174.315
 31
0.0
  0
LINE
  8
0
 62
     0
 10
63.0343
 20
174.315
 30
0.0
 11
64.9813
 21
172.072
 31
0.0
  0
LINE
  8
0
 62
     0
 10
64.9813
 20
172.072
 30
0.0
 11
67.098
 21
169.996
 31
0.0
  0
LINE
  8
0
 62
     0
 10
67.098
 20
169.996
 30
0.0
 11
69.3416
 21
168.008
 31
0.0
  0
LINE
  8
0
 62
     0
 10
69.3416
 20
168.008
 30
0.0
 11
71.6276
 21
166.145
 31
0.0
  0
LINE
  8
0
 62
     0
 10
71.6276
 20
166.145
 30
0.0
 11
74.0833
 21
164.367
 31
0.0
  0
LINE
  8
0
 62
     0
 10
74.0833
 20
164.367
 30
0.0
 11
76.5803
 21
162.8
 31
0.0
  0
LINE
  8
0
 62
     0
 10
76.5803
 20
162.8
 30
0.0
 11
79.1626
 21
161.319
 31
0.0
  0
LINE
  8
0
 62
     0
 10
79.1626
 20
161.319
 30
0.0
 11
81.8307
 21
160.006
 31
0.0
  0
LINE
  8
0
 62
     0
 10
81.8307
 20
160.006
 30
0.0
 11
84.5827
 21
158.82
 31
0.0
  0
LINE
  8
0
 62
     0
 10
84.5827
 20
158.82
 30
0.0
 11
87.376
 21
157.805
 31
0.0
  0
LINE
  8
0
 62
     0
 10
87.376
 20
157.805
 30
0.0
 11
90.212
 21
156.916
 31
0.0
  0
LINE
  8
0
 62
     0
 10
90.212
 20
156.916
 30
0.0
 11
93.0906
 21
156.197
 31
0.0
  0
LINE
  8
0
 62
     0
 10
93.0906
 20
156.197
 30
0.0
 11
96.012
 21
155.645
 31
0.0
  0
LINE
  8
0
 62
     0
 10
96.012
 20
155.645
 30
0.0
 11
98.975
 21
155.222
 31
0.0
  0
LINE
  8
0
 62
     0
 10
98.975
 20
155.222
 30
0.0
 11
101.939
 21
155.01
 31
0.0
  0
LINE
  8
0
 62
     0
 10
101.939
 20
155.01
 30
0.0
 11
104.902
 21
154.926
 31
0.0
  0
ENDSEC
  0
EOF
