  0
SECTION
  2
HEADER
  9
$ACADVER
  1
AC1009
  9
$EXTMIN
 10
0.0
 20
0.0
 30
0.0
  9
$EXTMAX
 10
1000.0
 20
1000.0
 30
0.0
  9
$FILLMODE
 70
 0
  9
$SPLFRAME
 70
 1
  0
ENDSEC
  0
SECTION
  2
TABLES
  0
TABLE
  2
LAYER
 70
1
  0
LAYER
  2
0
 70
     0
 62
     7
  6
CONTINUOUS
  0
ENDTAB
  0
ENDSEC
  0
SECTION
  2
ENTITIES
  0
POLYLINE
  8
0
 62
     0
 66
     1
 10
0
 20
0
 30
0.0
 40
0.72
 41
0.72
  0
VERTEX
  8
0
 10
0.145019
 20
2.94006
 30
0.0
 40
0.01
 41
0.01
  0
VERTEX
  8
0
 10
0.258356
 20
2.905
 30
0.0
 40
0.01
 41
0.01
  0
SEQEND
 8
0
  0
POLYLINE
  8
0
 62
     0
 66
     1
 10
0
 20
0
 30
0.0
 40
0.72
 41
0.72
  0
VERTEX
  8
0
 10
0.258356
 20
1.33333
 30
0.0
 40
0.01
 41
0.01
  0
VERTEX
  8
0
 10
0.258356
 20
3.00667
 30
0.0
 40
0.01
 41
0.01
  0
SEQEND
 8
0
  0
POLYLINE
  8
0
 62
     0
 66
     1
 10
0
 20
0
 30
0.0
 40
0.72
 41
0.72
  0
VERTEX
  8
0
 10
0.723307
 20
3.67333
 30
0.0
 40
0.01
 41
0.01
  0
VERTEX
  8
0
 10
0.639974
 20
3.59
 30
0.0
 40
0.01
 41
0.01
  0
VERTEX
  8
0
 10
0.563314
 20
3.50168
 30
0.0
 40
0.01
 41
0.01
  0
VERTEX
  8
0
 10
0.491644
 20
3.41004
 30
0.0
 40
0.01
 41
0.01
  0
VERTEX
  8
0
 10
0.425022
 20
3.31506
 30
0.0
 40
0.01
 41
0.01
  0
VERTEX
  8
0
 10
0.363336
 20
3.215
 30
0.0
 40
0.01
 41
0.01
  0
VERTEX
  8
0
 10
0.308322
 20
3.11171
 30
0.0
 40
0.01
 41
0.01
  0
VERTEX
  8
0
 10
0.258356
 20
3.00667
 30
0.0
 40
0.01
 41
0.01
  0
SEQEND
 8
0
  0
POLYLINE
  8
0
 62
     0
 66
     1
 10
0
 20
0
 30
0.0
 40
0.72
 41
0.72
  0
VERTEX
  8
0
 10
0.723307
 20
3.67333
 30
0.0
 40
0.01
 41
0.01
  0
VERTEX
  8
0
 10
0.723307
 20
2.79671
 30
0.0
 40
0.01
 41
0.01
  0
VERTEX
  8
0
 10
0.80165
 20
2.79671
 30
0.0
 40
0.01
 41
0.01
  0
VERTEX
  8
0
 10
0.80165
 20
3.78
 30
0.0
 40
0.01
 41
0.01
  0
VERTEX
  8
0
 10
0.843317
 20
3.78
 30
0.0
 40
0.01
 41
0.01
  0
SEQEND
 8
0
  0
POLYLINE
  8
0
 62
     0
 66
     1
 10
0
 20
0
 30
0.0
 40
0.72
 41
0.72
  0
VERTEX
  8
0
 10
3.49501
 20
3.78
 30
0.0
 40
0.01
 41
0.01
  0
VERTEX
  8
0
 10
3.405
 20
3.85167
 30
0.0
 40
0.01
 41
0.01
  0
VERTEX
  8
0
 10
3.31
 20
3.91667
 30
0.0
 40
0.01
 41
0.01
  0
VERTEX
  8
0
 10
3.21164
 20
3.97667
 30
0.0
 40
0.01
 41
0.01
  0
VERTEX
  8
0
 10
3.11003
 20
4.03168
 30
0.0
 40
0.01
 41
0.01
  0
VERTEX
  8
0
 10
3.00667
 20
4.08003
 30
0.0
 40
0.01
 41
0.01
  0
VERTEX
  8
0
 10
2.90001
 20
4.12337
 30
0.0
 40
0.01
 41
0.01
  0
VERTEX
  8
0
 10
2.79167
 20
4.16168
 30
0.0
 40
0.01
 41
0.01
  0
VERTEX
  8
0
 10
2.68164
 20
4.19168
 30
0.0
 40
0.01
 41
0.01
  0
VERTEX
  8
0
 10
2.56836
 20
4.21837
 30
0.0
 40
0.01
 41
0.01
  0
VERTEX
  8
0
 10
2.45503
 20
4.23671
 30
0.0
 40
0.01
 41
0.01
  0
VERTEX
  8
0
 10
2.34169
 20
4.25
 30
0.0
 40
0.01
 41
0.01
  0
VERTEX
  8
0
 10
2.22667
 20
4.25504
 30
0.0
 40
0.01
 41
0.01
  0
VERTEX
  8
0
 10
2.11165
 20
4.25504
 30
0.0
 40
0.01
 41
0.01
  0
VERTEX
  8
0
 10
1.99669
 20
4.25
 30
0.0
 40
0.01
 41
0.01
  0
VERTEX
  8
0
 10
1.88336
 20
4.23671
 30
0.0
 40
0.01
 41
0.01
  0
VERTEX
  8
0
 10
1.77001
 20
4.21837
 30
0.0
 40
0.01
 41
0.01
  0
VERTEX
  8
0
 10
1.65668
 20
4.19168
 30
0.0
 40
0.01
 41
0.01
  0
VERTEX
  8
0
 10
1.54665
 20
4.16168
 30
0.0
 40
0.01
 41
0.01
  0
VERTEX
  8
0
 10
1.43832
 20
4.12337
 30
0.0
 40
0.01
 41
0.01
  0
VERTEX
  8
0
 10
1.33165
 20
4.08003
 30
0.0
 40
0.01
 41
0.01
  0
VERTEX
  8
0
 10
1.22835
 20
4.03168
 30
0.0
 40
0.01
 41
0.01
  0
VERTEX
  8
0
 10
1.12668
 20
3.97667
 30
0.0
 40
0.01
 41
0.01
  0
VERTEX
  8
0
 10
1.02832
 20
3.91667
 30
0.0
 40
0.01
 41
0.01
  0
VERTEX
  8
0
 10
0.933322
 20
3.85167
 30
0.0
 40
0.01
 41
0.01
  0
VERTEX
  8
0
 10
0.843317
 20
3.78
 30
0.0
 40
0.01
 41
0.01
  0
SEQEND
 8
0
  0
POLYLINE
  8
0
 62
     0
 66
     1
 10
0
 20
0
 30
0.0
 40
0.72
 41
0.72
  0
VERTEX
  8
0
 10
1.24669
 20
4.12836
 30
0.0
 40
0.01
 41
0.01
  0
VERTEX
  8
0
 10
1.27501
 20
4.05501
 30
0.0
 40
0.01
 41
0.01
  0
SEQEND
 8
0
  0
POLYLINE
  8
0
 62
     0
 66
     1
 10
0
 20
0
 30
0.0
 40
0.72
 41
0.72
  0
VERTEX
  8
0
 10
0.843317
 20
3.78
 30
0.0
 40
0.01
 41
0.01
  0
VERTEX
  8
0
 10
0.80165
 20
3.78
 30
0.0
 40
0.01
 41
0.01
  0
VERTEX
  8
0
 10
0.80165
 20
2.79671
 30
0.0
 40
0.01
 41
0.01
  0
VERTEX
  8
0
 10
0.723307
 20
2.79671
 30
0.0
 40
0.01
 41
0.01
  0
VERTEX
  8
0
 10
0.723307
 20
2.60004
 30
0.0
 40
0.01
 41
0.01
  0
VERTEX
  8
0
 10
0.80165
 20
2.60004
 30
0.0
 40
0.01
 41
0.01
  0
VERTEX
  8
0
 10
0.80165
 20
1.74001
 30
0.0
 40
0.01
 41
0.01
  0
VERTEX
  8
0
 10
0.723307
 20
1.74001
 30
0.0
 40
0.01
 41
0.01
  0
VERTEX
  8
0
 10
0.723307
 20
1.54335
 30
0.0
 40
0.01
 41
0.01
  0
VERTEX
  8
0
 10
0.80165
 20
1.54335
 30
0.0
 40
0.01
 41
0.01
  0
VERTEX
  8
0
 10
0.80165
 20
0.558376
 30
0.0
 40
0.01
 41
0.01
  0
VERTEX
  8
0
 10
0.843317
 20
0.558376
 30
0.0
 40
0.01
 41
0.01
  0
VERTEX
  8
0
 10
0.933322
 20
0.488336
 30
0.0
 40
0.01
 41
0.01
  0
VERTEX
  8
0
 10
1.02832
 20
0.42334
 30
0.0
 40
0.01
 41
0.01
  0
VERTEX
  8
0
 10
1.12668
 20
0.361708
 30
0.0
 40
0.01
 41
0.01
  0
VERTEX
  8
0
 10
1.22835
 20
0.308376
 30
0.0
 40
0.01
 41
0.01
  0
VERTEX
  8
0
 10
1.33165
 20
0.258356
 30
0.0
 40
0.01
 41
0.01
  0
VERTEX
  8
0
 10
1.43832
 20
0.215007
 30
0.0
 40
0.01
 41
0.01
  0
VERTEX
  8
0
 10
1.54665
 20
0.178386
 30
0.0
 40
0.01
 41
0.01
  0
VERTEX
  8
0
 10
1.65668
 20
0.146701
 30
0.0
 40
0.01
 41
0.01
  0
VERTEX
  8
0
 10
1.77001
 20
0.121691
 30
0.0
 40
0.01
 41
0.01
  0
VERTEX
  8
0
 10
1.88336
 20
0.103353
 30
0.0
 40
0.01
 41
0.01
  0
VERTEX
  8
0
 10
1.99669
 20
0.0900065
 30
0.0
 40
0.01
 41
0.01
  0
VERTEX
  8
0
 10
2.11165
 20
0.0833333
 30
0.0
 40
0.01
 41
0.01
  0
VERTEX
  8
0
 10
2.22667
 20
0.0833333
 30
0.0
 40
0.01
 41
0.01
  0
VERTEX
  8
0
 10
2.34169
 20
0.0900065
 30
0.0
 40
0.01
 41
0.01
  0
VERTEX
  8
0
 10
2.45503
 20
0.103353
 30
0.0
 40
0.01
 41
0.01
  0
VERTEX
  8
0
 10
2.56836
 20
0.121691
 30
0.0
 40
0.01
 41
0.01
  0
VERTEX
  8
0
 10
2.68164
 20
0.146701
 30
0.0
 40
0.01
 41
0.01
  0
VERTEX
  8
0
 10
2.79167
 20
0.178386
 30
0.0
 40
0.01
 41
0.01
  0
VERTEX
  8
0
 10
2.90001
 20
0.215007
 30
0.0
 40
0.01
 41
0.01
  0
VERTEX
  8
0
 10
3.00667
 20
0.258356
 30
0.0
 40
0.01
 41
0.01
  0
VERTEX
  8
0
 10
3.11003
 20
0.308376
 30
0.0
 40
0.01
 41
0.01
  0
VERTEX
  8
0
 10
3.21164
 20
0.361708
 30
0.0
 40
0.01
 41
0.01
  0
VERTEX
  8
0
 10
3.31
 20
0.42334
 30
0.0
 40
0.01
 41
0.01
  0
VERTEX
  8
0
 10
3.405
 20
0.488336
 30
0.0
 40
0.01
 41
0.01
  0
VERTEX
  8
0
 10
3.49501
 20
0.558376
 30
0.0
 40
0.01
 41
0.01
  0
SEQEND
 8
0
  0
POLYLINE
  8
0
 62
     0
 66
     1
 10
0
 20
0
 30
0.0
 40
0.72
 41
0.72
  0
VERTEX
  8
0
 10
0.843317
 20
0.558376
 30
0.0
 40
0.01
 41
0.01
  0
VERTEX
  8
0
 10
0.933322
 20
0.488336
 30
0.0
 40
0.01
 41
0.01
  0
VERTEX
  8
0
 10
1.02832
 20
0.42334
 30
0.0
 40
0.01
 41
0.01
  0
VERTEX
  8
0
 10
1.12668
 20
0.361708
 30
0.0
 40
0.01
 41
0.01
  0
VERTEX
  8
0
 10
1.22835
 20
0.308376
 30
0.0
 40
0.01
 41
0.01
  0
VERTEX
  8
0
 10
1.33165
 20
0.258356
 30
0.0
 40
0.01
 41
0.01
  0
VERTEX
  8
0
 10
1.43832
 20
0.215007
 30
0.0
 40
0.01
 41
0.01
  0
VERTEX
  8
0
 10
1.54665
 20
0.178386
 30
0.0
 40
0.01
 41
0.01
  0
VERTEX
  8
0
 10
1.65668
 20
0.146701
 30
0.0
 40
0.01
 41
0.01
  0
VERTEX
  8
0
 10
1.77001
 20
0.121691
 30
0.0
 40
0.01
 41
0.01
  0
VERTEX
  8
0
 10
1.88336
 20
0.103353
 30
0.0
 40
0.01
 41
0.01
  0
VERTEX
  8
0
 10
1.99669
 20
0.0900065
 30
0.0
 40
0.01
 41
0.01
  0
VERTEX
  8
0
 10
2.11165
 20
0.0833333
 30
0.0
 40
0.01
 41
0.01
  0
VERTEX
  8
0
 10
2.22667
 20
0.0833333
 30
0.0
 40
0.01
 41
0.01
  0
VERTEX
  8
0
 10
2.34169
 20
0.0900065
 30
0.0
 40
0.01
 41
0.01
  0
VERTEX
  8
0
 10
2.45503
 20
0.103353
 30
0.0
 40
0.01
 41
0.01
  0
VERTEX
  8
0
 10
2.56836
 20
0.121691
 30
0.0
 40
0.01
 41
0.01
  0
VERTEX
  8
0
 10
2.68164
 20
0.146701
 30
0.0
 40
0.01
 41
0.01
  0
VERTEX
  8
0
 10
2.79167
 20
0.178386
 30
0.0
 40
0.01
 41
0.01
  0
VERTEX
  8
0
 10
2.90001
 20
0.215007
 30
0.0
 40
0.01
 41
0.01
  0
VERTEX
  8
0
 10
3.00667
 20
0.258356
 30
0.0
 40
0.01
 41
0.01
  0
VERTEX
  8
0
 10
3.11003
 20
0.308376
 30
0.0
 40
0.01
 41
0.01
  0
VERTEX
  8
0
 10
3.21164
 20
0.361708
 30
0.0
 40
0.01
 41
0.01
  0
VERTEX
  8
0
 10
3.31
 20
0.42334
 30
0.0
 40
0.01
 41
0.01
  0
VERTEX
  8
0
 10
3.405
 20
0.488336
 30
0.0
 40
0.01
 41
0.01
  0
VERTEX
  8
0
 10
3.49501
 20
0.558376
 30
0.0
 40
0.01
 41
0.01
  0
SEQEND
 8
0
  0
POLYLINE
  8
0
 62
     0
 66
     1
 10
0
 20
0
 30
0.0
 40
0.72
 41
0.72
  0
VERTEX
  8
0
 10
0.843317
 20
0.558376
 30
0.0
 40
0.01
 41
0.01
  0
VERTEX
  8
0
 10
0.933322
 20
0.488336
 30
0.0
 40
0.01
 41
0.01
  0
VERTEX
  8
0
 10
1.02832
 20
0.42334
 30
0.0
 40
0.01
 41
0.01
  0
VERTEX
  8
0
 10
1.12668
 20
0.361708
 30
0.0
 40
0.01
 41
0.01
  0
VERTEX
  8
0
 10
1.22835
 20
0.308376
 30
0.0
 40
0.01
 41
0.01
  0
VERTEX
  8
0
 10
1.33165
 20
0.258356
 30
0.0
 40
0.01
 41
0.01
  0
VERTEX
  8
0
 10
1.43832
 20
0.215007
 30
0.0
 40
0.01
 41
0.01
  0
VERTEX
  8
0
 10
1.54665
 20
0.178386
 30
0.0
 40
0.01
 41
0.01
  0
VERTEX
  8
0
 10
1.65668
 20
0.146701
 30
0.0
 40
0.01
 41
0.01
  0
VERTEX
  8
0
 10
1.77001
 20
0.121691
 30
0.0
 40
0.01
 41
0.01
  0
VERTEX
  8
0
 10
1.88336
 20
0.103353
 30
0.0
 40
0.01
 41
0.01
  0
VERTEX
  8
0
 10
1.99669
 20
0.0900065
 30
0.0
 40
0.01
 41
0.01
  0
VERTEX
  8
0
 10
2.11165
 20
0.0833333
 30
0.0
 40
0.01
 41
0.01
  0
VERTEX
  8
0
 10
2.22667
 20
0.0833333
 30
0.0
 40
0.01
 41
0.01
  0
VERTEX
  8
0
 10
2.34169
 20
0.0900065
 30
0.0
 40
0.01
 41
0.01
  0
VERTEX
  8
0
 10
2.45503
 20
0.103353
 30
0.0
 40
0.01
 41
0.01
  0
VERTEX
  8
0
 10
2.56836
 20
0.121691
 30
0.0
 40
0.01
 41
0.01
  0
VERTEX
  8
0
 10
2.68164
 20
0.146701
 30
0.0
 40
0.01
 41
0.01
  0
VERTEX
  8
0
 10
2.79167
 20
0.178386
 30
0.0
 40
0.01
 41
0.01
  0
VERTEX
  8
0
 10
2.90001
 20
0.215007
 30
0.0
 40
0.01
 41
0.01
  0
VERTEX
  8
0
 10
3.00667
 20
0.258356
 30
0.0
 40
0.01
 41
0.01
  0
VERTEX
  8
0
 10
3.11003
 20
0.308376
 30
0.0
 40
0.01
 41
0.01
  0
VERTEX
  8
0
 10
3.21164
 20
0.361708
 30
0.0
 40
0.01
 41
0.01
  0
VERTEX
  8
0
 10
3.31
 20
0.42334
 30
0.0
 40
0.01
 41
0.01
  0
VERTEX
  8
0
 10
3.405
 20
0.488336
 30
0.0
 40
0.01
 41
0.01
  0
VERTEX
  8
0
 10
3.49501
 20
0.558376
 30
0.0
 40
0.01
 41
0.01
  0
SEQEND
 8
0
  0
POLYLINE
  8
0
 62
     0
 66
     1
 10
0
 20
0
 30
0.0
 40
0.72
 41
0.72
  0
VERTEX
  8
0
 10
0.843317
 20
0.558376
 30
0.0
 40
0.01
 41
0.01
  0
VERTEX
  8
0
 10
0.933322
 20
0.488336
 30
0.0
 40
0.01
 41
0.01
  0
VERTEX
  8
0
 10
1.02832
 20
0.42334
 30
0.0
 40
0.01
 41
0.01
  0
VERTEX
  8
0
 10
1.12668
 20
0.361708
 30
0.0
 40
0.01
 41
0.01
  0
VERTEX
  8
0
 10
1.22835
 20
0.308376
 30
0.0
 40
0.01
 41
0.01
  0
VERTEX
  8
0
 10
1.33165
 20
0.258356
 30
0.0
 40
0.01
 41
0.01
  0
VERTEX
  8
0
 10
1.43832
 20
0.215007
 30
0.0
 40
0.01
 41
0.01
  0
VERTEX
  8
0
 10
1.54665
 20
0.178386
 30
0.0
 40
0.01
 41
0.01
  0
VERTEX
  8
0
 10
1.65668
 20
0.146701
 30
0.0
 40
0.01
 41
0.01
  0
VERTEX
  8
0
 10
1.77001
 20
0.121691
 30
0.0
 40
0.01
 41
0.01
  0
VERTEX
  8
0
 10
1.88336
 20
0.103353
 30
0.0
 40
0.01
 41
0.01
  0
VERTEX
  8
0
 10
1.99669
 20
0.0900065
 30
0.0
 40
0.01
 41
0.01
  0
VERTEX
  8
0
 10
2.11165
 20
0.0833333
 30
0.0
 40
0.01
 41
0.01
  0
VERTEX
  8
0
 10
2.22667
 20
0.0833333
 30
0.0
 40
0.01
 41
0.01
  0
VERTEX
  8
0
 10
2.34169
 20
0.0900065
 30
0.0
 40
0.01
 41
0.01
  0
VERTEX
  8
0
 10
2.45503
 20
0.103353
 30
0.0
 40
0.01
 41
0.01
  0
VERTEX
  8
0
 10
2.56836
 20
0.121691
 30
0.0
 40
0.01
 41
0.01
  0
VERTEX
  8
0
 10
2.68164
 20
0.146701
 30
0.0
 40
0.01
 41
0.01
  0
VERTEX
  8
0
 10
2.79167
 20
0.178386
 30
0.0
 40
0.01
 41
0.01
  0
VERTEX
  8
0
 10
2.90001
 20
0.215007
 30
0.0
 40
0.01
 41
0.01
  0
VERTEX
  8
0
 10
3.00667
 20
0.258356
 30
0.0
 40
0.01
 41
0.01
  0
VERTEX
  8
0
 10
3.11003
 20
0.308376
 30
0.0
 40
0.01
 41
0.01
  0
VERTEX
  8
0
 10
3.21164
 20
0.361708
 30
0.0
 40
0.01
 41
0.01
  0
VERTEX
  8
0
 10
3.31
 20
0.42334
 30
0.0
 40
0.01
 41
0.01
  0
VERTEX
  8
0
 10
3.405
 20
0.488336
 30
0.0
 40
0.01
 41
0.01
  0
VERTEX
  8
0
 10
3.49501
 20
0.558376
 30
0.0
 40
0.01
 41
0.01
  0
SEQEND
 8
0
  0
POLYLINE
  8
0
 62
     0
 66
     1
 10
0
 20
0
 30
0.0
 40
0.72
 41
0.72
  0
VERTEX
  8
0
 10
0.843317
 20
0.558376
 30
0.0
 40
0.01
 41
0.01
  0
VERTEX
  8
0
 10
0.933322
 20
0.488336
 30
0.0
 40
0.01
 41
0.01
  0
VERTEX
  8
0
 10
1.02832
 20
0.42334
 30
0.0
 40
0.01
 41
0.01
  0
VERTEX
  8
0
 10
1.12668
 20
0.361708
 30
0.0
 40
0.01
 41
0.01
  0
VERTEX
  8
0
 10
1.22835
 20
0.308376
 30
0.0
 40
0.01
 41
0.01
  0
VERTEX
  8
0
 10
1.33165
 20
0.258356
 30
0.0
 40
0.01
 41
0.01
  0
VERTEX
  8
0
 10
1.43832
 20
0.215007
 30
0.0
 40
0.01
 41
0.01
  0
VERTEX
  8
0
 10
1.54665
 20
0.178386
 30
0.0
 40
0.01
 41
0.01
  0
VERTEX
  8
0
 10
1.65668
 20
0.146701
 30
0.0
 40
0.01
 41
0.01
  0
VERTEX
  8
0
 10
1.77001
 20
0.121691
 30
0.0
 40
0.01
 41
0.01
  0
VERTEX
  8
0
 10
1.88336
 20
0.103353
 30
0.0
 40
0.01
 41
0.01
  0
VERTEX
  8
0
 10
1.99669
 20
0.0900065
 30
0.0
 40
0.01
 41
0.01
  0
VERTEX
  8
0
 10
2.11165
 20
0.0833333
 30
0.0
 40
0.01
 41
0.01
  0
VERTEX
  8
0
 10
2.22667
 20
0.0833333
 30
0.0
 40
0.01
 41
0.01
  0
VERTEX
  8
0
 10
2.34169
 20
0.0900065
 30
0.0
 40
0.01
 41
0.01
  0
VERTEX
  8
0
 10
2.45503
 20
0.103353
 30
0.0
 40
0.01
 41
0.01
  0
VERTEX
  8
0
 10
2.56836
 20
0.121691
 30
0.0
 40
0.01
 41
0.01
  0
VERTEX
  8
0
 10
2.68164
 20
0.146701
 30
0.0
 40
0.01
 41
0.01
  0
VERTEX
  8
0
 10
2.79167
 20
0.178386
 30
0.0
 40
0.01
 41
0.01
  0
VERTEX
  8
0
 10
2.90001
 20
0.215007
 30
0.0
 40
0.01
 41
0.01
  0
VERTEX
  8
0
 10
3.00667
 20
0.258356
 30
0.0
 40
0.01
 41
0.01
  0
VERTEX
  8
0
 10
3.11003
 20
0.308376
 30
0.0
 40
0.01
 41
0.01
  0
VERTEX
  8
0
 10
3.21164
 20
0.361708
 30
0.0
 40
0.01
 41
0.01
  0
VERTEX
  8
0
 10
3.31
 20
0.42334
 30
0.0
 40
0.01
 41
0.01
  0
VERTEX
  8
0
 10
3.405
 20
0.488336
 30
0.0
 40
0.01
 41
0.01
  0
VERTEX
  8
0
 10
3.49501
 20
0.558376
 30
0.0
 40
0.01
 41
0.01
  0
VERTEX
  8
0
 10
3.53668
 20
0.558376
 30
0.0
 40
0.01
 41
0.01
  0
VERTEX
  8
0
 10
3.53668
 20
1.54335
 30
0.0
 40
0.01
 41
0.01
  0
VERTEX
  8
0
 10
3.61501
 20
1.54335
 30
0.0
 40
0.01
 41
0.01
  0
VERTEX
  8
0
 10
3.61501
 20
1.74001
 30
0.0
 40
0.01
 41
0.01
  0
VERTEX
  8
0
 10
3.53668
 20
1.74001
 30
0.0
 40
0.01
 41
0.01
  0
VERTEX
  8
0
 10
3.53668
 20
2.60004
 30
0.0
 40
0.01
 41
0.01
  0
VERTEX
  8
0
 10
3.61501
 20
2.60004
 30
0.0
 40
0.01
 41
0.01
  0
VERTEX
  8
0
 10
3.61501
 20
2.79671
 30
0.0
 40
0.01
 41
0.01
  0
VERTEX
  8
0
 10
3.53668
 20
2.79671
 30
0.0
 40
0.01
 41
0.01
  0
VERTEX
  8
0
 10
3.53668
 20
3.78
 30
0.0
 40
0.01
 41
0.01
  0
VERTEX
  8
0
 10
3.49501
 20
3.78
 30
0.0
 40
0.01
 41
0.01
  0
VERTEX
  8
0
 10
3.405
 20
3.85167
 30
0.0
 40
0.01
 41
0.01
  0
VERTEX
  8
0
 10
3.31
 20
3.91667
 30
0.0
 40
0.01
 41
0.01
  0
VERTEX
  8
0
 10
3.21164
 20
3.97667
 30
0.0
 40
0.01
 41
0.01
  0
VERTEX
  8
0
 10
3.11003
 20
4.03168
 30
0.0
 40
0.01
 41
0.01
  0
VERTEX
  8
0
 10
3.00667
 20
4.08003
 30
0.0
 40
0.01
 41
0.01
  0
VERTEX
  8
0
 10
2.90001
 20
4.12337
 30
0.0
 40
0.01
 41
0.01
  0
VERTEX
  8
0
 10
2.79167
 20
4.16168
 30
0.0
 40
0.01
 41
0.01
  0
VERTEX
  8
0
 10
2.68164
 20
4.19168
 30
0.0
 40
0.01
 41
0.01
  0
VERTEX
  8
0
 10
2.56836
 20
4.21837
 30
0.0
 40
0.01
 41
0.01
  0
VERTEX
  8
0
 10
2.45503
 20
4.23671
 30
0.0
 40
0.01
 41
0.01
  0
VERTEX
  8
0
 10
2.34169
 20
4.25
 30
0.0
 40
0.01
 41
0.01
  0
VERTEX
  8
0
 10
2.22667
 20
4.25504
 30
0.0
 40
0.01
 41
0.01
  0
VERTEX
  8
0
 10
2.11165
 20
4.25504
 30
0.0
 40
0.01
 41
0.01
  0
VERTEX
  8
0
 10
1.99669
 20
4.25
 30
0.0
 40
0.01
 41
0.01
  0
VERTEX
  8
0
 10
1.88336
 20
4.23671
 30
0.0
 40
0.01
 41
0.01
  0
VERTEX
  8
0
 10
1.77001
 20
4.21837
 30
0.0
 40
0.01
 41
0.01
  0
VERTEX
  8
0
 10
1.65668
 20
4.19168
 30
0.0
 40
0.01
 41
0.01
  0
VERTEX
  8
0
 10
1.54665
 20
4.16168
 30
0.0
 40
0.01
 41
0.01
  0
VERTEX
  8
0
 10
1.43832
 20
4.12337
 30
0.0
 40
0.01
 41
0.01
  0
VERTEX
  8
0
 10
1.33165
 20
4.08003
 30
0.0
 40
0.01
 41
0.01
  0
VERTEX
  8
0
 10
1.22835
 20
4.03168
 30
0.0
 40
0.01
 41
0.01
  0
VERTEX
  8
0
 10
1.12668
 20
3.97667
 30
0.0
 40
0.01
 41
0.01
  0
VERTEX
  8
0
 10
1.02832
 20
3.91667
 30
0.0
 40
0.01
 41
0.01
  0
VERTEX
  8
0
 10
0.933322
 20
3.85167
 30
0.0
 40
0.01
 41
0.01
  0
VERTEX
  8
0
 10
0.843317
 20
3.78
 30
0.0
 40
0.01
 41
0.01
  0
SEQEND
 8
0
  0
POLYLINE
  8
0
 62
     0
 66
     1
 10
0
 20
0
 30
0.0
 40
0.72
 41
0.72
  0
VERTEX
  8
0
 10
3.49501
 20
3.78
 30
0.0
 40
0.01
 41
0.01
  0
VERTEX
  8
0
 10
3.405
 20
3.85167
 30
0.0
 40
0.01
 41
0.01
  0
VERTEX
  8
0
 10
3.31
 20
3.91667
 30
0.0
 40
0.01
 41
0.01
  0
VERTEX
  8
0
 10
3.21164
 20
3.97667
 30
0.0
 40
0.01
 41
0.01
  0
VERTEX
  8
0
 10
3.11003
 20
4.03168
 30
0.0
 40
0.01
 41
0.01
  0
VERTEX
  8
0
 10
3.00667
 20
4.08003
 30
0.0
 40
0.01
 41
0.01
  0
VERTEX
  8
0
 10
2.90001
 20
4.12337
 30
0.0
 40
0.01
 41
0.01
  0
VERTEX
  8
0
 10
2.79167
 20
4.16168
 30
0.0
 40
0.01
 41
0.01
  0
VERTEX
  8
0
 10
2.68164
 20
4.19168
 30
0.0
 40
0.01
 41
0.01
  0
VERTEX
  8
0
 10
2.56836
 20
4.21837
 30
0.0
 40
0.01
 41
0.01
  0
VERTEX
  8
0
 10
2.45503
 20
4.23671
 30
0.0
 40
0.01
 41
0.01
  0
VERTEX
  8
0
 10
2.34169
 20
4.25
 30
0.0
 40
0.01
 41
0.01
  0
VERTEX
  8
0
 10
2.22667
 20
4.25504
 30
0.0
 40
0.01
 41
0.01
  0
VERTEX
  8
0
 10
2.11165
 20
4.25504
 30
0.0
 40
0.01
 41
0.01
  0
VERTEX
  8
0
 10
1.99669
 20
4.25
 30
0.0
 40
0.01
 41
0.01
  0
VERTEX
  8
0
 10
1.88336
 20
4.23671
 30
0.0
 40
0.01
 41
0.01
  0
VERTEX
  8
0
 10
1.77001
 20
4.21837
 30
0.0
 40
0.01
 41
0.01
  0
VERTEX
  8
0
 10
1.65668
 20
4.19168
 30
0.0
 40
0.01
 41
0.01
  0
VERTEX
  8
0
 10
1.54665
 20
4.16168
 30
0.0
 40
0.01
 41
0.01
  0
VERTEX
  8
0
 10
1.43832
 20
4.12337
 30
0.0
 40
0.01
 41
0.01
  0
VERTEX
  8
0
 10
1.33165
 20
4.08003
 30
0.0
 40
0.01
 41
0.01
  0
VERTEX
  8
0
 10
1.22835
 20
4.03168
 30
0.0
 40
0.01
 41
0.01
  0
VERTEX
  8
0
 10
1.12668
 20
3.97667
 30
0.0
 40
0.01
 41
0.01
  0
VERTEX
  8
0
 10
1.02832
 20
3.91667
 30
0.0
 40
0.01
 41
0.01
  0
VERTEX
  8
0
 10
0.933322
 20
3.85167
 30
0.0
 40
0.01
 41
0.01
  0
VERTEX
  8
0
 10
0.843317
 20
3.78
 30
0.0
 40
0.01
 41
0.01
  0
SEQEND
 8
0
  0
POLYLINE
  8
0
 62
     0
 66
     1
 10
0
 20
0
 30
0.0
 40
0.72
 41
0.72
  0
VERTEX
  8
0
 10
3.49501
 20
3.78
 30
0.0
 40
0.01
 41
0.01
  0
VERTEX
  8
0
 10
3.405
 20
3.85167
 30
0.0
 40
0.01
 41
0.01
  0
VERTEX
  8
0
 10
3.31
 20
3.91667
 30
0.0
 40
0.01
 41
0.01
  0
VERTEX
  8
0
 10
3.21164
 20
3.97667
 30
0.0
 40
0.01
 41
0.01
  0
VERTEX
  8
0
 10
3.11003
 20
4.03168
 30
0.0
 40
0.01
 41
0.01
  0
VERTEX
  8
0
 10
3.00667
 20
4.08003
 30
0.0
 40
0.01
 41
0.01
  0
VERTEX
  8
0
 10
2.90001
 20
4.12337
 30
0.0
 40
0.01
 41
0.01
  0
VERTEX
  8
0
 10
2.79167
 20
4.16168
 30
0.0
 40
0.01
 41
0.01
  0
VERTEX
  8
0
 10
2.68164
 20
4.19168
 30
0.0
 40
0.01
 41
0.01
  0
VERTEX
  8
0
 10
2.56836
 20
4.21837
 30
0.0
 40
0.01
 41
0.01
  0
VERTEX
  8
0
 10
2.45503
 20
4.23671
 30
0.0
 40
0.01
 41
0.01
  0
VERTEX
  8
0
 10
2.34169
 20
4.25
 30
0.0
 40
0.01
 41
0.01
  0
VERTEX
  8
0
 10
2.22667
 20
4.25504
 30
0.0
 40
0.01
 41
0.01
  0
VERTEX
  8
0
 10
2.11165
 20
4.25504
 30
0.0
 40
0.01
 41
0.01
  0
VERTEX
  8
0
 10
1.99669
 20
4.25
 30
0.0
 40
0.01
 41
0.01
  0
VERTEX
  8
0
 10
1.88336
 20
4.23671
 30
0.0
 40
0.01
 41
0.01
  0
VERTEX
  8
0
 10
1.77001
 20
4.21837
 30
0.0
 40
0.01
 41
0.01
  0
VERTEX
  8
0
 10
1.65668
 20
4.19168
 30
0.0
 40
0.01
 41
0.01
  0
VERTEX
  8
0
 10
1.54665
 20
4.16168
 30
0.0
 40
0.01
 41
0.01
  0
VERTEX
  8
0
 10
1.43832
 20
4.12337
 30
0.0
 40
0.01
 41
0.01
  0
VERTEX
  8
0
 10
1.33165
 20
4.08003
 30
0.0
 40
0.01
 41
0.01
  0
VERTEX
  8
0
 10
1.22835
 20
4.03168
 30
0.0
 40
0.01
 41
0.01
  0
VERTEX
  8
0
 10
1.12668
 20
3.97667
 30
0.0
 40
0.01
 41
0.01
  0
VERTEX
  8
0
 10
1.02832
 20
3.91667
 30
0.0
 40
0.01
 41
0.01
  0
VERTEX
  8
0
 10
0.933322
 20
3.85167
 30
0.0
 40
0.01
 41
0.01
  0
VERTEX
  8
0
 10
0.843317
 20
3.78
 30
0.0
 40
0.01
 41
0.01
  0
SEQEND
 8
0
  0
POLYLINE
  8
0
 62
     0
 66
     1
 10
0
 20
0
 30
0.0
 40
0.72
 41
0.72
  0
VERTEX
  8
0
 10
1.55003
 20
4.16168
 30
0.0
 40
0.01
 41
0.01
  0
VERTEX
  8
0
 10
1.45665
 20
4.13004
 30
0.0
 40
0.01
 41
0.01
  0
VERTEX
  8
0
 10
1.36502
 20
4.09506
 30
0.0
 40
0.01
 41
0.01
  0
VERTEX
  8
0
 10
1.27501
 20
4.05501
 30
0.0
 40
0.01
 41
0.01
  0
SEQEND
 8
0
  0
POLYLINE
  8
0
 62
     0
 66
     1
 10
0
 20
0
 30
0.0
 40
0.72
 41
0.72
  0
VERTEX
  8
0
 10
3.49501
 20
3.78
 30
0.0
 40
0.01
 41
0.01
  0
VERTEX
  8
0
 10
3.405
 20
3.85167
 30
0.0
 40
0.01
 41
0.01
  0
VERTEX
  8
0
 10
3.31
 20
3.91667
 30
0.0
 40
0.01
 41
0.01
  0
VERTEX
  8
0
 10
3.21164
 20
3.97667
 30
0.0
 40
0.01
 41
0.01
  0
VERTEX
  8
0
 10
3.11003
 20
4.03168
 30
0.0
 40
0.01
 41
0.01
  0
VERTEX
  8
0
 10
3.00667
 20
4.08003
 30
0.0
 40
0.01
 41
0.01
  0
VERTEX
  8
0
 10
2.90001
 20
4.12337
 30
0.0
 40
0.01
 41
0.01
  0
VERTEX
  8
0
 10
2.79167
 20
4.16168
 30
0.0
 40
0.01
 41
0.01
  0
VERTEX
  8
0
 10
2.68164
 20
4.19168
 30
0.0
 40
0.01
 41
0.01
  0
VERTEX
  8
0
 10
2.56836
 20
4.21837
 30
0.0
 40
0.01
 41
0.01
  0
VERTEX
  8
0
 10
2.45503
 20
4.23671
 30
0.0
 40
0.01
 41
0.01
  0
VERTEX
  8
0
 10
2.34169
 20
4.25
 30
0.0
 40
0.01
 41
0.01
  0
VERTEX
  8
0
 10
2.22667
 20
4.25504
 30
0.0
 40
0.01
 41
0.01
  0
VERTEX
  8
0
 10
2.11165
 20
4.25504
 30
0.0
 40
0.01
 41
0.01
  0
VERTEX
  8
0
 10
1.99669
 20
4.25
 30
0.0
 40
0.01
 41
0.01
  0
VERTEX
  8
0
 10
1.88336
 20
4.23671
 30
0.0
 40
0.01
 41
0.01
  0
VERTEX
  8
0
 10
1.77001
 20
4.21837
 30
0.0
 40
0.01
 41
0.01
  0
VERTEX
  8
0
 10
1.65668
 20
4.19168
 30
0.0
 40
0.01
 41
0.01
  0
VERTEX
  8
0
 10
1.54665
 20
4.16168
 30
0.0
 40
0.01
 41
0.01
  0
VERTEX
  8
0
 10
1.43832
 20
4.12337
 30
0.0
 40
0.01
 41
0.01
  0
VERTEX
  8
0
 10
1.33165
 20
4.08003
 30
0.0
 40
0.01
 41
0.01
  0
VERTEX
  8
0
 10
1.22835
 20
4.03168
 30
0.0
 40
0.01
 41
0.01
  0
VERTEX
  8
0
 10
1.12668
 20
3.97667
 30
0.0
 40
0.01
 41
0.01
  0
VERTEX
  8
0
 10
1.02832
 20
3.91667
 30
0.0
 40
0.01
 41
0.01
  0
VERTEX
  8
0
 10
0.933322
 20
3.85167
 30
0.0
 40
0.01
 41
0.01
  0
VERTEX
  8
0
 10
0.843317
 20
3.78
 30
0.0
 40
0.01
 41
0.01
  0
SEQEND
 8
0
  0
POLYLINE
  8
0
 62
     0
 66
     1
 10
0
 20
0
 30
0.0
 40
0.72
 41
0.72
  0
VERTEX
  8
0
 10
3.09169
 20
4.12836
 30
0.0
 40
0.01
 41
0.01
  0
VERTEX
  8
0
 10
3.06332
 20
4.05501
 30
0.0
 40
0.01
 41
0.01
  0
SEQEND
 8
0
  0
POLYLINE
  8
0
 62
     0
 66
     1
 10
0
 20
0
 30
0.0
 40
0.72
 41
0.72
  0
VERTEX
  8
0
 10
3.49501
 20
3.78
 30
0.0
 40
0.01
 41
0.01
  0
VERTEX
  8
0
 10
3.405
 20
3.85167
 30
0.0
 40
0.01
 41
0.01
  0
VERTEX
  8
0
 10
3.31
 20
3.91667
 30
0.0
 40
0.01
 41
0.01
  0
VERTEX
  8
0
 10
3.21164
 20
3.97667
 30
0.0
 40
0.01
 41
0.01
  0
VERTEX
  8
0
 10
3.11003
 20
4.03168
 30
0.0
 40
0.01
 41
0.01
  0
VERTEX
  8
0
 10
3.00667
 20
4.08003
 30
0.0
 40
0.01
 41
0.01
  0
VERTEX
  8
0
 10
2.90001
 20
4.12337
 30
0.0
 40
0.01
 41
0.01
  0
VERTEX
  8
0
 10
2.79167
 20
4.16168
 30
0.0
 40
0.01
 41
0.01
  0
VERTEX
  8
0
 10
2.68164
 20
4.19168
 30
0.0
 40
0.01
 41
0.01
  0
VERTEX
  8
0
 10
2.56836
 20
4.21837
 30
0.0
 40
0.01
 41
0.01
  0
VERTEX
  8
0
 10
2.45503
 20
4.23671
 30
0.0
 40
0.01
 41
0.01
  0
VERTEX
  8
0
 10
2.34169
 20
4.25
 30
0.0
 40
0.01
 41
0.01
  0
VERTEX
  8
0
 10
2.22667
 20
4.25504
 30
0.0
 40
0.01
 41
0.01
  0
VERTEX
  8
0
 10
2.11165
 20
4.25504
 30
0.0
 40
0.01
 41
0.01
  0
VERTEX
  8
0
 10
1.99669
 20
4.25
 30
0.0
 40
0.01
 41
0.01
  0
VERTEX
  8
0
 10
1.88336
 20
4.23671
 30
0.0
 40
0.01
 41
0.01
  0
VERTEX
  8
0
 10
1.77001
 20
4.21837
 30
0.0
 40
0.01
 41
0.01
  0
VERTEX
  8
0
 10
1.65668
 20
4.19168
 30
0.0
 40
0.01
 41
0.01
  0
VERTEX
  8
0
 10
1.54665
 20
4.16168
 30
0.0
 40
0.01
 41
0.01
  0
VERTEX
  8
0
 10
1.43832
 20
4.12337
 30
0.0
 40
0.01
 41
0.01
  0
VERTEX
  8
0
 10
1.33165
 20
4.08003
 30
0.0
 40
0.01
 41
0.01
  0
VERTEX
  8
0
 10
1.22835
 20
4.03168
 30
0.0
 40
0.01
 41
0.01
  0
VERTEX
  8
0
 10
1.12668
 20
3.97667
 30
0.0
 40
0.01
 41
0.01
  0
VERTEX
  8
0
 10
1.02832
 20
3.91667
 30
0.0
 40
0.01
 41
0.01
  0
VERTEX
  8
0
 10
0.933322
 20
3.85167
 30
0.0
 40
0.01
 41
0.01
  0
VERTEX
  8
0
 10
0.843317
 20
3.78
 30
0.0
 40
0.01
 41
0.01
  0
SEQEND
 8
0
  0
POLYLINE
  8
0
 62
     0
 66
     1
 10
0
 20
0
 30
0.0
 40
0.72
 41
0.72
  0
VERTEX
  8
0
 10
3.49501
 20
3.78
 30
0.0
 40
0.01
 41
0.01
  0
VERTEX
  8
0
 10
3.53668
 20
3.78
 30
0.0
 40
0.01
 41
0.01
  0
VERTEX
  8
0
 10
3.53668
 20
2.79671
 30
0.0
 40
0.01
 41
0.01
  0
VERTEX
  8
0
 10
3.61501
 20
2.79671
 30
0.0
 40
0.01
 41
0.01
  0
VERTEX
  8
0
 10
3.61501
 20
3.67333
 30
0.0
 40
0.01
 41
0.01
  0
SEQEND
 8
0
  0
POLYLINE
  8
0
 62
     0
 66
     1
 10
0
 20
0
 30
0.0
 40
0.72
 41
0.72
  0
VERTEX
  8
0
 10
4.08003
 20
3.00667
 30
0.0
 40
0.01
 41
0.01
  0
VERTEX
  8
0
 10
4.03
 20
3.11171
 30
0.0
 40
0.01
 41
0.01
  0
VERTEX
  8
0
 10
3.97499
 20
3.215
 30
0.0
 40
0.01
 41
0.01
  0
VERTEX
  8
0
 10
3.91336
 20
3.31506
 30
0.0
 40
0.01
 41
0.01
  0
VERTEX
  8
0
 10
3.84668
 20
3.41004
 30
0.0
 40
0.01
 41
0.01
  0
VERTEX
  8
0
 10
3.77501
 20
3.50168
 30
0.0
 40
0.01
 41
0.01
  0
VERTEX
  8
0
 10
3.69835
 20
3.59
 30
0.0
 40
0.01
 41
0.01
  0
VERTEX
  8
0
 10
3.61501
 20
3.67333
 30
0.0
 40
0.01
 41
0.01
  0
SEQEND
 8
0
  0
POLYLINE
  8
0
 62
     0
 66
     1
 10
0
 20
0
 30
0.0
 40
0.72
 41
0.72
  0
VERTEX
  8
0
 10
4.08003
 20
3.00667
 30
0.0
 40
0.01
 41
0.01
  0
VERTEX
  8
0
 10
4.08003
 20
1.33333
 30
0.0
 40
0.01
 41
0.01
  0
SEQEND
 8
0
  0
POLYLINE
  8
0
 62
     0
 66
     1
 10
0
 20
0
 30
0.0
 40
0.72
 41
0.72
  0
VERTEX
  8
0
 10
4.19336
 20
2.94006
 30
0.0
 40
0.01
 41
0.01
  0
VERTEX
  8
0
 10
4.08003
 20
2.905
 30
0.0
 40
0.01
 41
0.01
  0
SEQEND
 8
0
  0
POLYLINE
  8
0
 62
     0
 66
     1
 10
0
 20
0
 30
0.0
 70
     1
 40
0.72
 41
0.72
  0
VERTEX
  8
0
 10
0.723307
 20
3.67333
 30
0.0
 40
0.01
 41
0.01
  0
VERTEX
  8
0
 10
0.639974
 20
3.59
 30
0.0
 40
0.01
 41
0.01
  0
VERTEX
  8
0
 10
0.563314
 20
3.50168
 30
0.0
 40
0.01
 41
0.01
  0
VERTEX
  8
0
 10
0.491644
 20
3.41004
 30
0.0
 40
0.01
 41
0.01
  0
VERTEX
  8
0
 10
0.425022
 20
3.31506
 30
0.0
 40
0.01
 41
0.01
  0
VERTEX
  8
0
 10
0.363336
 20
3.215
 30
0.0
 40
0.01
 41
0.01
  0
VERTEX
  8
0
 10
0.308322
 20
3.11171
 30
0.0
 40
0.01
 41
0.01
  0
VERTEX
  8
0
 10
0.258356
 20
3.00667
 30
0.0
 40
0.01
 41
0.01
  0
VERTEX
  8
0
 10
0.258356
 20
1.33333
 30
0.0
 40
0.01
 41
0.01
  0
VERTEX
  8
0
 10
0.258356
 20
3.00667
 30
0.0
 40
0.01
 41
0.01
  0
VERTEX
  8
0
 10
0.258356
 20
1.33333
 30
0.0
 40
0.01
 41
0.01
  0
VERTEX
  8
0
 10
0.258356
 20
3.00667
 30
0.0
 40
0.01
 41
0.01
  0
VERTEX
  8
0
 10
0.258356
 20
1.33333
 30
0.0
 40
0.01
 41
0.01
  0
VERTEX
  8
0
 10
0.308322
 20
1.22667
 30
0.0
 40
0.01
 41
0.01
  0
VERTEX
  8
0
 10
0.363336
 20
1.125
 30
0.0
 40
0.01
 41
0.01
  0
VERTEX
  8
0
 10
0.425022
 20
1.02501
 30
0.0
 40
0.01
 41
0.01
  0
VERTEX
  8
0
 10
0.491644
 20
0.930012
 30
0.0
 40
0.01
 41
0.01
  0
VERTEX
  8
0
 10
0.563314
 20
0.836697
 30
0.0
 40
0.01
 41
0.01
  0
VERTEX
  8
0
 10
0.639974
 20
0.75
 30
0.0
 40
0.01
 41
0.01
  0
VERTEX
  8
0
 10
0.723307
 20
0.666667
 30
0.0
 40
0.01
 41
0.01
  0
VERTEX
  8
0
 10
0.723307
 20
3.67333
 30
0.0
 40
0.01
 41
0.01
  0
SEQEND
 8
0
  0
POLYLINE
  8
0
 62
     0
 66
     1
 10
0
 20
0
 30
0.0
 40
0.72
 41
0.72
  0
VERTEX
  8
0
 10
1.24669
 20
0.211697
 30
0.0
 40
0.01
 41
0.01
  0
VERTEX
  8
0
 10
1.27501
 20
0.285047
 30
0.0
 40
0.01
 41
0.01
  0
SEQEND
 8
0
  0
POLYLINE
  8
0
 62
     0
 66
     1
 10
0
 20
0
 30
0.0
 40
0.72
 41
0.72
  0
VERTEX
  8
0
 10
0.843317
 20
0.558376
 30
0.0
 40
0.01
 41
0.01
  0
VERTEX
  8
0
 10
0.933322
 20
0.488336
 30
0.0
 40
0.01
 41
0.01
  0
VERTEX
  8
0
 10
1.02832
 20
0.42334
 30
0.0
 40
0.01
 41
0.01
  0
VERTEX
  8
0
 10
1.12668
 20
0.361708
 30
0.0
 40
0.01
 41
0.01
  0
VERTEX
  8
0
 10
1.22835
 20
0.308376
 30
0.0
 40
0.01
 41
0.01
  0
VERTEX
  8
0
 10
1.33165
 20
0.258356
 30
0.0
 40
0.01
 41
0.01
  0
VERTEX
  8
0
 10
1.43832
 20
0.215007
 30
0.0
 40
0.01
 41
0.01
  0
VERTEX
  8
0
 10
1.54665
 20
0.178386
 30
0.0
 40
0.01
 41
0.01
  0
VERTEX
  8
0
 10
1.65668
 20
0.146701
 30
0.0
 40
0.01
 41
0.01
  0
VERTEX
  8
0
 10
1.77001
 20
0.121691
 30
0.0
 40
0.01
 41
0.01
  0
VERTEX
  8
0
 10
1.88336
 20
0.103353
 30
0.0
 40
0.01
 41
0.01
  0
VERTEX
  8
0
 10
1.99669
 20
0.0900065
 30
0.0
 40
0.01
 41
0.01
  0
VERTEX
  8
0
 10
2.11165
 20
0.0833333
 30
0.0
 40
0.01
 41
0.01
  0
VERTEX
  8
0
 10
2.22667
 20
0.0833333
 30
0.0
 40
0.01
 41
0.01
  0
VERTEX
  8
0
 10
2.34169
 20
0.0900065
 30
0.0
 40
0.01
 41
0.01
  0
VERTEX
  8
0
 10
2.45503
 20
0.103353
 30
0.0
 40
0.01
 41
0.01
  0
VERTEX
  8
0
 10
2.56836
 20
0.121691
 30
0.0
 40
0.01
 41
0.01
  0
VERTEX
  8
0
 10
2.68164
 20
0.146701
 30
0.0
 40
0.01
 41
0.01
  0
VERTEX
  8
0
 10
2.79167
 20
0.178386
 30
0.0
 40
0.01
 41
0.01
  0
VERTEX
  8
0
 10
2.90001
 20
0.215007
 30
0.0
 40
0.01
 41
0.01
  0
VERTEX
  8
0
 10
3.00667
 20
0.258356
 30
0.0
 40
0.01
 41
0.01
  0
VERTEX
  8
0
 10
3.11003
 20
0.308376
 30
0.0
 40
0.01
 41
0.01
  0
VERTEX
  8
0
 10
3.21164
 20
0.361708
 30
0.0
 40
0.01
 41
0.01
  0
VERTEX
  8
0
 10
3.31
 20
0.42334
 30
0.0
 40
0.01
 41
0.01
  0
VERTEX
  8
0
 10
3.405
 20
0.488336
 30
0.0
 40
0.01
 41
0.01
  0
VERTEX
  8
0
 10
3.49501
 20
0.558376
 30
0.0
 40
0.01
 41
0.01
  0
SEQEND
 8
0
  0
POLYLINE
  8
0
 62
     0
 66
     1
 10
0
 20
0
 30
0.0
 40
0.72
 41
0.72
  0
VERTEX
  8
0
 10
0.843317
 20
0.558376
 30
0.0
 40
0.01
 41
0.01
  0
VERTEX
  8
0
 10
0.80165
 20
0.558376
 30
0.0
 40
0.01
 41
0.01
  0
VERTEX
  8
0
 10
0.80165
 20
1.54335
 30
0.0
 40
0.01
 41
0.01
  0
VERTEX
  8
0
 10
0.723307
 20
1.54335
 30
0.0
 40
0.01
 41
0.01
  0
VERTEX
  8
0
 10
0.723307
 20
0.666667
 30
0.0
 40
0.01
 41
0.01
  0
SEQEND
 8
0
  0
POLYLINE
  8
0
 62
     0
 66
     1
 10
0
 20
0
 30
0.0
 40
0.72
 41
0.72
  0
VERTEX
  8
0
 10
0.258356
 20
1.33333
 30
0.0
 40
0.01
 41
0.01
  0
VERTEX
  8
0
 10
0.308322
 20
1.22667
 30
0.0
 40
0.01
 41
0.01
  0
VERTEX
  8
0
 10
0.363336
 20
1.125
 30
0.0
 40
0.01
 41
0.01
  0
VERTEX
  8
0
 10
0.425022
 20
1.02501
 30
0.0
 40
0.01
 41
0.01
  0
VERTEX
  8
0
 10
0.491644
 20
0.930012
 30
0.0
 40
0.01
 41
0.01
  0
VERTEX
  8
0
 10
0.563314
 20
0.836697
 30
0.0
 40
0.01
 41
0.01
  0
VERTEX
  8
0
 10
0.639974
 20
0.75
 30
0.0
 40
0.01
 41
0.01
  0
VERTEX
  8
0
 10
0.723307
 20
0.666667
 30
0.0
 40
0.01
 41
0.01
  0
SEQEND
 8
0
  0
POLYLINE
  8
0
 62
     0
 66
     1
 10
0
 20
0
 30
0.0
 40
0.72
 41
0.72
  0
VERTEX
  8
0
 10
0.258356
 20
1.33333
 30
0.0
 40
0.01
 41
0.01
  0
VERTEX
  8
0
 10
0.258356
 20
3.00667
 30
0.0
 40
0.01
 41
0.01
  0
SEQEND
 8
0
  0
POLYLINE
  8
0
 62
     0
 66
     1
 10
0
 20
0
 30
0.0
 40
0.72
 41
0.72
  0
VERTEX
  8
0
 10
0.145019
 20
1.40001
 30
0.0
 40
0.01
 41
0.01
  0
VERTEX
  8
0
 10
0.258356
 20
1.435
 30
0.0
 40
0.01
 41
0.01
  0
SEQEND
 8
0
  0
POLYLINE
  8
0
 62
     0
 66
     1
 10
0
 20
0
 30
0.0
 40
0.72
 41
0.72
  0
VERTEX
  8
0
 10
4.19336
 20
1.40001
 30
0.0
 40
0.01
 41
0.01
  0
VERTEX
  8
0
 10
4.08003
 20
1.435
 30
0.0
 40
0.01
 41
0.01
  0
SEQEND
 8
0
  0
POLYLINE
  8
0
 62
     0
 66
     1
 10
0
 20
0
 30
0.0
 40
0.72
 41
0.72
  0
VERTEX
  8
0
 10
4.08003
 20
3.00667
 30
0.0
 40
0.01
 41
0.01
  0
VERTEX
  8
0
 10
4.08003
 20
1.33333
 30
0.0
 40
0.01
 41
0.01
  0
SEQEND
 8
0
  0
POLYLINE
  8
0
 62
     0
 66
     1
 10
0
 20
0
 30
0.0
 40
0.72
 41
0.72
  0
VERTEX
  8
0
 10
3.61501
 20
0.666667
 30
0.0
 40
0.01
 41
0.01
  0
VERTEX
  8
0
 10
3.69835
 20
0.75
 30
0.0
 40
0.01
 41
0.01
  0
VERTEX
  8
0
 10
3.77501
 20
0.836697
 30
0.0
 40
0.01
 41
0.01
  0
VERTEX
  8
0
 10
3.84668
 20
0.930012
 30
0.0
 40
0.01
 41
0.01
  0
VERTEX
  8
0
 10
3.91336
 20
1.02501
 30
0.0
 40
0.01
 41
0.01
  0
VERTEX
  8
0
 10
3.97499
 20
1.125
 30
0.0
 40
0.01
 41
0.01
  0
VERTEX
  8
0
 10
4.03
 20
1.22667
 30
0.0
 40
0.01
 41
0.01
  0
VERTEX
  8
0
 10
4.08003
 20
1.33333
 30
0.0
 40
0.01
 41
0.01
  0
SEQEND
 8
0
  0
POLYLINE
  8
0
 62
     0
 66
     1
 10
0
 20
0
 30
0.0
 40
0.72
 41
0.72
  0
VERTEX
  8
0
 10
3.61501
 20
0.666667
 30
0.0
 40
0.01
 41
0.01
  0
VERTEX
  8
0
 10
3.61501
 20
1.54335
 30
0.0
 40
0.01
 41
0.01
  0
VERTEX
  8
0
 10
3.53668
 20
1.54335
 30
0.0
 40
0.01
 41
0.01
  0
VERTEX
  8
0
 10
3.53668
 20
0.558376
 30
0.0
 40
0.01
 41
0.01
  0
VERTEX
  8
0
 10
3.49501
 20
0.558376
 30
0.0
 40
0.01
 41
0.01
  0
SEQEND
 8
0
  0
POLYLINE
  8
0
 62
     0
 66
     1
 10
0
 20
0
 30
0.0
 40
0.72
 41
0.72
  0
VERTEX
  8
0
 10
0.843317
 20
0.558376
 30
0.0
 40
0.01
 41
0.01
  0
VERTEX
  8
0
 10
0.933322
 20
0.488336
 30
0.0
 40
0.01
 41
0.01
  0
VERTEX
  8
0
 10
1.02832
 20
0.42334
 30
0.0
 40
0.01
 41
0.01
  0
VERTEX
  8
0
 10
1.12668
 20
0.361708
 30
0.0
 40
0.01
 41
0.01
  0
VERTEX
  8
0
 10
1.22835
 20
0.308376
 30
0.0
 40
0.01
 41
0.01
  0
VERTEX
  8
0
 10
1.33165
 20
0.258356
 30
0.0
 40
0.01
 41
0.01
  0
VERTEX
  8
0
 10
1.43832
 20
0.215007
 30
0.0
 40
0.01
 41
0.01
  0
VERTEX
  8
0
 10
1.54665
 20
0.178386
 30
0.0
 40
0.01
 41
0.01
  0
VERTEX
  8
0
 10
1.65668
 20
0.146701
 30
0.0
 40
0.01
 41
0.01
  0
VERTEX
  8
0
 10
1.77001
 20
0.121691
 30
0.0
 40
0.01
 41
0.01
  0
VERTEX
  8
0
 10
1.88336
 20
0.103353
 30
0.0
 40
0.01
 41
0.01
  0
VERTEX
  8
0
 10
1.99669
 20
0.0900065
 30
0.0
 40
0.01
 41
0.01
  0
VERTEX
  8
0
 10
2.11165
 20
0.0833333
 30
0.0
 40
0.01
 41
0.01
  0
VERTEX
  8
0
 10
2.22667
 20
0.0833333
 30
0.0
 40
0.01
 41
0.01
  0
VERTEX
  8
0
 10
2.34169
 20
0.0900065
 30
0.0
 40
0.01
 41
0.01
  0
VERTEX
  8
0
 10
2.45503
 20
0.103353
 30
0.0
 40
0.01
 41
0.01
  0
VERTEX
  8
0
 10
2.56836
 20
0.121691
 30
0.0
 40
0.01
 41
0.01
  0
VERTEX
  8
0
 10
2.68164
 20
0.146701
 30
0.0
 40
0.01
 41
0.01
  0
VERTEX
  8
0
 10
2.79167
 20
0.178386
 30
0.0
 40
0.01
 41
0.01
  0
VERTEX
  8
0
 10
2.90001
 20
0.215007
 30
0.0
 40
0.01
 41
0.01
  0
VERTEX
  8
0
 10
3.00667
 20
0.258356
 30
0.0
 40
0.01
 41
0.01
  0
VERTEX
  8
0
 10
3.11003
 20
0.308376
 30
0.0
 40
0.01
 41
0.01
  0
VERTEX
  8
0
 10
3.21164
 20
0.361708
 30
0.0
 40
0.01
 41
0.01
  0
VERTEX
  8
0
 10
3.31
 20
0.42334
 30
0.0
 40
0.01
 41
0.01
  0
VERTEX
  8
0
 10
3.405
 20
0.488336
 30
0.0
 40
0.01
 41
0.01
  0
VERTEX
  8
0
 10
3.49501
 20
0.558376
 30
0.0
 40
0.01
 41
0.01
  0
SEQEND
 8
0
  0
POLYLINE
  8
0
 62
     0
 66
     1
 10
0
 20
0
 30
0.0
 40
0.72
 41
0.72
  0
VERTEX
  8
0
 10
3.09169
 20
0.211697
 30
0.0
 40
0.01
 41
0.01
  0
VERTEX
  8
0
 10
3.06332
 20
0.285047
 30
0.0
 40
0.01
 41
0.01
  0
SEQEND
 8
0
  0
POLYLINE
  8
0
 62
     0
 66
     1
 10
0
 20
0
 30
0.0
 70
     1
 40
0.72
 41
0.72
  0
VERTEX
  8
0
 10
0.723307
 20
2.60004
 30
0.0
 40
0.01
 41
0.01
  0
VERTEX
  8
0
 10
0.80165
 20
2.60004
 30
0.0
 40
0.01
 41
0.01
  0
VERTEX
  8
0
 10
0.80165
 20
1.74001
 30
0.0
 40
0.01
 41
0.01
  0
VERTEX
  8
0
 10
0.723307
 20
1.74001
 30
0.0
 40
0.01
 41
0.01
  0
VERTEX
  8
0
 10
0.723307
 20
2.60004
 30
0.0
 40
0.01
 41
0.01
  0
SEQEND
 8
0
  0
POLYLINE
  8
0
 62
     0
 66
     1
 10
0
 20
0
 30
0.0
 70
     1
 40
0.72
 41
0.72
  0
VERTEX
  8
0
 10
3.53668
 20
2.60004
 30
0.0
 40
0.01
 41
0.01
  0
VERTEX
  8
0
 10
3.61501
 20
2.60004
 30
0.0
 40
0.01
 41
0.01
  0
VERTEX
  8
0
 10
3.61501
 20
1.74001
 30
0.0
 40
0.01
 41
0.01
  0
VERTEX
  8
0
 10
3.53668
 20
1.74001
 30
0.0
 40
0.01
 41
0.01
  0
VERTEX
  8
0
 10
3.53668
 20
2.60004
 30
0.0
 40
0.01
 41
0.01
  0
SEQEND
 8
0
  0
POLYLINE
  8
0
 62
     0
 66
     1
 10
0
 20
0
 30
0.0
 70
     1
 40
0.72
 41
0.72
  0
VERTEX
  8
0
 10
3.61501
 20
0.666667
 30
0.0
 40
0.01
 41
0.01
  0
VERTEX
  8
0
 10
3.69835
 20
0.75
 30
0.0
 40
0.01
 41
0.01
  0
VERTEX
  8
0
 10
3.77501
 20
0.836697
 30
0.0
 40
0.01
 41
0.01
  0
VERTEX
  8
0
 10
3.84668
 20
0.930012
 30
0.0
 40
0.01
 41
0.01
  0
VERTEX
  8
0
 10
3.91336
 20
1.02501
 30
0.0
 40
0.01
 41
0.01
  0
VERTEX
  8
0
 10
3.97499
 20
1.125
 30
0.0
 40
0.01
 41
0.01
  0
VERTEX
  8
0
 10
4.03
 20
1.22667
 30
0.0
 40
0.01
 41
0.01
  0
VERTEX
  8
0
 10
4.08003
 20
1.33333
 30
0.0
 40
0.01
 41
0.01
  0
VERTEX
  8
0
 10
4.08003
 20
3.00667
 30
0.0
 40
0.01
 41
0.01
  0
VERTEX
  8
0
 10
4.08003
 20
1.33333
 30
0.0
 40
0.01
 41
0.01
  0
VERTEX
  8
0
 10
4.08003
 20
3.00667
 30
0.0
 40
0.01
 41
0.01
  0
VERTEX
  8
0
 10
4.08003
 20
1.33333
 30
0.0
 40
0.01
 41
0.01
  0
VERTEX
  8
0
 10
4.08003
 20
3.00667
 30
0.0
 40
0.01
 41
0.01
  0
VERTEX
  8
0
 10
4.03
 20
3.11171
 30
0.0
 40
0.01
 41
0.01
  0
VERTEX
  8
0
 10
3.97499
 20
3.215
 30
0.0
 40
0.01
 41
0.01
  0
VERTEX
  8
0
 10
3.91336
 20
3.31506
 30
0.0
 40
0.01
 41
0.01
  0
VERTEX
  8
0
 10
3.84668
 20
3.41004
 30
0.0
 40
0.01
 41
0.01
  0
VERTEX
  8
0
 10
3.77501
 20
3.50168
 30
0.0
 40
0.01
 41
0.01
  0
VERTEX
  8
0
 10
3.69835
 20
3.59
 30
0.0
 40
0.01
 41
0.01
  0
VERTEX
  8
0
 10
3.61501
 20
3.67333
 30
0.0
 40
0.01
 41
0.01
  0
VERTEX
  8
0
 10
3.61501
 20
0.666667
 30
0.0
 40
0.01
 41
0.01
  0
SEQEND
 8
0
  0
POLYLINE
  8
0
 62
     0
 66
     1
 10
0
 20
0
 30
0.0
 40
0.72
 41
0.72
  0
VERTEX
  8
0
 10
1.24669
 20
4.12836
 30
0.0
 40
0.01
 41
0.01
  0
VERTEX
  8
0
 10
1.27501
 20
4.05501
 30
0.0
 40
0.01
 41
0.01
  0
SEQEND
 8
0
  0
POLYLINE
  8
0
 62
     0
 66
     1
 10
0
 20
0
 30
0.0
 40
0.72
 41
0.72
  0
VERTEX
  8
0
 10
3.49501
 20
3.78
 30
0.0
 40
0.01
 41
0.01
  0
VERTEX
  8
0
 10
3.405
 20
3.85167
 30
0.0
 40
0.01
 41
0.01
  0
VERTEX
  8
0
 10
3.31
 20
3.91667
 30
0.0
 40
0.01
 41
0.01
  0
VERTEX
  8
0
 10
3.21164
 20
3.97667
 30
0.0
 40
0.01
 41
0.01
  0
VERTEX
  8
0
 10
3.11003
 20
4.03168
 30
0.0
 40
0.01
 41
0.01
  0
VERTEX
  8
0
 10
3.00667
 20
4.08003
 30
0.0
 40
0.01
 41
0.01
  0
VERTEX
  8
0
 10
2.90001
 20
4.12337
 30
0.0
 40
0.01
 41
0.01
  0
VERTEX
  8
0
 10
2.79167
 20
4.16168
 30
0.0
 40
0.01
 41
0.01
  0
VERTEX
  8
0
 10
2.68164
 20
4.19168
 30
0.0
 40
0.01
 41
0.01
  0
VERTEX
  8
0
 10
2.56836
 20
4.21837
 30
0.0
 40
0.01
 41
0.01
  0
VERTEX
  8
0
 10
2.45503
 20
4.23671
 30
0.0
 40
0.01
 41
0.01
  0
VERTEX
  8
0
 10
2.34169
 20
4.25
 30
0.0
 40
0.01
 41
0.01
  0
VERTEX
  8
0
 10
2.22667
 20
4.25504
 30
0.0
 40
0.01
 41
0.01
  0
VERTEX
  8
0
 10
2.11165
 20
4.25504
 30
0.0
 40
0.01
 41
0.01
  0
VERTEX
  8
0
 10
1.99669
 20
4.25
 30
0.0
 40
0.01
 41
0.01
  0
VERTEX
  8
0
 10
1.88336
 20
4.23671
 30
0.0
 40
0.01
 41
0.01
  0
VERTEX
  8
0
 10
1.77001
 20
4.21837
 30
0.0
 40
0.01
 41
0.01
  0
VERTEX
  8
0
 10
1.65668
 20
4.19168
 30
0.0
 40
0.01
 41
0.01
  0
VERTEX
  8
0
 10
1.54665
 20
4.16168
 30
0.0
 40
0.01
 41
0.01
  0
VERTEX
  8
0
 10
1.43832
 20
4.12337
 30
0.0
 40
0.01
 41
0.01
  0
VERTEX
  8
0
 10
1.33165
 20
4.08003
 30
0.0
 40
0.01
 41
0.01
  0
VERTEX
  8
0
 10
1.22835
 20
4.03168
 30
0.0
 40
0.01
 41
0.01
  0
VERTEX
  8
0
 10
1.12668
 20
3.97667
 30
0.0
 40
0.01
 41
0.01
  0
VERTEX
  8
0
 10
1.02832
 20
3.91667
 30
0.0
 40
0.01
 41
0.01
  0
VERTEX
  8
0
 10
0.933322
 20
3.85167
 30
0.0
 40
0.01
 41
0.01
  0
VERTEX
  8
0
 10
0.843317
 20
3.78
 30
0.0
 40
0.01
 41
0.01
  0
SEQEND
 8
0
  0
POLYLINE
  8
0
 62
     0
 66
     1
 10
0
 20
0
 30
0.0
 40
0.72
 41
0.72
  0
VERTEX
  8
0
 10
1.52165
 20
4.23503
 30
0.0
 40
0.01
 41
0.01
  0
VERTEX
  8
0
 10
1.55003
 20
4.16168
 30
0.0
 40
0.01
 41
0.01
  0
SEQEND
 8
0
  0
POLYLINE
  8
0
 62
     0
 66
     1
 10
0
 20
0
 30
0.0
 40
0.72
 41
0.72
  0
VERTEX
  8
0
 10
1.24669
 20
4.12836
 30
0.0
 40
0.01
 41
0.01
  0
VERTEX
  8
0
 10
1.27501
 20
4.05501
 30
0.0
 40
0.01
 41
0.01
  0
SEQEND
 8
0
  0
POLYLINE
  8
0
 62
     0
 66
     1
 10
0
 20
0
 30
0.0
 40
0.72
 41
0.72
  0
VERTEX
  8
0
 10
1.55003
 20
4.16168
 30
0.0
 40
0.01
 41
0.01
  0
VERTEX
  8
0
 10
1.45665
 20
4.13004
 30
0.0
 40
0.01
 41
0.01
  0
VERTEX
  8
0
 10
1.36502
 20
4.09506
 30
0.0
 40
0.01
 41
0.01
  0
VERTEX
  8
0
 10
1.27501
 20
4.05501
 30
0.0
 40
0.01
 41
0.01
  0
SEQEND
 8
0
  0
POLYLINE
  8
0
 62
     0
 66
     1
 10
0
 20
0
 30
0.0
 40
0.72
 41
0.72
  0
VERTEX
  8
0
 10
1.55003
 20
4.16168
 30
0.0
 40
0.01
 41
0.01
  0
VERTEX
  8
0
 10
1.52165
 20
4.23503
 30
0.0
 40
0.01
 41
0.01
  0
SEQEND
 8
0
  0
POLYLINE
  8
0
 62
     0
 66
     1
 10
0
 20
0
 30
0.0
 40
0.72
 41
0.72
  0
VERTEX
  8
0
 10
3.49501
 20
3.78
 30
0.0
 40
0.01
 41
0.01
  0
VERTEX
  8
0
 10
3.405
 20
3.85167
 30
0.0
 40
0.01
 41
0.01
  0
VERTEX
  8
0
 10
3.31
 20
3.91667
 30
0.0
 40
0.01
 41
0.01
  0
VERTEX
  8
0
 10
3.21164
 20
3.97667
 30
0.0
 40
0.01
 41
0.01
  0
VERTEX
  8
0
 10
3.11003
 20
4.03168
 30
0.0
 40
0.01
 41
0.01
  0
VERTEX
  8
0
 10
3.00667
 20
4.08003
 30
0.0
 40
0.01
 41
0.01
  0
VERTEX
  8
0
 10
2.90001
 20
4.12337
 30
0.0
 40
0.01
 41
0.01
  0
VERTEX
  8
0
 10
2.79167
 20
4.16168
 30
0.0
 40
0.01
 41
0.01
  0
VERTEX
  8
0
 10
2.68164
 20
4.19168
 30
0.0
 40
0.01
 41
0.01
  0
VERTEX
  8
0
 10
2.56836
 20
4.21837
 30
0.0
 40
0.01
 41
0.01
  0
VERTEX
  8
0
 10
2.45503
 20
4.23671
 30
0.0
 40
0.01
 41
0.01
  0
VERTEX
  8
0
 10
2.34169
 20
4.25
 30
0.0
 40
0.01
 41
0.01
  0
VERTEX
  8
0
 10
2.22667
 20
4.25504
 30
0.0
 40
0.01
 41
0.01
  0
VERTEX
  8
0
 10
2.11165
 20
4.25504
 30
0.0
 40
0.01
 41
0.01
  0
VERTEX
  8
0
 10
1.99669
 20
4.25
 30
0.0
 40
0.01
 41
0.01
  0
VERTEX
  8
0
 10
1.88336
 20
4.23671
 30
0.0
 40
0.01
 41
0.01
  0
VERTEX
  8
0
 10
1.77001
 20
4.21837
 30
0.0
 40
0.01
 41
0.01
  0
VERTEX
  8
0
 10
1.65668
 20
4.19168
 30
0.0
 40
0.01
 41
0.01
  0
VERTEX
  8
0
 10
1.54665
 20
4.16168
 30
0.0
 40
0.01
 41
0.01
  0
VERTEX
  8
0
 10
1.43832
 20
4.12337
 30
0.0
 40
0.01
 41
0.01
  0
VERTEX
  8
0
 10
1.33165
 20
4.08003
 30
0.0
 40
0.01
 41
0.01
  0
VERTEX
  8
0
 10
1.22835
 20
4.03168
 30
0.0
 40
0.01
 41
0.01
  0
VERTEX
  8
0
 10
1.12668
 20
3.97667
 30
0.0
 40
0.01
 41
0.01
  0
VERTEX
  8
0
 10
1.02832
 20
3.91667
 30
0.0
 40
0.01
 41
0.01
  0
VERTEX
  8
0
 10
0.933322
 20
3.85167
 30
0.0
 40
0.01
 41
0.01
  0
VERTEX
  8
0
 10
0.843317
 20
3.78
 30
0.0
 40
0.01
 41
0.01
  0
SEQEND
 8
0
  0
POLYLINE
  8
0
 62
     0
 66
     1
 10
0
 20
0
 30
0.0
 40
0.72
 41
0.72
  0
VERTEX
  8
0
 10
3.49501
 20
3.78
 30
0.0
 40
0.01
 41
0.01
  0
VERTEX
  8
0
 10
3.405
 20
3.85167
 30
0.0
 40
0.01
 41
0.01
  0
VERTEX
  8
0
 10
3.31
 20
3.91667
 30
0.0
 40
0.01
 41
0.01
  0
VERTEX
  8
0
 10
3.21164
 20
3.97667
 30
0.0
 40
0.01
 41
0.01
  0
VERTEX
  8
0
 10
3.11003
 20
4.03168
 30
0.0
 40
0.01
 41
0.01
  0
VERTEX
  8
0
 10
3.00667
 20
4.08003
 30
0.0
 40
0.01
 41
0.01
  0
VERTEX
  8
0
 10
2.90001
 20
4.12337
 30
0.0
 40
0.01
 41
0.01
  0
VERTEX
  8
0
 10
2.79167
 20
4.16168
 30
0.0
 40
0.01
 41
0.01
  0
VERTEX
  8
0
 10
2.68164
 20
4.19168
 30
0.0
 40
0.01
 41
0.01
  0
VERTEX
  8
0
 10
2.56836
 20
4.21837
 30
0.0
 40
0.01
 41
0.01
  0
VERTEX
  8
0
 10
2.45503
 20
4.23671
 30
0.0
 40
0.01
 41
0.01
  0
VERTEX
  8
0
 10
2.34169
 20
4.25
 30
0.0
 40
0.01
 41
0.01
  0
VERTEX
  8
0
 10
2.22667
 20
4.25504
 30
0.0
 40
0.01
 41
0.01
  0
VERTEX
  8
0
 10
2.11165
 20
4.25504
 30
0.0
 40
0.01
 41
0.01
  0
VERTEX
  8
0
 10
1.99669
 20
4.25
 30
0.0
 40
0.01
 41
0.01
  0
VERTEX
  8
0
 10
1.88336
 20
4.23671
 30
0.0
 40
0.01
 41
0.01
  0
VERTEX
  8
0
 10
1.77001
 20
4.21837
 30
0.0
 40
0.01
 41
0.01
  0
VERTEX
  8
0
 10
1.65668
 20
4.19168
 30
0.0
 40
0.01
 41
0.01
  0
VERTEX
  8
0
 10
1.54665
 20
4.16168
 30
0.0
 40
0.01
 41
0.01
  0
VERTEX
  8
0
 10
1.43832
 20
4.12337
 30
0.0
 40
0.01
 41
0.01
  0
VERTEX
  8
0
 10
1.33165
 20
4.08003
 30
0.0
 40
0.01
 41
0.01
  0
VERTEX
  8
0
 10
1.22835
 20
4.03168
 30
0.0
 40
0.01
 41
0.01
  0
VERTEX
  8
0
 10
1.12668
 20
3.97667
 30
0.0
 40
0.01
 41
0.01
  0
VERTEX
  8
0
 10
1.02832
 20
3.91667
 30
0.0
 40
0.01
 41
0.01
  0
VERTEX
  8
0
 10
0.933322
 20
3.85167
 30
0.0
 40
0.01
 41
0.01
  0
VERTEX
  8
0
 10
0.843317
 20
3.78
 30
0.0
 40
0.01
 41
0.01
  0
VERTEX
  8
0
 10
0.80165
 20
3.78
 30
0.0
 40
0.01
 41
0.01
  0
VERTEX
  8
0
 10
0.80165
 20
2.79671
 30
0.0
 40
0.01
 41
0.01
  0
VERTEX
  8
0
 10
0.723307
 20
2.79671
 30
0.0
 40
0.01
 41
0.01
  0
VERTEX
  8
0
 10
0.723307
 20
2.60004
 30
0.0
 40
0.01
 41
0.01
  0
VERTEX
  8
0
 10
0.80165
 20
2.60004
 30
0.0
 40
0.01
 41
0.01
  0
VERTEX
  8
0
 10
0.80165
 20
1.74001
 30
0.0
 40
0.01
 41
0.01
  0
VERTEX
  8
0
 10
0.723307
 20
1.74001
 30
0.0
 40
0.01
 41
0.01
  0
VERTEX
  8
0
 10
0.723307
 20
1.54335
 30
0.0
 40
0.01
 41
0.01
  0
VERTEX
  8
0
 10
0.80165
 20
1.54335
 30
0.0
 40
0.01
 41
0.01
  0
VERTEX
  8
0
 10
0.80165
 20
0.558376
 30
0.0
 40
0.01
 41
0.01
  0
VERTEX
  8
0
 10
0.843317
 20
0.558376
 30
0.0
 40
0.01
 41
0.01
  0
VERTEX
  8
0
 10
0.933322
 20
0.488336
 30
0.0
 40
0.01
 41
0.01
  0
VERTEX
  8
0
 10
1.02832
 20
0.42334
 30
0.0
 40
0.01
 41
0.01
  0
VERTEX
  8
0
 10
1.12668
 20
0.361708
 30
0.0
 40
0.01
 41
0.01
  0
VERTEX
  8
0
 10
1.22835
 20
0.308376
 30
0.0
 40
0.01
 41
0.01
  0
VERTEX
  8
0
 10
1.33165
 20
0.258356
 30
0.0
 40
0.01
 41
0.01
  0
VERTEX
  8
0
 10
1.43832
 20
0.215007
 30
0.0
 40
0.01
 41
0.01
  0
VERTEX
  8
0
 10
1.54665
 20
0.178386
 30
0.0
 40
0.01
 41
0.01
  0
VERTEX
  8
0
 10
1.65668
 20
0.146701
 30
0.0
 40
0.01
 41
0.01
  0
VERTEX
  8
0
 10
1.77001
 20
0.121691
 30
0.0
 40
0.01
 41
0.01
  0
VERTEX
  8
0
 10
1.88336
 20
0.103353
 30
0.0
 40
0.01
 41
0.01
  0
VERTEX
  8
0
 10
1.99669
 20
0.0900065
 30
0.0
 40
0.01
 41
0.01
  0
VERTEX
  8
0
 10
2.11165
 20
0.0833333
 30
0.0
 40
0.01
 41
0.01
  0
VERTEX
  8
0
 10
2.22667
 20
0.0833333
 30
0.0
 40
0.01
 41
0.01
  0
VERTEX
  8
0
 10
2.34169
 20
0.0900065
 30
0.0
 40
0.01
 41
0.01
  0
VERTEX
  8
0
 10
2.45503
 20
0.103353
 30
0.0
 40
0.01
 41
0.01
  0
VERTEX
  8
0
 10
2.56836
 20
0.121691
 30
0.0
 40
0.01
 41
0.01
  0
VERTEX
  8
0
 10
2.68164
 20
0.146701
 30
0.0
 40
0.01
 41
0.01
  0
VERTEX
  8
0
 10
2.79167
 20
0.178386
 30
0.0
 40
0.01
 41
0.01
  0
VERTEX
  8
0
 10
2.90001
 20
0.215007
 30
0.0
 40
0.01
 41
0.01
  0
VERTEX
  8
0
 10
3.00667
 20
0.258356
 30
0.0
 40
0.01
 41
0.01
  0
VERTEX
  8
0
 10
3.11003
 20
0.308376
 30
0.0
 40
0.01
 41
0.01
  0
VERTEX
  8
0
 10
3.21164
 20
0.361708
 30
0.0
 40
0.01
 41
0.01
  0
VERTEX
  8
0
 10
3.31
 20
0.42334
 30
0.0
 40
0.01
 41
0.01
  0
VERTEX
  8
0
 10
3.405
 20
0.488336
 30
0.0
 40
0.01
 41
0.01
  0
VERTEX
  8
0
 10
3.49501
 20
0.558376
 30
0.0
 40
0.01
 41
0.01
  0
SEQEND
 8
0
  0
POLYLINE
  8
0
 62
     0
 66
     1
 10
0
 20
0
 30
0.0
 40
0.72
 41
0.72
  0
VERTEX
  8
0
 10
0.843317
 20
0.558376
 30
0.0
 40
0.01
 41
0.01
  0
VERTEX
  8
0
 10
0.933322
 20
0.488336
 30
0.0
 40
0.01
 41
0.01
  0
VERTEX
  8
0
 10
1.02832
 20
0.42334
 30
0.0
 40
0.01
 41
0.01
  0
VERTEX
  8
0
 10
1.12668
 20
0.361708
 30
0.0
 40
0.01
 41
0.01
  0
VERTEX
  8
0
 10
1.22835
 20
0.308376
 30
0.0
 40
0.01
 41
0.01
  0
VERTEX
  8
0
 10
1.33165
 20
0.258356
 30
0.0
 40
0.01
 41
0.01
  0
VERTEX
  8
0
 10
1.43832
 20
0.215007
 30
0.0
 40
0.01
 41
0.01
  0
VERTEX
  8
0
 10
1.54665
 20
0.178386
 30
0.0
 40
0.01
 41
0.01
  0
VERTEX
  8
0
 10
1.65668
 20
0.146701
 30
0.0
 40
0.01
 41
0.01
  0
VERTEX
  8
0
 10
1.77001
 20
0.121691
 30
0.0
 40
0.01
 41
0.01
  0
VERTEX
  8
0
 10
1.88336
 20
0.103353
 30
0.0
 40
0.01
 41
0.01
  0
VERTEX
  8
0
 10
1.99669
 20
0.0900065
 30
0.0
 40
0.01
 41
0.01
  0
VERTEX
  8
0
 10
2.11165
 20
0.0833333
 30
0.0
 40
0.01
 41
0.01
  0
VERTEX
  8
0
 10
2.22667
 20
0.0833333
 30
0.0
 40
0.01
 41
0.01
  0
VERTEX
  8
0
 10
2.34169
 20
0.0900065
 30
0.0
 40
0.01
 41
0.01
  0
VERTEX
  8
0
 10
2.45503
 20
0.103353
 30
0.0
 40
0.01
 41
0.01
  0
VERTEX
  8
0
 10
2.56836
 20
0.121691
 30
0.0
 40
0.01
 41
0.01
  0
VERTEX
  8
0
 10
2.68164
 20
0.146701
 30
0.0
 40
0.01
 41
0.01
  0
VERTEX
  8
0
 10
2.79167
 20
0.178386
 30
0.0
 40
0.01
 41
0.01
  0
VERTEX
  8
0
 10
2.90001
 20
0.215007
 30
0.0
 40
0.01
 41
0.01
  0
VERTEX
  8
0
 10
3.00667
 20
0.258356
 30
0.0
 40
0.01
 41
0.01
  0
VERTEX
  8
0
 10
3.11003
 20
0.308376
 30
0.0
 40
0.01
 41
0.01
  0
VERTEX
  8
0
 10
3.21164
 20
0.361708
 30
0.0
 40
0.01
 41
0.01
  0
VERTEX
  8
0
 10
3.31
 20
0.42334
 30
0.0
 40
0.01
 41
0.01
  0
VERTEX
  8
0
 10
3.405
 20
0.488336
 30
0.0
 40
0.01
 41
0.01
  0
VERTEX
  8
0
 10
3.49501
 20
0.558376
 30
0.0
 40
0.01
 41
0.01
  0
SEQEND
 8
0
  0
POLYLINE
  8
0
 62
     0
 66
     1
 10
0
 20
0
 30
0.0
 40
0.72
 41
0.72
  0
VERTEX
  8
0
 10
0.843317
 20
0.558376
 30
0.0
 40
0.01
 41
0.01
  0
VERTEX
  8
0
 10
0.933322
 20
0.488336
 30
0.0
 40
0.01
 41
0.01
  0
VERTEX
  8
0
 10
1.02832
 20
0.42334
 30
0.0
 40
0.01
 41
0.01
  0
VERTEX
  8
0
 10
1.12668
 20
0.361708
 30
0.0
 40
0.01
 41
0.01
  0
VERTEX
  8
0
 10
1.22835
 20
0.308376
 30
0.0
 40
0.01
 41
0.01
  0
VERTEX
  8
0
 10
1.33165
 20
0.258356
 30
0.0
 40
0.01
 41
0.01
  0
VERTEX
  8
0
 10
1.43832
 20
0.215007
 30
0.0
 40
0.01
 41
0.01
  0
VERTEX
  8
0
 10
1.54665
 20
0.178386
 30
0.0
 40
0.01
 41
0.01
  0
VERTEX
  8
0
 10
1.65668
 20
0.146701
 30
0.0
 40
0.01
 41
0.01
  0
VERTEX
  8
0
 10
1.77001
 20
0.121691
 30
0.0
 40
0.01
 41
0.01
  0
VERTEX
  8
0
 10
1.88336
 20
0.103353
 30
0.0
 40
0.01
 41
0.01
  0
VERTEX
  8
0
 10
1.99669
 20
0.0900065
 30
0.0
 40
0.01
 41
0.01
  0
VERTEX
  8
0
 10
2.11165
 20
0.0833333
 30
0.0
 40
0.01
 41
0.01
  0
VERTEX
  8
0
 10
2.22667
 20
0.0833333
 30
0.0
 40
0.01
 41
0.01
  0
VERTEX
  8
0
 10
2.34169
 20
0.0900065
 30
0.0
 40
0.01
 41
0.01
  0
VERTEX
  8
0
 10
2.45503
 20
0.103353
 30
0.0
 40
0.01
 41
0.01
  0
VERTEX
  8
0
 10
2.56836
 20
0.121691
 30
0.0
 40
0.01
 41
0.01
  0
VERTEX
  8
0
 10
2.68164
 20
0.146701
 30
0.0
 40
0.01
 41
0.01
  0
VERTEX
  8
0
 10
2.79167
 20
0.178386
 30
0.0
 40
0.01
 41
0.01
  0
VERTEX
  8
0
 10
2.90001
 20
0.215007
 30
0.0
 40
0.01
 41
0.01
  0
VERTEX
  8
0
 10
3.00667
 20
0.258356
 30
0.0
 40
0.01
 41
0.01
  0
VERTEX
  8
0
 10
3.11003
 20
0.308376
 30
0.0
 40
0.01
 41
0.01
  0
VERTEX
  8
0
 10
3.21164
 20
0.361708
 30
0.0
 40
0.01
 41
0.01
  0
VERTEX
  8
0
 10
3.31
 20
0.42334
 30
0.0
 40
0.01
 41
0.01
  0
VERTEX
  8
0
 10
3.405
 20
0.488336
 30
0.0
 40
0.01
 41
0.01
  0
VERTEX
  8
0
 10
3.49501
 20
0.558376
 30
0.0
 40
0.01
 41
0.01
  0
SEQEND
 8
0
  0
POLYLINE
  8
0
 62
     0
 66
     1
 10
0
 20
0
 30
0.0
 40
0.72
 41
0.72
  0
VERTEX
  8
0
 10
0.843317
 20
0.558376
 30
0.0
 40
0.01
 41
0.01
  0
VERTEX
  8
0
 10
0.933322
 20
0.488336
 30
0.0
 40
0.01
 41
0.01
  0
VERTEX
  8
0
 10
1.02832
 20
0.42334
 30
0.0
 40
0.01
 41
0.01
  0
VERTEX
  8
0
 10
1.12668
 20
0.361708
 30
0.0
 40
0.01
 41
0.01
  0
VERTEX
  8
0
 10
1.22835
 20
0.308376
 30
0.0
 40
0.01
 41
0.01
  0
VERTEX
  8
0
 10
1.33165
 20
0.258356
 30
0.0
 40
0.01
 41
0.01
  0
VERTEX
  8
0
 10
1.43832
 20
0.215007
 30
0.0
 40
0.01
 41
0.01
  0
VERTEX
  8
0
 10
1.54665
 20
0.178386
 30
0.0
 40
0.01
 41
0.01
  0
VERTEX
  8
0
 10
1.65668
 20
0.146701
 30
0.0
 40
0.01
 41
0.01
  0
VERTEX
  8
0
 10
1.77001
 20
0.121691
 30
0.0
 40
0.01
 41
0.01
  0
VERTEX
  8
0
 10
1.88336
 20
0.103353
 30
0.0
 40
0.01
 41
0.01
  0
VERTEX
  8
0
 10
1.99669
 20
0.0900065
 30
0.0
 40
0.01
 41
0.01
  0
VERTEX
  8
0
 10
2.11165
 20
0.0833333
 30
0.0
 40
0.01
 41
0.01
  0
VERTEX
  8
0
 10
2.22667
 20
0.0833333
 30
0.0
 40
0.01
 41
0.01
  0
VERTEX
  8
0
 10
2.34169
 20
0.0900065
 30
0.0
 40
0.01
 41
0.01
  0
VERTEX
  8
0
 10
2.45503
 20
0.103353
 30
0.0
 40
0.01
 41
0.01
  0
VERTEX
  8
0
 10
2.56836
 20
0.121691
 30
0.0
 40
0.01
 41
0.01
  0
VERTEX
  8
0
 10
2.68164
 20
0.146701
 30
0.0
 40
0.01
 41
0.01
  0
VERTEX
  8
0
 10
2.79167
 20
0.178386
 30
0.0
 40
0.01
 41
0.01
  0
VERTEX
  8
0
 10
2.90001
 20
0.215007
 30
0.0
 40
0.01
 41
0.01
  0
VERTEX
  8
0
 10
3.00667
 20
0.258356
 30
0.0
 40
0.01
 41
0.01
  0
VERTEX
  8
0
 10
3.11003
 20
0.308376
 30
0.0
 40
0.01
 41
0.01
  0
VERTEX
  8
0
 10
3.21164
 20
0.361708
 30
0.0
 40
0.01
 41
0.01
  0
VERTEX
  8
0
 10
3.31
 20
0.42334
 30
0.0
 40
0.01
 41
0.01
  0
VERTEX
  8
0
 10
3.405
 20
0.488336
 30
0.0
 40
0.01
 41
0.01
  0
VERTEX
  8
0
 10
3.49501
 20
0.558376
 30
0.0
 40
0.01
 41
0.01
  0
SEQEND
 8
0
  0
POLYLINE
  8
0
 62
     0
 66
     1
 10
0
 20
0
 30
0.0
 40
0.72
 41
0.72
  0
VERTEX
  8
0
 10
0.843317
 20
0.558376
 30
0.0
 40
0.01
 41
0.01
  0
VERTEX
  8
0
 10
0.933322
 20
0.488336
 30
0.0
 40
0.01
 41
0.01
  0
VERTEX
  8
0
 10
1.02832
 20
0.42334
 30
0.0
 40
0.01
 41
0.01
  0
VERTEX
  8
0
 10
1.12668
 20
0.361708
 30
0.0
 40
0.01
 41
0.01
  0
VERTEX
  8
0
 10
1.22835
 20
0.308376
 30
0.0
 40
0.01
 41
0.01
  0
VERTEX
  8
0
 10
1.33165
 20
0.258356
 30
0.0
 40
0.01
 41
0.01
  0
VERTEX
  8
0
 10
1.43832
 20
0.215007
 30
0.0
 40
0.01
 41
0.01
  0
VERTEX
  8
0
 10
1.54665
 20
0.178386
 30
0.0
 40
0.01
 41
0.01
  0
VERTEX
  8
0
 10
1.65668
 20
0.146701
 30
0.0
 40
0.01
 41
0.01
  0
VERTEX
  8
0
 10
1.77001
 20
0.121691
 30
0.0
 40
0.01
 41
0.01
  0
VERTEX
  8
0
 10
1.88336
 20
0.103353
 30
0.0
 40
0.01
 41
0.01
  0
VERTEX
  8
0
 10
1.99669
 20
0.0900065
 30
0.0
 40
0.01
 41
0.01
  0
VERTEX
  8
0
 10
2.11165
 20
0.0833333
 30
0.0
 40
0.01
 41
0.01
  0
VERTEX
  8
0
 10
2.22667
 20
0.0833333
 30
0.0
 40
0.01
 41
0.01
  0
VERTEX
  8
0
 10
2.34169
 20
0.0900065
 30
0.0
 40
0.01
 41
0.01
  0
VERTEX
  8
0
 10
2.45503
 20
0.103353
 30
0.0
 40
0.01
 41
0.01
  0
VERTEX
  8
0
 10
2.56836
 20
0.121691
 30
0.0
 40
0.01
 41
0.01
  0
VERTEX
  8
0
 10
2.68164
 20
0.146701
 30
0.0
 40
0.01
 41
0.01
  0
VERTEX
  8
0
 10
2.79167
 20
0.178386
 30
0.0
 40
0.01
 41
0.01
  0
VERTEX
  8
0
 10
2.90001
 20
0.215007
 30
0.0
 40
0.01
 41
0.01
  0
VERTEX
  8
0
 10
3.00667
 20
0.258356
 30
0.0
 40
0.01
 41
0.01
  0
VERTEX
  8
0
 10
3.11003
 20
0.308376
 30
0.0
 40
0.01
 41
0.01
  0
VERTEX
  8
0
 10
3.21164
 20
0.361708
 30
0.0
 40
0.01
 41
0.01
  0
VERTEX
  8
0
 10
3.31
 20
0.42334
 30
0.0
 40
0.01
 41
0.01
  0
VERTEX
  8
0
 10
3.405
 20
0.488336
 30
0.0
 40
0.01
 41
0.01
  0
VERTEX
  8
0
 10
3.49501
 20
0.558376
 30
0.0
 40
0.01
 41
0.01
  0
VERTEX
  8
0
 10
3.53668
 20
0.558376
 30
0.0
 40
0.01
 41
0.01
  0
VERTEX
  8
0
 10
3.53668
 20
1.54335
 30
0.0
 40
0.01
 41
0.01
  0
VERTEX
  8
0
 10
3.61501
 20
1.54335
 30
0.0
 40
0.01
 41
0.01
  0
VERTEX
  8
0
 10
3.61501
 20
1.74001
 30
0.0
 40
0.01
 41
0.01
  0
VERTEX
  8
0
 10
3.53668
 20
1.74001
 30
0.0
 40
0.01
 41
0.01
  0
VERTEX
  8
0
 10
3.53668
 20
2.60004
 30
0.0
 40
0.01
 41
0.01
  0
VERTEX
  8
0
 10
3.61501
 20
2.60004
 30
0.0
 40
0.01
 41
0.01
  0
VERTEX
  8
0
 10
3.61501
 20
2.79671
 30
0.0
 40
0.01
 41
0.01
  0
VERTEX
  8
0
 10
3.53668
 20
2.79671
 30
0.0
 40
0.01
 41
0.01
  0
VERTEX
  8
0
 10
3.53668
 20
3.78
 30
0.0
 40
0.01
 41
0.01
  0
VERTEX
  8
0
 10
3.49501
 20
3.78
 30
0.0
 40
0.01
 41
0.01
  0
VERTEX
  8
0
 10
3.405
 20
3.85167
 30
0.0
 40
0.01
 41
0.01
  0
VERTEX
  8
0
 10
3.31
 20
3.91667
 30
0.0
 40
0.01
 41
0.01
  0
VERTEX
  8
0
 10
3.21164
 20
3.97667
 30
0.0
 40
0.01
 41
0.01
  0
VERTEX
  8
0
 10
3.11003
 20
4.03168
 30
0.0
 40
0.01
 41
0.01
  0
VERTEX
  8
0
 10
3.00667
 20
4.08003
 30
0.0
 40
0.01
 41
0.01
  0
VERTEX
  8
0
 10
2.90001
 20
4.12337
 30
0.0
 40
0.01
 41
0.01
  0
VERTEX
  8
0
 10
2.79167
 20
4.16168
 30
0.0
 40
0.01
 41
0.01
  0
VERTEX
  8
0
 10
2.68164
 20
4.19168
 30
0.0
 40
0.01
 41
0.01
  0
VERTEX
  8
0
 10
2.56836
 20
4.21837
 30
0.0
 40
0.01
 41
0.01
  0
VERTEX
  8
0
 10
2.45503
 20
4.23671
 30
0.0
 40
0.01
 41
0.01
  0
VERTEX
  8
0
 10
2.34169
 20
4.25
 30
0.0
 40
0.01
 41
0.01
  0
VERTEX
  8
0
 10
2.22667
 20
4.25504
 30
0.0
 40
0.01
 41
0.01
  0
VERTEX
  8
0
 10
2.11165
 20
4.25504
 30
0.0
 40
0.01
 41
0.01
  0
VERTEX
  8
0
 10
1.99669
 20
4.25
 30
0.0
 40
0.01
 41
0.01
  0
VERTEX
  8
0
 10
1.88336
 20
4.23671
 30
0.0
 40
0.01
 41
0.01
  0
VERTEX
  8
0
 10
1.77001
 20
4.21837
 30
0.0
 40
0.01
 41
0.01
  0
VERTEX
  8
0
 10
1.65668
 20
4.19168
 30
0.0
 40
0.01
 41
0.01
  0
VERTEX
  8
0
 10
1.54665
 20
4.16168
 30
0.0
 40
0.01
 41
0.01
  0
VERTEX
  8
0
 10
1.43832
 20
4.12337
 30
0.0
 40
0.01
 41
0.01
  0
VERTEX
  8
0
 10
1.33165
 20
4.08003
 30
0.0
 40
0.01
 41
0.01
  0
VERTEX
  8
0
 10
1.22835
 20
4.03168
 30
0.0
 40
0.01
 41
0.01
  0
VERTEX
  8
0
 10
1.12668
 20
3.97667
 30
0.0
 40
0.01
 41
0.01
  0
VERTEX
  8
0
 10
1.02832
 20
3.91667
 30
0.0
 40
0.01
 41
0.01
  0
VERTEX
  8
0
 10
0.933322
 20
3.85167
 30
0.0
 40
0.01
 41
0.01
  0
VERTEX
  8
0
 10
0.843317
 20
3.78
 30
0.0
 40
0.01
 41
0.01
  0
SEQEND
 8
0
  0
POLYLINE
  8
0
 62
     0
 66
     1
 10
0
 20
0
 30
0.0
 40
0.72
 41
0.72
  0
VERTEX
  8
0
 10
3.49501
 20
3.78
 30
0.0
 40
0.01
 41
0.01
  0
VERTEX
  8
0
 10
3.405
 20
3.85167
 30
0.0
 40
0.01
 41
0.01
  0
VERTEX
  8
0
 10
3.31
 20
3.91667
 30
0.0
 40
0.01
 41
0.01
  0
VERTEX
  8
0
 10
3.21164
 20
3.97667
 30
0.0
 40
0.01
 41
0.01
  0
VERTEX
  8
0
 10
3.11003
 20
4.03168
 30
0.0
 40
0.01
 41
0.01
  0
VERTEX
  8
0
 10
3.00667
 20
4.08003
 30
0.0
 40
0.01
 41
0.01
  0
VERTEX
  8
0
 10
2.90001
 20
4.12337
 30
0.0
 40
0.01
 41
0.01
  0
VERTEX
  8
0
 10
2.79167
 20
4.16168
 30
0.0
 40
0.01
 41
0.01
  0
VERTEX
  8
0
 10
2.68164
 20
4.19168
 30
0.0
 40
0.01
 41
0.01
  0
VERTEX
  8
0
 10
2.56836
 20
4.21837
 30
0.0
 40
0.01
 41
0.01
  0
VERTEX
  8
0
 10
2.45503
 20
4.23671
 30
0.0
 40
0.01
 41
0.01
  0
VERTEX
  8
0
 10
2.34169
 20
4.25
 30
0.0
 40
0.01
 41
0.01
  0
VERTEX
  8
0
 10
2.22667
 20
4.25504
 30
0.0
 40
0.01
 41
0.01
  0
VERTEX
  8
0
 10
2.11165
 20
4.25504
 30
0.0
 40
0.01
 41
0.01
  0
VERTEX
  8
0
 10
1.99669
 20
4.25
 30
0.0
 40
0.01
 41
0.01
  0
VERTEX
  8
0
 10
1.88336
 20
4.23671
 30
0.0
 40
0.01
 41
0.01
  0
VERTEX
  8
0
 10
1.77001
 20
4.21837
 30
0.0
 40
0.01
 41
0.01
  0
VERTEX
  8
0
 10
1.65668
 20
4.19168
 30
0.0
 40
0.01
 41
0.01
  0
VERTEX
  8
0
 10
1.54665
 20
4.16168
 30
0.0
 40
0.01
 41
0.01
  0
VERTEX
  8
0
 10
1.43832
 20
4.12337
 30
0.0
 40
0.01
 41
0.01
  0
VERTEX
  8
0
 10
1.33165
 20
4.08003
 30
0.0
 40
0.01
 41
0.01
  0
VERTEX
  8
0
 10
1.22835
 20
4.03168
 30
0.0
 40
0.01
 41
0.01
  0
VERTEX
  8
0
 10
1.12668
 20
3.97667
 30
0.0
 40
0.01
 41
0.01
  0
VERTEX
  8
0
 10
1.02832
 20
3.91667
 30
0.0
 40
0.01
 41
0.01
  0
VERTEX
  8
0
 10
0.933322
 20
3.85167
 30
0.0
 40
0.01
 41
0.01
  0
VERTEX
  8
0
 10
0.843317
 20
3.78
 30
0.0
 40
0.01
 41
0.01
  0
SEQEND
 8
0
  0
POLYLINE
  8
0
 62
     0
 66
     1
 10
0
 20
0
 30
0.0
 40
0.72
 41
0.72
  0
VERTEX
  8
0
 10
3.49501
 20
3.78
 30
0.0
 40
0.01
 41
0.01
  0
VERTEX
  8
0
 10
3.405
 20
3.85167
 30
0.0
 40
0.01
 41
0.01
  0
VERTEX
  8
0
 10
3.31
 20
3.91667
 30
0.0
 40
0.01
 41
0.01
  0
VERTEX
  8
0
 10
3.21164
 20
3.97667
 30
0.0
 40
0.01
 41
0.01
  0
VERTEX
  8
0
 10
3.11003
 20
4.03168
 30
0.0
 40
0.01
 41
0.01
  0
VERTEX
  8
0
 10
3.00667
 20
4.08003
 30
0.0
 40
0.01
 41
0.01
  0
VERTEX
  8
0
 10
2.90001
 20
4.12337
 30
0.0
 40
0.01
 41
0.01
  0
VERTEX
  8
0
 10
2.79167
 20
4.16168
 30
0.0
 40
0.01
 41
0.01
  0
VERTEX
  8
0
 10
2.68164
 20
4.19168
 30
0.0
 40
0.01
 41
0.01
  0
VERTEX
  8
0
 10
2.56836
 20
4.21837
 30
0.0
 40
0.01
 41
0.01
  0
VERTEX
  8
0
 10
2.45503
 20
4.23671
 30
0.0
 40
0.01
 41
0.01
  0
VERTEX
  8
0
 10
2.34169
 20
4.25
 30
0.0
 40
0.01
 41
0.01
  0
VERTEX
  8
0
 10
2.22667
 20
4.25504
 30
0.0
 40
0.01
 41
0.01
  0
VERTEX
  8
0
 10
2.11165
 20
4.25504
 30
0.0
 40
0.01
 41
0.01
  0
VERTEX
  8
0
 10
1.99669
 20
4.25
 30
0.0
 40
0.01
 41
0.01
  0
VERTEX
  8
0
 10
1.88336
 20
4.23671
 30
0.0
 40
0.01
 41
0.01
  0
VERTEX
  8
0
 10
1.77001
 20
4.21837
 30
0.0
 40
0.01
 41
0.01
  0
VERTEX
  8
0
 10
1.65668
 20
4.19168
 30
0.0
 40
0.01
 41
0.01
  0
VERTEX
  8
0
 10
1.54665
 20
4.16168
 30
0.0
 40
0.01
 41
0.01
  0
VERTEX
  8
0
 10
1.43832
 20
4.12337
 30
0.0
 40
0.01
 41
0.01
  0
VERTEX
  8
0
 10
1.33165
 20
4.08003
 30
0.0
 40
0.01
 41
0.01
  0
VERTEX
  8
0
 10
1.22835
 20
4.03168
 30
0.0
 40
0.01
 41
0.01
  0
VERTEX
  8
0
 10
1.12668
 20
3.97667
 30
0.0
 40
0.01
 41
0.01
  0
VERTEX
  8
0
 10
1.02832
 20
3.91667
 30
0.0
 40
0.01
 41
0.01
  0
VERTEX
  8
0
 10
0.933322
 20
3.85167
 30
0.0
 40
0.01
 41
0.01
  0
VERTEX
  8
0
 10
0.843317
 20
3.78
 30
0.0
 40
0.01
 41
0.01
  0
SEQEND
 8
0
  0
POLYLINE
  8
0
 62
     0
 66
     1
 10
0
 20
0
 30
0.0
 40
0.72
 41
0.72
  0
VERTEX
  8
0
 10
1.52165
 20
4.23503
 30
0.0
 40
0.01
 41
0.01
  0
VERTEX
  8
0
 10
1.55003
 20
4.16168
 30
0.0
 40
0.01
 41
0.01
  0
SEQEND
 8
0
  0
POLYLINE
  8
0
 62
     0
 66
     1
 10
0
 20
0
 30
0.0
 40
0.72
 41
0.72
  0
VERTEX
  8
0
 10
3.49501
 20
3.78
 30
0.0
 40
0.01
 41
0.01
  0
VERTEX
  8
0
 10
3.405
 20
3.85167
 30
0.0
 40
0.01
 41
0.01
  0
VERTEX
  8
0
 10
3.31
 20
3.91667
 30
0.0
 40
0.01
 41
0.01
  0
VERTEX
  8
0
 10
3.21164
 20
3.97667
 30
0.0
 40
0.01
 41
0.01
  0
VERTEX
  8
0
 10
3.11003
 20
4.03168
 30
0.0
 40
0.01
 41
0.01
  0
VERTEX
  8
0
 10
3.00667
 20
4.08003
 30
0.0
 40
0.01
 41
0.01
  0
VERTEX
  8
0
 10
2.90001
 20
4.12337
 30
0.0
 40
0.01
 41
0.01
  0
VERTEX
  8
0
 10
2.79167
 20
4.16168
 30
0.0
 40
0.01
 41
0.01
  0
VERTEX
  8
0
 10
2.68164
 20
4.19168
 30
0.0
 40
0.01
 41
0.01
  0
VERTEX
  8
0
 10
2.56836
 20
4.21837
 30
0.0
 40
0.01
 41
0.01
  0
VERTEX
  8
0
 10
2.45503
 20
4.23671
 30
0.0
 40
0.01
 41
0.01
  0
VERTEX
  8
0
 10
2.34169
 20
4.25
 30
0.0
 40
0.01
 41
0.01
  0
VERTEX
  8
0
 10
2.22667
 20
4.25504
 30
0.0
 40
0.01
 41
0.01
  0
VERTEX
  8
0
 10
2.11165
 20
4.25504
 30
0.0
 40
0.01
 41
0.01
  0
VERTEX
  8
0
 10
1.99669
 20
4.25
 30
0.0
 40
0.01
 41
0.01
  0
VERTEX
  8
0
 10
1.88336
 20
4.23671
 30
0.0
 40
0.01
 41
0.01
  0
VERTEX
  8
0
 10
1.77001
 20
4.21837
 30
0.0
 40
0.01
 41
0.01
  0
VERTEX
  8
0
 10
1.65668
 20
4.19168
 30
0.0
 40
0.01
 41
0.01
  0
VERTEX
  8
0
 10
1.54665
 20
4.16168
 30
0.0
 40
0.01
 41
0.01
  0
VERTEX
  8
0
 10
1.43832
 20
4.12337
 30
0.0
 40
0.01
 41
0.01
  0
VERTEX
  8
0
 10
1.33165
 20
4.08003
 30
0.0
 40
0.01
 41
0.01
  0
VERTEX
  8
0
 10
1.22835
 20
4.03168
 30
0.0
 40
0.01
 41
0.01
  0
VERTEX
  8
0
 10
1.12668
 20
3.97667
 30
0.0
 40
0.01
 41
0.01
  0
VERTEX
  8
0
 10
1.02832
 20
3.91667
 30
0.0
 40
0.01
 41
0.01
  0
VERTEX
  8
0
 10
0.933322
 20
3.85167
 30
0.0
 40
0.01
 41
0.01
  0
VERTEX
  8
0
 10
0.843317
 20
3.78
 30
0.0
 40
0.01
 41
0.01
  0
SEQEND
 8
0
  0
POLYLINE
  8
0
 62
     0
 66
     1
 10
0
 20
0
 30
0.0
 70
     1
 40
0.72
 41
0.72
  0
VERTEX
  8
0
 10
2.81668
 20
4.23503
 30
0.0
 40
0.01
 41
0.01
  0
VERTEX
  8
0
 10
2.78836
 20
4.16168
 30
0.0
 40
0.01
 41
0.01
  0
VERTEX
  8
0
 10
2.81668
 20
4.23503
 30
0.0
 40
0.01
 41
0.01
  0
SEQEND
 8
0
  0
POLYLINE
  8
0
 62
     0
 66
     1
 10
0
 20
0
 30
0.0
 40
0.72
 41
0.72
  0
VERTEX
  8
0
 10
3.49501
 20
3.78
 30
0.0
 40
0.01
 41
0.01
  0
VERTEX
  8
0
 10
3.405
 20
3.85167
 30
0.0
 40
0.01
 41
0.01
  0
VERTEX
  8
0
 10
3.31
 20
3.91667
 30
0.0
 40
0.01
 41
0.01
  0
VERTEX
  8
0
 10
3.21164
 20
3.97667
 30
0.0
 40
0.01
 41
0.01
  0
VERTEX
  8
0
 10
3.11003
 20
4.03168
 30
0.0
 40
0.01
 41
0.01
  0
VERTEX
  8
0
 10
3.00667
 20
4.08003
 30
0.0
 40
0.01
 41
0.01
  0
VERTEX
  8
0
 10
2.90001
 20
4.12337
 30
0.0
 40
0.01
 41
0.01
  0
VERTEX
  8
0
 10
2.79167
 20
4.16168
 30
0.0
 40
0.01
 41
0.01
  0
VERTEX
  8
0
 10
2.68164
 20
4.19168
 30
0.0
 40
0.01
 41
0.01
  0
VERTEX
  8
0
 10
2.56836
 20
4.21837
 30
0.0
 40
0.01
 41
0.01
  0
VERTEX
  8
0
 10
2.45503
 20
4.23671
 30
0.0
 40
0.01
 41
0.01
  0
VERTEX
  8
0
 10
2.34169
 20
4.25
 30
0.0
 40
0.01
 41
0.01
  0
VERTEX
  8
0
 10
2.22667
 20
4.25504
 30
0.0
 40
0.01
 41
0.01
  0
VERTEX
  8
0
 10
2.11165
 20
4.25504
 30
0.0
 40
0.01
 41
0.01
  0
VERTEX
  8
0
 10
1.99669
 20
4.25
 30
0.0
 40
0.01
 41
0.01
  0
VERTEX
  8
0
 10
1.88336
 20
4.23671
 30
0.0
 40
0.01
 41
0.01
  0
VERTEX
  8
0
 10
1.77001
 20
4.21837
 30
0.0
 40
0.01
 41
0.01
  0
VERTEX
  8
0
 10
1.65668
 20
4.19168
 30
0.0
 40
0.01
 41
0.01
  0
VERTEX
  8
0
 10
1.54665
 20
4.16168
 30
0.0
 40
0.01
 41
0.01
  0
VERTEX
  8
0
 10
1.43832
 20
4.12337
 30
0.0
 40
0.01
 41
0.01
  0
VERTEX
  8
0
 10
1.33165
 20
4.08003
 30
0.0
 40
0.01
 41
0.01
  0
VERTEX
  8
0
 10
1.22835
 20
4.03168
 30
0.0
 40
0.01
 41
0.01
  0
VERTEX
  8
0
 10
1.12668
 20
3.97667
 30
0.0
 40
0.01
 41
0.01
  0
VERTEX
  8
0
 10
1.02832
 20
3.91667
 30
0.0
 40
0.01
 41
0.01
  0
VERTEX
  8
0
 10
0.933322
 20
3.85167
 30
0.0
 40
0.01
 41
0.01
  0
VERTEX
  8
0
 10
0.843317
 20
3.78
 30
0.0
 40
0.01
 41
0.01
  0
SEQEND
 8
0
  0
POLYLINE
  8
0
 62
     0
 66
     1
 10
0
 20
0
 30
0.0
 40
0.72
 41
0.72
  0
VERTEX
  8
0
 10
3.09169
 20
4.12836
 30
0.0
 40
0.01
 41
0.01
  0
VERTEX
  8
0
 10
3.06332
 20
4.05501
 30
0.0
 40
0.01
 41
0.01
  0
SEQEND
 8
0
  0
POLYLINE
  8
0
 62
     0
 66
     1
 10
0
 20
0
 30
0.0
 40
0.72
 41
0.72
  0
VERTEX
  8
0
 10
4.19336
 20
2.94006
 30
0.0
 40
0.01
 41
0.01
  0
VERTEX
  8
0
 10
4.08003
 20
2.905
 30
0.0
 40
0.01
 41
0.01
  0
SEQEND
 8
0
  0
POLYLINE
  8
0
 62
     0
 66
     1
 10
0
 20
0
 30
0.0
 40
0.72
 41
0.72
  0
VERTEX
  8
0
 10
4.08003
 20
3.00667
 30
0.0
 40
0.01
 41
0.01
  0
VERTEX
  8
0
 10
4.08003
 20
1.33333
 30
0.0
 40
0.01
 41
0.01
  0
SEQEND
 8
0
  0
POLYLINE
  8
0
 62
     0
 66
     1
 10
0
 20
0
 30
0.0
 70
     1
 40
0.72
 41
0.72
  0
VERTEX
  8
0
 10
4.27832
 20
2.65668
 30
0.0
 40
0.01
 41
0.01
  0
VERTEX
  8
0
 10
4.08003
 20
2.59668
 30
0.0
 40
0.01
 41
0.01
  0
VERTEX
  8
0
 10
4.27832
 20
2.65668
 30
0.0
 40
0.01
 41
0.01
  0
SEQEND
 8
0
  0
POLYLINE
  8
0
 62
     0
 66
     1
 10
0
 20
0
 30
0.0
 40
0.72
 41
0.72
  0
VERTEX
  8
0
 10
4.08003
 20
3.00667
 30
0.0
 40
0.01
 41
0.01
  0
VERTEX
  8
0
 10
4.08003
 20
1.33333
 30
0.0
 40
0.01
 41
0.01
  0
SEQEND
 8
0
  0
POLYLINE
  8
0
 62
     0
 66
     1
 10
0
 20
0
 30
0.0
 70
     1
 40
0.72
 41
0.72
  0
VERTEX
  8
0
 10
4.27832
 20
1.68169
 30
0.0
 40
0.01
 41
0.01
  0
VERTEX
  8
0
 10
4.08003
 20
1.74338
 30
0.0
 40
0.01
 41
0.01
  0
VERTEX
  8
0
 10
4.27832
 20
1.68169
 30
0.0
 40
0.01
 41
0.01
  0
SEQEND
 8
0
  0
POLYLINE
  8
0
 62
     0
 66
     1
 10
0
 20
0
 30
0.0
 40
0.72
 41
0.72
  0
VERTEX
  8
0
 10
4.08003
 20
3.00667
 30
0.0
 40
0.01
 41
0.01
  0
VERTEX
  8
0
 10
4.08003
 20
1.33333
 30
0.0
 40
0.01
 41
0.01
  0
SEQEND
 8
0
  0
POLYLINE
  8
0
 62
     0
 66
     1
 10
0
 20
0
 30
0.0
 40
0.72
 41
0.72
  0
VERTEX
  8
0
 10
4.19336
 20
1.40001
 30
0.0
 40
0.01
 41
0.01
  0
VERTEX
  8
0
 10
4.08003
 20
1.435
 30
0.0
 40
0.01
 41
0.01
  0
SEQEND
 8
0
  0
POLYLINE
  8
0
 62
     0
 66
     1
 10
0
 20
0
 30
0.0
 40
0.72
 41
0.72
  0
VERTEX
  8
0
 10
3.09169
 20
0.211697
 30
0.0
 40
0.01
 41
0.01
  0
VERTEX
  8
0
 10
3.06332
 20
0.285047
 30
0.0
 40
0.01
 41
0.01
  0
SEQEND
 8
0
  0
POLYLINE
  8
0
 62
     0
 66
     1
 10
0
 20
0
 30
0.0
 40
0.72
 41
0.72
  0
VERTEX
  8
0
 10
0.843317
 20
0.558376
 30
0.0
 40
0.01
 41
0.01
  0
VERTEX
  8
0
 10
0.933322
 20
0.488336
 30
0.0
 40
0.01
 41
0.01
  0
VERTEX
  8
0
 10
1.02832
 20
0.42334
 30
0.0
 40
0.01
 41
0.01
  0
VERTEX
  8
0
 10
1.12668
 20
0.361708
 30
0.0
 40
0.01
 41
0.01
  0
VERTEX
  8
0
 10
1.22835
 20
0.308376
 30
0.0
 40
0.01
 41
0.01
  0
VERTEX
  8
0
 10
1.33165
 20
0.258356
 30
0.0
 40
0.01
 41
0.01
  0
VERTEX
  8
0
 10
1.43832
 20
0.215007
 30
0.0
 40
0.01
 41
0.01
  0
VERTEX
  8
0
 10
1.54665
 20
0.178386
 30
0.0
 40
0.01
 41
0.01
  0
VERTEX
  8
0
 10
1.65668
 20
0.146701
 30
0.0
 40
0.01
 41
0.01
  0
VERTEX
  8
0
 10
1.77001
 20
0.121691
 30
0.0
 40
0.01
 41
0.01
  0
VERTEX
  8
0
 10
1.88336
 20
0.103353
 30
0.0
 40
0.01
 41
0.01
  0
VERTEX
  8
0
 10
1.99669
 20
0.0900065
 30
0.0
 40
0.01
 41
0.01
  0
VERTEX
  8
0
 10
2.11165
 20
0.0833333
 30
0.0
 40
0.01
 41
0.01
  0
VERTEX
  8
0
 10
2.22667
 20
0.0833333
 30
0.0
 40
0.01
 41
0.01
  0
VERTEX
  8
0
 10
2.34169
 20
0.0900065
 30
0.0
 40
0.01
 41
0.01
  0
VERTEX
  8
0
 10
2.45503
 20
0.103353
 30
0.0
 40
0.01
 41
0.01
  0
VERTEX
  8
0
 10
2.56836
 20
0.121691
 30
0.0
 40
0.01
 41
0.01
  0
VERTEX
  8
0
 10
2.68164
 20
0.146701
 30
0.0
 40
0.01
 41
0.01
  0
VERTEX
  8
0
 10
2.79167
 20
0.178386
 30
0.0
 40
0.01
 41
0.01
  0
VERTEX
  8
0
 10
2.90001
 20
0.215007
 30
0.0
 40
0.01
 41
0.01
  0
VERTEX
  8
0
 10
3.00667
 20
0.258356
 30
0.0
 40
0.01
 41
0.01
  0
VERTEX
  8
0
 10
3.11003
 20
0.308376
 30
0.0
 40
0.01
 41
0.01
  0
VERTEX
  8
0
 10
3.21164
 20
0.361708
 30
0.0
 40
0.01
 41
0.01
  0
VERTEX
  8
0
 10
3.31
 20
0.42334
 30
0.0
 40
0.01
 41
0.01
  0
VERTEX
  8
0
 10
3.405
 20
0.488336
 30
0.0
 40
0.01
 41
0.01
  0
VERTEX
  8
0
 10
3.49501
 20
0.558376
 30
0.0
 40
0.01
 41
0.01
  0
SEQEND
 8
0
  0
POLYLINE
  8
0
 62
     0
 66
     1
 10
0
 20
0
 30
0.0
 70
     1
 40
0.72
 41
0.72
  0
VERTEX
  8
0
 10
2.81668
 20
0.103353
 30
0.0
 40
0.01
 41
0.01
  0
VERTEX
  8
0
 10
2.78836
 20
0.176704
 30
0.0
 40
0.01
 41
0.01
  0
VERTEX
  8
0
 10
2.81668
 20
0.103353
 30
0.0
 40
0.01
 41
0.01
  0
SEQEND
 8
0
  0
POLYLINE
  8
0
 62
     0
 66
     1
 10
0
 20
0
 30
0.0
 40
0.72
 41
0.72
  0
VERTEX
  8
0
 10
0.843317
 20
0.558376
 30
0.0
 40
0.01
 41
0.01
  0
VERTEX
  8
0
 10
0.933322
 20
0.488336
 30
0.0
 40
0.01
 41
0.01
  0
VERTEX
  8
0
 10
1.02832
 20
0.42334
 30
0.0
 40
0.01
 41
0.01
  0
VERTEX
  8
0
 10
1.12668
 20
0.361708
 30
0.0
 40
0.01
 41
0.01
  0
VERTEX
  8
0
 10
1.22835
 20
0.308376
 30
0.0
 40
0.01
 41
0.01
  0
VERTEX
  8
0
 10
1.33165
 20
0.258356
 30
0.0
 40
0.01
 41
0.01
  0
VERTEX
  8
0
 10
1.43832
 20
0.215007
 30
0.0
 40
0.01
 41
0.01
  0
VERTEX
  8
0
 10
1.54665
 20
0.178386
 30
0.0
 40
0.01
 41
0.01
  0
VERTEX
  8
0
 10
1.65668
 20
0.146701
 30
0.0
 40
0.01
 41
0.01
  0
VERTEX
  8
0
 10
1.77001
 20
0.121691
 30
0.0
 40
0.01
 41
0.01
  0
VERTEX
  8
0
 10
1.88336
 20
0.103353
 30
0.0
 40
0.01
 41
0.01
  0
VERTEX
  8
0
 10
1.99669
 20
0.0900065
 30
0.0
 40
0.01
 41
0.01
  0
VERTEX
  8
0
 10
2.11165
 20
0.0833333
 30
0.0
 40
0.01
 41
0.01
  0
VERTEX
  8
0
 10
2.22667
 20
0.0833333
 30
0.0
 40
0.01
 41
0.01
  0
VERTEX
  8
0
 10
2.34169
 20
0.0900065
 30
0.0
 40
0.01
 41
0.01
  0
VERTEX
  8
0
 10
2.45503
 20
0.103353
 30
0.0
 40
0.01
 41
0.01
  0
VERTEX
  8
0
 10
2.56836
 20
0.121691
 30
0.0
 40
0.01
 41
0.01
  0
VERTEX
  8
0
 10
2.68164
 20
0.146701
 30
0.0
 40
0.01
 41
0.01
  0
VERTEX
  8
0
 10
2.79167
 20
0.178386
 30
0.0
 40
0.01
 41
0.01
  0
VERTEX
  8
0
 10
2.90001
 20
0.215007
 30
0.0
 40
0.01
 41
0.01
  0
VERTEX
  8
0
 10
3.00667
 20
0.258356
 30
0.0
 40
0.01
 41
0.01
  0
VERTEX
  8
0
 10
3.11003
 20
0.308376
 30
0.0
 40
0.01
 41
0.01
  0
VERTEX
  8
0
 10
3.21164
 20
0.361708
 30
0.0
 40
0.01
 41
0.01
  0
VERTEX
  8
0
 10
3.31
 20
0.42334
 30
0.0
 40
0.01
 41
0.01
  0
VERTEX
  8
0
 10
3.405
 20
0.488336
 30
0.0
 40
0.01
 41
0.01
  0
VERTEX
  8
0
 10
3.49501
 20
0.558376
 30
0.0
 40
0.01
 41
0.01
  0
SEQEND
 8
0
  0
POLYLINE
  8
0
 62
     0
 66
     1
 10
0
 20
0
 30
0.0
 70
     1
 40
0.72
 41
0.72
  0
VERTEX
  8
0
 10
1.52165
 20
0.103353
 30
0.0
 40
0.01
 41
0.01
  0
VERTEX
  8
0
 10
1.55003
 20
0.176704
 30
0.0
 40
0.01
 41
0.01
  0
VERTEX
  8
0
 10
1.52165
 20
0.103353
 30
0.0
 40
0.01
 41
0.01
  0
SEQEND
 8
0
  0
POLYLINE
  8
0
 62
     0
 66
     1
 10
0
 20
0
 30
0.0
 40
0.72
 41
0.72
  0
VERTEX
  8
0
 10
0.843317
 20
0.558376
 30
0.0
 40
0.01
 41
0.01
  0
VERTEX
  8
0
 10
0.933322
 20
0.488336
 30
0.0
 40
0.01
 41
0.01
  0
VERTEX
  8
0
 10
1.02832
 20
0.42334
 30
0.0
 40
0.01
 41
0.01
  0
VERTEX
  8
0
 10
1.12668
 20
0.361708
 30
0.0
 40
0.01
 41
0.01
  0
VERTEX
  8
0
 10
1.22835
 20
0.308376
 30
0.0
 40
0.01
 41
0.01
  0
VERTEX
  8
0
 10
1.33165
 20
0.258356
 30
0.0
 40
0.01
 41
0.01
  0
VERTEX
  8
0
 10
1.43832
 20
0.215007
 30
0.0
 40
0.01
 41
0.01
  0
VERTEX
  8
0
 10
1.54665
 20
0.178386
 30
0.0
 40
0.01
 41
0.01
  0
VERTEX
  8
0
 10
1.65668
 20
0.146701
 30
0.0
 40
0.01
 41
0.01
  0
VERTEX
  8
0
 10
1.77001
 20
0.121691
 30
0.0
 40
0.01
 41
0.01
  0
VERTEX
  8
0
 10
1.88336
 20
0.103353
 30
0.0
 40
0.01
 41
0.01
  0
VERTEX
  8
0
 10
1.99669
 20
0.0900065
 30
0.0
 40
0.01
 41
0.01
  0
VERTEX
  8
0
 10
2.11165
 20
0.0833333
 30
0.0
 40
0.01
 41
0.01
  0
VERTEX
  8
0
 10
2.22667
 20
0.0833333
 30
0.0
 40
0.01
 41
0.01
  0
VERTEX
  8
0
 10
2.34169
 20
0.0900065
 30
0.0
 40
0.01
 41
0.01
  0
VERTEX
  8
0
 10
2.45503
 20
0.103353
 30
0.0
 40
0.01
 41
0.01
  0
VERTEX
  8
0
 10
2.56836
 20
0.121691
 30
0.0
 40
0.01
 41
0.01
  0
VERTEX
  8
0
 10
2.68164
 20
0.146701
 30
0.0
 40
0.01
 41
0.01
  0
VERTEX
  8
0
 10
2.79167
 20
0.178386
 30
0.0
 40
0.01
 41
0.01
  0
VERTEX
  8
0
 10
2.90001
 20
0.215007
 30
0.0
 40
0.01
 41
0.01
  0
VERTEX
  8
0
 10
3.00667
 20
0.258356
 30
0.0
 40
0.01
 41
0.01
  0
VERTEX
  8
0
 10
3.11003
 20
0.308376
 30
0.0
 40
0.01
 41
0.01
  0
VERTEX
  8
0
 10
3.21164
 20
0.361708
 30
0.0
 40
0.01
 41
0.01
  0
VERTEX
  8
0
 10
3.31
 20
0.42334
 30
0.0
 40
0.01
 41
0.01
  0
VERTEX
  8
0
 10
3.405
 20
0.488336
 30
0.0
 40
0.01
 41
0.01
  0
VERTEX
  8
0
 10
3.49501
 20
0.558376
 30
0.0
 40
0.01
 41
0.01
  0
SEQEND
 8
0
  0
POLYLINE
  8
0
 62
     0
 66
     1
 10
0
 20
0
 30
0.0
 40
0.72
 41
0.72
  0
VERTEX
  8
0
 10
1.24669
 20
0.211697
 30
0.0
 40
0.01
 41
0.01
  0
VERTEX
  8
0
 10
1.27501
 20
0.285047
 30
0.0
 40
0.01
 41
0.01
  0
SEQEND
 8
0
  0
POLYLINE
  8
0
 62
     0
 66
     1
 10
0
 20
0
 30
0.0
 40
0.72
 41
0.72
  0
VERTEX
  8
0
 10
0.0600043
 20
1.68169
 30
0.0
 40
0.01
 41
0.01
  0
VERTEX
  8
0
 10
0.258356
 20
1.74338
 30
0.0
 40
0.01
 41
0.01
  0
SEQEND
 8
0
  0
POLYLINE
  8
0
 62
     0
 66
     1
 10
0
 20
0
 30
0.0
 40
0.72
 41
0.72
  0
VERTEX
  8
0
 10
0.258356
 20
1.33333
 30
0.0
 40
0.01
 41
0.01
  0
VERTEX
  8
0
 10
0.258356
 20
3.00667
 30
0.0
 40
0.01
 41
0.01
  0
SEQEND
 8
0
  0
POLYLINE
  8
0
 62
     0
 66
     1
 10
0
 20
0
 30
0.0
 70
     1
 40
0.72
 41
0.72
  0
VERTEX
  8
0
 10
0.0600043
 20
2.65668
 30
0.0
 40
0.01
 41
0.01
  0
VERTEX
  8
0
 10
0.258356
 20
2.59668
 30
0.0
 40
0.01
 41
0.01
  0
VERTEX
  8
0
 10
0.0600043
 20
2.65668
 30
0.0
 40
0.01
 41
0.01
  0
SEQEND
 8
0
  0
POLYLINE
  8
0
 62
     0
 66
     1
 10
0
 20
0
 30
0.0
 40
0.72
 41
0.72
  0
VERTEX
  8
0
 10
0.258356
 20
1.33333
 30
0.0
 40
0.01
 41
0.01
  0
VERTEX
  8
0
 10
0.258356
 20
3.00667
 30
0.0
 40
0.01
 41
0.01
  0
SEQEND
 8
0
  0
POLYLINE
  8
0
 62
     0
 66
     1
 10
0
 20
0
 30
0.0
 40
0.72
 41
0.72
  0
VERTEX
  8
0
 10
0.145019
 20
2.94006
 30
0.0
 40
0.01
 41
0.01
  0
VERTEX
  8
0
 10
0.258356
 20
2.905
 30
0.0
 40
0.01
 41
0.01
  0
SEQEND
 8
0
  0
POLYLINE
  8
0
 62
     0
 66
     1
 10
0
 20
0
 30
0.0
 40
0.72
 41
0.72
  0
VERTEX
  8
0
 10
0.145019
 20
1.40001
 30
0.0
 40
0.01
 41
0.01
  0
VERTEX
  8
0
 10
0.258356
 20
1.435
 30
0.0
 40
0.01
 41
0.01
  0
SEQEND
 8
0
  0
POLYLINE
  8
0
 62
     0
 66
     1
 10
0
 20
0
 30
0.0
 40
0.72
 41
0.72
  0
VERTEX
  8
0
 10
0.258356
 20
1.33333
 30
0.0
 40
0.01
 41
0.01
  0
VERTEX
  8
0
 10
0.258356
 20
3.00667
 30
0.0
 40
0.01
 41
0.01
  0
SEQEND
 8
0
  0
POLYLINE
  8
0
 62
     0
 66
     1
 10
0
 20
0
 30
0.0
 40
0.72
 41
0.72
  0
VERTEX
  8
0
 10
0.0600043
 20
1.68169
 30
0.0
 40
0.01
 41
0.01
  0
VERTEX
  8
0
 10
0.258356
 20
1.74338
 30
0.0
 40
0.01
 41
0.01
  0
SEQEND
 8
0
  0
POLYLINE
  8
0
 62
     0
 66
     1
 10
0
 20
0
 30
0.0
 40
0.72
 41
0.72
  0
VERTEX
  8
0
 10
3.61501
 20
2.79671
 30
0.0
 40
0.01
 41
0.01
  0
VERTEX
  8
0
 10
3.53668
 20
2.79671
 30
0.0
 40
0.01
 41
0.01
  0
VERTEX
  8
0
 10
3.53668
 20
3.78
 30
0.0
 40
0.01
 41
0.01
  0
VERTEX
  8
0
 10
3.49501
 20
3.78
 30
0.0
 40
0.01
 41
0.01
  0
VERTEX
  8
0
 10
3.405
 20
3.85167
 30
0.0
 40
0.01
 41
0.01
  0
VERTEX
  8
0
 10
3.31
 20
3.91667
 30
0.0
 40
0.01
 41
0.01
  0
VERTEX
  8
0
 10
3.21164
 20
3.97667
 30
0.0
 40
0.01
 41
0.01
  0
VERTEX
  8
0
 10
3.11003
 20
4.03168
 30
0.0
 40
0.01
 41
0.01
  0
VERTEX
  8
0
 10
3.00667
 20
4.08003
 30
0.0
 40
0.01
 41
0.01
  0
VERTEX
  8
0
 10
2.90001
 20
4.12337
 30
0.0
 40
0.01
 41
0.01
  0
VERTEX
  8
0
 10
2.79167
 20
4.16168
 30
0.0
 40
0.01
 41
0.01
  0
VERTEX
  8
0
 10
2.68164
 20
4.19168
 30
0.0
 40
0.01
 41
0.01
  0
VERTEX
  8
0
 10
2.56836
 20
4.21837
 30
0.0
 40
0.01
 41
0.01
  0
VERTEX
  8
0
 10
2.45503
 20
4.23671
 30
0.0
 40
0.01
 41
0.01
  0
VERTEX
  8
0
 10
2.34169
 20
4.25
 30
0.0
 40
0.01
 41
0.01
  0
VERTEX
  8
0
 10
2.22667
 20
4.25504
 30
0.0
 40
0.01
 41
0.01
  0
VERTEX
  8
0
 10
2.11165
 20
4.25504
 30
0.0
 40
0.01
 41
0.01
  0
VERTEX
  8
0
 10
1.99669
 20
4.25
 30
0.0
 40
0.01
 41
0.01
  0
VERTEX
  8
0
 10
1.88336
 20
4.23671
 30
0.0
 40
0.01
 41
0.01
  0
VERTEX
  8
0
 10
1.77001
 20
4.21837
 30
0.0
 40
0.01
 41
0.01
  0
VERTEX
  8
0
 10
1.65668
 20
4.19168
 30
0.0
 40
0.01
 41
0.01
  0
VERTEX
  8
0
 10
1.54665
 20
4.16168
 30
0.0
 40
0.01
 41
0.01
  0
VERTEX
  8
0
 10
1.43832
 20
4.12337
 30
0.0
 40
0.01
 41
0.01
  0
VERTEX
  8
0
 10
1.33165
 20
4.08003
 30
0.0
 40
0.01
 41
0.01
  0
VERTEX
  8
0
 10
1.22835
 20
4.03168
 30
0.0
 40
0.01
 41
0.01
  0
VERTEX
  8
0
 10
1.12668
 20
3.97667
 30
0.0
 40
0.01
 41
0.01
  0
VERTEX
  8
0
 10
1.02832
 20
3.91667
 30
0.0
 40
0.01
 41
0.01
  0
VERTEX
  8
0
 10
0.933322
 20
3.85167
 30
0.0
 40
0.01
 41
0.01
  0
VERTEX
  8
0
 10
0.843317
 20
3.78
 30
0.0
 40
0.01
 41
0.01
  0
VERTEX
  8
0
 10
0.80165
 20
3.78
 30
0.0
 40
0.01
 41
0.01
  0
VERTEX
  8
0
 10
0.80165
 20
2.79671
 30
0.0
 40
0.01
 41
0.01
  0
VERTEX
  8
0
 10
0.723307
 20
2.79671
 30
0.0
 40
0.01
 41
0.01
  0
VERTEX
  8
0
 10
0.723307
 20
3.67333
 30
0.0
 40
0.01
 41
0.01
  0
VERTEX
  8
0
 10
0.639974
 20
3.59
 30
0.0
 40
0.01
 41
0.01
  0
VERTEX
  8
0
 10
0.563314
 20
3.50168
 30
0.0
 40
0.01
 41
0.01
  0
VERTEX
  8
0
 10
0.491644
 20
3.41004
 30
0.0
 40
0.01
 41
0.01
  0
VERTEX
  8
0
 10
0.425022
 20
3.31506
 30
0.0
 40
0.01
 41
0.01
  0
VERTEX
  8
0
 10
0.363336
 20
3.215
 30
0.0
 40
0.01
 41
0.01
  0
VERTEX
  8
0
 10
0.308322
 20
3.11171
 30
0.0
 40
0.01
 41
0.01
  0
VERTEX
  8
0
 10
0.258356
 20
3.00667
 30
0.0
 40
0.01
 41
0.01
  0
VERTEX
  8
0
 10
0.258356
 20
1.33333
 30
0.0
 40
0.01
 41
0.01
  0
VERTEX
  8
0
 10
0.308322
 20
1.22667
 30
0.0
 40
0.01
 41
0.01
  0
VERTEX
  8
0
 10
0.363336
 20
1.125
 30
0.0
 40
0.01
 41
0.01
  0
VERTEX
  8
0
 10
0.425022
 20
1.02501
 30
0.0
 40
0.01
 41
0.01
  0
VERTEX
  8
0
 10
0.491644
 20
0.930012
 30
0.0
 40
0.01
 41
0.01
  0
VERTEX
  8
0
 10
0.563314
 20
0.836697
 30
0.0
 40
0.01
 41
0.01
  0
VERTEX
  8
0
 10
0.639974
 20
0.75
 30
0.0
 40
0.01
 41
0.01
  0
VERTEX
  8
0
 10
0.723307
 20
0.666667
 30
0.0
 40
0.01
 41
0.01
  0
VERTEX
  8
0
 10
0.723307
 20
1.54335
 30
0.0
 40
0.01
 41
0.01
  0
SEQEND
 8
0
  0
POLYLINE
  8
0
 62
     0
 66
     1
 10
0
 20
0
 30
0.0
 40
0.72
 41
0.72
  0
VERTEX
  8
0
 10
3.61501
 20
1.54335
 30
0.0
 40
0.01
 41
0.01
  0
VERTEX
  8
0
 10
3.53668
 20
1.54335
 30
0.0
 40
0.01
 41
0.01
  0
VERTEX
  8
0
 10
3.53668
 20
0.558376
 30
0.0
 40
0.01
 41
0.01
  0
VERTEX
  8
0
 10
3.49501
 20
0.558376
 30
0.0
 40
0.01
 41
0.01
  0
SEQEND
 8
0
  0
POLYLINE
  8
0
 62
     0
 66
     1
 10
0
 20
0
 30
0.0
 40
0.72
 41
0.72
  0
VERTEX
  8
0
 10
0.843317
 20
0.558376
 30
0.0
 40
0.01
 41
0.01
  0
VERTEX
  8
0
 10
0.933322
 20
0.488336
 30
0.0
 40
0.01
 41
0.01
  0
VERTEX
  8
0
 10
1.02832
 20
0.42334
 30
0.0
 40
0.01
 41
0.01
  0
VERTEX
  8
0
 10
1.12668
 20
0.361708
 30
0.0
 40
0.01
 41
0.01
  0
VERTEX
  8
0
 10
1.22835
 20
0.308376
 30
0.0
 40
0.01
 41
0.01
  0
VERTEX
  8
0
 10
1.33165
 20
0.258356
 30
0.0
 40
0.01
 41
0.01
  0
VERTEX
  8
0
 10
1.43832
 20
0.215007
 30
0.0
 40
0.01
 41
0.01
  0
VERTEX
  8
0
 10
1.54665
 20
0.178386
 30
0.0
 40
0.01
 41
0.01
  0
VERTEX
  8
0
 10
1.65668
 20
0.146701
 30
0.0
 40
0.01
 41
0.01
  0
VERTEX
  8
0
 10
1.77001
 20
0.121691
 30
0.0
 40
0.01
 41
0.01
  0
VERTEX
  8
0
 10
1.88336
 20
0.103353
 30
0.0
 40
0.01
 41
0.01
  0
VERTEX
  8
0
 10
1.99669
 20
0.0900065
 30
0.0
 40
0.01
 41
0.01
  0
VERTEX
  8
0
 10
2.11165
 20
0.0833333
 30
0.0
 40
0.01
 41
0.01
  0
VERTEX
  8
0
 10
2.22667
 20
0.0833333
 30
0.0
 40
0.01
 41
0.01
  0
VERTEX
  8
0
 10
2.34169
 20
0.0900065
 30
0.0
 40
0.01
 41
0.01
  0
VERTEX
  8
0
 10
2.45503
 20
0.103353
 30
0.0
 40
0.01
 41
0.01
  0
VERTEX
  8
0
 10
2.56836
 20
0.121691
 30
0.0
 40
0.01
 41
0.01
  0
VERTEX
  8
0
 10
2.68164
 20
0.146701
 30
0.0
 40
0.01
 41
0.01
  0
VERTEX
  8
0
 10
2.79167
 20
0.178386
 30
0.0
 40
0.01
 41
0.01
  0
VERTEX
  8
0
 10
2.90001
 20
0.215007
 30
0.0
 40
0.01
 41
0.01
  0
VERTEX
  8
0
 10
3.00667
 20
0.258356
 30
0.0
 40
0.01
 41
0.01
  0
VERTEX
  8
0
 10
3.11003
 20
0.308376
 30
0.0
 40
0.01
 41
0.01
  0
VERTEX
  8
0
 10
3.21164
 20
0.361708
 30
0.0
 40
0.01
 41
0.01
  0
VERTEX
  8
0
 10
3.31
 20
0.42334
 30
0.0
 40
0.01
 41
0.01
  0
VERTEX
  8
0
 10
3.405
 20
0.488336
 30
0.0
 40
0.01
 41
0.01
  0
VERTEX
  8
0
 10
3.49501
 20
0.558376
 30
0.0
 40
0.01
 41
0.01
  0
SEQEND
 8
0
  0
POLYLINE
  8
0
 62
     0
 66
     1
 10
0
 20
0
 30
0.0
 40
0.72
 41
0.72
  0
VERTEX
  8
0
 10
0.843317
 20
0.558376
 30
0.0
 40
0.01
 41
0.01
  0
VERTEX
  8
0
 10
0.80165
 20
0.558376
 30
0.0
 40
0.01
 41
0.01
  0
VERTEX
  8
0
 10
0.80165
 20
1.54335
 30
0.0
 40
0.01
 41
0.01
  0
VERTEX
  8
0
 10
0.723307
 20
1.54335
 30
0.0
 40
0.01
 41
0.01
  0
SEQEND
 8
0
  0
POLYLINE
  8
0
 62
     0
 66
     1
 10
0
 20
0
 30
0.0
 70
     1
 40
0.72
 41
0.72
  0
VERTEX
  8
0
 10
0.723307
 20
2.60004
 30
0.0
 40
0.01
 41
0.01
  0
VERTEX
  8
0
 10
0.80165
 20
2.60004
 30
0.0
 40
0.01
 41
0.01
  0
VERTEX
  8
0
 10
0.80165
 20
1.74001
 30
0.0
 40
0.01
 41
0.01
  0
VERTEX
  8
0
 10
0.723307
 20
1.74001
 30
0.0
 40
0.01
 41
0.01
  0
VERTEX
  8
0
 10
0.723307
 20
2.60004
 30
0.0
 40
0.01
 41
0.01
  0
SEQEND
 8
0
  0
POLYLINE
  8
0
 62
     0
 66
     1
 10
0
 20
0
 30
0.0
 70
     1
 40
0.72
 41
0.72
  0
VERTEX
  8
0
 10
3.53668
 20
2.60004
 30
0.0
 40
0.01
 41
0.01
  0
VERTEX
  8
0
 10
3.61501
 20
2.60004
 30
0.0
 40
0.01
 41
0.01
  0
VERTEX
  8
0
 10
3.61501
 20
1.74001
 30
0.0
 40
0.01
 41
0.01
  0
VERTEX
  8
0
 10
3.53668
 20
1.74001
 30
0.0
 40
0.01
 41
0.01
  0
VERTEX
  8
0
 10
3.53668
 20
2.60004
 30
0.0
 40
0.01
 41
0.01
  0
SEQEND
 8
0
  0
POLYLINE
  8
0
 62
     0
 66
     1
 10
0
 20
0
 30
0.0
 40
0.72
 41
0.72
  0
VERTEX
  8
0
 10
3.61501
 20
2.79671
 30
0.0
 40
0.01
 41
0.01
  0
VERTEX
  8
0
 10
3.61501
 20
3.67333
 30
0.0
 40
0.01
 41
0.01
  0
SEQEND
 8
0
  0
POLYLINE
  8
0
 62
     0
 66
     1
 10
0
 20
0
 30
0.0
 40
0.72
 41
0.72
  0
VERTEX
  8
0
 10
4.08003
 20
3.00667
 30
0.0
 40
0.01
 41
0.01
  0
VERTEX
  8
0
 10
4.03
 20
3.11171
 30
0.0
 40
0.01
 41
0.01
  0
VERTEX
  8
0
 10
3.97499
 20
3.215
 30
0.0
 40
0.01
 41
0.01
  0
VERTEX
  8
0
 10
3.91336
 20
3.31506
 30
0.0
 40
0.01
 41
0.01
  0
VERTEX
  8
0
 10
3.84668
 20
3.41004
 30
0.0
 40
0.01
 41
0.01
  0
VERTEX
  8
0
 10
3.77501
 20
3.50168
 30
0.0
 40
0.01
 41
0.01
  0
VERTEX
  8
0
 10
3.69835
 20
3.59
 30
0.0
 40
0.01
 41
0.01
  0
VERTEX
  8
0
 10
3.61501
 20
3.67333
 30
0.0
 40
0.01
 41
0.01
  0
SEQEND
 8
0
  0
POLYLINE
  8
0
 62
     0
 66
     1
 10
0
 20
0
 30
0.0
 40
0.72
 41
0.72
  0
VERTEX
  8
0
 10
4.08003
 20
3.00667
 30
0.0
 40
0.01
 41
0.01
  0
VERTEX
  8
0
 10
4.08003
 20
1.33333
 30
0.0
 40
0.01
 41
0.01
  0
SEQEND
 8
0
  0
POLYLINE
  8
0
 62
     0
 66
     1
 10
0
 20
0
 30
0.0
 40
0.72
 41
0.72
  0
VERTEX
  8
0
 10
3.61501
 20
0.666667
 30
0.0
 40
0.01
 41
0.01
  0
VERTEX
  8
0
 10
3.69835
 20
0.75
 30
0.0
 40
0.01
 41
0.01
  0
VERTEX
  8
0
 10
3.77501
 20
0.836697
 30
0.0
 40
0.01
 41
0.01
  0
VERTEX
  8
0
 10
3.84668
 20
0.930012
 30
0.0
 40
0.01
 41
0.01
  0
VERTEX
  8
0
 10
3.91336
 20
1.02501
 30
0.0
 40
0.01
 41
0.01
  0
VERTEX
  8
0
 10
3.97499
 20
1.125
 30
0.0
 40
0.01
 41
0.01
  0
VERTEX
  8
0
 10
4.03
 20
1.22667
 30
0.0
 40
0.01
 41
0.01
  0
VERTEX
  8
0
 10
4.08003
 20
1.33333
 30
0.0
 40
0.01
 41
0.01
  0
SEQEND
 8
0
  0
POLYLINE
  8
0
 62
     0
 66
     1
 10
0
 20
0
 30
0.0
 40
0.72
 41
0.72
  0
VERTEX
  8
0
 10
3.61501
 20
0.666667
 30
0.0
 40
0.01
 41
0.01
  0
VERTEX
  8
0
 10
3.61501
 20
1.54335
 30
0.0
 40
0.01
 41
0.01
  0
SEQEND
 8
0
  0
POLYLINE
  8
0
 62
     0
 66
     1
 10
0
 20
0
 30
0.0
 70
     1
 40
0.72
 41
0.72
  0
VERTEX
  8
0
 10
2.16835
 20
0.00504557
 30
0.0
 40
0.01
 41
0.01
  0
VERTEX
  8
0
 10
2.28668
 20
0.00835503
 30
0.0
 40
0.01
 41
0.01
  0
VERTEX
  8
0
 10
2.40332
 20
0.01671
 30
0.0
 40
0.01
 41
0.01
  0
VERTEX
  8
0
 10
2.52001
 20
0.0333658
 30
0.0
 40
0.01
 41
0.01
  0
VERTEX
  8
0
 10
2.63499
 20
0.0550131
 30
0.0
 40
0.01
 41
0.01
  0
VERTEX
  8
0
 10
2.74832
 20
0.0833333
 30
0.0
 40
0.01
 41
0.01
  0
VERTEX
  8
0
 10
2.86003
 20
0.118381
 30
0.0
 40
0.01
 41
0.01
  0
VERTEX
  8
0
 10
2.97
 20
0.158365
 30
0.0
 40
0.01
 41
0.01
  0
VERTEX
  8
0
 10
3.07835
 20
0.205024
 30
0.0
 40
0.01
 41
0.01
  0
VERTEX
  8
0
 10
3.18332
 20
0.256674
 30
0.0
 40
0.01
 41
0.01
  0
VERTEX
  8
0
 10
3.285
 20
0.31505
 30
0.0
 40
0.01
 41
0.01
  0
VERTEX
  8
0
 10
3.38336
 20
0.376682
 30
0.0
 40
0.01
 41
0.01
  0
VERTEX
  8
0
 10
3.47999
 20
0.446669
 30
0.0
 40
0.01
 41
0.01
  0
VERTEX
  8
0
 10
3.56999
 20
0.520019
 30
0.0
 40
0.01
 41
0.01
  0
VERTEX
  8
0
 10
3.65831
 20
0.598361
 30
0.0
 40
0.01
 41
0.01
  0
VERTEX
  8
0
 10
3.74164
 20
0.680012
 30
0.0
 40
0.01
 41
0.01
  0
VERTEX
  8
0
 10
3.81836
 20
0.768338
 30
0.0
 40
0.01
 41
0.01
  0
VERTEX
  8
0
 10
3.89333
 20
0.860026
 30
0.0
 40
0.01
 41
0.01
  0
VERTEX
  8
0
 10
3.96164
 20
0.955024
 30
0.0
 40
0.01
 41
0.01
  0
VERTEX
  8
0
 10
4.02333
 20
1.05339
 30
0.0
 40
0.01
 41
0.01
  0
VERTEX
  8
0
 10
4.08165
 20
1.155
 30
0.0
 40
0.01
 41
0.01
  0
VERTEX
  8
0
 10
4.13336
 20
1.26004
 30
0.0
 40
0.01
 41
0.01
  0
VERTEX
  8
0
 10
4.18001
 20
1.36838
 30
0.0
 40
0.01
 41
0.01
  0
VERTEX
  8
0
 10
4.22
 20
1.47835
 30
0.0
 40
0.01
 41
0.01
  0
VERTEX
  8
0
 10
4.25499
 20
1.59
 30
0.0
 40
0.01
 41
0.01
  0
VERTEX
  8
0
 10
4.28331
 20
1.70503
 30
0.0
 40
0.01
 41
0.01
  0
VERTEX
  8
0
 10
4.30501
 20
1.82004
 30
0.0
 40
0.01
 41
0.01
  0
VERTEX
  8
0
 10
4.32167
 20
1.935
 30
0.0
 40
0.01
 41
0.01
  0
VERTEX
  8
0
 10
4.33165
 20
2.05171
 30
0.0
 40
0.01
 41
0.01
  0
VERTEX
  8
0
 10
4.33333
 20
2.17003
 30
0.0
 40
0.01
 41
0.01
  0
VERTEX
  8
0
 10
4.33165
 20
2.28668
 30
0.0
 40
0.01
 41
0.01
  0
VERTEX
  8
0
 10
4.32167
 20
2.40338
 30
0.0
 40
0.01
 41
0.01
  0
VERTEX
  8
0
 10
4.30501
 20
2.52001
 30
0.0
 40
0.01
 41
0.01
  0
VERTEX
  8
0
 10
4.28331
 20
2.63504
 30
0.0
 40
0.01
 41
0.01
  0
VERTEX
  8
0
 10
4.25499
 20
2.74837
 30
0.0
 40
0.01
 41
0.01
  0
VERTEX
  8
0
 10
4.22
 20
2.86171
 30
0.0
 40
0.01
 41
0.01
  0
VERTEX
  8
0
 10
4.18001
 20
2.97168
 30
0.0
 40
0.01
 41
0.01
  0
VERTEX
  8
0
 10
4.13336
 20
3.07835
 30
0.0
 40
0.01
 41
0.01
  0
VERTEX
  8
0
 10
4.08165
 20
3.18338
 30
0.0
 40
0.01
 41
0.01
  0
VERTEX
  8
0
 10
4.02333
 20
3.28668
 30
0.0
 40
0.01
 41
0.01
  0
VERTEX
  8
0
 10
3.96164
 20
3.38504
 30
0.0
 40
0.01
 41
0.01
  0
VERTEX
  8
0
 10
3.89333
 20
3.48003
 30
0.0
 40
0.01
 41
0.01
  0
VERTEX
  8
0
 10
3.81836
 20
3.57167
 30
0.0
 40
0.01
 41
0.01
  0
VERTEX
  8
0
 10
3.74164
 20
3.65836
 30
0.0
 40
0.01
 41
0.01
  0
VERTEX
  8
0
 10
3.65831
 20
3.74169
 30
0.0
 40
0.01
 41
0.01
  0
VERTEX
  8
0
 10
3.56999
 20
3.82004
 30
0.0
 40
0.01
 41
0.01
  0
VERTEX
  8
0
 10
3.47999
 20
3.89333
 30
0.0
 40
0.01
 41
0.01
  0
VERTEX
  8
0
 10
3.38336
 20
3.96169
 30
0.0
 40
0.01
 41
0.01
  0
VERTEX
  8
0
 10
3.285
 20
4.02501
 30
0.0
 40
0.01
 41
0.01
  0
VERTEX
  8
0
 10
3.18332
 20
4.08333
 30
0.0
 40
0.01
 41
0.01
  0
VERTEX
  8
0
 10
3.07835
 20
4.13504
 30
0.0
 40
0.01
 41
0.01
  0
VERTEX
  8
0
 10
2.97
 20
4.18169
 30
0.0
 40
0.01
 41
0.01
  0
VERTEX
  8
0
 10
2.86003
 20
4.22168
 30
0.0
 40
0.01
 41
0.01
  0
VERTEX
  8
0
 10
2.74832
 20
4.25667
 30
0.0
 40
0.01
 41
0.01
  0
VERTEX
  8
0
 10
2.63499
 20
4.28504
 30
0.0
 40
0.01
 41
0.01
  0
VERTEX
  8
0
 10
2.52001
 20
4.30669
 30
0.0
 40
0.01
 41
0.01
  0
VERTEX
  8
0
 10
2.40332
 20
4.32167
 30
0.0
 40
0.01
 41
0.01
  0
VERTEX
  8
0
 10
2.28668
 20
4.33171
 30
0.0
 40
0.01
 41
0.01
  0
VERTEX
  8
0
 10
2.16835
 20
4.33501
 30
0.0
 40
0.01
 41
0.01
  0
VERTEX
  8
0
 10
2.05165
 20
4.33171
 30
0.0
 40
0.01
 41
0.01
  0
VERTEX
  8
0
 10
1.935
 20
4.32167
 30
0.0
 40
0.01
 41
0.01
  0
VERTEX
  8
0
 10
1.81836
 20
4.30669
 30
0.0
 40
0.01
 41
0.01
  0
VERTEX
  8
0
 10
1.70335
 20
4.28504
 30
0.0
 40
0.01
 41
0.01
  0
VERTEX
  8
0
 10
1.59
 20
4.25667
 30
0.0
 40
0.01
 41
0.01
  0
VERTEX
  8
0
 10
1.47835
 20
4.22168
 30
0.0
 40
0.01
 41
0.01
  0
VERTEX
  8
0
 10
1.36833
 20
4.18169
 30
0.0
 40
0.01
 41
0.01
  0
VERTEX
  8
0
 10
1.25998
 20
4.13504
 30
0.0
 40
0.01
 41
0.01
  0
VERTEX
  8
0
 10
1.155
 20
4.08333
 30
0.0
 40
0.01
 41
0.01
  0
VERTEX
  8
0
 10
1.05333
 20
4.02501
 30
0.0
 40
0.01
 41
0.01
  0
VERTEX
  8
0
 10
0.955024
 20
3.96169
 30
0.0
 40
0.01
 41
0.01
  0
VERTEX
  8
0
 10
0.858344
 20
3.89333
 30
0.0
 40
0.01
 41
0.01
  0
VERTEX
  8
0
 10
0.768338
 20
3.82004
 30
0.0
 40
0.01
 41
0.01
  0
VERTEX
  8
0
 10
0.680012
 20
3.74169
 30
0.0
 40
0.01
 41
0.01
  0
VERTEX
  8
0
 10
0.596679
 20
3.65836
 30
0.0
 40
0.01
 41
0.01
  0
VERTEX
  8
0
 10
0.520019
 20
3.57167
 30
0.0
 40
0.01
 41
0.01
  0
VERTEX
  8
0
 10
0.444988
 20
3.48003
 30
0.0
 40
0.01
 41
0.01
  0
VERTEX
  8
0
 10
0.376682
 20
3.38504
 30
0.0
 40
0.01
 41
0.01
  0
VERTEX
  8
0
 10
0.314996
 20
3.28668
 30
0.0
 40
0.01
 41
0.01
  0
VERTEX
  8
0
 10
0.256674
 20
3.18338
 30
0.0
 40
0.01
 41
0.01
  0
VERTEX
  8
0
 10
0.205024
 20
3.07835
 30
0.0
 40
0.01
 41
0.01
  0
VERTEX
  8
0
 10
0.158311
 20
2.97168
 30
0.0
 40
0.01
 41
0.01
  0
VERTEX
  8
0
 10
0.118327
 20
2.86171
 30
0.0
 40
0.01
 41
0.01
  0
VERTEX
  8
0
 10
0.0833333
 20
2.74837
 30
0.0
 40
0.01
 41
0.01
  0
VERTEX
  8
0
 10
0.0550131
 20
2.63504
 30
0.0
 40
0.01
 41
0.01
  0
VERTEX
  8
0
 10
0.0333117
 20
2.52001
 30
0.0
 40
0.01
 41
0.01
  0
VERTEX
  8
0
 10
0.0166558
 20
2.40338
 30
0.0
 40
0.01
 41
0.01
  0
VERTEX
  8
0
 10
0.00667318
 20
2.28668
 30
0.0
 40
0.01
 41
0.01
  0
VERTEX
  8
0
 10
0.00499132
 20
2.17003
 30
0.0
 40
0.01
 41
0.01
  0
VERTEX
  8
0
 10
0.00667318
 20
2.05171
 30
0.0
 40
0.01
 41
0.01
  0
VERTEX
  8
0
 10
0.0166558
 20
1.935
 30
0.0
 40
0.01
 41
0.01
  0
VERTEX
  8
0
 10
0.0333117
 20
1.82004
 30
0.0
 40
0.01
 41
0.01
  0
VERTEX
  8
0
 10
0.0550131
 20
1.70503
 30
0.0
 40
0.01
 41
0.01
  0
VERTEX
  8
0
 10
0.0833333
 20
1.59
 30
0.0
 40
0.01
 41
0.01
  0
VERTEX
  8
0
 10
0.118327
 20
1.47835
 30
0.0
 40
0.01
 41
0.01
  0
VERTEX
  8
0
 10
0.158311
 20
1.36838
 30
0.0
 40
0.01
 41
0.01
  0
VERTEX
  8
0
 10
0.205024
 20
1.26004
 30
0.0
 40
0.01
 41
0.01
  0
VERTEX
  8
0
 10
0.256674
 20
1.155
 30
0.0
 40
0.01
 41
0.01
  0
VERTEX
  8
0
 10
0.314996
 20
1.05339
 30
0.0
 40
0.01
 41
0.01
  0
VERTEX
  8
0
 10
0.376682
 20
0.955024
 30
0.0
 40
0.01
 41
0.01
  0
VERTEX
  8
0
 10
0.444988
 20
0.860026
 30
0.0
 40
0.01
 41
0.01
  0
VERTEX
  8
0
 10
0.520019
 20
0.768338
 30
0.0
 40
0.01
 41
0.01
  0
VERTEX
  8
0
 10
0.596679
 20
0.680012
 30
0.0
 40
0.01
 41
0.01
  0
VERTEX
  8
0
 10
0.680012
 20
0.598361
 30
0.0
 40
0.01
 41
0.01
  0
VERTEX
  8
0
 10
0.768338
 20
0.520019
 30
0.0
 40
0.01
 41
0.01
  0
VERTEX
  8
0
 10
0.858344
 20
0.446669
 30
0.0
 40
0.01
 41
0.01
  0
VERTEX
  8
0
 10
0.955024
 20
0.376682
 30
0.0
 40
0.01
 41
0.01
  0
VERTEX
  8
0
 10
1.05333
 20
0.31505
 30
0.0
 40
0.01
 41
0.01
  0
VERTEX
  8
0
 10
1.155
 20
0.256674
 30
0.0
 40
0.01
 41
0.01
  0
VERTEX
  8
0
 10
1.25998
 20
0.205024
 30
0.0
 40
0.01
 41
0.01
  0
VERTEX
  8
0
 10
1.36833
 20
0.158365
 30
0.0
 40
0.01
 41
0.01
  0
VERTEX
  8
0
 10
1.47835
 20
0.118381
 30
0.0
 40
0.01
 41
0.01
  0
VERTEX
  8
0
 10
1.59
 20
0.0833333
 30
0.0
 40
0.01
 41
0.01
  0
VERTEX
  8
0
 10
1.70335
 20
0.0550131
 30
0.0
 40
0.01
 41
0.01
  0
VERTEX
  8
0
 10
1.81836
 20
0.0333658
 30
0.0
 40
0.01
 41
0.01
  0
VERTEX
  8
0
 10
1.935
 20
0.01671
 30
0.0
 40
0.01
 41
0.01
  0
VERTEX
  8
0
 10
2.05165
 20
0.00835503
 30
0.0
 40
0.01
 41
0.01
  0
VERTEX
  8
0
 10
2.16835
 20
0.00504557
 30
0.0
 40
0.01
 41
0.01
  0
SEQEND
 8
0
  0
ENDSEC
  0
EOF
