  0
SECTION
  2
HEADER
  9
$ACADVER
  1
AC1009
  9
$EXTMIN
 10
0.0
 20
0.0
 30
0.0
  9
$EXTMAX
 10
1000.0
 20
1000.0
 30
0.0
  9
$FILLMODE
 70
 0
  9
$SPLFRAME
 70
 1
  0
ENDSEC
  0
SECTION
  2
TABLES
  0
TABLE
  2
LAYER
 70
1
  0
LAYER
  2
0
 70
     0
 62
     7
  6
CONTINUOUS
  0
ENDTAB
  0
ENDSEC
  0
SECTION
  2
ENTITIES
  0
POLYLINE
  8
0
 62
     0
 66
     1
 10
0
 20
0
 30
0.0
 40
0.72
 41
0.72
  0
VERTEX
  8
0
 10
3.67937
 20
74.6718
 30
0.0
 40
0.254
 41
0.254
  0
VERTEX
  8
0
 10
6.55807
 20
73.7828
 30
0.0
 40
0.254
 41
0.254
  0
SEQEND
 8
0
  0
POLYLINE
  8
0
 62
     0
 66
     1
 10
0
 20
0
 30
0.0
 40
0.72
 41
0.72
  0
VERTEX
  8
0
 10
6.55807
 20
33.8625
 30
0.0
 40
0.254
 41
0.254
  0
VERTEX
  8
0
 10
6.55807
 20
76.3655
 30
0.0
 40
0.254
 41
0.254
  0
SEQEND
 8
0
  0
POLYLINE
  8
0
 62
     0
 66
     1
 10
0
 20
0
 30
0.0
 40
0.72
 41
0.72
  0
VERTEX
  8
0
 10
18.3692
 20
93.2988
 30
0.0
 40
0.254
 41
0.254
  0
VERTEX
  8
0
 10
16.2526
 20
91.1821
 30
0.0
 40
0.254
 41
0.254
  0
VERTEX
  8
0
 10
14.3054
 20
88.9385
 30
0.0
 40
0.254
 41
0.254
  0
VERTEX
  8
0
 10
12.485
 20
86.6098
 30
0.0
 40
0.254
 41
0.254
  0
VERTEX
  8
0
 10
10.7914
 20
84.1968
 30
0.0
 40
0.254
 41
0.254
  0
VERTEX
  8
0
 10
9.22457
 20
81.6571
 30
0.0
 40
0.254
 41
0.254
  0
VERTEX
  8
0
 10
7.82863
 20
79.0317
 30
0.0
 40
0.254
 41
0.254
  0
VERTEX
  8
0
 10
6.55807
 20
76.3655
 30
0.0
 40
0.254
 41
0.254
  0
SEQEND
 8
0
  0
POLYLINE
  8
0
 62
     0
 66
     1
 10
0
 20
0
 30
0.0
 40
0.72
 41
0.72
  0
VERTEX
  8
0
 10
18.3692
 20
93.2988
 30
0.0
 40
0.254
 41
0.254
  0
VERTEX
  8
0
 10
18.3692
 20
71.0311
 30
0.0
 40
0.254
 41
0.254
  0
VERTEX
  8
0
 10
20.3591
 20
71.0311
 30
0.0
 40
0.254
 41
0.254
  0
VERTEX
  8
0
 10
20.3591
 20
96.0078
 30
0.0
 40
0.254
 41
0.254
  0
VERTEX
  8
0
 10
21.4175
 20
96.0078
 30
0.0
 40
0.254
 41
0.254
  0
SEQEND
 8
0
  0
POLYLINE
  8
0
 62
     0
 66
     1
 10
0
 20
0
 30
0.0
 40
0.72
 41
0.72
  0
VERTEX
  8
0
 10
88.7691
 20
96.0078
 30
0.0
 40
0.254
 41
0.254
  0
VERTEX
  8
0
 10
86.4828
 20
97.8284
 30
0.0
 40
0.254
 41
0.254
  0
VERTEX
  8
0
 10
84.0701
 20
99.4791
 30
0.0
 40
0.254
 41
0.254
  0
VERTEX
  8
0
 10
81.5728
 20
101.003
 30
0.0
 40
0.254
 41
0.254
  0
VERTEX
  8
0
 10
78.9905
 20
102.399
 30
0.0
 40
0.254
 41
0.254
  0
VERTEX
  8
0
 10
76.3655
 20
103.627
 30
0.0
 40
0.254
 41
0.254
  0
VERTEX
  8
0
 10
73.6561
 20
104.728
 30
0.0
 40
0.254
 41
0.254
  0
VERTEX
  8
0
 10
70.9041
 20
105.702
 30
0.0
 40
0.254
 41
0.254
  0
VERTEX
  8
0
 10
68.1108
 20
106.464
 30
0.0
 40
0.254
 41
0.254
  0
VERTEX
  8
0
 10
65.2321
 20
107.141
 30
0.0
 40
0.254
 41
0.254
  0
VERTEX
  8
0
 10
62.3535
 20
107.607
 30
0.0
 40
0.254
 41
0.254
  0
VERTEX
  8
0
 10
59.4748
 20
107.946
 30
0.0
 40
0.254
 41
0.254
  0
VERTEX
  8
0
 10
56.5535
 20
108.073
 30
0.0
 40
0.254
 41
0.254
  0
VERTEX
  8
0
 10
53.6332
 20
108.073
 30
0.0
 40
0.254
 41
0.254
  0
VERTEX
  8
0
 10
50.7118
 20
107.946
 30
0.0
 40
0.254
 41
0.254
  0
VERTEX
  8
0
 10
47.8331
 20
107.607
 30
0.0
 40
0.254
 41
0.254
  0
VERTEX
  8
0
 10
44.9545
 20
107.141
 30
0.0
 40
0.254
 41
0.254
  0
VERTEX
  8
0
 10
42.0758
 20
106.464
 30
0.0
 40
0.254
 41
0.254
  0
VERTEX
  8
0
 10
39.2825
 20
105.702
 30
0.0
 40
0.254
 41
0.254
  0
VERTEX
  8
0
 10
36.5305
 20
104.728
 30
0.0
 40
0.254
 41
0.254
  0
VERTEX
  8
0
 10
33.8212
 20
103.627
 30
0.0
 40
0.254
 41
0.254
  0
VERTEX
  8
0
 10
31.196
 20
102.399
 30
0.0
 40
0.254
 41
0.254
  0
VERTEX
  8
0
 10
28.6136
 20
101.003
 30
0.0
 40
0.254
 41
0.254
  0
VERTEX
  8
0
 10
26.1166
 20
99.4791
 30
0.0
 40
0.254
 41
0.254
  0
VERTEX
  8
0
 10
23.7036
 20
97.8284
 30
0.0
 40
0.254
 41
0.254
  0
VERTEX
  8
0
 10
21.4175
 20
96.0078
 30
0.0
 40
0.254
 41
0.254
  0
SEQEND
 8
0
  0
POLYLINE
  8
0
 62
     0
 66
     1
 10
0
 20
0
 30
0.0
 40
0.72
 41
0.72
  0
VERTEX
  8
0
 10
31.6618
 20
104.855
 30
0.0
 40
0.254
 41
0.254
  0
VERTEX
  8
0
 10
32.3812
 20
102.993
 30
0.0
 40
0.254
 41
0.254
  0
SEQEND
 8
0
  0
POLYLINE
  8
0
 62
     0
 66
     1
 10
0
 20
0
 30
0.0
 40
0.72
 41
0.72
  0
VERTEX
  8
0
 10
21.4175
 20
96.0078
 30
0.0
 40
0.254
 41
0.254
  0
VERTEX
  8
0
 10
20.3591
 20
96.0078
 30
0.0
 40
0.254
 41
0.254
  0
VERTEX
  8
0
 10
20.3591
 20
71.0311
 30
0.0
 40
0.254
 41
0.254
  0
VERTEX
  8
0
 10
18.3692
 20
71.0311
 30
0.0
 40
0.254
 41
0.254
  0
VERTEX
  8
0
 10
18.3692
 20
66.0358
 30
0.0
 40
0.254
 41
0.254
  0
VERTEX
  8
0
 10
20.3591
 20
66.0358
 30
0.0
 40
0.254
 41
0.254
  0
VERTEX
  8
0
 10
20.3591
 20
44.1911
 30
0.0
 40
0.254
 41
0.254
  0
VERTEX
  8
0
 10
18.3692
 20
44.1911
 30
0.0
 40
0.254
 41
0.254
  0
VERTEX
  8
0
 10
18.3692
 20
39.1968
 30
0.0
 40
0.254
 41
0.254
  0
VERTEX
  8
0
 10
20.3591
 20
39.1968
 30
0.0
 40
0.254
 41
0.254
  0
VERTEX
  8
0
 10
20.3591
 20
14.1773
 30
0.0
 40
0.254
 41
0.254
  0
VERTEX
  8
0
 10
21.4175
 20
14.1773
 30
0.0
 40
0.254
 41
0.254
  0
VERTEX
  8
0
 10
23.7036
 20
12.3996
 30
0.0
 40
0.254
 41
0.254
  0
VERTEX
  8
0
 10
26.1166
 20
10.7487
 30
0.0
 40
0.254
 41
0.254
  0
VERTEX
  8
0
 10
28.6136
 20
9.18185
 30
0.0
 40
0.254
 41
0.254
  0
VERTEX
  8
0
 10
31.196
 20
7.82726
 30
0.0
 40
0.254
 41
0.254
  0
VERTEX
  8
0
 10
33.8212
 20
6.55669
 30
0.0
 40
0.254
 41
0.254
  0
VERTEX
  8
0
 10
36.5305
 20
5.45705
 30
0.0
 40
0.254
 41
0.254
  0
VERTEX
  8
0
 10
39.2825
 20
4.52547
 30
0.0
 40
0.254
 41
0.254
  0
VERTEX
  8
0
 10
42.0758
 20
3.72071
 30
0.0
 40
0.254
 41
0.254
  0
VERTEX
  8
0
 10
44.9545
 20
3.08543
 30
0.0
 40
0.254
 41
0.254
  0
VERTEX
  8
0
 10
47.8331
 20
2.61965
 30
0.0
 40
0.254
 41
0.254
  0
VERTEX
  8
0
 10
50.7118
 20
2.28203
 30
0.0
 40
0.254
 41
0.254
  0
VERTEX
  8
0
 10
53.6332
 20
2.11253
 30
0.0
 40
0.254
 41
0.254
  0
VERTEX
  8
0
 10
56.5535
 20
2.11253
 30
0.0
 40
0.254
 41
0.254
  0
VERTEX
  8
0
 10
59.4748
 20
2.28203
 30
0.0
 40
0.254
 41
0.254
  0
VERTEX
  8
0
 10
62.3535
 20
2.61965
 30
0.0
 40
0.254
 41
0.254
  0
VERTEX
  8
0
 10
65.2321
 20
3.08543
 30
0.0
 40
0.254
 41
0.254
  0
VERTEX
  8
0
 10
68.1108
 20
3.72071
 30
0.0
 40
0.254
 41
0.254
  0
VERTEX
  8
0
 10
70.9041
 20
4.52547
 30
0.0
 40
0.254
 41
0.254
  0
VERTEX
  8
0
 10
73.6561
 20
5.45705
 30
0.0
 40
0.254
 41
0.254
  0
VERTEX
  8
0
 10
76.3655
 20
6.55669
 30
0.0
 40
0.254
 41
0.254
  0
VERTEX
  8
0
 10
78.9905
 20
7.82726
 30
0.0
 40
0.254
 41
0.254
  0
VERTEX
  8
0
 10
81.5728
 20
9.18185
 30
0.0
 40
0.254
 41
0.254
  0
VERTEX
  8
0
 10
84.0701
 20
10.7487
 30
0.0
 40
0.254
 41
0.254
  0
VERTEX
  8
0
 10
86.4828
 20
12.3996
 30
0.0
 40
0.254
 41
0.254
  0
VERTEX
  8
0
 10
88.7691
 20
14.1773
 30
0.0
 40
0.254
 41
0.254
  0
SEQEND
 8
0
  0
POLYLINE
  8
0
 62
     0
 66
     1
 10
0
 20
0
 30
0.0
 40
0.72
 41
0.72
  0
VERTEX
  8
0
 10
21.4175
 20
14.1773
 30
0.0
 40
0.254
 41
0.254
  0
VERTEX
  8
0
 10
23.7036
 20
12.3996
 30
0.0
 40
0.254
 41
0.254
  0
VERTEX
  8
0
 10
26.1166
 20
10.7487
 30
0.0
 40
0.254
 41
0.254
  0
VERTEX
  8
0
 10
28.6136
 20
9.18185
 30
0.0
 40
0.254
 41
0.254
  0
VERTEX
  8
0
 10
31.196
 20
7.82726
 30
0.0
 40
0.254
 41
0.254
  0
VERTEX
  8
0
 10
33.8212
 20
6.55669
 30
0.0
 40
0.254
 41
0.254
  0
VERTEX
  8
0
 10
36.5305
 20
5.45705
 30
0.0
 40
0.254
 41
0.254
  0
VERTEX
  8
0
 10
39.2825
 20
4.52547
 30
0.0
 40
0.254
 41
0.254
  0
VERTEX
  8
0
 10
42.0758
 20
3.72071
 30
0.0
 40
0.254
 41
0.254
  0
VERTEX
  8
0
 10
44.9545
 20
3.08543
 30
0.0
 40
0.254
 41
0.254
  0
VERTEX
  8
0
 10
47.8331
 20
2.61965
 30
0.0
 40
0.254
 41
0.254
  0
VERTEX
  8
0
 10
50.7118
 20
2.28203
 30
0.0
 40
0.254
 41
0.254
  0
VERTEX
  8
0
 10
53.6332
 20
2.11253
 30
0.0
 40
0.254
 41
0.254
  0
VERTEX
  8
0
 10
56.5535
 20
2.11253
 30
0.0
 40
0.254
 41
0.254
  0
VERTEX
  8
0
 10
59.4748
 20
2.28203
 30
0.0
 40
0.254
 41
0.254
  0
VERTEX
  8
0
 10
62.3535
 20
2.61965
 30
0.0
 40
0.254
 41
0.254
  0
VERTEX
  8
0
 10
65.2321
 20
3.08543
 30
0.0
 40
0.254
 41
0.254
  0
VERTEX
  8
0
 10
68.1108
 20
3.72071
 30
0.0
 40
0.254
 41
0.254
  0
VERTEX
  8
0
 10
70.9041
 20
4.52547
 30
0.0
 40
0.254
 41
0.254
  0
VERTEX
  8
0
 10
73.6561
 20
5.45705
 30
0.0
 40
0.254
 41
0.254
  0
VERTEX
  8
0
 10
76.3655
 20
6.55669
 30
0.0
 40
0.254
 41
0.254
  0
VERTEX
  8
0
 10
78.9905
 20
7.82726
 30
0.0
 40
0.254
 41
0.254
  0
VERTEX
  8
0
 10
81.5728
 20
9.18185
 30
0.0
 40
0.254
 41
0.254
  0
VERTEX
  8
0
 10
84.0701
 20
10.7487
 30
0.0
 40
0.254
 41
0.254
  0
VERTEX
  8
0
 10
86.4828
 20
12.3996
 30
0.0
 40
0.254
 41
0.254
  0
VERTEX
  8
0
 10
88.7691
 20
14.1773
 30
0.0
 40
0.254
 41
0.254
  0
SEQEND
 8
0
  0
POLYLINE
  8
0
 62
     0
 66
     1
 10
0
 20
0
 30
0.0
 40
0.72
 41
0.72
  0
VERTEX
  8
0
 10
21.4175
 20
14.1773
 30
0.0
 40
0.254
 41
0.254
  0
VERTEX
  8
0
 10
23.7036
 20
12.3996
 30
0.0
 40
0.254
 41
0.254
  0
VERTEX
  8
0
 10
26.1166
 20
10.7487
 30
0.0
 40
0.254
 41
0.254
  0
VERTEX
  8
0
 10
28.6136
 20
9.18185
 30
0.0
 40
0.254
 41
0.254
  0
VERTEX
  8
0
 10
31.196
 20
7.82726
 30
0.0
 40
0.254
 41
0.254
  0
VERTEX
  8
0
 10
33.8212
 20
6.55669
 30
0.0
 40
0.254
 41
0.254
  0
VERTEX
  8
0
 10
36.5305
 20
5.45705
 30
0.0
 40
0.254
 41
0.254
  0
VERTEX
  8
0
 10
39.2825
 20
4.52547
 30
0.0
 40
0.254
 41
0.254
  0
VERTEX
  8
0
 10
42.0758
 20
3.72071
 30
0.0
 40
0.254
 41
0.254
  0
VERTEX
  8
0
 10
44.9545
 20
3.08543
 30
0.0
 40
0.254
 41
0.254
  0
VERTEX
  8
0
 10
47.8331
 20
2.61965
 30
0.0
 40
0.254
 41
0.254
  0
VERTEX
  8
0
 10
50.7118
 20
2.28203
 30
0.0
 40
0.254
 41
0.254
  0
VERTEX
  8
0
 10
53.6332
 20
2.11253
 30
0.0
 40
0.254
 41
0.254
  0
VERTEX
  8
0
 10
56.5535
 20
2.11253
 30
0.0
 40
0.254
 41
0.254
  0
VERTEX
  8
0
 10
59.4748
 20
2.28203
 30
0.0
 40
0.254
 41
0.254
  0
VERTEX
  8
0
 10
62.3535
 20
2.61965
 30
0.0
 40
0.254
 41
0.254
  0
VERTEX
  8
0
 10
65.2321
 20
3.08543
 30
0.0
 40
0.254
 41
0.254
  0
VERTEX
  8
0
 10
68.1108
 20
3.72071
 30
0.0
 40
0.254
 41
0.254
  0
VERTEX
  8
0
 10
70.9041
 20
4.52547
 30
0.0
 40
0.254
 41
0.254
  0
VERTEX
  8
0
 10
73.6561
 20
5.45705
 30
0.0
 40
0.254
 41
0.254
  0
VERTEX
  8
0
 10
76.3655
 20
6.55669
 30
0.0
 40
0.254
 41
0.254
  0
VERTEX
  8
0
 10
78.9905
 20
7.82726
 30
0.0
 40
0.254
 41
0.254
  0
VERTEX
  8
0
 10
81.5728
 20
9.18185
 30
0.0
 40
0.254
 41
0.254
  0
VERTEX
  8
0
 10
84.0701
 20
10.7487
 30
0.0
 40
0.254
 41
0.254
  0
VERTEX
  8
0
 10
86.4828
 20
12.3996
 30
0.0
 40
0.254
 41
0.254
  0
VERTEX
  8
0
 10
88.7691
 20
14.1773
 30
0.0
 40
0.254
 41
0.254
  0
SEQEND
 8
0
  0
POLYLINE
  8
0
 62
     0
 66
     1
 10
0
 20
0
 30
0.0
 40
0.72
 41
0.72
  0
VERTEX
  8
0
 10
21.4175
 20
14.1773
 30
0.0
 40
0.254
 41
0.254
  0
VERTEX
  8
0
 10
23.7036
 20
12.3996
 30
0.0
 40
0.254
 41
0.254
  0
VERTEX
  8
0
 10
26.1166
 20
10.7487
 30
0.0
 40
0.254
 41
0.254
  0
VERTEX
  8
0
 10
28.6136
 20
9.18185
 30
0.0
 40
0.254
 41
0.254
  0
VERTEX
  8
0
 10
31.196
 20
7.82726
 30
0.0
 40
0.254
 41
0.254
  0
VERTEX
  8
0
 10
33.8212
 20
6.55669
 30
0.0
 40
0.254
 41
0.254
  0
VERTEX
  8
0
 10
36.5305
 20
5.45705
 30
0.0
 40
0.254
 41
0.254
  0
VERTEX
  8
0
 10
39.2825
 20
4.52547
 30
0.0
 40
0.254
 41
0.254
  0
VERTEX
  8
0
 10
42.0758
 20
3.72071
 30
0.0
 40
0.254
 41
0.254
  0
VERTEX
  8
0
 10
44.9545
 20
3.08543
 30
0.0
 40
0.254
 41
0.254
  0
VERTEX
  8
0
 10
47.8331
 20
2.61965
 30
0.0
 40
0.254
 41
0.254
  0
VERTEX
  8
0
 10
50.7118
 20
2.28203
 30
0.0
 40
0.254
 41
0.254
  0
VERTEX
  8
0
 10
53.6332
 20
2.11253
 30
0.0
 40
0.254
 41
0.254
  0
VERTEX
  8
0
 10
56.5535
 20
2.11253
 30
0.0
 40
0.254
 41
0.254
  0
VERTEX
  8
0
 10
59.4748
 20
2.28203
 30
0.0
 40
0.254
 41
0.254
  0
VERTEX
  8
0
 10
62.3535
 20
2.61965
 30
0.0
 40
0.254
 41
0.254
  0
VERTEX
  8
0
 10
65.2321
 20
3.08543
 30
0.0
 40
0.254
 41
0.254
  0
VERTEX
  8
0
 10
68.1108
 20
3.72071
 30
0.0
 40
0.254
 41
0.254
  0
VERTEX
  8
0
 10
70.9041
 20
4.52547
 30
0.0
 40
0.254
 41
0.254
  0
VERTEX
  8
0
 10
73.6561
 20
5.45705
 30
0.0
 40
0.254
 41
0.254
  0
VERTEX
  8
0
 10
76.3655
 20
6.55669
 30
0.0
 40
0.254
 41
0.254
  0
VERTEX
  8
0
 10
78.9905
 20
7.82726
 30
0.0
 40
0.254
 41
0.254
  0
VERTEX
  8
0
 10
81.5728
 20
9.18185
 30
0.0
 40
0.254
 41
0.254
  0
VERTEX
  8
0
 10
84.0701
 20
10.7487
 30
0.0
 40
0.254
 41
0.254
  0
VERTEX
  8
0
 10
86.4828
 20
12.3996
 30
0.0
 40
0.254
 41
0.254
  0
VERTEX
  8
0
 10
88.7691
 20
14.1773
 30
0.0
 40
0.254
 41
0.254
  0
SEQEND
 8
0
  0
POLYLINE
  8
0
 62
     0
 66
     1
 10
0
 20
0
 30
0.0
 40
0.72
 41
0.72
  0
VERTEX
  8
0
 10
21.4175
 20
14.1773
 30
0.0
 40
0.254
 41
0.254
  0
VERTEX
  8
0
 10
23.7036
 20
12.3996
 30
0.0
 40
0.254
 41
0.254
  0
VERTEX
  8
0
 10
26.1166
 20
10.7487
 30
0.0
 40
0.254
 41
0.254
  0
VERTEX
  8
0
 10
28.6136
 20
9.18185
 30
0.0
 40
0.254
 41
0.254
  0
VERTEX
  8
0
 10
31.196
 20
7.82726
 30
0.0
 40
0.254
 41
0.254
  0
VERTEX
  8
0
 10
33.8212
 20
6.55669
 30
0.0
 40
0.254
 41
0.254
  0
VERTEX
  8
0
 10
36.5305
 20
5.45705
 30
0.0
 40
0.254
 41
0.254
  0
VERTEX
  8
0
 10
39.2825
 20
4.52547
 30
0.0
 40
0.254
 41
0.254
  0
VERTEX
  8
0
 10
42.0758
 20
3.72071
 30
0.0
 40
0.254
 41
0.254
  0
VERTEX
  8
0
 10
44.9545
 20
3.08543
 30
0.0
 40
0.254
 41
0.254
  0
VERTEX
  8
0
 10
47.8331
 20
2.61965
 30
0.0
 40
0.254
 41
0.254
  0
VERTEX
  8
0
 10
50.7118
 20
2.28203
 30
0.0
 40
0.254
 41
0.254
  0
VERTEX
  8
0
 10
53.6332
 20
2.11253
 30
0.0
 40
0.254
 41
0.254
  0
VERTEX
  8
0
 10
56.5535
 20
2.11253
 30
0.0
 40
0.254
 41
0.254
  0
VERTEX
  8
0
 10
59.4748
 20
2.28203
 30
0.0
 40
0.254
 41
0.254
  0
VERTEX
  8
0
 10
62.3535
 20
2.61965
 30
0.0
 40
0.254
 41
0.254
  0
VERTEX
  8
0
 10
65.2321
 20
3.08543
 30
0.0
 40
0.254
 41
0.254
  0
VERTEX
  8
0
 10
68.1108
 20
3.72071
 30
0.0
 40
0.254
 41
0.254
  0
VERTEX
  8
0
 10
70.9041
 20
4.52547
 30
0.0
 40
0.254
 41
0.254
  0
VERTEX
  8
0
 10
73.6561
 20
5.45705
 30
0.0
 40
0.254
 41
0.254
  0
VERTEX
  8
0
 10
76.3655
 20
6.55669
 30
0.0
 40
0.254
 41
0.254
  0
VERTEX
  8
0
 10
78.9905
 20
7.82726
 30
0.0
 40
0.254
 41
0.254
  0
VERTEX
  8
0
 10
81.5728
 20
9.18185
 30
0.0
 40
0.254
 41
0.254
  0
VERTEX
  8
0
 10
84.0701
 20
10.7487
 30
0.0
 40
0.254
 41
0.254
  0
VERTEX
  8
0
 10
86.4828
 20
12.3996
 30
0.0
 40
0.254
 41
0.254
  0
VERTEX
  8
0
 10
88.7691
 20
14.1773
 30
0.0
 40
0.254
 41
0.254
  0
VERTEX
  8
0
 10
89.8275
 20
14.1773
 30
0.0
 40
0.254
 41
0.254
  0
VERTEX
  8
0
 10
89.8275
 20
39.1968
 30
0.0
 40
0.254
 41
0.254
  0
VERTEX
  8
0
 10
91.8175
 20
39.1968
 30
0.0
 40
0.254
 41
0.254
  0
VERTEX
  8
0
 10
91.8175
 20
44.1911
 30
0.0
 40
0.254
 41
0.254
  0
VERTEX
  8
0
 10
89.8275
 20
44.1911
 30
0.0
 40
0.254
 41
0.254
  0
VERTEX
  8
0
 10
89.8275
 20
66.0358
 30
0.0
 40
0.254
 41
0.254
  0
VERTEX
  8
0
 10
91.8175
 20
66.0358
 30
0.0
 40
0.254
 41
0.254
  0
VERTEX
  8
0
 10
91.8175
 20
71.0311
 30
0.0
 40
0.254
 41
0.254
  0
VERTEX
  8
0
 10
89.8275
 20
71.0311
 30
0.0
 40
0.254
 41
0.254
  0
VERTEX
  8
0
 10
89.8275
 20
96.0078
 30
0.0
 40
0.254
 41
0.254
  0
VERTEX
  8
0
 10
88.7691
 20
96.0078
 30
0.0
 40
0.254
 41
0.254
  0
VERTEX
  8
0
 10
86.4828
 20
97.8284
 30
0.0
 40
0.254
 41
0.254
  0
VERTEX
  8
0
 10
84.0701
 20
99.4791
 30
0.0
 40
0.254
 41
0.254
  0
VERTEX
  8
0
 10
81.5728
 20
101.003
 30
0.0
 40
0.254
 41
0.254
  0
VERTEX
  8
0
 10
78.9905
 20
102.399
 30
0.0
 40
0.254
 41
0.254
  0
VERTEX
  8
0
 10
76.3655
 20
103.627
 30
0.0
 40
0.254
 41
0.254
  0
VERTEX
  8
0
 10
73.6561
 20
104.728
 30
0.0
 40
0.254
 41
0.254
  0
VERTEX
  8
0
 10
70.9041
 20
105.702
 30
0.0
 40
0.254
 41
0.254
  0
VERTEX
  8
0
 10
68.1108
 20
106.464
 30
0.0
 40
0.254
 41
0.254
  0
VERTEX
  8
0
 10
65.2321
 20
107.141
 30
0.0
 40
0.254
 41
0.254
  0
VERTEX
  8
0
 10
62.3535
 20
107.607
 30
0.0
 40
0.254
 41
0.254
  0
VERTEX
  8
0
 10
59.4748
 20
107.946
 30
0.0
 40
0.254
 41
0.254
  0
VERTEX
  8
0
 10
56.5535
 20
108.073
 30
0.0
 40
0.254
 41
0.254
  0
VERTEX
  8
0
 10
53.6332
 20
108.073
 30
0.0
 40
0.254
 41
0.254
  0
VERTEX
  8
0
 10
50.7118
 20
107.946
 30
0.0
 40
0.254
 41
0.254
  0
VERTEX
  8
0
 10
47.8331
 20
107.607
 30
0.0
 40
0.254
 41
0.254
  0
VERTEX
  8
0
 10
44.9545
 20
107.141
 30
0.0
 40
0.254
 41
0.254
  0
VERTEX
  8
0
 10
42.0758
 20
106.464
 30
0.0
 40
0.254
 41
0.254
  0
VERTEX
  8
0
 10
39.2825
 20
105.702
 30
0.0
 40
0.254
 41
0.254
  0
VERTEX
  8
0
 10
36.5305
 20
104.728
 30
0.0
 40
0.254
 41
0.254
  0
VERTEX
  8
0
 10
33.8212
 20
103.627
 30
0.0
 40
0.254
 41
0.254
  0
VERTEX
  8
0
 10
31.196
 20
102.399
 30
0.0
 40
0.254
 41
0.254
  0
VERTEX
  8
0
 10
28.6136
 20
101.003
 30
0.0
 40
0.254
 41
0.254
  0
VERTEX
  8
0
 10
26.1166
 20
99.4791
 30
0.0
 40
0.254
 41
0.254
  0
VERTEX
  8
0
 10
23.7036
 20
97.8284
 30
0.0
 40
0.254
 41
0.254
  0
VERTEX
  8
0
 10
21.4175
 20
96.0078
 30
0.0
 40
0.254
 41
0.254
  0
SEQEND
 8
0
  0
POLYLINE
  8
0
 62
     0
 66
     1
 10
0
 20
0
 30
0.0
 40
0.72
 41
0.72
  0
VERTEX
  8
0
 10
88.7691
 20
96.0078
 30
0.0
 40
0.254
 41
0.254
  0
VERTEX
  8
0
 10
86.4828
 20
97.8284
 30
0.0
 40
0.254
 41
0.254
  0
VERTEX
  8
0
 10
84.0701
 20
99.4791
 30
0.0
 40
0.254
 41
0.254
  0
VERTEX
  8
0
 10
81.5728
 20
101.003
 30
0.0
 40
0.254
 41
0.254
  0
VERTEX
  8
0
 10
78.9905
 20
102.399
 30
0.0
 40
0.254
 41
0.254
  0
VERTEX
  8
0
 10
76.3655
 20
103.627
 30
0.0
 40
0.254
 41
0.254
  0
VERTEX
  8
0
 10
73.6561
 20
104.728
 30
0.0
 40
0.254
 41
0.254
  0
VERTEX
  8
0
 10
70.9041
 20
105.702
 30
0.0
 40
0.254
 41
0.254
  0
VERTEX
  8
0
 10
68.1108
 20
106.464
 30
0.0
 40
0.254
 41
0.254
  0
VERTEX
  8
0
 10
65.2321
 20
107.141
 30
0.0
 40
0.254
 41
0.254
  0
VERTEX
  8
0
 10
62.3535
 20
107.607
 30
0.0
 40
0.254
 41
0.254
  0
VERTEX
  8
0
 10
59.4748
 20
107.946
 30
0.0
 40
0.254
 41
0.254
  0
VERTEX
  8
0
 10
56.5535
 20
108.073
 30
0.0
 40
0.254
 41
0.254
  0
VERTEX
  8
0
 10
53.6332
 20
108.073
 30
0.0
 40
0.254
 41
0.254
  0
VERTEX
  8
0
 10
50.7118
 20
107.946
 30
0.0
 40
0.254
 41
0.254
  0
VERTEX
  8
0
 10
47.8331
 20
107.607
 30
0.0
 40
0.254
 41
0.254
  0
VERTEX
  8
0
 10
44.9545
 20
107.141
 30
0.0
 40
0.254
 41
0.254
  0
VERTEX
  8
0
 10
42.0758
 20
106.464
 30
0.0
 40
0.254
 41
0.254
  0
VERTEX
  8
0
 10
39.2825
 20
105.702
 30
0.0
 40
0.254
 41
0.254
  0
VERTEX
  8
0
 10
36.5305
 20
104.728
 30
0.0
 40
0.254
 41
0.254
  0
VERTEX
  8
0
 10
33.8212
 20
103.627
 30
0.0
 40
0.254
 41
0.254
  0
VERTEX
  8
0
 10
31.196
 20
102.399
 30
0.0
 40
0.254
 41
0.254
  0
VERTEX
  8
0
 10
28.6136
 20
101.003
 30
0.0
 40
0.254
 41
0.254
  0
VERTEX
  8
0
 10
26.1166
 20
99.4791
 30
0.0
 40
0.254
 41
0.254
  0
VERTEX
  8
0
 10
23.7036
 20
97.8284
 30
0.0
 40
0.254
 41
0.254
  0
VERTEX
  8
0
 10
21.4175
 20
96.0078
 30
0.0
 40
0.254
 41
0.254
  0
SEQEND
 8
0
  0
POLYLINE
  8
0
 62
     0
 66
     1
 10
0
 20
0
 30
0.0
 40
0.72
 41
0.72
  0
VERTEX
  8
0
 10
88.7691
 20
96.0078
 30
0.0
 40
0.254
 41
0.254
  0
VERTEX
  8
0
 10
86.4828
 20
97.8284
 30
0.0
 40
0.254
 41
0.254
  0
VERTEX
  8
0
 10
84.0701
 20
99.4791
 30
0.0
 40
0.254
 41
0.254
  0
VERTEX
  8
0
 10
81.5728
 20
101.003
 30
0.0
 40
0.254
 41
0.254
  0
VERTEX
  8
0
 10
78.9905
 20
102.399
 30
0.0
 40
0.254
 41
0.254
  0
VERTEX
  8
0
 10
76.3655
 20
103.627
 30
0.0
 40
0.254
 41
0.254
  0
VERTEX
  8
0
 10
73.6561
 20
104.728
 30
0.0
 40
0.254
 41
0.254
  0
VERTEX
  8
0
 10
70.9041
 20
105.702
 30
0.0
 40
0.254
 41
0.254
  0
VERTEX
  8
0
 10
68.1108
 20
106.464
 30
0.0
 40
0.254
 41
0.254
  0
VERTEX
  8
0
 10
65.2321
 20
107.141
 30
0.0
 40
0.254
 41
0.254
  0
VERTEX
  8
0
 10
62.3535
 20
107.607
 30
0.0
 40
0.254
 41
0.254
  0
VERTEX
  8
0
 10
59.4748
 20
107.946
 30
0.0
 40
0.254
 41
0.254
  0
VERTEX
  8
0
 10
56.5535
 20
108.073
 30
0.0
 40
0.254
 41
0.254
  0
VERTEX
  8
0
 10
53.6332
 20
108.073
 30
0.0
 40
0.254
 41
0.254
  0
VERTEX
  8
0
 10
50.7118
 20
107.946
 30
0.0
 40
0.254
 41
0.254
  0
VERTEX
  8
0
 10
47.8331
 20
107.607
 30
0.0
 40
0.254
 41
0.254
  0
VERTEX
  8
0
 10
44.9545
 20
107.141
 30
0.0
 40
0.254
 41
0.254
  0
VERTEX
  8
0
 10
42.0758
 20
106.464
 30
0.0
 40
0.254
 41
0.254
  0
VERTEX
  8
0
 10
39.2825
 20
105.702
 30
0.0
 40
0.254
 41
0.254
  0
VERTEX
  8
0
 10
36.5305
 20
104.728
 30
0.0
 40
0.254
 41
0.254
  0
VERTEX
  8
0
 10
33.8212
 20
103.627
 30
0.0
 40
0.254
 41
0.254
  0
VERTEX
  8
0
 10
31.196
 20
102.399
 30
0.0
 40
0.254
 41
0.254
  0
VERTEX
  8
0
 10
28.6136
 20
101.003
 30
0.0
 40
0.254
 41
0.254
  0
VERTEX
  8
0
 10
26.1166
 20
99.4791
 30
0.0
 40
0.254
 41
0.254
  0
VERTEX
  8
0
 10
23.7036
 20
97.8284
 30
0.0
 40
0.254
 41
0.254
  0
VERTEX
  8
0
 10
21.4175
 20
96.0078
 30
0.0
 40
0.254
 41
0.254
  0
SEQEND
 8
0
  0
POLYLINE
  8
0
 62
     0
 66
     1
 10
0
 20
0
 30
0.0
 40
0.72
 41
0.72
  0
VERTEX
  8
0
 10
39.3665
 20
105.702
 30
0.0
 40
0.254
 41
0.254
  0
VERTEX
  8
0
 10
36.9962
 20
104.898
 30
0.0
 40
0.254
 41
0.254
  0
VERTEX
  8
0
 10
34.6673
 20
104.009
 30
0.0
 40
0.254
 41
0.254
  0
VERTEX
  8
0
 10
32.3812
 20
102.993
 30
0.0
 40
0.254
 41
0.254
  0
SEQEND
 8
0
  0
POLYLINE
  8
0
 62
     0
 66
     1
 10
0
 20
0
 30
0.0
 40
0.72
 41
0.72
  0
VERTEX
  8
0
 10
88.7691
 20
96.0078
 30
0.0
 40
0.254
 41
0.254
  0
VERTEX
  8
0
 10
86.4828
 20
97.8284
 30
0.0
 40
0.254
 41
0.254
  0
VERTEX
  8
0
 10
84.0701
 20
99.4791
 30
0.0
 40
0.254
 41
0.254
  0
VERTEX
  8
0
 10
81.5728
 20
101.003
 30
0.0
 40
0.254
 41
0.254
  0
VERTEX
  8
0
 10
78.9905
 20
102.399
 30
0.0
 40
0.254
 41
0.254
  0
VERTEX
  8
0
 10
76.3655
 20
103.627
 30
0.0
 40
0.254
 41
0.254
  0
VERTEX
  8
0
 10
73.6561
 20
104.728
 30
0.0
 40
0.254
 41
0.254
  0
VERTEX
  8
0
 10
70.9041
 20
105.702
 30
0.0
 40
0.254
 41
0.254
  0
VERTEX
  8
0
 10
68.1108
 20
106.464
 30
0.0
 40
0.254
 41
0.254
  0
VERTEX
  8
0
 10
65.2321
 20
107.141
 30
0.0
 40
0.254
 41
0.254
  0
VERTEX
  8
0
 10
62.3535
 20
107.607
 30
0.0
 40
0.254
 41
0.254
  0
VERTEX
  8
0
 10
59.4748
 20
107.946
 30
0.0
 40
0.254
 41
0.254
  0
VERTEX
  8
0
 10
56.5535
 20
108.073
 30
0.0
 40
0.254
 41
0.254
  0
VERTEX
  8
0
 10
53.6332
 20
108.073
 30
0.0
 40
0.254
 41
0.254
  0
VERTEX
  8
0
 10
50.7118
 20
107.946
 30
0.0
 40
0.254
 41
0.254
  0
VERTEX
  8
0
 10
47.8331
 20
107.607
 30
0.0
 40
0.254
 41
0.254
  0
VERTEX
  8
0
 10
44.9545
 20
107.141
 30
0.0
 40
0.254
 41
0.254
  0
VERTEX
  8
0
 10
42.0758
 20
106.464
 30
0.0
 40
0.254
 41
0.254
  0
VERTEX
  8
0
 10
39.2825
 20
105.702
 30
0.0
 40
0.254
 41
0.254
  0
VERTEX
  8
0
 10
36.5305
 20
104.728
 30
0.0
 40
0.254
 41
0.254
  0
VERTEX
  8
0
 10
33.8212
 20
103.627
 30
0.0
 40
0.254
 41
0.254
  0
VERTEX
  8
0
 10
31.196
 20
102.399
 30
0.0
 40
0.254
 41
0.254
  0
VERTEX
  8
0
 10
28.6136
 20
101.003
 30
0.0
 40
0.254
 41
0.254
  0
VERTEX
  8
0
 10
26.1166
 20
99.4791
 30
0.0
 40
0.254
 41
0.254
  0
VERTEX
  8
0
 10
23.7036
 20
97.8284
 30
0.0
 40
0.254
 41
0.254
  0
VERTEX
  8
0
 10
21.4175
 20
96.0078
 30
0.0
 40
0.254
 41
0.254
  0
SEQEND
 8
0
  0
POLYLINE
  8
0
 62
     0
 66
     1
 10
0
 20
0
 30
0.0
 40
0.72
 41
0.72
  0
VERTEX
  8
0
 10
78.5248
 20
104.855
 30
0.0
 40
0.254
 41
0.254
  0
VERTEX
  8
0
 10
77.8055
 20
102.993
 30
0.0
 40
0.254
 41
0.254
  0
SEQEND
 8
0
  0
POLYLINE
  8
0
 62
     0
 66
     1
 10
0
 20
0
 30
0.0
 40
0.72
 41
0.72
  0
VERTEX
  8
0
 10
88.7691
 20
96.0078
 30
0.0
 40
0.254
 41
0.254
  0
VERTEX
  8
0
 10
86.4828
 20
97.8284
 30
0.0
 40
0.254
 41
0.254
  0
VERTEX
  8
0
 10
84.0701
 20
99.4791
 30
0.0
 40
0.254
 41
0.254
  0
VERTEX
  8
0
 10
81.5728
 20
101.003
 30
0.0
 40
0.254
 41
0.254
  0
VERTEX
  8
0
 10
78.9905
 20
102.399
 30
0.0
 40
0.254
 41
0.254
  0
VERTEX
  8
0
 10
76.3655
 20
103.627
 30
0.0
 40
0.254
 41
0.254
  0
VERTEX
  8
0
 10
73.6561
 20
104.728
 30
0.0
 40
0.254
 41
0.254
  0
VERTEX
  8
0
 10
70.9041
 20
105.702
 30
0.0
 40
0.254
 41
0.254
  0
VERTEX
  8
0
 10
68.1108
 20
106.464
 30
0.0
 40
0.254
 41
0.254
  0
VERTEX
  8
0
 10
65.2321
 20
107.141
 30
0.0
 40
0.254
 41
0.254
  0
VERTEX
  8
0
 10
62.3535
 20
107.607
 30
0.0
 40
0.254
 41
0.254
  0
VERTEX
  8
0
 10
59.4748
 20
107.946
 30
0.0
 40
0.254
 41
0.254
  0
VERTEX
  8
0
 10
56.5535
 20
108.073
 30
0.0
 40
0.254
 41
0.254
  0
VERTEX
  8
0
 10
53.6332
 20
108.073
 30
0.0
 40
0.254
 41
0.254
  0
VERTEX
  8
0
 10
50.7118
 20
107.946
 30
0.0
 40
0.254
 41
0.254
  0
VERTEX
  8
0
 10
47.8331
 20
107.607
 30
0.0
 40
0.254
 41
0.254
  0
VERTEX
  8
0
 10
44.9545
 20
107.141
 30
0.0
 40
0.254
 41
0.254
  0
VERTEX
  8
0
 10
42.0758
 20
106.464
 30
0.0
 40
0.254
 41
0.254
  0
VERTEX
  8
0
 10
39.2825
 20
105.702
 30
0.0
 40
0.254
 41
0.254
  0
VERTEX
  8
0
 10
36.5305
 20
104.728
 30
0.0
 40
0.254
 41
0.254
  0
VERTEX
  8
0
 10
33.8212
 20
103.627
 30
0.0
 40
0.254
 41
0.254
  0
VERTEX
  8
0
 10
31.196
 20
102.399
 30
0.0
 40
0.254
 41
0.254
  0
VERTEX
  8
0
 10
28.6136
 20
101.003
 30
0.0
 40
0.254
 41
0.254
  0
VERTEX
  8
0
 10
26.1166
 20
99.4791
 30
0.0
 40
0.254
 41
0.254
  0
VERTEX
  8
0
 10
23.7036
 20
97.8284
 30
0.0
 40
0.254
 41
0.254
  0
VERTEX
  8
0
 10
21.4175
 20
96.0078
 30
0.0
 40
0.254
 41
0.254
  0
SEQEND
 8
0
  0
POLYLINE
  8
0
 62
     0
 66
     1
 10
0
 20
0
 30
0.0
 40
0.72
 41
0.72
  0
VERTEX
  8
0
 10
88.7691
 20
96.0078
 30
0.0
 40
0.254
 41
0.254
  0
VERTEX
  8
0
 10
89.8275
 20
96.0078
 30
0.0
 40
0.254
 41
0.254
  0
VERTEX
  8
0
 10
89.8275
 20
71.0311
 30
0.0
 40
0.254
 41
0.254
  0
VERTEX
  8
0
 10
91.8175
 20
71.0311
 30
0.0
 40
0.254
 41
0.254
  0
VERTEX
  8
0
 10
91.8175
 20
93.2988
 30
0.0
 40
0.254
 41
0.254
  0
SEQEND
 8
0
  0
POLYLINE
  8
0
 62
     0
 66
     1
 10
0
 20
0
 30
0.0
 40
0.72
 41
0.72
  0
VERTEX
  8
0
 10
103.628
 20
76.3655
 30
0.0
 40
0.254
 41
0.254
  0
VERTEX
  8
0
 10
102.358
 20
79.0317
 30
0.0
 40
0.254
 41
0.254
  0
VERTEX
  8
0
 10
100.962
 20
81.6571
 30
0.0
 40
0.254
 41
0.254
  0
VERTEX
  8
0
 10
99.3951
 20
84.1968
 30
0.0
 40
0.254
 41
0.254
  0
VERTEX
  8
0
 10
97.7015
 20
86.6098
 30
0.0
 40
0.254
 41
0.254
  0
VERTEX
  8
0
 10
95.8811
 20
88.9385
 30
0.0
 40
0.254
 41
0.254
  0
VERTEX
  8
0
 10
93.9341
 20
91.1821
 30
0.0
 40
0.254
 41
0.254
  0
VERTEX
  8
0
 10
91.8175
 20
93.2988
 30
0.0
 40
0.254
 41
0.254
  0
SEQEND
 8
0
  0
POLYLINE
  8
0
 62
     0
 66
     1
 10
0
 20
0
 30
0.0
 40
0.72
 41
0.72
  0
VERTEX
  8
0
 10
103.628
 20
76.3655
 30
0.0
 40
0.254
 41
0.254
  0
VERTEX
  8
0
 10
103.628
 20
33.8625
 30
0.0
 40
0.254
 41
0.254
  0
SEQEND
 8
0
  0
POLYLINE
  8
0
 62
     0
 66
     1
 10
0
 20
0
 30
0.0
 40
0.72
 41
0.72
  0
VERTEX
  8
0
 10
106.507
 20
74.6718
 30
0.0
 40
0.254
 41
0.254
  0
VERTEX
  8
0
 10
103.628
 20
73.7828
 30
0.0
 40
0.254
 41
0.254
  0
SEQEND
 8
0
  0
POLYLINE
  8
0
 62
     0
 66
     1
 10
0
 20
0
 30
0.0
 70
     1
 40
0.72
 41
0.72
  0
VERTEX
  8
0
 10
18.3692
 20
93.2988
 30
0.0
 40
0.254
 41
0.254
  0
VERTEX
  8
0
 10
16.2526
 20
91.1821
 30
0.0
 40
0.254
 41
0.254
  0
VERTEX
  8
0
 10
14.3054
 20
88.9385
 30
0.0
 40
0.254
 41
0.254
  0
VERTEX
  8
0
 10
12.485
 20
86.6098
 30
0.0
 40
0.254
 41
0.254
  0
VERTEX
  8
0
 10
10.7914
 20
84.1968
 30
0.0
 40
0.254
 41
0.254
  0
VERTEX
  8
0
 10
9.22457
 20
81.6571
 30
0.0
 40
0.254
 41
0.254
  0
VERTEX
  8
0
 10
7.82863
 20
79.0317
 30
0.0
 40
0.254
 41
0.254
  0
VERTEX
  8
0
 10
6.55807
 20
76.3655
 30
0.0
 40
0.254
 41
0.254
  0
VERTEX
  8
0
 10
6.55807
 20
33.8625
 30
0.0
 40
0.254
 41
0.254
  0
VERTEX
  8
0
 10
6.55807
 20
76.3655
 30
0.0
 40
0.254
 41
0.254
  0
VERTEX
  8
0
 10
6.55807
 20
33.8625
 30
0.0
 40
0.254
 41
0.254
  0
VERTEX
  8
0
 10
6.55807
 20
76.3655
 30
0.0
 40
0.254
 41
0.254
  0
VERTEX
  8
0
 10
6.55807
 20
33.8625
 30
0.0
 40
0.254
 41
0.254
  0
VERTEX
  8
0
 10
7.82863
 20
31.1533
 30
0.0
 40
0.254
 41
0.254
  0
VERTEX
  8
0
 10
9.22457
 20
28.5709
 30
0.0
 40
0.254
 41
0.254
  0
VERTEX
  8
0
 10
10.7914
 20
26.0312
 30
0.0
 40
0.254
 41
0.254
  0
VERTEX
  8
0
 10
12.485
 20
23.6182
 30
0.0
 40
0.254
 41
0.254
  0
VERTEX
  8
0
 10
14.3054
 20
21.2466
 30
0.0
 40
0.254
 41
0.254
  0
VERTEX
  8
0
 10
16.2526
 20
19.0459
 30
0.0
 40
0.254
 41
0.254
  0
VERTEX
  8
0
 10
18.3692
 20
16.9292
 30
0.0
 40
0.254
 41
0.254
  0
VERTEX
  8
0
 10
18.3692
 20
93.2988
 30
0.0
 40
0.254
 41
0.254
  0
SEQEND
 8
0
  0
POLYLINE
  8
0
 62
     0
 66
     1
 10
0
 20
0
 30
0.0
 40
0.72
 41
0.72
  0
VERTEX
  8
0
 10
31.6618
 20
5.37161
 30
0.0
 40
0.254
 41
0.254
  0
VERTEX
  8
0
 10
32.3812
 20
7.2347
 30
0.0
 40
0.254
 41
0.254
  0
SEQEND
 8
0
  0
POLYLINE
  8
0
 62
     0
 66
     1
 10
0
 20
0
 30
0.0
 40
0.72
 41
0.72
  0
VERTEX
  8
0
 10
21.4175
 20
14.1773
 30
0.0
 40
0.254
 41
0.254
  0
VERTEX
  8
0
 10
23.7036
 20
12.3996
 30
0.0
 40
0.254
 41
0.254
  0
VERTEX
  8
0
 10
26.1166
 20
10.7487
 30
0.0
 40
0.254
 41
0.254
  0
VERTEX
  8
0
 10
28.6136
 20
9.18185
 30
0.0
 40
0.254
 41
0.254
  0
VERTEX
  8
0
 10
31.196
 20
7.82726
 30
0.0
 40
0.254
 41
0.254
  0
VERTEX
  8
0
 10
33.8212
 20
6.55669
 30
0.0
 40
0.254
 41
0.254
  0
VERTEX
  8
0
 10
36.5305
 20
5.45705
 30
0.0
 40
0.254
 41
0.254
  0
VERTEX
  8
0
 10
39.2825
 20
4.52547
 30
0.0
 40
0.254
 41
0.254
  0
VERTEX
  8
0
 10
42.0758
 20
3.72071
 30
0.0
 40
0.254
 41
0.254
  0
VERTEX
  8
0
 10
44.9545
 20
3.08543
 30
0.0
 40
0.254
 41
0.254
  0
VERTEX
  8
0
 10
47.8331
 20
2.61965
 30
0.0
 40
0.254
 41
0.254
  0
VERTEX
  8
0
 10
50.7118
 20
2.28203
 30
0.0
 40
0.254
 41
0.254
  0
VERTEX
  8
0
 10
53.6332
 20
2.11253
 30
0.0
 40
0.254
 41
0.254
  0
VERTEX
  8
0
 10
56.5535
 20
2.11253
 30
0.0
 40
0.254
 41
0.254
  0
VERTEX
  8
0
 10
59.4748
 20
2.28203
 30
0.0
 40
0.254
 41
0.254
  0
VERTEX
  8
0
 10
62.3535
 20
2.61965
 30
0.0
 40
0.254
 41
0.254
  0
VERTEX
  8
0
 10
65.2321
 20
3.08543
 30
0.0
 40
0.254
 41
0.254
  0
VERTEX
  8
0
 10
68.1108
 20
3.72071
 30
0.0
 40
0.254
 41
0.254
  0
VERTEX
  8
0
 10
70.9041
 20
4.52547
 30
0.0
 40
0.254
 41
0.254
  0
VERTEX
  8
0
 10
73.6561
 20
5.45705
 30
0.0
 40
0.254
 41
0.254
  0
VERTEX
  8
0
 10
76.3655
 20
6.55669
 30
0.0
 40
0.254
 41
0.254
  0
VERTEX
  8
0
 10
78.9905
 20
7.82726
 30
0.0
 40
0.254
 41
0.254
  0
VERTEX
  8
0
 10
81.5728
 20
9.18185
 30
0.0
 40
0.254
 41
0.254
  0
VERTEX
  8
0
 10
84.0701
 20
10.7487
 30
0.0
 40
0.254
 41
0.254
  0
VERTEX
  8
0
 10
86.4828
 20
12.3996
 30
0.0
 40
0.254
 41
0.254
  0
VERTEX
  8
0
 10
88.7691
 20
14.1773
 30
0.0
 40
0.254
 41
0.254
  0
SEQEND
 8
0
  0
POLYLINE
  8
0
 62
     0
 66
     1
 10
0
 20
0
 30
0.0
 40
0.72
 41
0.72
  0
VERTEX
  8
0
 10
21.4175
 20
14.1773
 30
0.0
 40
0.254
 41
0.254
  0
VERTEX
  8
0
 10
20.3591
 20
14.1773
 30
0.0
 40
0.254
 41
0.254
  0
VERTEX
  8
0
 10
20.3591
 20
39.1968
 30
0.0
 40
0.254
 41
0.254
  0
VERTEX
  8
0
 10
18.3692
 20
39.1968
 30
0.0
 40
0.254
 41
0.254
  0
VERTEX
  8
0
 10
18.3692
 20
16.9292
 30
0.0
 40
0.254
 41
0.254
  0
SEQEND
 8
0
  0
POLYLINE
  8
0
 62
     0
 66
     1
 10
0
 20
0
 30
0.0
 40
0.72
 41
0.72
  0
VERTEX
  8
0
 10
6.55807
 20
33.8625
 30
0.0
 40
0.254
 41
0.254
  0
VERTEX
  8
0
 10
7.82863
 20
31.1533
 30
0.0
 40
0.254
 41
0.254
  0
VERTEX
  8
0
 10
9.22457
 20
28.5709
 30
0.0
 40
0.254
 41
0.254
  0
VERTEX
  8
0
 10
10.7914
 20
26.0312
 30
0.0
 40
0.254
 41
0.254
  0
VERTEX
  8
0
 10
12.485
 20
23.6182
 30
0.0
 40
0.254
 41
0.254
  0
VERTEX
  8
0
 10
14.3054
 20
21.2466
 30
0.0
 40
0.254
 41
0.254
  0
VERTEX
  8
0
 10
16.2526
 20
19.0459
 30
0.0
 40
0.254
 41
0.254
  0
VERTEX
  8
0
 10
18.3692
 20
16.9292
 30
0.0
 40
0.254
 41
0.254
  0
SEQEND
 8
0
  0
POLYLINE
  8
0
 62
     0
 66
     1
 10
0
 20
0
 30
0.0
 40
0.72
 41
0.72
  0
VERTEX
  8
0
 10
6.55807
 20
33.8625
 30
0.0
 40
0.254
 41
0.254
  0
VERTEX
  8
0
 10
6.55807
 20
76.3655
 30
0.0
 40
0.254
 41
0.254
  0
SEQEND
 8
0
  0
POLYLINE
  8
0
 62
     0
 66
     1
 10
0
 20
0
 30
0.0
 40
0.72
 41
0.72
  0
VERTEX
  8
0
 10
3.67937
 20
35.5561
 30
0.0
 40
0.254
 41
0.254
  0
VERTEX
  8
0
 10
6.55807
 20
36.4451
 30
0.0
 40
0.254
 41
0.254
  0
SEQEND
 8
0
  0
POLYLINE
  8
0
 62
     0
 66
     1
 10
0
 20
0
 30
0.0
 40
0.72
 41
0.72
  0
VERTEX
  8
0
 10
106.507
 20
35.5561
 30
0.0
 40
0.254
 41
0.254
  0
VERTEX
  8
0
 10
103.628
 20
36.4451
 30
0.0
 40
0.254
 41
0.254
  0
SEQEND
 8
0
  0
POLYLINE
  8
0
 62
     0
 66
     1
 10
0
 20
0
 30
0.0
 40
0.72
 41
0.72
  0
VERTEX
  8
0
 10
103.628
 20
76.3655
 30
0.0
 40
0.254
 41
0.254
  0
VERTEX
  8
0
 10
103.628
 20
33.8625
 30
0.0
 40
0.254
 41
0.254
  0
SEQEND
 8
0
  0
POLYLINE
  8
0
 62
     0
 66
     1
 10
0
 20
0
 30
0.0
 40
0.72
 41
0.72
  0
VERTEX
  8
0
 10
91.8175
 20
16.9292
 30
0.0
 40
0.254
 41
0.254
  0
VERTEX
  8
0
 10
93.9341
 20
19.0459
 30
0.0
 40
0.254
 41
0.254
  0
VERTEX
  8
0
 10
95.8811
 20
21.2466
 30
0.0
 40
0.254
 41
0.254
  0
VERTEX
  8
0
 10
97.7015
 20
23.6182
 30
0.0
 40
0.254
 41
0.254
  0
VERTEX
  8
0
 10
99.3951
 20
26.0312
 30
0.0
 40
0.254
 41
0.254
  0
VERTEX
  8
0
 10
100.962
 20
28.5709
 30
0.0
 40
0.254
 41
0.254
  0
VERTEX
  8
0
 10
102.358
 20
31.1533
 30
0.0
 40
0.254
 41
0.254
  0
VERTEX
  8
0
 10
103.628
 20
33.8625
 30
0.0
 40
0.254
 41
0.254
  0
SEQEND
 8
0
  0
POLYLINE
  8
0
 62
     0
 66
     1
 10
0
 20
0
 30
0.0
 40
0.72
 41
0.72
  0
VERTEX
  8
0
 10
91.8175
 20
16.9292
 30
0.0
 40
0.254
 41
0.254
  0
VERTEX
  8
0
 10
91.8175
 20
39.1968
 30
0.0
 40
0.254
 41
0.254
  0
VERTEX
  8
0
 10
89.8275
 20
39.1968
 30
0.0
 40
0.254
 41
0.254
  0
VERTEX
  8
0
 10
89.8275
 20
14.1773
 30
0.0
 40
0.254
 41
0.254
  0
VERTEX
  8
0
 10
88.7691
 20
14.1773
 30
0.0
 40
0.254
 41
0.254
  0
SEQEND
 8
0
  0
POLYLINE
  8
0
 62
     0
 66
     1
 10
0
 20
0
 30
0.0
 40
0.72
 41
0.72
  0
VERTEX
  8
0
 10
21.4175
 20
14.1773
 30
0.0
 40
0.254
 41
0.254
  0
VERTEX
  8
0
 10
23.7036
 20
12.3996
 30
0.0
 40
0.254
 41
0.254
  0
VERTEX
  8
0
 10
26.1166
 20
10.7487
 30
0.0
 40
0.254
 41
0.254
  0
VERTEX
  8
0
 10
28.6136
 20
9.18185
 30
0.0
 40
0.254
 41
0.254
  0
VERTEX
  8
0
 10
31.196
 20
7.82726
 30
0.0
 40
0.254
 41
0.254
  0
VERTEX
  8
0
 10
33.8212
 20
6.55669
 30
0.0
 40
0.254
 41
0.254
  0
VERTEX
  8
0
 10
36.5305
 20
5.45705
 30
0.0
 40
0.254
 41
0.254
  0
VERTEX
  8
0
 10
39.2825
 20
4.52547
 30
0.0
 40
0.254
 41
0.254
  0
VERTEX
  8
0
 10
42.0758
 20
3.72071
 30
0.0
 40
0.254
 41
0.254
  0
VERTEX
  8
0
 10
44.9545
 20
3.08543
 30
0.0
 40
0.254
 41
0.254
  0
VERTEX
  8
0
 10
47.8331
 20
2.61965
 30
0.0
 40
0.254
 41
0.254
  0
VERTEX
  8
0
 10
50.7118
 20
2.28203
 30
0.0
 40
0.254
 41
0.254
  0
VERTEX
  8
0
 10
53.6332
 20
2.11253
 30
0.0
 40
0.254
 41
0.254
  0
VERTEX
  8
0
 10
56.5535
 20
2.11253
 30
0.0
 40
0.254
 41
0.254
  0
VERTEX
  8
0
 10
59.4748
 20
2.28203
 30
0.0
 40
0.254
 41
0.254
  0
VERTEX
  8
0
 10
62.3535
 20
2.61965
 30
0.0
 40
0.254
 41
0.254
  0
VERTEX
  8
0
 10
65.2321
 20
3.08543
 30
0.0
 40
0.254
 41
0.254
  0
VERTEX
  8
0
 10
68.1108
 20
3.72071
 30
0.0
 40
0.254
 41
0.254
  0
VERTEX
  8
0
 10
70.9041
 20
4.52547
 30
0.0
 40
0.254
 41
0.254
  0
VERTEX
  8
0
 10
73.6561
 20
5.45705
 30
0.0
 40
0.254
 41
0.254
  0
VERTEX
  8
0
 10
76.3655
 20
6.55669
 30
0.0
 40
0.254
 41
0.254
  0
VERTEX
  8
0
 10
78.9905
 20
7.82726
 30
0.0
 40
0.254
 41
0.254
  0
VERTEX
  8
0
 10
81.5728
 20
9.18185
 30
0.0
 40
0.254
 41
0.254
  0
VERTEX
  8
0
 10
84.0701
 20
10.7487
 30
0.0
 40
0.254
 41
0.254
  0
VERTEX
  8
0
 10
86.4828
 20
12.3996
 30
0.0
 40
0.254
 41
0.254
  0
VERTEX
  8
0
 10
88.7691
 20
14.1773
 30
0.0
 40
0.254
 41
0.254
  0
SEQEND
 8
0
  0
POLYLINE
  8
0
 62
     0
 66
     1
 10
0
 20
0
 30
0.0
 40
0.72
 41
0.72
  0
VERTEX
  8
0
 10
78.5248
 20
5.37161
 30
0.0
 40
0.254
 41
0.254
  0
VERTEX
  8
0
 10
77.8055
 20
7.2347
 30
0.0
 40
0.254
 41
0.254
  0
SEQEND
 8
0
  0
POLYLINE
  8
0
 62
     0
 66
     1
 10
0
 20
0
 30
0.0
 70
     1
 40
0.72
 41
0.72
  0
VERTEX
  8
0
 10
18.3692
 20
66.0358
 30
0.0
 40
0.254
 41
0.254
  0
VERTEX
  8
0
 10
20.3591
 20
66.0358
 30
0.0
 40
0.254
 41
0.254
  0
VERTEX
  8
0
 10
20.3591
 20
44.1911
 30
0.0
 40
0.254
 41
0.254
  0
VERTEX
  8
0
 10
18.3692
 20
44.1911
 30
0.0
 40
0.254
 41
0.254
  0
VERTEX
  8
0
 10
18.3692
 20
66.0358
 30
0.0
 40
0.254
 41
0.254
  0
SEQEND
 8
0
  0
POLYLINE
  8
0
 62
     0
 66
     1
 10
0
 20
0
 30
0.0
 70
     1
 40
0.72
 41
0.72
  0
VERTEX
  8
0
 10
89.8275
 20
66.0358
 30
0.0
 40
0.254
 41
0.254
  0
VERTEX
  8
0
 10
91.8175
 20
66.0358
 30
0.0
 40
0.254
 41
0.254
  0
VERTEX
  8
0
 10
91.8175
 20
44.1911
 30
0.0
 40
0.254
 41
0.254
  0
VERTEX
  8
0
 10
89.8275
 20
44.1911
 30
0.0
 40
0.254
 41
0.254
  0
VERTEX
  8
0
 10
89.8275
 20
66.0358
 30
0.0
 40
0.254
 41
0.254
  0
SEQEND
 8
0
  0
POLYLINE
  8
0
 62
     0
 66
     1
 10
0
 20
0
 30
0.0
 70
     1
 40
0.72
 41
0.72
  0
VERTEX
  8
0
 10
91.8175
 20
16.9292
 30
0.0
 40
0.254
 41
0.254
  0
VERTEX
  8
0
 10
93.9341
 20
19.0459
 30
0.0
 40
0.254
 41
0.254
  0
VERTEX
  8
0
 10
95.8811
 20
21.2466
 30
0.0
 40
0.254
 41
0.254
  0
VERTEX
  8
0
 10
97.7015
 20
23.6182
 30
0.0
 40
0.254
 41
0.254
  0
VERTEX
  8
0
 10
99.3951
 20
26.0312
 30
0.0
 40
0.254
 41
0.254
  0
VERTEX
  8
0
 10
100.962
 20
28.5709
 30
0.0
 40
0.254
 41
0.254
  0
VERTEX
  8
0
 10
102.358
 20
31.1533
 30
0.0
 40
0.254
 41
0.254
  0
VERTEX
  8
0
 10
103.628
 20
33.8625
 30
0.0
 40
0.254
 41
0.254
  0
VERTEX
  8
0
 10
103.628
 20
76.3655
 30
0.0
 40
0.254
 41
0.254
  0
VERTEX
  8
0
 10
103.628
 20
33.8625
 30
0.0
 40
0.254
 41
0.254
  0
VERTEX
  8
0
 10
103.628
 20
76.3655
 30
0.0
 40
0.254
 41
0.254
  0
VERTEX
  8
0
 10
103.628
 20
33.8625
 30
0.0
 40
0.254
 41
0.254
  0
VERTEX
  8
0
 10
103.628
 20
76.3655
 30
0.0
 40
0.254
 41
0.254
  0
VERTEX
  8
0
 10
102.358
 20
79.0317
 30
0.0
 40
0.254
 41
0.254
  0
VERTEX
  8
0
 10
100.962
 20
81.6571
 30
0.0
 40
0.254
 41
0.254
  0
VERTEX
  8
0
 10
99.3951
 20
84.1968
 30
0.0
 40
0.254
 41
0.254
  0
VERTEX
  8
0
 10
97.7015
 20
86.6098
 30
0.0
 40
0.254
 41
0.254
  0
VERTEX
  8
0
 10
95.8811
 20
88.9385
 30
0.0
 40
0.254
 41
0.254
  0
VERTEX
  8
0
 10
93.9341
 20
91.1821
 30
0.0
 40
0.254
 41
0.254
  0
VERTEX
  8
0
 10
91.8175
 20
93.2988
 30
0.0
 40
0.254
 41
0.254
  0
VERTEX
  8
0
 10
91.8175
 20
16.9292
 30
0.0
 40
0.254
 41
0.254
  0
SEQEND
 8
0
  0
POLYLINE
  8
0
 62
     0
 66
     1
 10
0
 20
0
 30
0.0
 40
0.72
 41
0.72
  0
VERTEX
  8
0
 10
31.6618
 20
104.855
 30
0.0
 40
0.254
 41
0.254
  0
VERTEX
  8
0
 10
32.3812
 20
102.993
 30
0.0
 40
0.254
 41
0.254
  0
SEQEND
 8
0
  0
POLYLINE
  8
0
 62
     0
 66
     1
 10
0
 20
0
 30
0.0
 40
0.72
 41
0.72
  0
VERTEX
  8
0
 10
88.7691
 20
96.0078
 30
0.0
 40
0.254
 41
0.254
  0
VERTEX
  8
0
 10
86.4828
 20
97.8284
 30
0.0
 40
0.254
 41
0.254
  0
VERTEX
  8
0
 10
84.0701
 20
99.4791
 30
0.0
 40
0.254
 41
0.254
  0
VERTEX
  8
0
 10
81.5728
 20
101.003
 30
0.0
 40
0.254
 41
0.254
  0
VERTEX
  8
0
 10
78.9905
 20
102.399
 30
0.0
 40
0.254
 41
0.254
  0
VERTEX
  8
0
 10
76.3655
 20
103.627
 30
0.0
 40
0.254
 41
0.254
  0
VERTEX
  8
0
 10
73.6561
 20
104.728
 30
0.0
 40
0.254
 41
0.254
  0
VERTEX
  8
0
 10
70.9041
 20
105.702
 30
0.0
 40
0.254
 41
0.254
  0
VERTEX
  8
0
 10
68.1108
 20
106.464
 30
0.0
 40
0.254
 41
0.254
  0
VERTEX
  8
0
 10
65.2321
 20
107.141
 30
0.0
 40
0.254
 41
0.254
  0
VERTEX
  8
0
 10
62.3535
 20
107.607
 30
0.0
 40
0.254
 41
0.254
  0
VERTEX
  8
0
 10
59.4748
 20
107.946
 30
0.0
 40
0.254
 41
0.254
  0
VERTEX
  8
0
 10
56.5535
 20
108.073
 30
0.0
 40
0.254
 41
0.254
  0
VERTEX
  8
0
 10
53.6332
 20
108.073
 30
0.0
 40
0.254
 41
0.254
  0
VERTEX
  8
0
 10
50.7118
 20
107.946
 30
0.0
 40
0.254
 41
0.254
  0
VERTEX
  8
0
 10
47.8331
 20
107.607
 30
0.0
 40
0.254
 41
0.254
  0
VERTEX
  8
0
 10
44.9545
 20
107.141
 30
0.0
 40
0.254
 41
0.254
  0
VERTEX
  8
0
 10
42.0758
 20
106.464
 30
0.0
 40
0.254
 41
0.254
  0
VERTEX
  8
0
 10
39.2825
 20
105.702
 30
0.0
 40
0.254
 41
0.254
  0
VERTEX
  8
0
 10
36.5305
 20
104.728
 30
0.0
 40
0.254
 41
0.254
  0
VERTEX
  8
0
 10
33.8212
 20
103.627
 30
0.0
 40
0.254
 41
0.254
  0
VERTEX
  8
0
 10
31.196
 20
102.399
 30
0.0
 40
0.254
 41
0.254
  0
VERTEX
  8
0
 10
28.6136
 20
101.003
 30
0.0
 40
0.254
 41
0.254
  0
VERTEX
  8
0
 10
26.1166
 20
99.4791
 30
0.0
 40
0.254
 41
0.254
  0
VERTEX
  8
0
 10
23.7036
 20
97.8284
 30
0.0
 40
0.254
 41
0.254
  0
VERTEX
  8
0
 10
21.4175
 20
96.0078
 30
0.0
 40
0.254
 41
0.254
  0
SEQEND
 8
0
  0
POLYLINE
  8
0
 62
     0
 66
     1
 10
0
 20
0
 30
0.0
 40
0.72
 41
0.72
  0
VERTEX
  8
0
 10
38.6472
 20
107.564
 30
0.0
 40
0.254
 41
0.254
  0
VERTEX
  8
0
 10
39.3665
 20
105.702
 30
0.0
 40
0.254
 41
0.254
  0
SEQEND
 8
0
  0
POLYLINE
  8
0
 62
     0
 66
     1
 10
0
 20
0
 30
0.0
 40
0.72
 41
0.72
  0
VERTEX
  8
0
 10
31.6618
 20
104.855
 30
0.0
 40
0.254
 41
0.254
  0
VERTEX
  8
0
 10
32.3812
 20
102.993
 30
0.0
 40
0.254
 41
0.254
  0
SEQEND
 8
0
  0
POLYLINE
  8
0
 62
     0
 66
     1
 10
0
 20
0
 30
0.0
 40
0.72
 41
0.72
  0
VERTEX
  8
0
 10
39.3665
 20
105.702
 30
0.0
 40
0.254
 41
0.254
  0
VERTEX
  8
0
 10
36.9962
 20
104.898
 30
0.0
 40
0.254
 41
0.254
  0
VERTEX
  8
0
 10
34.6673
 20
104.009
 30
0.0
 40
0.254
 41
0.254
  0
VERTEX
  8
0
 10
32.3812
 20
102.993
 30
0.0
 40
0.254
 41
0.254
  0
SEQEND
 8
0
  0
POLYLINE
  8
0
 62
     0
 66
     1
 10
0
 20
0
 30
0.0
 40
0.72
 41
0.72
  0
VERTEX
  8
0
 10
39.3665
 20
105.702
 30
0.0
 40
0.254
 41
0.254
  0
VERTEX
  8
0
 10
38.6472
 20
107.564
 30
0.0
 40
0.254
 41
0.254
  0
SEQEND
 8
0
  0
POLYLINE
  8
0
 62
     0
 66
     1
 10
0
 20
0
 30
0.0
 40
0.72
 41
0.72
  0
VERTEX
  8
0
 10
88.7691
 20
96.0078
 30
0.0
 40
0.254
 41
0.254
  0
VERTEX
  8
0
 10
86.4828
 20
97.8284
 30
0.0
 40
0.254
 41
0.254
  0
VERTEX
  8
0
 10
84.0701
 20
99.4791
 30
0.0
 40
0.254
 41
0.254
  0
VERTEX
  8
0
 10
81.5728
 20
101.003
 30
0.0
 40
0.254
 41
0.254
  0
VERTEX
  8
0
 10
78.9905
 20
102.399
 30
0.0
 40
0.254
 41
0.254
  0
VERTEX
  8
0
 10
76.3655
 20
103.627
 30
0.0
 40
0.254
 41
0.254
  0
VERTEX
  8
0
 10
73.6561
 20
104.728
 30
0.0
 40
0.254
 41
0.254
  0
VERTEX
  8
0
 10
70.9041
 20
105.702
 30
0.0
 40
0.254
 41
0.254
  0
VERTEX
  8
0
 10
68.1108
 20
106.464
 30
0.0
 40
0.254
 41
0.254
  0
VERTEX
  8
0
 10
65.2321
 20
107.141
 30
0.0
 40
0.254
 41
0.254
  0
VERTEX
  8
0
 10
62.3535
 20
107.607
 30
0.0
 40
0.254
 41
0.254
  0
VERTEX
  8
0
 10
59.4748
 20
107.946
 30
0.0
 40
0.254
 41
0.254
  0
VERTEX
  8
0
 10
56.5535
 20
108.073
 30
0.0
 40
0.254
 41
0.254
  0
VERTEX
  8
0
 10
53.6332
 20
108.073
 30
0.0
 40
0.254
 41
0.254
  0
VERTEX
  8
0
 10
50.7118
 20
107.946
 30
0.0
 40
0.254
 41
0.254
  0
VERTEX
  8
0
 10
47.8331
 20
107.607
 30
0.0
 40
0.254
 41
0.254
  0
VERTEX
  8
0
 10
44.9545
 20
107.141
 30
0.0
 40
0.254
 41
0.254
  0
VERTEX
  8
0
 10
42.0758
 20
106.464
 30
0.0
 40
0.254
 41
0.254
  0
VERTEX
  8
0
 10
39.2825
 20
105.702
 30
0.0
 40
0.254
 41
0.254
  0
VERTEX
  8
0
 10
36.5305
 20
104.728
 30
0.0
 40
0.254
 41
0.254
  0
VERTEX
  8
0
 10
33.8212
 20
103.627
 30
0.0
 40
0.254
 41
0.254
  0
VERTEX
  8
0
 10
31.196
 20
102.399
 30
0.0
 40
0.254
 41
0.254
  0
VERTEX
  8
0
 10
28.6136
 20
101.003
 30
0.0
 40
0.254
 41
0.254
  0
VERTEX
  8
0
 10
26.1166
 20
99.4791
 30
0.0
 40
0.254
 41
0.254
  0
VERTEX
  8
0
 10
23.7036
 20
97.8284
 30
0.0
 40
0.254
 41
0.254
  0
VERTEX
  8
0
 10
21.4175
 20
96.0078
 30
0.0
 40
0.254
 41
0.254
  0
SEQEND
 8
0
  0
POLYLINE
  8
0
 62
     0
 66
     1
 10
0
 20
0
 30
0.0
 40
0.72
 41
0.72
  0
VERTEX
  8
0
 10
88.7691
 20
96.0078
 30
0.0
 40
0.254
 41
0.254
  0
VERTEX
  8
0
 10
86.4828
 20
97.8284
 30
0.0
 40
0.254
 41
0.254
  0
VERTEX
  8
0
 10
84.0701
 20
99.4791
 30
0.0
 40
0.254
 41
0.254
  0
VERTEX
  8
0
 10
81.5728
 20
101.003
 30
0.0
 40
0.254
 41
0.254
  0
VERTEX
  8
0
 10
78.9905
 20
102.399
 30
0.0
 40
0.254
 41
0.254
  0
VERTEX
  8
0
 10
76.3655
 20
103.627
 30
0.0
 40
0.254
 41
0.254
  0
VERTEX
  8
0
 10
73.6561
 20
104.728
 30
0.0
 40
0.254
 41
0.254
  0
VERTEX
  8
0
 10
70.9041
 20
105.702
 30
0.0
 40
0.254
 41
0.254
  0
VERTEX
  8
0
 10
68.1108
 20
106.464
 30
0.0
 40
0.254
 41
0.254
  0
VERTEX
  8
0
 10
65.2321
 20
107.141
 30
0.0
 40
0.254
 41
0.254
  0
VERTEX
  8
0
 10
62.3535
 20
107.607
 30
0.0
 40
0.254
 41
0.254
  0
VERTEX
  8
0
 10
59.4748
 20
107.946
 30
0.0
 40
0.254
 41
0.254
  0
VERTEX
  8
0
 10
56.5535
 20
108.073
 30
0.0
 40
0.254
 41
0.254
  0
VERTEX
  8
0
 10
53.6332
 20
108.073
 30
0.0
 40
0.254
 41
0.254
  0
VERTEX
  8
0
 10
50.7118
 20
107.946
 30
0.0
 40
0.254
 41
0.254
  0
VERTEX
  8
0
 10
47.8331
 20
107.607
 30
0.0
 40
0.254
 41
0.254
  0
VERTEX
  8
0
 10
44.9545
 20
107.141
 30
0.0
 40
0.254
 41
0.254
  0
VERTEX
  8
0
 10
42.0758
 20
106.464
 30
0.0
 40
0.254
 41
0.254
  0
VERTEX
  8
0
 10
39.2825
 20
105.702
 30
0.0
 40
0.254
 41
0.254
  0
VERTEX
  8
0
 10
36.5305
 20
104.728
 30
0.0
 40
0.254
 41
0.254
  0
VERTEX
  8
0
 10
33.8212
 20
103.627
 30
0.0
 40
0.254
 41
0.254
  0
VERTEX
  8
0
 10
31.196
 20
102.399
 30
0.0
 40
0.254
 41
0.254
  0
VERTEX
  8
0
 10
28.6136
 20
101.003
 30
0.0
 40
0.254
 41
0.254
  0
VERTEX
  8
0
 10
26.1166
 20
99.4791
 30
0.0
 40
0.254
 41
0.254
  0
VERTEX
  8
0
 10
23.7036
 20
97.8284
 30
0.0
 40
0.254
 41
0.254
  0
VERTEX
  8
0
 10
21.4175
 20
96.0078
 30
0.0
 40
0.254
 41
0.254
  0
VERTEX
  8
0
 10
20.3591
 20
96.0078
 30
0.0
 40
0.254
 41
0.254
  0
VERTEX
  8
0
 10
20.3591
 20
71.0311
 30
0.0
 40
0.254
 41
0.254
  0
VERTEX
  8
0
 10
18.3692
 20
71.0311
 30
0.0
 40
0.254
 41
0.254
  0
VERTEX
  8
0
 10
18.3692
 20
66.0358
 30
0.0
 40
0.254
 41
0.254
  0
VERTEX
  8
0
 10
20.3591
 20
66.0358
 30
0.0
 40
0.254
 41
0.254
  0
VERTEX
  8
0
 10
20.3591
 20
44.1911
 30
0.0
 40
0.254
 41
0.254
  0
VERTEX
  8
0
 10
18.3692
 20
44.1911
 30
0.0
 40
0.254
 41
0.254
  0
VERTEX
  8
0
 10
18.3692
 20
39.1968
 30
0.0
 40
0.254
 41
0.254
  0
VERTEX
  8
0
 10
20.3591
 20
39.1968
 30
0.0
 40
0.254
 41
0.254
  0
VERTEX
  8
0
 10
20.3591
 20
14.1773
 30
0.0
 40
0.254
 41
0.254
  0
VERTEX
  8
0
 10
21.4175
 20
14.1773
 30
0.0
 40
0.254
 41
0.254
  0
VERTEX
  8
0
 10
23.7036
 20
12.3996
 30
0.0
 40
0.254
 41
0.254
  0
VERTEX
  8
0
 10
26.1166
 20
10.7487
 30
0.0
 40
0.254
 41
0.254
  0
VERTEX
  8
0
 10
28.6136
 20
9.18185
 30
0.0
 40
0.254
 41
0.254
  0
VERTEX
  8
0
 10
31.196
 20
7.82726
 30
0.0
 40
0.254
 41
0.254
  0
VERTEX
  8
0
 10
33.8212
 20
6.55669
 30
0.0
 40
0.254
 41
0.254
  0
VERTEX
  8
0
 10
36.5305
 20
5.45705
 30
0.0
 40
0.254
 41
0.254
  0
VERTEX
  8
0
 10
39.2825
 20
4.52547
 30
0.0
 40
0.254
 41
0.254
  0
VERTEX
  8
0
 10
42.0758
 20
3.72071
 30
0.0
 40
0.254
 41
0.254
  0
VERTEX
  8
0
 10
44.9545
 20
3.08543
 30
0.0
 40
0.254
 41
0.254
  0
VERTEX
  8
0
 10
47.8331
 20
2.61965
 30
0.0
 40
0.254
 41
0.254
  0
VERTEX
  8
0
 10
50.7118
 20
2.28203
 30
0.0
 40
0.254
 41
0.254
  0
VERTEX
  8
0
 10
53.6332
 20
2.11253
 30
0.0
 40
0.254
 41
0.254
  0
VERTEX
  8
0
 10
56.5535
 20
2.11253
 30
0.0
 40
0.254
 41
0.254
  0
VERTEX
  8
0
 10
59.4748
 20
2.28203
 30
0.0
 40
0.254
 41
0.254
  0
VERTEX
  8
0
 10
62.3535
 20
2.61965
 30
0.0
 40
0.254
 41
0.254
  0
VERTEX
  8
0
 10
65.2321
 20
3.08543
 30
0.0
 40
0.254
 41
0.254
  0
VERTEX
  8
0
 10
68.1108
 20
3.72071
 30
0.0
 40
0.254
 41
0.254
  0
VERTEX
  8
0
 10
70.9041
 20
4.52547
 30
0.0
 40
0.254
 41
0.254
  0
VERTEX
  8
0
 10
73.6561
 20
5.45705
 30
0.0
 40
0.254
 41
0.254
  0
VERTEX
  8
0
 10
76.3655
 20
6.55669
 30
0.0
 40
0.254
 41
0.254
  0
VERTEX
  8
0
 10
78.9905
 20
7.82726
 30
0.0
 40
0.254
 41
0.254
  0
VERTEX
  8
0
 10
81.5728
 20
9.18185
 30
0.0
 40
0.254
 41
0.254
  0
VERTEX
  8
0
 10
84.0701
 20
10.7487
 30
0.0
 40
0.254
 41
0.254
  0
VERTEX
  8
0
 10
86.4828
 20
12.3996
 30
0.0
 40
0.254
 41
0.254
  0
VERTEX
  8
0
 10
88.7691
 20
14.1773
 30
0.0
 40
0.254
 41
0.254
  0
SEQEND
 8
0
  0
POLYLINE
  8
0
 62
     0
 66
     1
 10
0
 20
0
 30
0.0
 40
0.72
 41
0.72
  0
VERTEX
  8
0
 10
21.4175
 20
14.1773
 30
0.0
 40
0.254
 41
0.254
  0
VERTEX
  8
0
 10
23.7036
 20
12.3996
 30
0.0
 40
0.254
 41
0.254
  0
VERTEX
  8
0
 10
26.1166
 20
10.7487
 30
0.0
 40
0.254
 41
0.254
  0
VERTEX
  8
0
 10
28.6136
 20
9.18185
 30
0.0
 40
0.254
 41
0.254
  0
VERTEX
  8
0
 10
31.196
 20
7.82726
 30
0.0
 40
0.254
 41
0.254
  0
VERTEX
  8
0
 10
33.8212
 20
6.55669
 30
0.0
 40
0.254
 41
0.254
  0
VERTEX
  8
0
 10
36.5305
 20
5.45705
 30
0.0
 40
0.254
 41
0.254
  0
VERTEX
  8
0
 10
39.2825
 20
4.52547
 30
0.0
 40
0.254
 41
0.254
  0
VERTEX
  8
0
 10
42.0758
 20
3.72071
 30
0.0
 40
0.254
 41
0.254
  0
VERTEX
  8
0
 10
44.9545
 20
3.08543
 30
0.0
 40
0.254
 41
0.254
  0
VERTEX
  8
0
 10
47.8331
 20
2.61965
 30
0.0
 40
0.254
 41
0.254
  0
VERTEX
  8
0
 10
50.7118
 20
2.28203
 30
0.0
 40
0.254
 41
0.254
  0
VERTEX
  8
0
 10
53.6332
 20
2.11253
 30
0.0
 40
0.254
 41
0.254
  0
VERTEX
  8
0
 10
56.5535
 20
2.11253
 30
0.0
 40
0.254
 41
0.254
  0
VERTEX
  8
0
 10
59.4748
 20
2.28203
 30
0.0
 40
0.254
 41
0.254
  0
VERTEX
  8
0
 10
62.3535
 20
2.61965
 30
0.0
 40
0.254
 41
0.254
  0
VERTEX
  8
0
 10
65.2321
 20
3.08543
 30
0.0
 40
0.254
 41
0.254
  0
VERTEX
  8
0
 10
68.1108
 20
3.72071
 30
0.0
 40
0.254
 41
0.254
  0
VERTEX
  8
0
 10
70.9041
 20
4.52547
 30
0.0
 40
0.254
 41
0.254
  0
VERTEX
  8
0
 10
73.6561
 20
5.45705
 30
0.0
 40
0.254
 41
0.254
  0
VERTEX
  8
0
 10
76.3655
 20
6.55669
 30
0.0
 40
0.254
 41
0.254
  0
VERTEX
  8
0
 10
78.9905
 20
7.82726
 30
0.0
 40
0.254
 41
0.254
  0
VERTEX
  8
0
 10
81.5728
 20
9.18185
 30
0.0
 40
0.254
 41
0.254
  0
VERTEX
  8
0
 10
84.0701
 20
10.7487
 30
0.0
 40
0.254
 41
0.254
  0
VERTEX
  8
0
 10
86.4828
 20
12.3996
 30
0.0
 40
0.254
 41
0.254
  0
VERTEX
  8
0
 10
88.7691
 20
14.1773
 30
0.0
 40
0.254
 41
0.254
  0
SEQEND
 8
0
  0
POLYLINE
  8
0
 62
     0
 66
     1
 10
0
 20
0
 30
0.0
 40
0.72
 41
0.72
  0
VERTEX
  8
0
 10
21.4175
 20
14.1773
 30
0.0
 40
0.254
 41
0.254
  0
VERTEX
  8
0
 10
23.7036
 20
12.3996
 30
0.0
 40
0.254
 41
0.254
  0
VERTEX
  8
0
 10
26.1166
 20
10.7487
 30
0.0
 40
0.254
 41
0.254
  0
VERTEX
  8
0
 10
28.6136
 20
9.18185
 30
0.0
 40
0.254
 41
0.254
  0
VERTEX
  8
0
 10
31.196
 20
7.82726
 30
0.0
 40
0.254
 41
0.254
  0
VERTEX
  8
0
 10
33.8212
 20
6.55669
 30
0.0
 40
0.254
 41
0.254
  0
VERTEX
  8
0
 10
36.5305
 20
5.45705
 30
0.0
 40
0.254
 41
0.254
  0
VERTEX
  8
0
 10
39.2825
 20
4.52547
 30
0.0
 40
0.254
 41
0.254
  0
VERTEX
  8
0
 10
42.0758
 20
3.72071
 30
0.0
 40
0.254
 41
0.254
  0
VERTEX
  8
0
 10
44.9545
 20
3.08543
 30
0.0
 40
0.254
 41
0.254
  0
VERTEX
  8
0
 10
47.8331
 20
2.61965
 30
0.0
 40
0.254
 41
0.254
  0
VERTEX
  8
0
 10
50.7118
 20
2.28203
 30
0.0
 40
0.254
 41
0.254
  0
VERTEX
  8
0
 10
53.6332
 20
2.11253
 30
0.0
 40
0.254
 41
0.254
  0
VERTEX
  8
0
 10
56.5535
 20
2.11253
 30
0.0
 40
0.254
 41
0.254
  0
VERTEX
  8
0
 10
59.4748
 20
2.28203
 30
0.0
 40
0.254
 41
0.254
  0
VERTEX
  8
0
 10
62.3535
 20
2.61965
 30
0.0
 40
0.254
 41
0.254
  0
VERTEX
  8
0
 10
65.2321
 20
3.08543
 30
0.0
 40
0.254
 41
0.254
  0
VERTEX
  8
0
 10
68.1108
 20
3.72071
 30
0.0
 40
0.254
 41
0.254
  0
VERTEX
  8
0
 10
70.9041
 20
4.52547
 30
0.0
 40
0.254
 41
0.254
  0
VERTEX
  8
0
 10
73.6561
 20
5.45705
 30
0.0
 40
0.254
 41
0.254
  0
VERTEX
  8
0
 10
76.3655
 20
6.55669
 30
0.0
 40
0.254
 41
0.254
  0
VERTEX
  8
0
 10
78.9905
 20
7.82726
 30
0.0
 40
0.254
 41
0.254
  0
VERTEX
  8
0
 10
81.5728
 20
9.18185
 30
0.0
 40
0.254
 41
0.254
  0
VERTEX
  8
0
 10
84.0701
 20
10.7487
 30
0.0
 40
0.254
 41
0.254
  0
VERTEX
  8
0
 10
86.4828
 20
12.3996
 30
0.0
 40
0.254
 41
0.254
  0
VERTEX
  8
0
 10
88.7691
 20
14.1773
 30
0.0
 40
0.254
 41
0.254
  0
SEQEND
 8
0
  0
POLYLINE
  8
0
 62
     0
 66
     1
 10
0
 20
0
 30
0.0
 40
0.72
 41
0.72
  0
VERTEX
  8
0
 10
21.4175
 20
14.1773
 30
0.0
 40
0.254
 41
0.254
  0
VERTEX
  8
0
 10
23.7036
 20
12.3996
 30
0.0
 40
0.254
 41
0.254
  0
VERTEX
  8
0
 10
26.1166
 20
10.7487
 30
0.0
 40
0.254
 41
0.254
  0
VERTEX
  8
0
 10
28.6136
 20
9.18185
 30
0.0
 40
0.254
 41
0.254
  0
VERTEX
  8
0
 10
31.196
 20
7.82726
 30
0.0
 40
0.254
 41
0.254
  0
VERTEX
  8
0
 10
33.8212
 20
6.55669
 30
0.0
 40
0.254
 41
0.254
  0
VERTEX
  8
0
 10
36.5305
 20
5.45705
 30
0.0
 40
0.254
 41
0.254
  0
VERTEX
  8
0
 10
39.2825
 20
4.52547
 30
0.0
 40
0.254
 41
0.254
  0
VERTEX
  8
0
 10
42.0758
 20
3.72071
 30
0.0
 40
0.254
 41
0.254
  0
VERTEX
  8
0
 10
44.9545
 20
3.08543
 30
0.0
 40
0.254
 41
0.254
  0
VERTEX
  8
0
 10
47.8331
 20
2.61965
 30
0.0
 40
0.254
 41
0.254
  0
VERTEX
  8
0
 10
50.7118
 20
2.28203
 30
0.0
 40
0.254
 41
0.254
  0
VERTEX
  8
0
 10
53.6332
 20
2.11253
 30
0.0
 40
0.254
 41
0.254
  0
VERTEX
  8
0
 10
56.5535
 20
2.11253
 30
0.0
 40
0.254
 41
0.254
  0
VERTEX
  8
0
 10
59.4748
 20
2.28203
 30
0.0
 40
0.254
 41
0.254
  0
VERTEX
  8
0
 10
62.3535
 20
2.61965
 30
0.0
 40
0.254
 41
0.254
  0
VERTEX
  8
0
 10
65.2321
 20
3.08543
 30
0.0
 40
0.254
 41
0.254
  0
VERTEX
  8
0
 10
68.1108
 20
3.72071
 30
0.0
 40
0.254
 41
0.254
  0
VERTEX
  8
0
 10
70.9041
 20
4.52547
 30
0.0
 40
0.254
 41
0.254
  0
VERTEX
  8
0
 10
73.6561
 20
5.45705
 30
0.0
 40
0.254
 41
0.254
  0
VERTEX
  8
0
 10
76.3655
 20
6.55669
 30
0.0
 40
0.254
 41
0.254
  0
VERTEX
  8
0
 10
78.9905
 20
7.82726
 30
0.0
 40
0.254
 41
0.254
  0
VERTEX
  8
0
 10
81.5728
 20
9.18185
 30
0.0
 40
0.254
 41
0.254
  0
VERTEX
  8
0
 10
84.0701
 20
10.7487
 30
0.0
 40
0.254
 41
0.254
  0
VERTEX
  8
0
 10
86.4828
 20
12.3996
 30
0.0
 40
0.254
 41
0.254
  0
VERTEX
  8
0
 10
88.7691
 20
14.1773
 30
0.0
 40
0.254
 41
0.254
  0
SEQEND
 8
0
  0
POLYLINE
  8
0
 62
     0
 66
     1
 10
0
 20
0
 30
0.0
 40
0.72
 41
0.72
  0
VERTEX
  8
0
 10
21.4175
 20
14.1773
 30
0.0
 40
0.254
 41
0.254
  0
VERTEX
  8
0
 10
23.7036
 20
12.3996
 30
0.0
 40
0.254
 41
0.254
  0
VERTEX
  8
0
 10
26.1166
 20
10.7487
 30
0.0
 40
0.254
 41
0.254
  0
VERTEX
  8
0
 10
28.6136
 20
9.18185
 30
0.0
 40
0.254
 41
0.254
  0
VERTEX
  8
0
 10
31.196
 20
7.82726
 30
0.0
 40
0.254
 41
0.254
  0
VERTEX
  8
0
 10
33.8212
 20
6.55669
 30
0.0
 40
0.254
 41
0.254
  0
VERTEX
  8
0
 10
36.5305
 20
5.45705
 30
0.0
 40
0.254
 41
0.254
  0
VERTEX
  8
0
 10
39.2825
 20
4.52547
 30
0.0
 40
0.254
 41
0.254
  0
VERTEX
  8
0
 10
42.0758
 20
3.72071
 30
0.0
 40
0.254
 41
0.254
  0
VERTEX
  8
0
 10
44.9545
 20
3.08543
 30
0.0
 40
0.254
 41
0.254
  0
VERTEX
  8
0
 10
47.8331
 20
2.61965
 30
0.0
 40
0.254
 41
0.254
  0
VERTEX
  8
0
 10
50.7118
 20
2.28203
 30
0.0
 40
0.254
 41
0.254
  0
VERTEX
  8
0
 10
53.6332
 20
2.11253
 30
0.0
 40
0.254
 41
0.254
  0
VERTEX
  8
0
 10
56.5535
 20
2.11253
 30
0.0
 40
0.254
 41
0.254
  0
VERTEX
  8
0
 10
59.4748
 20
2.28203
 30
0.0
 40
0.254
 41
0.254
  0
VERTEX
  8
0
 10
62.3535
 20
2.61965
 30
0.0
 40
0.254
 41
0.254
  0
VERTEX
  8
0
 10
65.2321
 20
3.08543
 30
0.0
 40
0.254
 41
0.254
  0
VERTEX
  8
0
 10
68.1108
 20
3.72071
 30
0.0
 40
0.254
 41
0.254
  0
VERTEX
  8
0
 10
70.9041
 20
4.52547
 30
0.0
 40
0.254
 41
0.254
  0
VERTEX
  8
0
 10
73.6561
 20
5.45705
 30
0.0
 40
0.254
 41
0.254
  0
VERTEX
  8
0
 10
76.3655
 20
6.55669
 30
0.0
 40
0.254
 41
0.254
  0
VERTEX
  8
0
 10
78.9905
 20
7.82726
 30
0.0
 40
0.254
 41
0.254
  0
VERTEX
  8
0
 10
81.5728
 20
9.18185
 30
0.0
 40
0.254
 41
0.254
  0
VERTEX
  8
0
 10
84.0701
 20
10.7487
 30
0.0
 40
0.254
 41
0.254
  0
VERTEX
  8
0
 10
86.4828
 20
12.3996
 30
0.0
 40
0.254
 41
0.254
  0
VERTEX
  8
0
 10
88.7691
 20
14.1773
 30
0.0
 40
0.254
 41
0.254
  0
VERTEX
  8
0
 10
89.8275
 20
14.1773
 30
0.0
 40
0.254
 41
0.254
  0
VERTEX
  8
0
 10
89.8275
 20
39.1968
 30
0.0
 40
0.254
 41
0.254
  0
VERTEX
  8
0
 10
91.8175
 20
39.1968
 30
0.0
 40
0.254
 41
0.254
  0
VERTEX
  8
0
 10
91.8175
 20
44.1911
 30
0.0
 40
0.254
 41
0.254
  0
VERTEX
  8
0
 10
89.8275
 20
44.1911
 30
0.0
 40
0.254
 41
0.254
  0
VERTEX
  8
0
 10
89.8275
 20
66.0358
 30
0.0
 40
0.254
 41
0.254
  0
VERTEX
  8
0
 10
91.8175
 20
66.0358
 30
0.0
 40
0.254
 41
0.254
  0
VERTEX
  8
0
 10
91.8175
 20
71.0311
 30
0.0
 40
0.254
 41
0.254
  0
VERTEX
  8
0
 10
89.8275
 20
71.0311
 30
0.0
 40
0.254
 41
0.254
  0
VERTEX
  8
0
 10
89.8275
 20
96.0078
 30
0.0
 40
0.254
 41
0.254
  0
VERTEX
  8
0
 10
88.7691
 20
96.0078
 30
0.0
 40
0.254
 41
0.254
  0
VERTEX
  8
0
 10
86.4828
 20
97.8284
 30
0.0
 40
0.254
 41
0.254
  0
VERTEX
  8
0
 10
84.0701
 20
99.4791
 30
0.0
 40
0.254
 41
0.254
  0
VERTEX
  8
0
 10
81.5728
 20
101.003
 30
0.0
 40
0.254
 41
0.254
  0
VERTEX
  8
0
 10
78.9905
 20
102.399
 30
0.0
 40
0.254
 41
0.254
  0
VERTEX
  8
0
 10
76.3655
 20
103.627
 30
0.0
 40
0.254
 41
0.254
  0
VERTEX
  8
0
 10
73.6561
 20
104.728
 30
0.0
 40
0.254
 41
0.254
  0
VERTEX
  8
0
 10
70.9041
 20
105.702
 30
0.0
 40
0.254
 41
0.254
  0
VERTEX
  8
0
 10
68.1108
 20
106.464
 30
0.0
 40
0.254
 41
0.254
  0
VERTEX
  8
0
 10
65.2321
 20
107.141
 30
0.0
 40
0.254
 41
0.254
  0
VERTEX
  8
0
 10
62.3535
 20
107.607
 30
0.0
 40
0.254
 41
0.254
  0
VERTEX
  8
0
 10
59.4748
 20
107.946
 30
0.0
 40
0.254
 41
0.254
  0
VERTEX
  8
0
 10
56.5535
 20
108.073
 30
0.0
 40
0.254
 41
0.254
  0
VERTEX
  8
0
 10
53.6332
 20
108.073
 30
0.0
 40
0.254
 41
0.254
  0
VERTEX
  8
0
 10
50.7118
 20
107.946
 30
0.0
 40
0.254
 41
0.254
  0
VERTEX
  8
0
 10
47.8331
 20
107.607
 30
0.0
 40
0.254
 41
0.254
  0
VERTEX
  8
0
 10
44.9545
 20
107.141
 30
0.0
 40
0.254
 41
0.254
  0
VERTEX
  8
0
 10
42.0758
 20
106.464
 30
0.0
 40
0.254
 41
0.254
  0
VERTEX
  8
0
 10
39.2825
 20
105.702
 30
0.0
 40
0.254
 41
0.254
  0
VERTEX
  8
0
 10
36.5305
 20
104.728
 30
0.0
 40
0.254
 41
0.254
  0
VERTEX
  8
0
 10
33.8212
 20
103.627
 30
0.0
 40
0.254
 41
0.254
  0
VERTEX
  8
0
 10
31.196
 20
102.399
 30
0.0
 40
0.254
 41
0.254
  0
VERTEX
  8
0
 10
28.6136
 20
101.003
 30
0.0
 40
0.254
 41
0.254
  0
VERTEX
  8
0
 10
26.1166
 20
99.4791
 30
0.0
 40
0.254
 41
0.254
  0
VERTEX
  8
0
 10
23.7036
 20
97.8284
 30
0.0
 40
0.254
 41
0.254
  0
VERTEX
  8
0
 10
21.4175
 20
96.0078
 30
0.0
 40
0.254
 41
0.254
  0
SEQEND
 8
0
  0
POLYLINE
  8
0
 62
     0
 66
     1
 10
0
 20
0
 30
0.0
 40
0.72
 41
0.72
  0
VERTEX
  8
0
 10
88.7691
 20
96.0078
 30
0.0
 40
0.254
 41
0.254
  0
VERTEX
  8
0
 10
86.4828
 20
97.8284
 30
0.0
 40
0.254
 41
0.254
  0
VERTEX
  8
0
 10
84.0701
 20
99.4791
 30
0.0
 40
0.254
 41
0.254
  0
VERTEX
  8
0
 10
81.5728
 20
101.003
 30
0.0
 40
0.254
 41
0.254
  0
VERTEX
  8
0
 10
78.9905
 20
102.399
 30
0.0
 40
0.254
 41
0.254
  0
VERTEX
  8
0
 10
76.3655
 20
103.627
 30
0.0
 40
0.254
 41
0.254
  0
VERTEX
  8
0
 10
73.6561
 20
104.728
 30
0.0
 40
0.254
 41
0.254
  0
VERTEX
  8
0
 10
70.9041
 20
105.702
 30
0.0
 40
0.254
 41
0.254
  0
VERTEX
  8
0
 10
68.1108
 20
106.464
 30
0.0
 40
0.254
 41
0.254
  0
VERTEX
  8
0
 10
65.2321
 20
107.141
 30
0.0
 40
0.254
 41
0.254
  0
VERTEX
  8
0
 10
62.3535
 20
107.607
 30
0.0
 40
0.254
 41
0.254
  0
VERTEX
  8
0
 10
59.4748
 20
107.946
 30
0.0
 40
0.254
 41
0.254
  0
VERTEX
  8
0
 10
56.5535
 20
108.073
 30
0.0
 40
0.254
 41
0.254
  0
VERTEX
  8
0
 10
53.6332
 20
108.073
 30
0.0
 40
0.254
 41
0.254
  0
VERTEX
  8
0
 10
50.7118
 20
107.946
 30
0.0
 40
0.254
 41
0.254
  0
VERTEX
  8
0
 10
47.8331
 20
107.607
 30
0.0
 40
0.254
 41
0.254
  0
VERTEX
  8
0
 10
44.9545
 20
107.141
 30
0.0
 40
0.254
 41
0.254
  0
VERTEX
  8
0
 10
42.0758
 20
106.464
 30
0.0
 40
0.254
 41
0.254
  0
VERTEX
  8
0
 10
39.2825
 20
105.702
 30
0.0
 40
0.254
 41
0.254
  0
VERTEX
  8
0
 10
36.5305
 20
104.728
 30
0.0
 40
0.254
 41
0.254
  0
VERTEX
  8
0
 10
33.8212
 20
103.627
 30
0.0
 40
0.254
 41
0.254
  0
VERTEX
  8
0
 10
31.196
 20
102.399
 30
0.0
 40
0.254
 41
0.254
  0
VERTEX
  8
0
 10
28.6136
 20
101.003
 30
0.0
 40
0.254
 41
0.254
  0
VERTEX
  8
0
 10
26.1166
 20
99.4791
 30
0.0
 40
0.254
 41
0.254
  0
VERTEX
  8
0
 10
23.7036
 20
97.8284
 30
0.0
 40
0.254
 41
0.254
  0
VERTEX
  8
0
 10
21.4175
 20
96.0078
 30
0.0
 40
0.254
 41
0.254
  0
SEQEND
 8
0
  0
POLYLINE
  8
0
 62
     0
 66
     1
 10
0
 20
0
 30
0.0
 40
0.72
 41
0.72
  0
VERTEX
  8
0
 10
88.7691
 20
96.0078
 30
0.0
 40
0.254
 41
0.254
  0
VERTEX
  8
0
 10
86.4828
 20
97.8284
 30
0.0
 40
0.254
 41
0.254
  0
VERTEX
  8
0
 10
84.0701
 20
99.4791
 30
0.0
 40
0.254
 41
0.254
  0
VERTEX
  8
0
 10
81.5728
 20
101.003
 30
0.0
 40
0.254
 41
0.254
  0
VERTEX
  8
0
 10
78.9905
 20
102.399
 30
0.0
 40
0.254
 41
0.254
  0
VERTEX
  8
0
 10
76.3655
 20
103.627
 30
0.0
 40
0.254
 41
0.254
  0
VERTEX
  8
0
 10
73.6561
 20
104.728
 30
0.0
 40
0.254
 41
0.254
  0
VERTEX
  8
0
 10
70.9041
 20
105.702
 30
0.0
 40
0.254
 41
0.254
  0
VERTEX
  8
0
 10
68.1108
 20
106.464
 30
0.0
 40
0.254
 41
0.254
  0
VERTEX
  8
0
 10
65.2321
 20
107.141
 30
0.0
 40
0.254
 41
0.254
  0
VERTEX
  8
0
 10
62.3535
 20
107.607
 30
0.0
 40
0.254
 41
0.254
  0
VERTEX
  8
0
 10
59.4748
 20
107.946
 30
0.0
 40
0.254
 41
0.254
  0
VERTEX
  8
0
 10
56.5535
 20
108.073
 30
0.0
 40
0.254
 41
0.254
  0
VERTEX
  8
0
 10
53.6332
 20
108.073
 30
0.0
 40
0.254
 41
0.254
  0
VERTEX
  8
0
 10
50.7118
 20
107.946
 30
0.0
 40
0.254
 41
0.254
  0
VERTEX
  8
0
 10
47.8331
 20
107.607
 30
0.0
 40
0.254
 41
0.254
  0
VERTEX
  8
0
 10
44.9545
 20
107.141
 30
0.0
 40
0.254
 41
0.254
  0
VERTEX
  8
0
 10
42.0758
 20
106.464
 30
0.0
 40
0.254
 41
0.254
  0
VERTEX
  8
0
 10
39.2825
 20
105.702
 30
0.0
 40
0.254
 41
0.254
  0
VERTEX
  8
0
 10
36.5305
 20
104.728
 30
0.0
 40
0.254
 41
0.254
  0
VERTEX
  8
0
 10
33.8212
 20
103.627
 30
0.0
 40
0.254
 41
0.254
  0
VERTEX
  8
0
 10
31.196
 20
102.399
 30
0.0
 40
0.254
 41
0.254
  0
VERTEX
  8
0
 10
28.6136
 20
101.003
 30
0.0
 40
0.254
 41
0.254
  0
VERTEX
  8
0
 10
26.1166
 20
99.4791
 30
0.0
 40
0.254
 41
0.254
  0
VERTEX
  8
0
 10
23.7036
 20
97.8284
 30
0.0
 40
0.254
 41
0.254
  0
VERTEX
  8
0
 10
21.4175
 20
96.0078
 30
0.0
 40
0.254
 41
0.254
  0
SEQEND
 8
0
  0
POLYLINE
  8
0
 62
     0
 66
     1
 10
0
 20
0
 30
0.0
 40
0.72
 41
0.72
  0
VERTEX
  8
0
 10
38.6472
 20
107.564
 30
0.0
 40
0.254
 41
0.254
  0
VERTEX
  8
0
 10
39.3665
 20
105.702
 30
0.0
 40
0.254
 41
0.254
  0
SEQEND
 8
0
  0
POLYLINE
  8
0
 62
     0
 66
     1
 10
0
 20
0
 30
0.0
 40
0.72
 41
0.72
  0
VERTEX
  8
0
 10
88.7691
 20
96.0078
 30
0.0
 40
0.254
 41
0.254
  0
VERTEX
  8
0
 10
86.4828
 20
97.8284
 30
0.0
 40
0.254
 41
0.254
  0
VERTEX
  8
0
 10
84.0701
 20
99.4791
 30
0.0
 40
0.254
 41
0.254
  0
VERTEX
  8
0
 10
81.5728
 20
101.003
 30
0.0
 40
0.254
 41
0.254
  0
VERTEX
  8
0
 10
78.9905
 20
102.399
 30
0.0
 40
0.254
 41
0.254
  0
VERTEX
  8
0
 10
76.3655
 20
103.627
 30
0.0
 40
0.254
 41
0.254
  0
VERTEX
  8
0
 10
73.6561
 20
104.728
 30
0.0
 40
0.254
 41
0.254
  0
VERTEX
  8
0
 10
70.9041
 20
105.702
 30
0.0
 40
0.254
 41
0.254
  0
VERTEX
  8
0
 10
68.1108
 20
106.464
 30
0.0
 40
0.254
 41
0.254
  0
VERTEX
  8
0
 10
65.2321
 20
107.141
 30
0.0
 40
0.254
 41
0.254
  0
VERTEX
  8
0
 10
62.3535
 20
107.607
 30
0.0
 40
0.254
 41
0.254
  0
VERTEX
  8
0
 10
59.4748
 20
107.946
 30
0.0
 40
0.254
 41
0.254
  0
VERTEX
  8
0
 10
56.5535
 20
108.073
 30
0.0
 40
0.254
 41
0.254
  0
VERTEX
  8
0
 10
53.6332
 20
108.073
 30
0.0
 40
0.254
 41
0.254
  0
VERTEX
  8
0
 10
50.7118
 20
107.946
 30
0.0
 40
0.254
 41
0.254
  0
VERTEX
  8
0
 10
47.8331
 20
107.607
 30
0.0
 40
0.254
 41
0.254
  0
VERTEX
  8
0
 10
44.9545
 20
107.141
 30
0.0
 40
0.254
 41
0.254
  0
VERTEX
  8
0
 10
42.0758
 20
106.464
 30
0.0
 40
0.254
 41
0.254
  0
VERTEX
  8
0
 10
39.2825
 20
105.702
 30
0.0
 40
0.254
 41
0.254
  0
VERTEX
  8
0
 10
36.5305
 20
104.728
 30
0.0
 40
0.254
 41
0.254
  0
VERTEX
  8
0
 10
33.8212
 20
103.627
 30
0.0
 40
0.254
 41
0.254
  0
VERTEX
  8
0
 10
31.196
 20
102.399
 30
0.0
 40
0.254
 41
0.254
  0
VERTEX
  8
0
 10
28.6136
 20
101.003
 30
0.0
 40
0.254
 41
0.254
  0
VERTEX
  8
0
 10
26.1166
 20
99.4791
 30
0.0
 40
0.254
 41
0.254
  0
VERTEX
  8
0
 10
23.7036
 20
97.8284
 30
0.0
 40
0.254
 41
0.254
  0
VERTEX
  8
0
 10
21.4175
 20
96.0078
 30
0.0
 40
0.254
 41
0.254
  0
SEQEND
 8
0
  0
POLYLINE
  8
0
 62
     0
 66
     1
 10
0
 20
0
 30
0.0
 70
     1
 40
0.72
 41
0.72
  0
VERTEX
  8
0
 10
71.5395
 20
107.564
 30
0.0
 40
0.254
 41
0.254
  0
VERTEX
  8
0
 10
70.8201
 20
105.702
 30
0.0
 40
0.254
 41
0.254
  0
VERTEX
  8
0
 10
71.5395
 20
107.564
 30
0.0
 40
0.254
 41
0.254
  0
SEQEND
 8
0
  0
POLYLINE
  8
0
 62
     0
 66
     1
 10
0
 20
0
 30
0.0
 40
0.72
 41
0.72
  0
VERTEX
  8
0
 10
88.7691
 20
96.0078
 30
0.0
 40
0.254
 41
0.254
  0
VERTEX
  8
0
 10
86.4828
 20
97.8284
 30
0.0
 40
0.254
 41
0.254
  0
VERTEX
  8
0
 10
84.0701
 20
99.4791
 30
0.0
 40
0.254
 41
0.254
  0
VERTEX
  8
0
 10
81.5728
 20
101.003
 30
0.0
 40
0.254
 41
0.254
  0
VERTEX
  8
0
 10
78.9905
 20
102.399
 30
0.0
 40
0.254
 41
0.254
  0
VERTEX
  8
0
 10
76.3655
 20
103.627
 30
0.0
 40
0.254
 41
0.254
  0
VERTEX
  8
0
 10
73.6561
 20
104.728
 30
0.0
 40
0.254
 41
0.254
  0
VERTEX
  8
0
 10
70.9041
 20
105.702
 30
0.0
 40
0.254
 41
0.254
  0
VERTEX
  8
0
 10
68.1108
 20
106.464
 30
0.0
 40
0.254
 41
0.254
  0
VERTEX
  8
0
 10
65.2321
 20
107.141
 30
0.0
 40
0.254
 41
0.254
  0
VERTEX
  8
0
 10
62.3535
 20
107.607
 30
0.0
 40
0.254
 41
0.254
  0
VERTEX
  8
0
 10
59.4748
 20
107.946
 30
0.0
 40
0.254
 41
0.254
  0
VERTEX
  8
0
 10
56.5535
 20
108.073
 30
0.0
 40
0.254
 41
0.254
  0
VERTEX
  8
0
 10
53.6332
 20
108.073
 30
0.0
 40
0.254
 41
0.254
  0
VERTEX
  8
0
 10
50.7118
 20
107.946
 30
0.0
 40
0.254
 41
0.254
  0
VERTEX
  8
0
 10
47.8331
 20
107.607
 30
0.0
 40
0.254
 41
0.254
  0
VERTEX
  8
0
 10
44.9545
 20
107.141
 30
0.0
 40
0.254
 41
0.254
  0
VERTEX
  8
0
 10
42.0758
 20
106.464
 30
0.0
 40
0.254
 41
0.254
  0
VERTEX
  8
0
 10
39.2825
 20
105.702
 30
0.0
 40
0.254
 41
0.254
  0
VERTEX
  8
0
 10
36.5305
 20
104.728
 30
0.0
 40
0.254
 41
0.254
  0
VERTEX
  8
0
 10
33.8212
 20
103.627
 30
0.0
 40
0.254
 41
0.254
  0
VERTEX
  8
0
 10
31.196
 20
102.399
 30
0.0
 40
0.254
 41
0.254
  0
VERTEX
  8
0
 10
28.6136
 20
101.003
 30
0.0
 40
0.254
 41
0.254
  0
VERTEX
  8
0
 10
26.1166
 20
99.4791
 30
0.0
 40
0.254
 41
0.254
  0
VERTEX
  8
0
 10
23.7036
 20
97.8284
 30
0.0
 40
0.254
 41
0.254
  0
VERTEX
  8
0
 10
21.4175
 20
96.0078
 30
0.0
 40
0.254
 41
0.254
  0
SEQEND
 8
0
  0
POLYLINE
  8
0
 62
     0
 66
     1
 10
0
 20
0
 30
0.0
 40
0.72
 41
0.72
  0
VERTEX
  8
0
 10
78.5248
 20
104.855
 30
0.0
 40
0.254
 41
0.254
  0
VERTEX
  8
0
 10
77.8055
 20
102.993
 30
0.0
 40
0.254
 41
0.254
  0
SEQEND
 8
0
  0
POLYLINE
  8
0
 62
     0
 66
     1
 10
0
 20
0
 30
0.0
 40
0.72
 41
0.72
  0
VERTEX
  8
0
 10
106.507
 20
74.6718
 30
0.0
 40
0.254
 41
0.254
  0
VERTEX
  8
0
 10
103.628
 20
73.7828
 30
0.0
 40
0.254
 41
0.254
  0
SEQEND
 8
0
  0
POLYLINE
  8
0
 62
     0
 66
     1
 10
0
 20
0
 30
0.0
 40
0.72
 41
0.72
  0
VERTEX
  8
0
 10
103.628
 20
76.3655
 30
0.0
 40
0.254
 41
0.254
  0
VERTEX
  8
0
 10
103.628
 20
33.8625
 30
0.0
 40
0.254
 41
0.254
  0
SEQEND
 8
0
  0
POLYLINE
  8
0
 62
     0
 66
     1
 10
0
 20
0
 30
0.0
 70
     1
 40
0.72
 41
0.72
  0
VERTEX
  8
0
 10
108.666
 20
67.4744
 30
0.0
 40
0.254
 41
0.254
  0
VERTEX
  8
0
 10
103.628
 20
65.9515
 30
0.0
 40
0.254
 41
0.254
  0
VERTEX
  8
0
 10
108.666
 20
67.4744
 30
0.0
 40
0.254
 41
0.254
  0
SEQEND
 8
0
  0
POLYLINE
  8
0
 62
     0
 66
     1
 10
0
 20
0
 30
0.0
 40
0.72
 41
0.72
  0
VERTEX
  8
0
 10
103.628
 20
76.3655
 30
0.0
 40
0.254
 41
0.254
  0
VERTEX
  8
0
 10
103.628
 20
33.8625
 30
0.0
 40
0.254
 41
0.254
  0
SEQEND
 8
0
  0
POLYLINE
  8
0
 62
     0
 66
     1
 10
0
 20
0
 30
0.0
 70
     1
 40
0.72
 41
0.72
  0
VERTEX
  8
0
 10
108.666
 20
42.7094
 30
0.0
 40
0.254
 41
0.254
  0
VERTEX
  8
0
 10
103.628
 20
44.2764
 30
0.0
 40
0.254
 41
0.254
  0
VERTEX
  8
0
 10
108.666
 20
42.7094
 30
0.0
 40
0.254
 41
0.254
  0
SEQEND
 8
0
  0
POLYLINE
  8
0
 62
     0
 66
     1
 10
0
 20
0
 30
0.0
 40
0.72
 41
0.72
  0
VERTEX
  8
0
 10
103.628
 20
76.3655
 30
0.0
 40
0.254
 41
0.254
  0
VERTEX
  8
0
 10
103.628
 20
33.8625
 30
0.0
 40
0.254
 41
0.254
  0
SEQEND
 8
0
  0
POLYLINE
  8
0
 62
     0
 66
     1
 10
0
 20
0
 30
0.0
 40
0.72
 41
0.72
  0
VERTEX
  8
0
 10
106.507
 20
35.5561
 30
0.0
 40
0.254
 41
0.254
  0
VERTEX
  8
0
 10
103.628
 20
36.4451
 30
0.0
 40
0.254
 41
0.254
  0
SEQEND
 8
0
  0
POLYLINE
  8
0
 62
     0
 66
     1
 10
0
 20
0
 30
0.0
 40
0.72
 41
0.72
  0
VERTEX
  8
0
 10
78.5248
 20
5.37161
 30
0.0
 40
0.254
 41
0.254
  0
VERTEX
  8
0
 10
77.8055
 20
7.2347
 30
0.0
 40
0.254
 41
0.254
  0
SEQEND
 8
0
  0
POLYLINE
  8
0
 62
     0
 66
     1
 10
0
 20
0
 30
0.0
 40
0.72
 41
0.72
  0
VERTEX
  8
0
 10
21.4175
 20
14.1773
 30
0.0
 40
0.254
 41
0.254
  0
VERTEX
  8
0
 10
23.7036
 20
12.3996
 30
0.0
 40
0.254
 41
0.254
  0
VERTEX
  8
0
 10
26.1166
 20
10.7487
 30
0.0
 40
0.254
 41
0.254
  0
VERTEX
  8
0
 10
28.6136
 20
9.18185
 30
0.0
 40
0.254
 41
0.254
  0
VERTEX
  8
0
 10
31.196
 20
7.82726
 30
0.0
 40
0.254
 41
0.254
  0
VERTEX
  8
0
 10
33.8212
 20
6.55669
 30
0.0
 40
0.254
 41
0.254
  0
VERTEX
  8
0
 10
36.5305
 20
5.45705
 30
0.0
 40
0.254
 41
0.254
  0
VERTEX
  8
0
 10
39.2825
 20
4.52547
 30
0.0
 40
0.254
 41
0.254
  0
VERTEX
  8
0
 10
42.0758
 20
3.72071
 30
0.0
 40
0.254
 41
0.254
  0
VERTEX
  8
0
 10
44.9545
 20
3.08543
 30
0.0
 40
0.254
 41
0.254
  0
VERTEX
  8
0
 10
47.8331
 20
2.61965
 30
0.0
 40
0.254
 41
0.254
  0
VERTEX
  8
0
 10
50.7118
 20
2.28203
 30
0.0
 40
0.254
 41
0.254
  0
VERTEX
  8
0
 10
53.6332
 20
2.11253
 30
0.0
 40
0.254
 41
0.254
  0
VERTEX
  8
0
 10
56.5535
 20
2.11253
 30
0.0
 40
0.254
 41
0.254
  0
VERTEX
  8
0
 10
59.4748
 20
2.28203
 30
0.0
 40
0.254
 41
0.254
  0
VERTEX
  8
0
 10
62.3535
 20
2.61965
 30
0.0
 40
0.254
 41
0.254
  0
VERTEX
  8
0
 10
65.2321
 20
3.08543
 30
0.0
 40
0.254
 41
0.254
  0
VERTEX
  8
0
 10
68.1108
 20
3.72071
 30
0.0
 40
0.254
 41
0.254
  0
VERTEX
  8
0
 10
70.9041
 20
4.52547
 30
0.0
 40
0.254
 41
0.254
  0
VERTEX
  8
0
 10
73.6561
 20
5.45705
 30
0.0
 40
0.254
 41
0.254
  0
VERTEX
  8
0
 10
76.3655
 20
6.55669
 30
0.0
 40
0.254
 41
0.254
  0
VERTEX
  8
0
 10
78.9905
 20
7.82726
 30
0.0
 40
0.254
 41
0.254
  0
VERTEX
  8
0
 10
81.5728
 20
9.18185
 30
0.0
 40
0.254
 41
0.254
  0
VERTEX
  8
0
 10
84.0701
 20
10.7487
 30
0.0
 40
0.254
 41
0.254
  0
VERTEX
  8
0
 10
86.4828
 20
12.3996
 30
0.0
 40
0.254
 41
0.254
  0
VERTEX
  8
0
 10
88.7691
 20
14.1773
 30
0.0
 40
0.254
 41
0.254
  0
SEQEND
 8
0
  0
POLYLINE
  8
0
 62
     0
 66
     1
 10
0
 20
0
 30
0.0
 70
     1
 40
0.72
 41
0.72
  0
VERTEX
  8
0
 10
71.5395
 20
2.61965
 30
0.0
 40
0.254
 41
0.254
  0
VERTEX
  8
0
 10
70.8201
 20
4.48275
 30
0.0
 40
0.254
 41
0.254
  0
VERTEX
  8
0
 10
71.5395
 20
2.61965
 30
0.0
 40
0.254
 41
0.254
  0
SEQEND
 8
0
  0
POLYLINE
  8
0
 62
     0
 66
     1
 10
0
 20
0
 30
0.0
 40
0.72
 41
0.72
  0
VERTEX
  8
0
 10
21.4175
 20
14.1773
 30
0.0
 40
0.254
 41
0.254
  0
VERTEX
  8
0
 10
23.7036
 20
12.3996
 30
0.0
 40
0.254
 41
0.254
  0
VERTEX
  8
0
 10
26.1166
 20
10.7487
 30
0.0
 40
0.254
 41
0.254
  0
VERTEX
  8
0
 10
28.6136
 20
9.18185
 30
0.0
 40
0.254
 41
0.254
  0
VERTEX
  8
0
 10
31.196
 20
7.82726
 30
0.0
 40
0.254
 41
0.254
  0
VERTEX
  8
0
 10
33.8212
 20
6.55669
 30
0.0
 40
0.254
 41
0.254
  0
VERTEX
  8
0
 10
36.5305
 20
5.45705
 30
0.0
 40
0.254
 41
0.254
  0
VERTEX
  8
0
 10
39.2825
 20
4.52547
 30
0.0
 40
0.254
 41
0.254
  0
VERTEX
  8
0
 10
42.0758
 20
3.72071
 30
0.0
 40
0.254
 41
0.254
  0
VERTEX
  8
0
 10
44.9545
 20
3.08543
 30
0.0
 40
0.254
 41
0.254
  0
VERTEX
  8
0
 10
47.8331
 20
2.61965
 30
0.0
 40
0.254
 41
0.254
  0
VERTEX
  8
0
 10
50.7118
 20
2.28203
 30
0.0
 40
0.254
 41
0.254
  0
VERTEX
  8
0
 10
53.6332
 20
2.11253
 30
0.0
 40
0.254
 41
0.254
  0
VERTEX
  8
0
 10
56.5535
 20
2.11253
 30
0.0
 40
0.254
 41
0.254
  0
VERTEX
  8
0
 10
59.4748
 20
2.28203
 30
0.0
 40
0.254
 41
0.254
  0
VERTEX
  8
0
 10
62.3535
 20
2.61965
 30
0.0
 40
0.254
 41
0.254
  0
VERTEX
  8
0
 10
65.2321
 20
3.08543
 30
0.0
 40
0.254
 41
0.254
  0
VERTEX
  8
0
 10
68.1108
 20
3.72071
 30
0.0
 40
0.254
 41
0.254
  0
VERTEX
  8
0
 10
70.9041
 20
4.52547
 30
0.0
 40
0.254
 41
0.254
  0
VERTEX
  8
0
 10
73.6561
 20
5.45705
 30
0.0
 40
0.254
 41
0.254
  0
VERTEX
  8
0
 10
76.3655
 20
6.55669
 30
0.0
 40
0.254
 41
0.254
  0
VERTEX
  8
0
 10
78.9905
 20
7.82726
 30
0.0
 40
0.254
 41
0.254
  0
VERTEX
  8
0
 10
81.5728
 20
9.18185
 30
0.0
 40
0.254
 41
0.254
  0
VERTEX
  8
0
 10
84.0701
 20
10.7487
 30
0.0
 40
0.254
 41
0.254
  0
VERTEX
  8
0
 10
86.4828
 20
12.3996
 30
0.0
 40
0.254
 41
0.254
  0
VERTEX
  8
0
 10
88.7691
 20
14.1773
 30
0.0
 40
0.254
 41
0.254
  0
SEQEND
 8
0
  0
POLYLINE
  8
0
 62
     0
 66
     1
 10
0
 20
0
 30
0.0
 70
     1
 40
0.72
 41
0.72
  0
VERTEX
  8
0
 10
38.6472
 20
2.61965
 30
0.0
 40
0.254
 41
0.254
  0
VERTEX
  8
0
 10
39.3665
 20
4.48275
 30
0.0
 40
0.254
 41
0.254
  0
VERTEX
  8
0
 10
38.6472
 20
2.61965
 30
0.0
 40
0.254
 41
0.254
  0
SEQEND
 8
0
  0
POLYLINE
  8
0
 62
     0
 66
     1
 10
0
 20
0
 30
0.0
 40
0.72
 41
0.72
  0
VERTEX
  8
0
 10
21.4175
 20
14.1773
 30
0.0
 40
0.254
 41
0.254
  0
VERTEX
  8
0
 10
23.7036
 20
12.3996
 30
0.0
 40
0.254
 41
0.254
  0
VERTEX
  8
0
 10
26.1166
 20
10.7487
 30
0.0
 40
0.254
 41
0.254
  0
VERTEX
  8
0
 10
28.6136
 20
9.18185
 30
0.0
 40
0.254
 41
0.254
  0
VERTEX
  8
0
 10
31.196
 20
7.82726
 30
0.0
 40
0.254
 41
0.254
  0
VERTEX
  8
0
 10
33.8212
 20
6.55669
 30
0.0
 40
0.254
 41
0.254
  0
VERTEX
  8
0
 10
36.5305
 20
5.45705
 30
0.0
 40
0.254
 41
0.254
  0
VERTEX
  8
0
 10
39.2825
 20
4.52547
 30
0.0
 40
0.254
 41
0.254
  0
VERTEX
  8
0
 10
42.0758
 20
3.72071
 30
0.0
 40
0.254
 41
0.254
  0
VERTEX
  8
0
 10
44.9545
 20
3.08543
 30
0.0
 40
0.254
 41
0.254
  0
VERTEX
  8
0
 10
47.8331
 20
2.61965
 30
0.0
 40
0.254
 41
0.254
  0
VERTEX
  8
0
 10
50.7118
 20
2.28203
 30
0.0
 40
0.254
 41
0.254
  0
VERTEX
  8
0
 10
53.6332
 20
2.11253
 30
0.0
 40
0.254
 41
0.254
  0
VERTEX
  8
0
 10
56.5535
 20
2.11253
 30
0.0
 40
0.254
 41
0.254
  0
VERTEX
  8
0
 10
59.4748
 20
2.28203
 30
0.0
 40
0.254
 41
0.254
  0
VERTEX
  8
0
 10
62.3535
 20
2.61965
 30
0.0
 40
0.254
 41
0.254
  0
VERTEX
  8
0
 10
65.2321
 20
3.08543
 30
0.0
 40
0.254
 41
0.254
  0
VERTEX
  8
0
 10
68.1108
 20
3.72071
 30
0.0
 40
0.254
 41
0.254
  0
VERTEX
  8
0
 10
70.9041
 20
4.52547
 30
0.0
 40
0.254
 41
0.254
  0
VERTEX
  8
0
 10
73.6561
 20
5.45705
 30
0.0
 40
0.254
 41
0.254
  0
VERTEX
  8
0
 10
76.3655
 20
6.55669
 30
0.0
 40
0.254
 41
0.254
  0
VERTEX
  8
0
 10
78.9905
 20
7.82726
 30
0.0
 40
0.254
 41
0.254
  0
VERTEX
  8
0
 10
81.5728
 20
9.18185
 30
0.0
 40
0.254
 41
0.254
  0
VERTEX
  8
0
 10
84.0701
 20
10.7487
 30
0.0
 40
0.254
 41
0.254
  0
VERTEX
  8
0
 10
86.4828
 20
12.3996
 30
0.0
 40
0.254
 41
0.254
  0
VERTEX
  8
0
 10
88.7691
 20
14.1773
 30
0.0
 40
0.254
 41
0.254
  0
SEQEND
 8
0
  0
POLYLINE
  8
0
 62
     0
 66
     1
 10
0
 20
0
 30
0.0
 40
0.72
 41
0.72
  0
VERTEX
  8
0
 10
31.6618
 20
5.37161
 30
0.0
 40
0.254
 41
0.254
  0
VERTEX
  8
0
 10
32.3812
 20
7.2347
 30
0.0
 40
0.254
 41
0.254
  0
SEQEND
 8
0
  0
POLYLINE
  8
0
 62
     0
 66
     1
 10
0
 20
0
 30
0.0
 40
0.72
 41
0.72
  0
VERTEX
  8
0
 10
1.51997
 20
42.7094
 30
0.0
 40
0.254
 41
0.254
  0
VERTEX
  8
0
 10
6.55807
 20
44.2764
 30
0.0
 40
0.254
 41
0.254
  0
SEQEND
 8
0
  0
POLYLINE
  8
0
 62
     0
 66
     1
 10
0
 20
0
 30
0.0
 40
0.72
 41
0.72
  0
VERTEX
  8
0
 10
6.55807
 20
33.8625
 30
0.0
 40
0.254
 41
0.254
  0
VERTEX
  8
0
 10
6.55807
 20
76.3655
 30
0.0
 40
0.254
 41
0.254
  0
SEQEND
 8
0
  0
POLYLINE
  8
0
 62
     0
 66
     1
 10
0
 20
0
 30
0.0
 70
     1
 40
0.72
 41
0.72
  0
VERTEX
  8
0
 10
1.51997
 20
67.4744
 30
0.0
 40
0.254
 41
0.254
  0
VERTEX
  8
0
 10
6.55807
 20
65.9515
 30
0.0
 40
0.254
 41
0.254
  0
VERTEX
  8
0
 10
1.51997
 20
67.4744
 30
0.0
 40
0.254
 41
0.254
  0
SEQEND
 8
0
  0
POLYLINE
  8
0
 62
     0
 66
     1
 10
0
 20
0
 30
0.0
 40
0.72
 41
0.72
  0
VERTEX
  8
0
 10
6.55807
 20
33.8625
 30
0.0
 40
0.254
 41
0.254
  0
VERTEX
  8
0
 10
6.55807
 20
76.3655
 30
0.0
 40
0.254
 41
0.254
  0
SEQEND
 8
0
  0
POLYLINE
  8
0
 62
     0
 66
     1
 10
0
 20
0
 30
0.0
 40
0.72
 41
0.72
  0
VERTEX
  8
0
 10
3.67937
 20
74.6718
 30
0.0
 40
0.254
 41
0.254
  0
VERTEX
  8
0
 10
6.55807
 20
73.7828
 30
0.0
 40
0.254
 41
0.254
  0
SEQEND
 8
0
  0
POLYLINE
  8
0
 62
     0
 66
     1
 10
0
 20
0
 30
0.0
 40
0.72
 41
0.72
  0
VERTEX
  8
0
 10
3.67937
 20
35.5561
 30
0.0
 40
0.254
 41
0.254
  0
VERTEX
  8
0
 10
6.55807
 20
36.4451
 30
0.0
 40
0.254
 41
0.254
  0
SEQEND
 8
0
  0
POLYLINE
  8
0
 62
     0
 66
     1
 10
0
 20
0
 30
0.0
 40
0.72
 41
0.72
  0
VERTEX
  8
0
 10
6.55807
 20
33.8625
 30
0.0
 40
0.254
 41
0.254
  0
VERTEX
  8
0
 10
6.55807
 20
76.3655
 30
0.0
 40
0.254
 41
0.254
  0
SEQEND
 8
0
  0
POLYLINE
  8
0
 62
     0
 66
     1
 10
0
 20
0
 30
0.0
 40
0.72
 41
0.72
  0
VERTEX
  8
0
 10
1.51997
 20
42.7094
 30
0.0
 40
0.254
 41
0.254
  0
VERTEX
  8
0
 10
6.55807
 20
44.2764
 30
0.0
 40
0.254
 41
0.254
  0
SEQEND
 8
0
  0
POLYLINE
  8
0
 62
     0
 66
     1
 10
0
 20
0
 30
0.0
 40
0.72
 41
0.72
  0
VERTEX
  8
0
 10
91.8175
 20
71.0311
 30
0.0
 40
0.254
 41
0.254
  0
VERTEX
  8
0
 10
89.8275
 20
71.0311
 30
0.0
 40
0.254
 41
0.254
  0
VERTEX
  8
0
 10
89.8275
 20
96.0078
 30
0.0
 40
0.254
 41
0.254
  0
VERTEX
  8
0
 10
88.7691
 20
96.0078
 30
0.0
 40
0.254
 41
0.254
  0
VERTEX
  8
0
 10
86.4828
 20
97.8284
 30
0.0
 40
0.254
 41
0.254
  0
VERTEX
  8
0
 10
84.0701
 20
99.4791
 30
0.0
 40
0.254
 41
0.254
  0
VERTEX
  8
0
 10
81.5728
 20
101.003
 30
0.0
 40
0.254
 41
0.254
  0
VERTEX
  8
0
 10
78.9905
 20
102.399
 30
0.0
 40
0.254
 41
0.254
  0
VERTEX
  8
0
 10
76.3655
 20
103.627
 30
0.0
 40
0.254
 41
0.254
  0
VERTEX
  8
0
 10
73.6561
 20
104.728
 30
0.0
 40
0.254
 41
0.254
  0
VERTEX
  8
0
 10
70.9041
 20
105.702
 30
0.0
 40
0.254
 41
0.254
  0
VERTEX
  8
0
 10
68.1108
 20
106.464
 30
0.0
 40
0.254
 41
0.254
  0
VERTEX
  8
0
 10
65.2321
 20
107.141
 30
0.0
 40
0.254
 41
0.254
  0
VERTEX
  8
0
 10
62.3535
 20
107.607
 30
0.0
 40
0.254
 41
0.254
  0
VERTEX
  8
0
 10
59.4748
 20
107.946
 30
0.0
 40
0.254
 41
0.254
  0
VERTEX
  8
0
 10
56.5535
 20
108.073
 30
0.0
 40
0.254
 41
0.254
  0
VERTEX
  8
0
 10
53.6332
 20
108.073
 30
0.0
 40
0.254
 41
0.254
  0
VERTEX
  8
0
 10
50.7118
 20
107.946
 30
0.0
 40
0.254
 41
0.254
  0
VERTEX
  8
0
 10
47.8331
 20
107.607
 30
0.0
 40
0.254
 41
0.254
  0
VERTEX
  8
0
 10
44.9545
 20
107.141
 30
0.0
 40
0.254
 41
0.254
  0
VERTEX
  8
0
 10
42.0758
 20
106.464
 30
0.0
 40
0.254
 41
0.254
  0
VERTEX
  8
0
 10
39.2825
 20
105.702
 30
0.0
 40
0.254
 41
0.254
  0
VERTEX
  8
0
 10
36.5305
 20
104.728
 30
0.0
 40
0.254
 41
0.254
  0
VERTEX
  8
0
 10
33.8212
 20
103.627
 30
0.0
 40
0.254
 41
0.254
  0
VERTEX
  8
0
 10
31.196
 20
102.399
 30
0.0
 40
0.254
 41
0.254
  0
VERTEX
  8
0
 10
28.6136
 20
101.003
 30
0.0
 40
0.254
 41
0.254
  0
VERTEX
  8
0
 10
26.1166
 20
99.4791
 30
0.0
 40
0.254
 41
0.254
  0
VERTEX
  8
0
 10
23.7036
 20
97.8284
 30
0.0
 40
0.254
 41
0.254
  0
VERTEX
  8
0
 10
21.4175
 20
96.0078
 30
0.0
 40
0.254
 41
0.254
  0
VERTEX
  8
0
 10
20.3591
 20
96.0078
 30
0.0
 40
0.254
 41
0.254
  0
VERTEX
  8
0
 10
20.3591
 20
71.0311
 30
0.0
 40
0.254
 41
0.254
  0
VERTEX
  8
0
 10
18.3692
 20
71.0311
 30
0.0
 40
0.254
 41
0.254
  0
VERTEX
  8
0
 10
18.3692
 20
93.2988
 30
0.0
 40
0.254
 41
0.254
  0
VERTEX
  8
0
 10
16.2526
 20
91.1821
 30
0.0
 40
0.254
 41
0.254
  0
VERTEX
  8
0
 10
14.3054
 20
88.9385
 30
0.0
 40
0.254
 41
0.254
  0
VERTEX
  8
0
 10
12.485
 20
86.6098
 30
0.0
 40
0.254
 41
0.254
  0
VERTEX
  8
0
 10
10.7914
 20
84.1968
 30
0.0
 40
0.254
 41
0.254
  0
VERTEX
  8
0
 10
9.22457
 20
81.6571
 30
0.0
 40
0.254
 41
0.254
  0
VERTEX
  8
0
 10
7.82863
 20
79.0317
 30
0.0
 40
0.254
 41
0.254
  0
VERTEX
  8
0
 10
6.55807
 20
76.3655
 30
0.0
 40
0.254
 41
0.254
  0
VERTEX
  8
0
 10
6.55807
 20
33.8625
 30
0.0
 40
0.254
 41
0.254
  0
VERTEX
  8
0
 10
7.82863
 20
31.1533
 30
0.0
 40
0.254
 41
0.254
  0
VERTEX
  8
0
 10
9.22457
 20
28.5709
 30
0.0
 40
0.254
 41
0.254
  0
VERTEX
  8
0
 10
10.7914
 20
26.0312
 30
0.0
 40
0.254
 41
0.254
  0
VERTEX
  8
0
 10
12.485
 20
23.6182
 30
0.0
 40
0.254
 41
0.254
  0
VERTEX
  8
0
 10
14.3054
 20
21.2466
 30
0.0
 40
0.254
 41
0.254
  0
VERTEX
  8
0
 10
16.2526
 20
19.0459
 30
0.0
 40
0.254
 41
0.254
  0
VERTEX
  8
0
 10
18.3692
 20
16.9292
 30
0.0
 40
0.254
 41
0.254
  0
VERTEX
  8
0
 10
18.3692
 20
39.1968
 30
0.0
 40
0.254
 41
0.254
  0
SEQEND
 8
0
  0
POLYLINE
  8
0
 62
     0
 66
     1
 10
0
 20
0
 30
0.0
 40
0.72
 41
0.72
  0
VERTEX
  8
0
 10
91.8175
 20
39.1968
 30
0.0
 40
0.254
 41
0.254
  0
VERTEX
  8
0
 10
89.8275
 20
39.1968
 30
0.0
 40
0.254
 41
0.254
  0
VERTEX
  8
0
 10
89.8275
 20
14.1773
 30
0.0
 40
0.254
 41
0.254
  0
VERTEX
  8
0
 10
88.7691
 20
14.1773
 30
0.0
 40
0.254
 41
0.254
  0
SEQEND
 8
0
  0
POLYLINE
  8
0
 62
     0
 66
     1
 10
0
 20
0
 30
0.0
 40
0.72
 41
0.72
  0
VERTEX
  8
0
 10
21.4175
 20
14.1773
 30
0.0
 40
0.254
 41
0.254
  0
VERTEX
  8
0
 10
23.7036
 20
12.3996
 30
0.0
 40
0.254
 41
0.254
  0
VERTEX
  8
0
 10
26.1166
 20
10.7487
 30
0.0
 40
0.254
 41
0.254
  0
VERTEX
  8
0
 10
28.6136
 20
9.18185
 30
0.0
 40
0.254
 41
0.254
  0
VERTEX
  8
0
 10
31.196
 20
7.82726
 30
0.0
 40
0.254
 41
0.254
  0
VERTEX
  8
0
 10
33.8212
 20
6.55669
 30
0.0
 40
0.254
 41
0.254
  0
VERTEX
  8
0
 10
36.5305
 20
5.45705
 30
0.0
 40
0.254
 41
0.254
  0
VERTEX
  8
0
 10
39.2825
 20
4.52547
 30
0.0
 40
0.254
 41
0.254
  0
VERTEX
  8
0
 10
42.0758
 20
3.72071
 30
0.0
 40
0.254
 41
0.254
  0
VERTEX
  8
0
 10
44.9545
 20
3.08543
 30
0.0
 40
0.254
 41
0.254
  0
VERTEX
  8
0
 10
47.8331
 20
2.61965
 30
0.0
 40
0.254
 41
0.254
  0
VERTEX
  8
0
 10
50.7118
 20
2.28203
 30
0.0
 40
0.254
 41
0.254
  0
VERTEX
  8
0
 10
53.6332
 20
2.11253
 30
0.0
 40
0.254
 41
0.254
  0
VERTEX
  8
0
 10
56.5535
 20
2.11253
 30
0.0
 40
0.254
 41
0.254
  0
VERTEX
  8
0
 10
59.4748
 20
2.28203
 30
0.0
 40
0.254
 41
0.254
  0
VERTEX
  8
0
 10
62.3535
 20
2.61965
 30
0.0
 40
0.254
 41
0.254
  0
VERTEX
  8
0
 10
65.2321
 20
3.08543
 30
0.0
 40
0.254
 41
0.254
  0
VERTEX
  8
0
 10
68.1108
 20
3.72071
 30
0.0
 40
0.254
 41
0.254
  0
VERTEX
  8
0
 10
70.9041
 20
4.52547
 30
0.0
 40
0.254
 41
0.254
  0
VERTEX
  8
0
 10
73.6561
 20
5.45705
 30
0.0
 40
0.254
 41
0.254
  0
VERTEX
  8
0
 10
76.3655
 20
6.55669
 30
0.0
 40
0.254
 41
0.254
  0
VERTEX
  8
0
 10
78.9905
 20
7.82726
 30
0.0
 40
0.254
 41
0.254
  0
VERTEX
  8
0
 10
81.5728
 20
9.18185
 30
0.0
 40
0.254
 41
0.254
  0
VERTEX
  8
0
 10
84.0701
 20
10.7487
 30
0.0
 40
0.254
 41
0.254
  0
VERTEX
  8
0
 10
86.4828
 20
12.3996
 30
0.0
 40
0.254
 41
0.254
  0
VERTEX
  8
0
 10
88.7691
 20
14.1773
 30
0.0
 40
0.254
 41
0.254
  0
SEQEND
 8
0
  0
POLYLINE
  8
0
 62
     0
 66
     1
 10
0
 20
0
 30
0.0
 40
0.72
 41
0.72
  0
VERTEX
  8
0
 10
21.4175
 20
14.1773
 30
0.0
 40
0.254
 41
0.254
  0
VERTEX
  8
0
 10
20.3591
 20
14.1773
 30
0.0
 40
0.254
 41
0.254
  0
VERTEX
  8
0
 10
20.3591
 20
39.1968
 30
0.0
 40
0.254
 41
0.254
  0
VERTEX
  8
0
 10
18.3692
 20
39.1968
 30
0.0
 40
0.254
 41
0.254
  0
SEQEND
 8
0
  0
POLYLINE
  8
0
 62
     0
 66
     1
 10
0
 20
0
 30
0.0
 70
     1
 40
0.72
 41
0.72
  0
VERTEX
  8
0
 10
18.3692
 20
66.0358
 30
0.0
 40
0.254
 41
0.254
  0
VERTEX
  8
0
 10
20.3591
 20
66.0358
 30
0.0
 40
0.254
 41
0.254
  0
VERTEX
  8
0
 10
20.3591
 20
44.1911
 30
0.0
 40
0.254
 41
0.254
  0
VERTEX
  8
0
 10
18.3692
 20
44.1911
 30
0.0
 40
0.254
 41
0.254
  0
VERTEX
  8
0
 10
18.3692
 20
66.0358
 30
0.0
 40
0.254
 41
0.254
  0
SEQEND
 8
0
  0
POLYLINE
  8
0
 62
     0
 66
     1
 10
0
 20
0
 30
0.0
 70
     1
 40
0.72
 41
0.72
  0
VERTEX
  8
0
 10
89.8275
 20
66.0358
 30
0.0
 40
0.254
 41
0.254
  0
VERTEX
  8
0
 10
91.8175
 20
66.0358
 30
0.0
 40
0.254
 41
0.254
  0
VERTEX
  8
0
 10
91.8175
 20
44.1911
 30
0.0
 40
0.254
 41
0.254
  0
VERTEX
  8
0
 10
89.8275
 20
44.1911
 30
0.0
 40
0.254
 41
0.254
  0
VERTEX
  8
0
 10
89.8275
 20
66.0358
 30
0.0
 40
0.254
 41
0.254
  0
SEQEND
 8
0
  0
POLYLINE
  8
0
 62
     0
 66
     1
 10
0
 20
0
 30
0.0
 40
0.72
 41
0.72
  0
VERTEX
  8
0
 10
91.8175
 20
71.0311
 30
0.0
 40
0.254
 41
0.254
  0
VERTEX
  8
0
 10
91.8175
 20
93.2988
 30
0.0
 40
0.254
 41
0.254
  0
SEQEND
 8
0
  0
POLYLINE
  8
0
 62
     0
 66
     1
 10
0
 20
0
 30
0.0
 40
0.72
 41
0.72
  0
VERTEX
  8
0
 10
103.628
 20
76.3655
 30
0.0
 40
0.254
 41
0.254
  0
VERTEX
  8
0
 10
102.358
 20
79.0317
 30
0.0
 40
0.254
 41
0.254
  0
VERTEX
  8
0
 10
100.962
 20
81.6571
 30
0.0
 40
0.254
 41
0.254
  0
VERTEX
  8
0
 10
99.3951
 20
84.1968
 30
0.0
 40
0.254
 41
0.254
  0
VERTEX
  8
0
 10
97.7015
 20
86.6098
 30
0.0
 40
0.254
 41
0.254
  0
VERTEX
  8
0
 10
95.8811
 20
88.9385
 30
0.0
 40
0.254
 41
0.254
  0
VERTEX
  8
0
 10
93.9341
 20
91.1821
 30
0.0
 40
0.254
 41
0.254
  0
VERTEX
  8
0
 10
91.8175
 20
93.2988
 30
0.0
 40
0.254
 41
0.254
  0
SEQEND
 8
0
  0
POLYLINE
  8
0
 62
     0
 66
     1
 10
0
 20
0
 30
0.0
 40
0.72
 41
0.72
  0
VERTEX
  8
0
 10
103.628
 20
76.3655
 30
0.0
 40
0.254
 41
0.254
  0
VERTEX
  8
0
 10
103.628
 20
33.8625
 30
0.0
 40
0.254
 41
0.254
  0
SEQEND
 8
0
  0
POLYLINE
  8
0
 62
     0
 66
     1
 10
0
 20
0
 30
0.0
 40
0.72
 41
0.72
  0
VERTEX
  8
0
 10
91.8175
 20
16.9292
 30
0.0
 40
0.254
 41
0.254
  0
VERTEX
  8
0
 10
93.9341
 20
19.0459
 30
0.0
 40
0.254
 41
0.254
  0
VERTEX
  8
0
 10
95.8811
 20
21.2466
 30
0.0
 40
0.254
 41
0.254
  0
VERTEX
  8
0
 10
97.7015
 20
23.6182
 30
0.0
 40
0.254
 41
0.254
  0
VERTEX
  8
0
 10
99.3951
 20
26.0312
 30
0.0
 40
0.254
 41
0.254
  0
VERTEX
  8
0
 10
100.962
 20
28.5709
 30
0.0
 40
0.254
 41
0.254
  0
VERTEX
  8
0
 10
102.358
 20
31.1533
 30
0.0
 40
0.254
 41
0.254
  0
VERTEX
  8
0
 10
103.628
 20
33.8625
 30
0.0
 40
0.254
 41
0.254
  0
SEQEND
 8
0
  0
POLYLINE
  8
0
 62
     0
 66
     1
 10
0
 20
0
 30
0.0
 40
0.72
 41
0.72
  0
VERTEX
  8
0
 10
91.8175
 20
16.9292
 30
0.0
 40
0.254
 41
0.254
  0
VERTEX
  8
0
 10
91.8175
 20
39.1968
 30
0.0
 40
0.254
 41
0.254
  0
SEQEND
 8
0
  0
POLYLINE
  8
0
 62
     0
 66
     1
 10
0
 20
0
 30
0.0
 70
     1
 40
0.72
 41
0.72
  0
VERTEX
  8
0
 10
55.0718
 20
0.122645
 30
0.0
 40
0.254
 41
0.254
  0
VERTEX
  8
0
 10
58.0775
 20
0.206706
 30
0.0
 40
0.254
 41
0.254
  0
VERTEX
  8
0
 10
61.0415
 20
0.418924
 30
0.0
 40
0.254
 41
0.254
  0
VERTEX
  8
0
 10
64.0045
 20
0.841982
 30
0.0
 40
0.254
 41
0.254
  0
VERTEX
  8
0
 10
66.9258
 20
1.3932
 30
0.0
 40
0.254
 41
0.254
  0
VERTEX
  8
0
 10
69.8045
 20
2.11253
 30
0.0
 40
0.254
 41
0.254
  0
VERTEX
  8
0
 10
72.6405
 20
3.00137
 30
0.0
 40
0.254
 41
0.254
  0
VERTEX
  8
0
 10
75.4338
 20
4.01697
 30
0.0
 40
0.254
 41
0.254
  0
VERTEX
  8
0
 10
78.1858
 20
5.2021
 30
0.0
 40
0.254
 41
0.254
  0
VERTEX
  8
0
 10
80.8535
 20
6.51538
 30
0.0
 40
0.254
 41
0.254
  0
VERTEX
  8
0
 10
83.4362
 20
7.99677
 30
0.0
 40
0.254
 41
0.254
  0
VERTEX
  8
0
 10
85.9331
 20
9.56359
 30
0.0
 40
0.254
 41
0.254
  0
VERTEX
  8
0
 10
88.3888
 20
11.3412
 30
0.0
 40
0.254
 41
0.254
  0
VERTEX
  8
0
 10
90.6748
 20
13.203
 30
0.0
 40
0.254
 41
0.254
  0
VERTEX
  8
0
 10
92.9185
 20
15.1929
 30
0.0
 40
0.254
 41
0.254
  0
VERTEX
  8
0
 10
95.0352
 20
17.2682
 30
0.0
 40
0.254
 41
0.254
  0
VERTEX
  8
0
 10
96.9821
 20
19.5116
 30
0.0
 40
0.254
 41
0.254
  0
VERTEX
  8
0
 10
98.8868
 20
21.8391
 30
0.0
 40
0.254
 41
0.254
  0
VERTEX
  8
0
 10
100.623
 20
24.2521
 30
0.0
 40
0.254
 41
0.254
  0
VERTEX
  8
0
 10
102.19
 20
26.7505
 30
0.0
 40
0.254
 41
0.254
  0
VERTEX
  8
0
 10
103.671
 20
29.3329
 30
0.0
 40
0.254
 41
0.254
  0
VERTEX
  8
0
 10
104.983
 20
31.9994
 30
0.0
 40
0.254
 41
0.254
  0
VERTEX
  8
0
 10
106.168
 20
34.7514
 30
0.0
 40
0.254
 41
0.254
  0
VERTEX
  8
0
 10
107.184
 20
37.5447
 30
0.0
 40
0.254
 41
0.254
  0
VERTEX
  8
0
 10
108.074
 20
40.3821
 30
0.0
 40
0.254
 41
0.254
  0
VERTEX
  8
0
 10
108.793
 20
43.3021
 30
0.0
 40
0.254
 41
0.254
  0
VERTEX
  8
0
 10
109.343
 20
46.2234
 30
0.0
 40
0.254
 41
0.254
  0
VERTEX
  8
0
 10
109.766
 20
49.1451
 30
0.0
 40
0.254
 41
0.254
  0
VERTEX
  8
0
 10
110.021
 20
52.1077
 30
0.0
 40
0.254
 41
0.254
  0
VERTEX
  8
0
 10
110.062
 20
55.1134
 30
0.0
 40
0.254
 41
0.254
  0
VERTEX
  8
0
 10
110.021
 20
58.0775
 30
0.0
 40
0.254
 41
0.254
  0
VERTEX
  8
0
 10
109.766
 20
61.0401
 30
0.0
 40
0.254
 41
0.254
  0
VERTEX
  8
0
 10
109.343
 20
64.0031
 30
0.0
 40
0.254
 41
0.254
  0
VERTEX
  8
0
 10
108.793
 20
66.9244
 30
0.0
 40
0.254
 41
0.254
  0
VERTEX
  8
0
 10
108.074
 20
69.8031
 30
0.0
 40
0.254
 41
0.254
  0
VERTEX
  8
0
 10
107.184
 20
72.6817
 30
0.0
 40
0.254
 41
0.254
  0
VERTEX
  8
0
 10
106.168
 20
75.4765
 30
0.0
 40
0.254
 41
0.254
  0
VERTEX
  8
0
 10
104.983
 20
78.1858
 30
0.0
 40
0.254
 41
0.254
  0
VERTEX
  8
0
 10
103.671
 20
80.8524
 30
0.0
 40
0.254
 41
0.254
  0
VERTEX
  8
0
 10
102.19
 20
83.4775
 30
0.0
 40
0.254
 41
0.254
  0
VERTEX
  8
0
 10
100.623
 20
85.9744
 30
0.0
 40
0.254
 41
0.254
  0
VERTEX
  8
0
 10
98.8868
 20
88.3874
 30
0.0
 40
0.254
 41
0.254
  0
VERTEX
  8
0
 10
96.9821
 20
90.7161
 30
0.0
 40
0.254
 41
0.254
  0
VERTEX
  8
0
 10
95.0352
 20
92.9171
 30
0.0
 40
0.254
 41
0.254
  0
VERTEX
  8
0
 10
92.9185
 20
95.0337
 30
0.0
 40
0.254
 41
0.254
  0
VERTEX
  8
0
 10
90.6748
 20
97.0234
 30
0.0
 40
0.254
 41
0.254
  0
VERTEX
  8
0
 10
88.3888
 20
98.8868
 30
0.0
 40
0.254
 41
0.254
  0
VERTEX
  8
0
 10
85.9331
 20
100.622
 30
0.0
 40
0.254
 41
0.254
  0
VERTEX
  8
0
 10
83.4362
 20
102.231
 30
0.0
 40
0.254
 41
0.254
  0
VERTEX
  8
0
 10
80.8535
 20
103.712
 30
0.0
 40
0.254
 41
0.254
  0
VERTEX
  8
0
 10
78.1858
 20
105.024
 30
0.0
 40
0.254
 41
0.254
  0
VERTEX
  8
0
 10
75.4338
 20
106.209
 30
0.0
 40
0.254
 41
0.254
  0
VERTEX
  8
0
 10
72.6405
 20
107.226
 30
0.0
 40
0.254
 41
0.254
  0
VERTEX
  8
0
 10
69.8045
 20
108.115
 30
0.0
 40
0.254
 41
0.254
  0
VERTEX
  8
0
 10
66.9258
 20
108.835
 30
0.0
 40
0.254
 41
0.254
  0
VERTEX
  8
0
 10
64.0045
 20
109.384
 30
0.0
 40
0.254
 41
0.254
  0
VERTEX
  8
0
 10
61.0415
 20
109.766
 30
0.0
 40
0.254
 41
0.254
  0
VERTEX
  8
0
 10
58.0775
 20
110.02
 30
0.0
 40
0.254
 41
0.254
  0
VERTEX
  8
0
 10
55.0718
 20
110.105
 30
0.0
 40
0.254
 41
0.254
  0
VERTEX
  8
0
 10
52.1092
 20
110.02
 30
0.0
 40
0.254
 41
0.254
  0
VERTEX
  8
0
 10
49.1451
 20
109.766
 30
0.0
 40
0.254
 41
0.254
  0
VERTEX
  8
0
 10
46.1821
 20
109.384
 30
0.0
 40
0.254
 41
0.254
  0
VERTEX
  8
0
 10
43.2608
 20
108.835
 30
0.0
 40
0.254
 41
0.254
  0
VERTEX
  8
0
 10
40.3821
 20
108.115
 30
0.0
 40
0.254
 41
0.254
  0
VERTEX
  8
0
 10
37.5461
 20
107.226
 30
0.0
 40
0.254
 41
0.254
  0
VERTEX
  8
0
 10
34.7527
 20
106.209
 30
0.0
 40
0.254
 41
0.254
  0
VERTEX
  8
0
 10
32.0008
 20
105.024
 30
0.0
 40
0.254
 41
0.254
  0
VERTEX
  8
0
 10
29.3329
 20
103.712
 30
0.0
 40
0.254
 41
0.254
  0
VERTEX
  8
0
 10
26.7505
 20
102.231
 30
0.0
 40
0.254
 41
0.254
  0
VERTEX
  8
0
 10
24.2535
 20
100.622
 30
0.0
 40
0.254
 41
0.254
  0
VERTEX
  8
0
 10
21.7978
 20
98.8868
 30
0.0
 40
0.254
 41
0.254
  0
VERTEX
  8
0
 10
19.5116
 20
97.0234
 30
0.0
 40
0.254
 41
0.254
  0
VERTEX
  8
0
 10
17.2682
 20
95.0337
 30
0.0
 40
0.254
 41
0.254
  0
VERTEX
  8
0
 10
15.1515
 20
92.9171
 30
0.0
 40
0.254
 41
0.254
  0
VERTEX
  8
0
 10
13.2044
 20
90.7161
 30
0.0
 40
0.254
 41
0.254
  0
VERTEX
  8
0
 10
11.2999
 20
88.3874
 30
0.0
 40
0.254
 41
0.254
  0
VERTEX
  8
0
 10
9.56359
 20
85.9744
 30
0.0
 40
0.254
 41
0.254
  0
VERTEX
  8
0
 10
7.99814
 20
83.4775
 30
0.0
 40
0.254
 41
0.254
  0
VERTEX
  8
0
 10
6.51538
 20
80.8524
 30
0.0
 40
0.254
 41
0.254
  0
VERTEX
  8
0
 10
5.20347
 20
78.1858
 30
0.0
 40
0.254
 41
0.254
  0
VERTEX
  8
0
 10
4.01835
 20
75.4765
 30
0.0
 40
0.254
 41
0.254
  0
VERTEX
  8
0
 10
3.00275
 20
72.6817
 30
0.0
 40
0.254
 41
0.254
  0
VERTEX
  8
0
 10
2.11253
 20
69.8031
 30
0.0
 40
0.254
 41
0.254
  0
VERTEX
  8
0
 10
1.3932
 20
66.9244
 30
0.0
 40
0.254
 41
0.254
  0
VERTEX
  8
0
 10
0.843358
 20
64.0031
 30
0.0
 40
0.254
 41
0.254
  0
VERTEX
  8
0
 10
0.420303
 20
61.0401
 30
0.0
 40
0.254
 41
0.254
  0
VERTEX
  8
0
 10
0.165365
 20
58.0775
 30
0.0
 40
0.254
 41
0.254
  0
VERTEX
  8
0
 10
0.124023
 20
55.1134
 30
0.0
 40
0.254
 41
0.254
  0
VERTEX
  8
0
 10
0.165365
 20
52.1077
 30
0.0
 40
0.254
 41
0.254
  0
VERTEX
  8
0
 10
0.420303
 20
49.1451
 30
0.0
 40
0.254
 41
0.254
  0
VERTEX
  8
0
 10
0.843358
 20
46.2234
 30
0.0
 40
0.254
 41
0.254
  0
VERTEX
  8
0
 10
1.3932
 20
43.3021
 30
0.0
 40
0.254
 41
0.254
  0
VERTEX
  8
0
 10
2.11253
 20
40.3821
 30
0.0
 40
0.254
 41
0.254
  0
VERTEX
  8
0
 10
3.00275
 20
37.5447
 30
0.0
 40
0.254
 41
0.254
  0
VERTEX
  8
0
 10
4.01835
 20
34.7514
 30
0.0
 40
0.254
 41
0.254
  0
VERTEX
  8
0
 10
5.20347
 20
31.9994
 30
0.0
 40
0.254
 41
0.254
  0
VERTEX
  8
0
 10
6.51538
 20
29.3329
 30
0.0
 40
0.254
 41
0.254
  0
VERTEX
  8
0
 10
7.99814
 20
26.7505
 30
0.0
 40
0.254
 41
0.254
  0
VERTEX
  8
0
 10
9.56359
 20
24.2521
 30
0.0
 40
0.254
 41
0.254
  0
VERTEX
  8
0
 10
11.2999
 20
21.8391
 30
0.0
 40
0.254
 41
0.254
  0
VERTEX
  8
0
 10
13.2044
 20
19.5116
 30
0.0
 40
0.254
 41
0.254
  0
VERTEX
  8
0
 10
15.1515
 20
17.2682
 30
0.0
 40
0.254
 41
0.254
  0
VERTEX
  8
0
 10
17.2682
 20
15.1929
 30
0.0
 40
0.254
 41
0.254
  0
VERTEX
  8
0
 10
19.5116
 20
13.203
 30
0.0
 40
0.254
 41
0.254
  0
VERTEX
  8
0
 10
21.7978
 20
11.3412
 30
0.0
 40
0.254
 41
0.254
  0
VERTEX
  8
0
 10
24.2535
 20
9.56359
 30
0.0
 40
0.254
 41
0.254
  0
VERTEX
  8
0
 10
26.7505
 20
7.99677
 30
0.0
 40
0.254
 41
0.254
  0
VERTEX
  8
0
 10
29.3329
 20
6.51538
 30
0.0
 40
0.254
 41
0.254
  0
VERTEX
  8
0
 10
32.0008
 20
5.2021
 30
0.0
 40
0.254
 41
0.254
  0
VERTEX
  8
0
 10
34.7527
 20
4.01697
 30
0.0
 40
0.254
 41
0.254
  0
VERTEX
  8
0
 10
37.5461
 20
3.00137
 30
0.0
 40
0.254
 41
0.254
  0
VERTEX
  8
0
 10
40.3821
 20
2.11253
 30
0.0
 40
0.254
 41
0.254
  0
VERTEX
  8
0
 10
43.2608
 20
1.3932
 30
0.0
 40
0.254
 41
0.254
  0
VERTEX
  8
0
 10
46.1821
 20
0.841982
 30
0.0
 40
0.254
 41
0.254
  0
VERTEX
  8
0
 10
49.1451
 20
0.418924
 30
0.0
 40
0.254
 41
0.254
  0
VERTEX
  8
0
 10
52.1092
 20
0.206706
 30
0.0
 40
0.254
 41
0.254
  0
VERTEX
  8
0
 10
55.0718
 20
0.122645
 30
0.0
 40
0.254
 41
0.254
  0
SEQEND
 8
0
  0
ENDSEC
  0
EOF
